G04 #@! TF.GenerationSoftware,KiCad,Pcbnew,5.0.2+dfsg1-1*
G04 #@! TF.CreationDate,2020-04-26T19:31:52+02:00*
G04 #@! TF.ProjectId,iClone,69436c6f-6e65-42e6-9b69-6361645f7063,rev?*
G04 #@! TF.SameCoordinates,Original*
G04 #@! TF.FileFunction,Copper,L2,Bot*
G04 #@! TF.FilePolarity,Positive*
%FSLAX46Y46*%
G04 Gerber Fmt 4.6, Leading zero omitted, Abs format (unit mm)*
G04 Created by KiCad (PCBNEW 5.0.2+dfsg1-1) date dom 26 abr 2020 19:31:52 CEST*
%MOMM*%
%LPD*%
G01*
G04 APERTURE LIST*
G04 #@! TA.AperFunction,ComponentPad*
%ADD10C,5.700000*%
G04 #@! TD*
G04 #@! TA.AperFunction,ComponentPad*
%ADD11R,1.108000X1.108000*%
G04 #@! TD*
G04 #@! TA.AperFunction,ComponentPad*
%ADD12O,1.700000X1.950000*%
G04 #@! TD*
G04 #@! TA.AperFunction,Conductor*
%ADD13C,0.100000*%
G04 #@! TD*
G04 #@! TA.AperFunction,ComponentPad*
%ADD14C,1.700000*%
G04 #@! TD*
G04 APERTURE END LIST*
D10*
G04 #@! TO.P,,4*
G04 #@! TO.N,N/C*
X172085000Y-111760000D03*
G04 #@! TD*
G04 #@! TO.P,,3*
G04 #@! TO.N,N/C*
X110490000Y-111760000D03*
G04 #@! TD*
G04 #@! TO.P,,1*
G04 #@! TO.N,N/C*
X110490000Y-71120000D03*
G04 #@! TD*
D11*
G04 #@! TO.P,TTGO T-Display,P$24*
G04 #@! TO.N,N/C*
X165735000Y-99695000D03*
G04 #@! TO.P,TTGO T-Display,P$23*
X163195000Y-99695000D03*
G04 #@! TO.P,TTGO T-Display,P$22*
X160655000Y-99695000D03*
G04 #@! TO.P,TTGO T-Display,P$21*
X158115000Y-99695000D03*
G04 #@! TO.P,TTGO T-Display,P$20*
X155575000Y-99695000D03*
G04 #@! TO.P,TTGO T-Display,P$19*
X153035000Y-99695000D03*
G04 #@! TO.P,TTGO T-Display,P$18*
X150495000Y-99695000D03*
G04 #@! TO.P,TTGO T-Display,P$17*
X147955000Y-99695000D03*
G04 #@! TO.P,TTGO T-Display,P$16*
X145415000Y-99695000D03*
G04 #@! TO.P,TTGO T-Display,P$15*
X142875000Y-99695000D03*
G04 #@! TO.P,TTGO T-Display,P$14*
X140335000Y-99695000D03*
G04 #@! TO.P,TTGO T-Display,P$13*
X137795000Y-99695000D03*
G04 #@! TO.P,TTGO T-Display,P$12*
X137795000Y-76835000D03*
G04 #@! TO.P,TTGO T-Display,P$11*
X140335000Y-76835000D03*
G04 #@! TO.P,TTGO T-Display,P$10*
X142875000Y-76835000D03*
G04 #@! TO.P,TTGO T-Display,P$9*
X145415000Y-76835000D03*
G04 #@! TO.P,TTGO T-Display,P$8*
X147955000Y-76835000D03*
G04 #@! TO.P,TTGO T-Display,P$7*
X150495000Y-76835000D03*
G04 #@! TO.P,TTGO T-Display,P$6*
X153035000Y-76835000D03*
G04 #@! TO.P,TTGO T-Display,P$5*
X155575000Y-76835000D03*
G04 #@! TO.P,TTGO T-Display,P$4*
X158115000Y-76835000D03*
G04 #@! TO.P,TTGO T-Display,P$3*
X160655000Y-76835000D03*
G04 #@! TO.P,TTGO T-Display,P$2*
X163195000Y-76835000D03*
G04 #@! TO.P,TTGO T-Display,P$1*
X165735000Y-76835000D03*
G04 #@! TD*
D12*
G04 #@! TO.P,iButton,4*
G04 #@! TO.N,N/C*
X117990000Y-105410000D03*
G04 #@! TO.P,iButton,3*
X115490000Y-105410000D03*
G04 #@! TO.P,iButton,2*
X112990000Y-105410000D03*
D13*
G04 #@! TD*
G04 #@! TO.N,N/C*
G04 #@! TO.C,iButton*
G36*
X111114504Y-104436204D02*
X111138773Y-104439804D01*
X111162571Y-104445765D01*
X111185671Y-104454030D01*
X111207849Y-104464520D01*
X111228893Y-104477133D01*
X111248598Y-104491747D01*
X111266777Y-104508223D01*
X111283253Y-104526402D01*
X111297867Y-104546107D01*
X111310480Y-104567151D01*
X111320970Y-104589329D01*
X111329235Y-104612429D01*
X111335196Y-104636227D01*
X111338796Y-104660496D01*
X111340000Y-104685000D01*
X111340000Y-106135000D01*
X111338796Y-106159504D01*
X111335196Y-106183773D01*
X111329235Y-106207571D01*
X111320970Y-106230671D01*
X111310480Y-106252849D01*
X111297867Y-106273893D01*
X111283253Y-106293598D01*
X111266777Y-106311777D01*
X111248598Y-106328253D01*
X111228893Y-106342867D01*
X111207849Y-106355480D01*
X111185671Y-106365970D01*
X111162571Y-106374235D01*
X111138773Y-106380196D01*
X111114504Y-106383796D01*
X111090000Y-106385000D01*
X109890000Y-106385000D01*
X109865496Y-106383796D01*
X109841227Y-106380196D01*
X109817429Y-106374235D01*
X109794329Y-106365970D01*
X109772151Y-106355480D01*
X109751107Y-106342867D01*
X109731402Y-106328253D01*
X109713223Y-106311777D01*
X109696747Y-106293598D01*
X109682133Y-106273893D01*
X109669520Y-106252849D01*
X109659030Y-106230671D01*
X109650765Y-106207571D01*
X109644804Y-106183773D01*
X109641204Y-106159504D01*
X109640000Y-106135000D01*
X109640000Y-104685000D01*
X109641204Y-104660496D01*
X109644804Y-104636227D01*
X109650765Y-104612429D01*
X109659030Y-104589329D01*
X109669520Y-104567151D01*
X109682133Y-104546107D01*
X109696747Y-104526402D01*
X109713223Y-104508223D01*
X109731402Y-104491747D01*
X109751107Y-104477133D01*
X109772151Y-104464520D01*
X109794329Y-104454030D01*
X109817429Y-104445765D01*
X109841227Y-104439804D01*
X109865496Y-104436204D01*
X109890000Y-104435000D01*
X111090000Y-104435000D01*
X111114504Y-104436204D01*
X111114504Y-104436204D01*
G37*
D14*
G04 #@! TO.P,iButton,1*
G04 #@! TO.N,N/C*
X110490000Y-105410000D03*
G04 #@! TD*
D10*
G04 #@! TO.P,,2*
G04 #@! TO.N,N/C*
X172085000Y-71120000D03*
G04 #@! TD*
M02*
