G04 #@! TF.GenerationSoftware,KiCad,Pcbnew,5.0.2+dfsg1-1*
G04 #@! TF.CreationDate,2020-04-26T19:31:52+02:00*
G04 #@! TF.ProjectId,iClone,69436c6f-6e65-42e6-9b69-6361645f7063,rev?*
G04 #@! TF.SameCoordinates,Original*
G04 #@! TF.FileFunction,Legend,Top*
G04 #@! TF.FilePolarity,Positive*
%FSLAX46Y46*%
G04 Gerber Fmt 4.6, Leading zero omitted, Abs format (unit mm)*
G04 Created by KiCad (PCBNEW 5.0.2+dfsg1-1) date dom 26 abr 2020 19:31:52 CEST*
%MOMM*%
%LPD*%
G01*
G04 APERTURE LIST*
%ADD10C,0.150000*%
%ADD11C,0.120000*%
%ADD12C,0.127000*%
%ADD13C,0.010000*%
%ADD14C,0.015000*%
G04 APERTURE END LIST*
D10*
X107847380Y-92320476D02*
X108561666Y-92320476D01*
X108704523Y-92368095D01*
X108799761Y-92463333D01*
X108847380Y-92606190D01*
X108847380Y-92701428D01*
X108847380Y-91701428D02*
X108799761Y-91796666D01*
X108752142Y-91844285D01*
X108656904Y-91891904D01*
X108371190Y-91891904D01*
X108275952Y-91844285D01*
X108228333Y-91796666D01*
X108180714Y-91701428D01*
X108180714Y-91558571D01*
X108228333Y-91463333D01*
X108275952Y-91415714D01*
X108371190Y-91368095D01*
X108656904Y-91368095D01*
X108752142Y-91415714D01*
X108799761Y-91463333D01*
X108847380Y-91558571D01*
X108847380Y-91701428D01*
X108847380Y-90510952D02*
X108323571Y-90510952D01*
X108228333Y-90558571D01*
X108180714Y-90653809D01*
X108180714Y-90844285D01*
X108228333Y-90939523D01*
X108799761Y-90510952D02*
X108847380Y-90606190D01*
X108847380Y-90844285D01*
X108799761Y-90939523D01*
X108704523Y-90987142D01*
X108609285Y-90987142D01*
X108514047Y-90939523D01*
X108466428Y-90844285D01*
X108466428Y-90606190D01*
X108418809Y-90510952D01*
X108180714Y-90034761D02*
X108847380Y-90034761D01*
X108275952Y-90034761D02*
X108228333Y-89987142D01*
X108180714Y-89891904D01*
X108180714Y-89749047D01*
X108228333Y-89653809D01*
X108323571Y-89606190D01*
X108847380Y-89606190D01*
X108323571Y-88034761D02*
X108371190Y-87891904D01*
X108418809Y-87844285D01*
X108514047Y-87796666D01*
X108656904Y-87796666D01*
X108752142Y-87844285D01*
X108799761Y-87891904D01*
X108847380Y-87987142D01*
X108847380Y-88368095D01*
X107847380Y-88368095D01*
X107847380Y-88034761D01*
X107895000Y-87939523D01*
X107942619Y-87891904D01*
X108037857Y-87844285D01*
X108133095Y-87844285D01*
X108228333Y-87891904D01*
X108275952Y-87939523D01*
X108323571Y-88034761D01*
X108323571Y-88368095D01*
X108847380Y-87225238D02*
X108799761Y-87320476D01*
X108752142Y-87368095D01*
X108656904Y-87415714D01*
X108371190Y-87415714D01*
X108275952Y-87368095D01*
X108228333Y-87320476D01*
X108180714Y-87225238D01*
X108180714Y-87082380D01*
X108228333Y-86987142D01*
X108275952Y-86939523D01*
X108371190Y-86891904D01*
X108656904Y-86891904D01*
X108752142Y-86939523D01*
X108799761Y-86987142D01*
X108847380Y-87082380D01*
X108847380Y-87225238D01*
X108180714Y-86463333D02*
X108847380Y-86463333D01*
X108275952Y-86463333D02*
X108228333Y-86415714D01*
X108180714Y-86320476D01*
X108180714Y-86177619D01*
X108228333Y-86082380D01*
X108323571Y-86034761D01*
X108847380Y-86034761D01*
X108847380Y-85415714D02*
X108799761Y-85510952D01*
X108752142Y-85558571D01*
X108656904Y-85606190D01*
X108371190Y-85606190D01*
X108275952Y-85558571D01*
X108228333Y-85510952D01*
X108180714Y-85415714D01*
X108180714Y-85272857D01*
X108228333Y-85177619D01*
X108275952Y-85130000D01*
X108371190Y-85082380D01*
X108656904Y-85082380D01*
X108752142Y-85130000D01*
X108799761Y-85177619D01*
X108847380Y-85272857D01*
X108847380Y-85415714D01*
X108085476Y-83082380D02*
X108037857Y-83177619D01*
X108037857Y-83368095D01*
X108085476Y-83463333D01*
X108180714Y-83558571D01*
X108275952Y-83606190D01*
X108466428Y-83606190D01*
X108561666Y-83558571D01*
X108656904Y-83463333D01*
X108704523Y-83368095D01*
X108704523Y-83177619D01*
X108656904Y-83082380D01*
X107704523Y-83272857D02*
X107752142Y-83510952D01*
X107895000Y-83749047D01*
X108133095Y-83891904D01*
X108371190Y-83939523D01*
X108609285Y-83891904D01*
X108847380Y-83749047D01*
X108990238Y-83510952D01*
X109037857Y-83272857D01*
X108990238Y-83034761D01*
X108847380Y-82796666D01*
X108609285Y-82653809D01*
X108371190Y-82606190D01*
X108133095Y-82653809D01*
X107895000Y-82796666D01*
X107752142Y-83034761D01*
X107704523Y-83272857D01*
X109497380Y-95058571D02*
X110497380Y-94820476D01*
X109783095Y-94630000D01*
X110497380Y-94439523D01*
X109497380Y-94201428D01*
X110497380Y-93820476D02*
X109830714Y-93820476D01*
X109497380Y-93820476D02*
X109545000Y-93868095D01*
X109592619Y-93820476D01*
X109545000Y-93772857D01*
X109497380Y-93820476D01*
X109592619Y-93820476D01*
X109830714Y-93487142D02*
X109830714Y-93106190D01*
X109497380Y-93344285D02*
X110354523Y-93344285D01*
X110449761Y-93296666D01*
X110497380Y-93201428D01*
X110497380Y-93106190D01*
X110497380Y-92772857D02*
X109497380Y-92772857D01*
X110497380Y-92344285D02*
X109973571Y-92344285D01*
X109878333Y-92391904D01*
X109830714Y-92487142D01*
X109830714Y-92630000D01*
X109878333Y-92725238D01*
X109925952Y-92772857D01*
X110497380Y-91106190D02*
X109497380Y-91106190D01*
X109497380Y-90439523D01*
X110497380Y-90439523D01*
X110497380Y-91106190D01*
X109830714Y-89344285D02*
X109830714Y-88963333D01*
X110497380Y-89201428D02*
X109640238Y-89201428D01*
X109545000Y-89153809D01*
X109497380Y-89058571D01*
X109497380Y-88963333D01*
X110497380Y-88630000D02*
X109830714Y-88630000D01*
X110021190Y-88630000D02*
X109925952Y-88582380D01*
X109878333Y-88534761D01*
X109830714Y-88439523D01*
X109830714Y-88344285D01*
X110497380Y-87868095D02*
X110449761Y-87963333D01*
X110402142Y-88010952D01*
X110306904Y-88058571D01*
X110021190Y-88058571D01*
X109925952Y-88010952D01*
X109878333Y-87963333D01*
X109830714Y-87868095D01*
X109830714Y-87725238D01*
X109878333Y-87630000D01*
X109925952Y-87582380D01*
X110021190Y-87534761D01*
X110306904Y-87534761D01*
X110402142Y-87582380D01*
X110449761Y-87630000D01*
X110497380Y-87725238D01*
X110497380Y-87868095D01*
X110497380Y-87106190D02*
X109830714Y-87106190D01*
X109925952Y-87106190D02*
X109878333Y-87058571D01*
X109830714Y-86963333D01*
X109830714Y-86820476D01*
X109878333Y-86725238D01*
X109973571Y-86677619D01*
X110497380Y-86677619D01*
X109973571Y-86677619D02*
X109878333Y-86630000D01*
X109830714Y-86534761D01*
X109830714Y-86391904D01*
X109878333Y-86296666D01*
X109973571Y-86249047D01*
X110497380Y-86249047D01*
X110497380Y-85010952D02*
X109497380Y-85010952D01*
X109497380Y-84630000D01*
X109545000Y-84534761D01*
X109592619Y-84487142D01*
X109687857Y-84439523D01*
X109830714Y-84439523D01*
X109925952Y-84487142D01*
X109973571Y-84534761D01*
X110021190Y-84630000D01*
X110021190Y-85010952D01*
X110497380Y-84010952D02*
X109830714Y-84010952D01*
X110021190Y-84010952D02*
X109925952Y-83963333D01*
X109878333Y-83915714D01*
X109830714Y-83820476D01*
X109830714Y-83725238D01*
X110497380Y-82963333D02*
X109973571Y-82963333D01*
X109878333Y-83010952D01*
X109830714Y-83106190D01*
X109830714Y-83296666D01*
X109878333Y-83391904D01*
X110449761Y-82963333D02*
X110497380Y-83058571D01*
X110497380Y-83296666D01*
X110449761Y-83391904D01*
X110354523Y-83439523D01*
X110259285Y-83439523D01*
X110164047Y-83391904D01*
X110116428Y-83296666D01*
X110116428Y-83058571D01*
X110068809Y-82963333D01*
X109830714Y-82058571D02*
X110640238Y-82058571D01*
X110735476Y-82106190D01*
X110783095Y-82153809D01*
X110830714Y-82249047D01*
X110830714Y-82391904D01*
X110783095Y-82487142D01*
X110449761Y-82058571D02*
X110497380Y-82153809D01*
X110497380Y-82344285D01*
X110449761Y-82439523D01*
X110402142Y-82487142D01*
X110306904Y-82534761D01*
X110021190Y-82534761D01*
X109925952Y-82487142D01*
X109878333Y-82439523D01*
X109830714Y-82344285D01*
X109830714Y-82153809D01*
X109878333Y-82058571D01*
X109830714Y-81153809D02*
X110497380Y-81153809D01*
X109830714Y-81582380D02*
X110354523Y-81582380D01*
X110449761Y-81534761D01*
X110497380Y-81439523D01*
X110497380Y-81296666D01*
X110449761Y-81201428D01*
X110402142Y-81153809D01*
X110449761Y-80296666D02*
X110497380Y-80391904D01*
X110497380Y-80582380D01*
X110449761Y-80677619D01*
X110354523Y-80725238D01*
X109973571Y-80725238D01*
X109878333Y-80677619D01*
X109830714Y-80582380D01*
X109830714Y-80391904D01*
X109878333Y-80296666D01*
X109973571Y-80249047D01*
X110068809Y-80249047D01*
X110164047Y-80725238D01*
X141637142Y-114343571D02*
X141637142Y-113343571D01*
X141637142Y-112843571D02*
X141565714Y-112915000D01*
X141637142Y-112986428D01*
X141708571Y-112915000D01*
X141637142Y-112843571D01*
X141637142Y-112986428D01*
X143208571Y-114200714D02*
X143137142Y-114272142D01*
X142922857Y-114343571D01*
X142780000Y-114343571D01*
X142565714Y-114272142D01*
X142422857Y-114129285D01*
X142351428Y-113986428D01*
X142280000Y-113700714D01*
X142280000Y-113486428D01*
X142351428Y-113200714D01*
X142422857Y-113057857D01*
X142565714Y-112915000D01*
X142780000Y-112843571D01*
X142922857Y-112843571D01*
X143137142Y-112915000D01*
X143208571Y-112986428D01*
X144065714Y-114343571D02*
X143922857Y-114272142D01*
X143851428Y-114129285D01*
X143851428Y-112843571D01*
X144851428Y-114343571D02*
X144708571Y-114272142D01*
X144637142Y-114200714D01*
X144565714Y-114057857D01*
X144565714Y-113629285D01*
X144637142Y-113486428D01*
X144708571Y-113415000D01*
X144851428Y-113343571D01*
X145065714Y-113343571D01*
X145208571Y-113415000D01*
X145280000Y-113486428D01*
X145351428Y-113629285D01*
X145351428Y-114057857D01*
X145280000Y-114200714D01*
X145208571Y-114272142D01*
X145065714Y-114343571D01*
X144851428Y-114343571D01*
X145994285Y-113343571D02*
X145994285Y-114343571D01*
X145994285Y-113486428D02*
X146065714Y-113415000D01*
X146208571Y-113343571D01*
X146422857Y-113343571D01*
X146565714Y-113415000D01*
X146637142Y-113557857D01*
X146637142Y-114343571D01*
X147922857Y-114272142D02*
X147780000Y-114343571D01*
X147494285Y-114343571D01*
X147351428Y-114272142D01*
X147280000Y-114129285D01*
X147280000Y-113557857D01*
X147351428Y-113415000D01*
X147494285Y-113343571D01*
X147780000Y-113343571D01*
X147922857Y-113415000D01*
X147994285Y-113557857D01*
X147994285Y-113700714D01*
X147280000Y-113843571D01*
X196731428Y-85940000D02*
X195731428Y-85940000D01*
X197302857Y-85582857D02*
X196231428Y-85225714D01*
X196231428Y-86154285D01*
X195731428Y-86797142D02*
X195731428Y-87082857D01*
X195802857Y-87225714D01*
X195874285Y-87297142D01*
X196088571Y-87440000D01*
X196374285Y-87511428D01*
X196945714Y-87511428D01*
X197088571Y-87440000D01*
X197160000Y-87368571D01*
X197231428Y-87225714D01*
X197231428Y-86940000D01*
X197160000Y-86797142D01*
X197088571Y-86725714D01*
X196945714Y-86654285D01*
X196588571Y-86654285D01*
X196445714Y-86725714D01*
X196374285Y-86797142D01*
X196302857Y-86940000D01*
X196302857Y-87225714D01*
X196374285Y-87368571D01*
X196445714Y-87440000D01*
X196588571Y-87511428D01*
X195802857Y-88225714D02*
X195731428Y-88225714D01*
X195588571Y-88154285D01*
X195517142Y-88082857D01*
X197231428Y-89582857D02*
X197231428Y-88868571D01*
X196517142Y-88797142D01*
X196588571Y-88868571D01*
X196660000Y-89011428D01*
X196660000Y-89368571D01*
X196588571Y-89511428D01*
X196517142Y-89582857D01*
X196374285Y-89654285D01*
X196017142Y-89654285D01*
X195874285Y-89582857D01*
X195802857Y-89511428D01*
X195731428Y-89368571D01*
X195731428Y-89011428D01*
X195802857Y-88868571D01*
X195874285Y-88797142D01*
X197231428Y-90154285D02*
X197231428Y-91082857D01*
X196660000Y-90582857D01*
X196660000Y-90797142D01*
X196588571Y-90940000D01*
X196517142Y-91011428D01*
X196374285Y-91082857D01*
X196017142Y-91082857D01*
X195874285Y-91011428D01*
X195802857Y-90940000D01*
X195731428Y-90797142D01*
X195731428Y-90368571D01*
X195802857Y-90225714D01*
X195874285Y-90154285D01*
X197231428Y-92011428D02*
X197231428Y-92154285D01*
X197160000Y-92297142D01*
X197088571Y-92368571D01*
X196945714Y-92440000D01*
X196660000Y-92511428D01*
X196302857Y-92511428D01*
X196017142Y-92440000D01*
X195874285Y-92368571D01*
X195802857Y-92297142D01*
X195731428Y-92154285D01*
X195731428Y-92011428D01*
X195802857Y-91868571D01*
X195874285Y-91797142D01*
X196017142Y-91725714D01*
X196302857Y-91654285D01*
X196660000Y-91654285D01*
X196945714Y-91725714D01*
X197088571Y-91797142D01*
X197160000Y-91868571D01*
X197231428Y-92011428D01*
X195731428Y-94297142D02*
X196731428Y-94297142D01*
X196588571Y-94297142D02*
X196660000Y-94368571D01*
X196731428Y-94511428D01*
X196731428Y-94725714D01*
X196660000Y-94868571D01*
X196517142Y-94940000D01*
X195731428Y-94940000D01*
X196517142Y-94940000D02*
X196660000Y-95011428D01*
X196731428Y-95154285D01*
X196731428Y-95368571D01*
X196660000Y-95511428D01*
X196517142Y-95582857D01*
X195731428Y-95582857D01*
X195731428Y-96297142D02*
X196731428Y-96297142D01*
X196588571Y-96297142D02*
X196660000Y-96368571D01*
X196731428Y-96511428D01*
X196731428Y-96725714D01*
X196660000Y-96868571D01*
X196517142Y-96940000D01*
X195731428Y-96940000D01*
X196517142Y-96940000D02*
X196660000Y-97011428D01*
X196731428Y-97154285D01*
X196731428Y-97368571D01*
X196660000Y-97511428D01*
X196517142Y-97582857D01*
X195731428Y-97582857D01*
X194310000Y-66675000D02*
X194310000Y-116205000D01*
X172720000Y-66675000D02*
X194896421Y-66675000D01*
X172720000Y-116205000D02*
X194896421Y-116205000D01*
X194310000Y-116205000D02*
X193723579Y-115078496D01*
X194310000Y-116205000D02*
X194896421Y-115078496D01*
X194310000Y-66675000D02*
X193723579Y-67801504D01*
X194310000Y-66675000D02*
X194896421Y-67801504D01*
X135001785Y-48513571D02*
X136001785Y-48513571D01*
X135358928Y-50013571D01*
X136858928Y-48513571D02*
X137001785Y-48513571D01*
X137144642Y-48585000D01*
X137216071Y-48656428D01*
X137287500Y-48799285D01*
X137358928Y-49085000D01*
X137358928Y-49442142D01*
X137287500Y-49727857D01*
X137216071Y-49870714D01*
X137144642Y-49942142D01*
X137001785Y-50013571D01*
X136858928Y-50013571D01*
X136716071Y-49942142D01*
X136644642Y-49870714D01*
X136573214Y-49727857D01*
X136501785Y-49442142D01*
X136501785Y-49085000D01*
X136573214Y-48799285D01*
X136644642Y-48656428D01*
X136716071Y-48585000D01*
X136858928Y-48513571D01*
X138073214Y-49942142D02*
X138073214Y-50013571D01*
X138001785Y-50156428D01*
X137930357Y-50227857D01*
X139358928Y-49013571D02*
X139358928Y-50013571D01*
X139001785Y-48442142D02*
X138644642Y-49513571D01*
X139573214Y-49513571D01*
X140358928Y-49156428D02*
X140216071Y-49085000D01*
X140144642Y-49013571D01*
X140073214Y-48870714D01*
X140073214Y-48799285D01*
X140144642Y-48656428D01*
X140216071Y-48585000D01*
X140358928Y-48513571D01*
X140644642Y-48513571D01*
X140787500Y-48585000D01*
X140858928Y-48656428D01*
X140930357Y-48799285D01*
X140930357Y-48870714D01*
X140858928Y-49013571D01*
X140787500Y-49085000D01*
X140644642Y-49156428D01*
X140358928Y-49156428D01*
X140216071Y-49227857D01*
X140144642Y-49299285D01*
X140073214Y-49442142D01*
X140073214Y-49727857D01*
X140144642Y-49870714D01*
X140216071Y-49942142D01*
X140358928Y-50013571D01*
X140644642Y-50013571D01*
X140787500Y-49942142D01*
X140858928Y-49870714D01*
X140930357Y-49727857D01*
X140930357Y-49442142D01*
X140858928Y-49299285D01*
X140787500Y-49227857D01*
X140644642Y-49156428D01*
X142287500Y-48513571D02*
X141573214Y-48513571D01*
X141501785Y-49227857D01*
X141573214Y-49156428D01*
X141716071Y-49085000D01*
X142073214Y-49085000D01*
X142216071Y-49156428D01*
X142287500Y-49227857D01*
X142358928Y-49370714D01*
X142358928Y-49727857D01*
X142287500Y-49870714D01*
X142216071Y-49942142D01*
X142073214Y-50013571D01*
X141716071Y-50013571D01*
X141573214Y-49942142D01*
X141501785Y-49870714D01*
X144144642Y-50013571D02*
X144144642Y-49013571D01*
X144144642Y-49156428D02*
X144216071Y-49085000D01*
X144358928Y-49013571D01*
X144573214Y-49013571D01*
X144716071Y-49085000D01*
X144787500Y-49227857D01*
X144787500Y-50013571D01*
X144787500Y-49227857D02*
X144858928Y-49085000D01*
X145001785Y-49013571D01*
X145216071Y-49013571D01*
X145358928Y-49085000D01*
X145430357Y-49227857D01*
X145430357Y-50013571D01*
X146144642Y-50013571D02*
X146144642Y-49013571D01*
X146144642Y-49156428D02*
X146216071Y-49085000D01*
X146358928Y-49013571D01*
X146573214Y-49013571D01*
X146716071Y-49085000D01*
X146787500Y-49227857D01*
X146787500Y-50013571D01*
X146787500Y-49227857D02*
X146858928Y-49085000D01*
X147001785Y-49013571D01*
X147216071Y-49013571D01*
X147358928Y-49085000D01*
X147430357Y-49227857D01*
X147430357Y-50013571D01*
X106045000Y-51435000D02*
X176530000Y-51435000D01*
X106045000Y-71755000D02*
X106045000Y-50848579D01*
X176530000Y-71755000D02*
X176530000Y-50848579D01*
X176530000Y-51435000D02*
X175403496Y-52021421D01*
X176530000Y-51435000D02*
X175403496Y-50848579D01*
X106045000Y-51435000D02*
X107171504Y-52021421D01*
X106045000Y-51435000D02*
X107171504Y-50848579D01*
D11*
G04 #@! TO.C,R4*
X149257936Y-69575000D02*
X150462064Y-69575000D01*
X149257936Y-71395000D02*
X150462064Y-71395000D01*
G04 #@! TO.C,R1*
X141637936Y-71395000D02*
X142842064Y-71395000D01*
X141637936Y-69575000D02*
X142842064Y-69575000D01*
D12*
G04 #@! TO.C,TTGO T-Display*
X138303000Y-79756000D02*
X165481000Y-79756000D01*
X138303000Y-96901000D02*
X138303000Y-79756000D01*
X165481000Y-96901000D02*
X138303000Y-96901000D01*
X165481000Y-79756000D02*
X165481000Y-96901000D01*
X127254000Y-96393000D02*
G75*
G03X127254000Y-96393000I-1270000J0D01*
G01*
X127254000Y-80137000D02*
G75*
G03X127254000Y-80137000I-1270000J0D01*
G01*
X122555000Y-93345000D02*
X120015000Y-93345000D01*
X122555000Y-99695000D02*
X122555000Y-93345000D01*
X123825000Y-100965000D02*
X122555000Y-99695000D01*
X173355000Y-100965000D02*
X123825000Y-100965000D01*
X173355000Y-75565000D02*
X173355000Y-100965000D01*
X123825000Y-75565000D02*
X173355000Y-75565000D01*
X122555000Y-76835000D02*
X123825000Y-75565000D01*
X122555000Y-83185000D02*
X122555000Y-76835000D01*
X120015000Y-83185000D02*
X122555000Y-83185000D01*
X120015000Y-93345000D02*
X120015000Y-83185000D01*
D11*
G04 #@! TO.C,L2*
X155626749Y-108034908D02*
X151741749Y-108034908D01*
X151741749Y-108034908D02*
X151741749Y-110304908D01*
X151741749Y-110304908D02*
X155626749Y-110304908D01*
G04 #@! TO.C,R2*
X153424685Y-103814908D02*
X154628813Y-103814908D01*
X153424685Y-105634908D02*
X154628813Y-105634908D01*
G04 #@! TO.C,READ*
X158920000Y-110320000D02*
X158920000Y-105580000D01*
X158920000Y-110320000D02*
X159320000Y-110320000D01*
X158920000Y-105580000D02*
X159320000Y-105580000D01*
X163660000Y-110320000D02*
X163260000Y-110320000D01*
X163660000Y-110320000D02*
X163660000Y-105580000D01*
X163660000Y-105580000D02*
X163260000Y-105580000D01*
X162320000Y-105580000D02*
X160260000Y-105580000D01*
X162320000Y-110320000D02*
X160260000Y-110320000D01*
G04 #@! TO.C,WRITE*
X125900000Y-110320000D02*
X125900000Y-105580000D01*
X125900000Y-110320000D02*
X126300000Y-110320000D01*
X125900000Y-105580000D02*
X126300000Y-105580000D01*
X130640000Y-110320000D02*
X130240000Y-110320000D01*
X130640000Y-110320000D02*
X130640000Y-105580000D01*
X130640000Y-105580000D02*
X130240000Y-105580000D01*
X129300000Y-105580000D02*
X127240000Y-105580000D01*
X129300000Y-110320000D02*
X127240000Y-110320000D01*
G04 #@! TO.C,R2*
X135009685Y-105634908D02*
X136213813Y-105634908D01*
X135009685Y-103814908D02*
X136213813Y-103814908D01*
G04 #@! TO.C,L2*
X133326749Y-110304908D02*
X137211749Y-110304908D01*
X133326749Y-108034908D02*
X133326749Y-110304908D01*
X137211749Y-108034908D02*
X133326749Y-108034908D01*
G04 #@! TO.C,iButton*
X110790000Y-107510000D02*
X110490000Y-106910000D01*
X110190000Y-107510000D02*
X110790000Y-107510000D01*
X110490000Y-106910000D02*
X110190000Y-107510000D01*
X118310000Y-103820000D02*
X117990000Y-103820000D01*
X118310000Y-100400000D02*
X118310000Y-103820000D01*
X117990000Y-100320000D02*
X118310000Y-100400000D01*
X117670000Y-100400000D02*
X117990000Y-100320000D01*
X117670000Y-103820000D02*
X117670000Y-100400000D01*
X117990000Y-103820000D02*
X117670000Y-103820000D01*
X116660000Y-104820000D02*
X116820000Y-104820000D01*
X115810000Y-103820000D02*
X115490000Y-103820000D01*
X115810000Y-100400000D02*
X115810000Y-103820000D01*
X115490000Y-100320000D02*
X115810000Y-100400000D01*
X115170000Y-100400000D02*
X115490000Y-100320000D01*
X115170000Y-103820000D02*
X115170000Y-100400000D01*
X115490000Y-103820000D02*
X115170000Y-103820000D01*
X114160000Y-104820000D02*
X114320000Y-104820000D01*
X113310000Y-103820000D02*
X112990000Y-103820000D01*
X113310000Y-100400000D02*
X113310000Y-103820000D01*
X112990000Y-100320000D02*
X113310000Y-100400000D01*
X112670000Y-100400000D02*
X112990000Y-100320000D01*
X112670000Y-103820000D02*
X112670000Y-100400000D01*
X112990000Y-103820000D02*
X112670000Y-103820000D01*
X111660000Y-104820000D02*
X111820000Y-104820000D01*
X110810000Y-103820000D02*
X110490000Y-103820000D01*
X110810000Y-100400000D02*
X110810000Y-103820000D01*
X110490000Y-100320000D02*
X110810000Y-100400000D01*
X110170000Y-100400000D02*
X110490000Y-100320000D01*
X110170000Y-103820000D02*
X110170000Y-100400000D01*
X110490000Y-103820000D02*
X110170000Y-103820000D01*
X109100000Y-103820000D02*
X119380000Y-103820000D01*
X119380000Y-104820000D02*
X120600000Y-104820000D01*
X119380000Y-99820000D02*
X119380000Y-104820000D01*
X120600000Y-99820000D02*
X119380000Y-99820000D01*
X109100000Y-104820000D02*
X107880000Y-104820000D01*
X109100000Y-99820000D02*
X109100000Y-104820000D01*
X107880000Y-99820000D02*
X109100000Y-99820000D01*
X119380000Y-107020000D02*
X119380000Y-104820000D01*
X120600000Y-107020000D02*
X119380000Y-107020000D01*
X120600000Y-98600000D02*
X120600000Y-107020000D01*
X107880000Y-98600000D02*
X120600000Y-98600000D01*
X107880000Y-107020000D02*
X107880000Y-98600000D01*
X109100000Y-107020000D02*
X107880000Y-107020000D01*
X109100000Y-104820000D02*
X109100000Y-107020000D01*
D13*
G04 #@! TO.C,G\002A\002A\002A*
G36*
X147126347Y-111445108D02*
X147171833Y-111481761D01*
X147209742Y-111544529D01*
X147219118Y-111614255D01*
X147199606Y-111681330D01*
X147180273Y-111709303D01*
X147128966Y-111745843D01*
X147062902Y-111762936D01*
X146996615Y-111758108D01*
X146966263Y-111745758D01*
X146912904Y-111697731D01*
X146884766Y-111635324D01*
X146883105Y-111567563D01*
X146909177Y-111503479D01*
X146929230Y-111479297D01*
X146992556Y-111436064D01*
X147060230Y-111424687D01*
X147126347Y-111445108D01*
X147126347Y-111445108D01*
G37*
X147126347Y-111445108D02*
X147171833Y-111481761D01*
X147209742Y-111544529D01*
X147219118Y-111614255D01*
X147199606Y-111681330D01*
X147180273Y-111709303D01*
X147128966Y-111745843D01*
X147062902Y-111762936D01*
X146996615Y-111758108D01*
X146966263Y-111745758D01*
X146912904Y-111697731D01*
X146884766Y-111635324D01*
X146883105Y-111567563D01*
X146909177Y-111503479D01*
X146929230Y-111479297D01*
X146992556Y-111436064D01*
X147060230Y-111424687D01*
X147126347Y-111445108D01*
G36*
X142554613Y-111425097D02*
X142584920Y-111436251D01*
X142648483Y-111477335D01*
X142687306Y-111534109D01*
X142697200Y-111585171D01*
X142683031Y-111660721D01*
X142644787Y-111718591D01*
X142588858Y-111754891D01*
X142521636Y-111765731D01*
X142449510Y-111747222D01*
X142439392Y-111742071D01*
X142387761Y-111700226D01*
X142362515Y-111642002D01*
X142358533Y-111595547D01*
X142373939Y-111523522D01*
X142418692Y-111466938D01*
X142470813Y-111436251D01*
X142516139Y-111421750D01*
X142554613Y-111425097D01*
X142554613Y-111425097D01*
G37*
X142554613Y-111425097D02*
X142584920Y-111436251D01*
X142648483Y-111477335D01*
X142687306Y-111534109D01*
X142697200Y-111585171D01*
X142683031Y-111660721D01*
X142644787Y-111718591D01*
X142588858Y-111754891D01*
X142521636Y-111765731D01*
X142449510Y-111747222D01*
X142439392Y-111742071D01*
X142387761Y-111700226D01*
X142362515Y-111642002D01*
X142358533Y-111595547D01*
X142373939Y-111523522D01*
X142418692Y-111466938D01*
X142470813Y-111436251D01*
X142516139Y-111421750D01*
X142554613Y-111425097D01*
G36*
X148447229Y-106473241D02*
X148437754Y-106552974D01*
X148424648Y-106653797D01*
X148408783Y-106769821D01*
X148391032Y-106895158D01*
X148372269Y-107023920D01*
X148353365Y-107150218D01*
X148335194Y-107268164D01*
X148318630Y-107371869D01*
X148304544Y-107455445D01*
X148293809Y-107513003D01*
X148291503Y-107523742D01*
X148271226Y-107617471D01*
X148259539Y-107686906D01*
X148256406Y-107740506D01*
X148261796Y-107786727D01*
X148275674Y-107834027D01*
X148290130Y-107871586D01*
X148310948Y-107929993D01*
X148317894Y-107965366D01*
X148311456Y-107975267D01*
X148292121Y-107957257D01*
X148277223Y-107936190D01*
X148260014Y-107899740D01*
X148240209Y-107842895D01*
X148223228Y-107782287D01*
X148208752Y-107719156D01*
X148203447Y-107675692D01*
X148207287Y-107638969D01*
X148220244Y-107596059D01*
X148222841Y-107588663D01*
X148246940Y-107502224D01*
X148269764Y-107383429D01*
X148291130Y-107233770D01*
X148310851Y-107054739D01*
X148328745Y-106847829D01*
X148344625Y-106614531D01*
X148345845Y-106594062D01*
X148356906Y-106406525D01*
X148407830Y-106387303D01*
X148458755Y-106368081D01*
X148447229Y-106473241D01*
X148447229Y-106473241D01*
G37*
X148447229Y-106473241D02*
X148437754Y-106552974D01*
X148424648Y-106653797D01*
X148408783Y-106769821D01*
X148391032Y-106895158D01*
X148372269Y-107023920D01*
X148353365Y-107150218D01*
X148335194Y-107268164D01*
X148318630Y-107371869D01*
X148304544Y-107455445D01*
X148293809Y-107513003D01*
X148291503Y-107523742D01*
X148271226Y-107617471D01*
X148259539Y-107686906D01*
X148256406Y-107740506D01*
X148261796Y-107786727D01*
X148275674Y-107834027D01*
X148290130Y-107871586D01*
X148310948Y-107929993D01*
X148317894Y-107965366D01*
X148311456Y-107975267D01*
X148292121Y-107957257D01*
X148277223Y-107936190D01*
X148260014Y-107899740D01*
X148240209Y-107842895D01*
X148223228Y-107782287D01*
X148208752Y-107719156D01*
X148203447Y-107675692D01*
X148207287Y-107638969D01*
X148220244Y-107596059D01*
X148222841Y-107588663D01*
X148246940Y-107502224D01*
X148269764Y-107383429D01*
X148291130Y-107233770D01*
X148310851Y-107054739D01*
X148328745Y-106847829D01*
X148344625Y-106614531D01*
X148345845Y-106594062D01*
X148356906Y-106406525D01*
X148407830Y-106387303D01*
X148458755Y-106368081D01*
X148447229Y-106473241D01*
G36*
X148866208Y-107645427D02*
X148882696Y-107674440D01*
X148891699Y-107728170D01*
X148894567Y-107811012D01*
X148894568Y-107811413D01*
X148890138Y-107890246D01*
X148873886Y-107943870D01*
X148842038Y-107979976D01*
X148800847Y-108002233D01*
X148750071Y-108015241D01*
X148679807Y-108022975D01*
X148600859Y-108025428D01*
X148524025Y-108022589D01*
X148460107Y-108014448D01*
X148422530Y-108002569D01*
X148371069Y-107955884D01*
X148342222Y-107890185D01*
X148338055Y-107848400D01*
X148338910Y-107797600D01*
X148353410Y-107845986D01*
X148375398Y-107895005D01*
X148405902Y-107935418D01*
X148436592Y-107956958D01*
X148444457Y-107958207D01*
X148453814Y-107953413D01*
X148444368Y-107945507D01*
X148411409Y-107905268D01*
X148391339Y-107841912D01*
X148386800Y-107787963D01*
X148386800Y-107716833D01*
X148423509Y-107763502D01*
X148466215Y-107803595D01*
X148516099Y-107833518D01*
X148574669Y-107849339D01*
X148643985Y-107856048D01*
X148709851Y-107853261D01*
X148758068Y-107840598D01*
X148759090Y-107840063D01*
X148788026Y-107809401D01*
X148810661Y-107759860D01*
X148821721Y-107706409D01*
X148818684Y-107670866D01*
X148817083Y-107644024D01*
X148840541Y-107636734D01*
X148840883Y-107636733D01*
X148866208Y-107645427D01*
X148866208Y-107645427D01*
G37*
X148866208Y-107645427D02*
X148882696Y-107674440D01*
X148891699Y-107728170D01*
X148894567Y-107811012D01*
X148894568Y-107811413D01*
X148890138Y-107890246D01*
X148873886Y-107943870D01*
X148842038Y-107979976D01*
X148800847Y-108002233D01*
X148750071Y-108015241D01*
X148679807Y-108022975D01*
X148600859Y-108025428D01*
X148524025Y-108022589D01*
X148460107Y-108014448D01*
X148422530Y-108002569D01*
X148371069Y-107955884D01*
X148342222Y-107890185D01*
X148338055Y-107848400D01*
X148338910Y-107797600D01*
X148353410Y-107845986D01*
X148375398Y-107895005D01*
X148405902Y-107935418D01*
X148436592Y-107956958D01*
X148444457Y-107958207D01*
X148453814Y-107953413D01*
X148444368Y-107945507D01*
X148411409Y-107905268D01*
X148391339Y-107841912D01*
X148386800Y-107787963D01*
X148386800Y-107716833D01*
X148423509Y-107763502D01*
X148466215Y-107803595D01*
X148516099Y-107833518D01*
X148574669Y-107849339D01*
X148643985Y-107856048D01*
X148709851Y-107853261D01*
X148758068Y-107840598D01*
X148759090Y-107840063D01*
X148788026Y-107809401D01*
X148810661Y-107759860D01*
X148821721Y-107706409D01*
X148818684Y-107670866D01*
X148817083Y-107644024D01*
X148840541Y-107636734D01*
X148840883Y-107636733D01*
X148866208Y-107645427D01*
G36*
X141158040Y-106381187D02*
X141171243Y-106385522D01*
X141192868Y-106394090D01*
X141207356Y-106406121D01*
X141216685Y-106428142D01*
X141222833Y-106466680D01*
X141227778Y-106528262D01*
X141231277Y-106583608D01*
X141248201Y-106831417D01*
X141266309Y-107045943D01*
X141285670Y-107227749D01*
X141306352Y-107377400D01*
X141328424Y-107495460D01*
X141351956Y-107582493D01*
X141354091Y-107588663D01*
X141368351Y-107633514D01*
X141373496Y-107670329D01*
X141369500Y-107712037D01*
X141356337Y-107771564D01*
X141353704Y-107782287D01*
X141329318Y-107865464D01*
X141302981Y-107928434D01*
X141277065Y-107966340D01*
X141259366Y-107975400D01*
X141257593Y-107961304D01*
X141267427Y-107924520D01*
X141284755Y-107878033D01*
X141316433Y-107780771D01*
X141323638Y-107698621D01*
X141307500Y-107625199D01*
X141299437Y-107593614D01*
X141287625Y-107533414D01*
X141272808Y-107449552D01*
X141255727Y-107346981D01*
X141237124Y-107230654D01*
X141217743Y-107105522D01*
X141198326Y-106976539D01*
X141179615Y-106848657D01*
X141162353Y-106726830D01*
X141147282Y-106616010D01*
X141135144Y-106521149D01*
X141126683Y-106447201D01*
X141122640Y-106399118D01*
X141122400Y-106390458D01*
X141130089Y-106377249D01*
X141158040Y-106381187D01*
X141158040Y-106381187D01*
G37*
X141158040Y-106381187D02*
X141171243Y-106385522D01*
X141192868Y-106394090D01*
X141207356Y-106406121D01*
X141216685Y-106428142D01*
X141222833Y-106466680D01*
X141227778Y-106528262D01*
X141231277Y-106583608D01*
X141248201Y-106831417D01*
X141266309Y-107045943D01*
X141285670Y-107227749D01*
X141306352Y-107377400D01*
X141328424Y-107495460D01*
X141351956Y-107582493D01*
X141354091Y-107588663D01*
X141368351Y-107633514D01*
X141373496Y-107670329D01*
X141369500Y-107712037D01*
X141356337Y-107771564D01*
X141353704Y-107782287D01*
X141329318Y-107865464D01*
X141302981Y-107928434D01*
X141277065Y-107966340D01*
X141259366Y-107975400D01*
X141257593Y-107961304D01*
X141267427Y-107924520D01*
X141284755Y-107878033D01*
X141316433Y-107780771D01*
X141323638Y-107698621D01*
X141307500Y-107625199D01*
X141299437Y-107593614D01*
X141287625Y-107533414D01*
X141272808Y-107449552D01*
X141255727Y-107346981D01*
X141237124Y-107230654D01*
X141217743Y-107105522D01*
X141198326Y-106976539D01*
X141179615Y-106848657D01*
X141162353Y-106726830D01*
X141147282Y-106616010D01*
X141135144Y-106521149D01*
X141126683Y-106447201D01*
X141122640Y-106399118D01*
X141122400Y-106390458D01*
X141130089Y-106377249D01*
X141158040Y-106381187D01*
G36*
X140758218Y-107643958D02*
X140758735Y-107671226D01*
X140757716Y-107675494D01*
X140758064Y-107729659D01*
X140778134Y-107787704D01*
X140811606Y-107831863D01*
X140814032Y-107833781D01*
X140854926Y-107849363D01*
X140915593Y-107855450D01*
X140983300Y-107852055D01*
X141045315Y-107839191D01*
X141060834Y-107833518D01*
X141111446Y-107803044D01*
X141153423Y-107763502D01*
X141190133Y-107716833D01*
X141190133Y-107787690D01*
X141183144Y-107848269D01*
X141165968Y-107905213D01*
X141162416Y-107912741D01*
X141134700Y-107966933D01*
X141171139Y-107934444D01*
X141202716Y-107893859D01*
X141222728Y-107849777D01*
X141237878Y-107797600D01*
X141239406Y-107845007D01*
X141228002Y-107911856D01*
X141194177Y-107970138D01*
X141148273Y-108005970D01*
X141102218Y-108017509D01*
X141034045Y-108023762D01*
X140955068Y-108024863D01*
X140876597Y-108020945D01*
X140809947Y-108012144D01*
X140772366Y-108001515D01*
X140723448Y-107970973D01*
X140695015Y-107926860D01*
X140683134Y-107861536D01*
X140682133Y-107826230D01*
X140685890Y-107734416D01*
X140697516Y-107673761D01*
X140717549Y-107642359D01*
X140735372Y-107636733D01*
X140758218Y-107643958D01*
X140758218Y-107643958D01*
G37*
X140758218Y-107643958D02*
X140758735Y-107671226D01*
X140757716Y-107675494D01*
X140758064Y-107729659D01*
X140778134Y-107787704D01*
X140811606Y-107831863D01*
X140814032Y-107833781D01*
X140854926Y-107849363D01*
X140915593Y-107855450D01*
X140983300Y-107852055D01*
X141045315Y-107839191D01*
X141060834Y-107833518D01*
X141111446Y-107803044D01*
X141153423Y-107763502D01*
X141190133Y-107716833D01*
X141190133Y-107787690D01*
X141183144Y-107848269D01*
X141165968Y-107905213D01*
X141162416Y-107912741D01*
X141134700Y-107966933D01*
X141171139Y-107934444D01*
X141202716Y-107893859D01*
X141222728Y-107849777D01*
X141237878Y-107797600D01*
X141239406Y-107845007D01*
X141228002Y-107911856D01*
X141194177Y-107970138D01*
X141148273Y-108005970D01*
X141102218Y-108017509D01*
X141034045Y-108023762D01*
X140955068Y-108024863D01*
X140876597Y-108020945D01*
X140809947Y-108012144D01*
X140772366Y-108001515D01*
X140723448Y-107970973D01*
X140695015Y-107926860D01*
X140683134Y-107861536D01*
X140682133Y-107826230D01*
X140685890Y-107734416D01*
X140697516Y-107673761D01*
X140717549Y-107642359D01*
X140735372Y-107636733D01*
X140758218Y-107643958D01*
G36*
X141376400Y-106002666D02*
X141367933Y-106011133D01*
X141359466Y-106002666D01*
X141367933Y-105994200D01*
X141376400Y-106002666D01*
X141376400Y-106002666D01*
G37*
X141376400Y-106002666D02*
X141367933Y-106011133D01*
X141359466Y-106002666D01*
X141367933Y-105994200D01*
X141376400Y-106002666D01*
G36*
X148225658Y-106018603D02*
X148245503Y-106049039D01*
X148251333Y-106065170D01*
X148246568Y-106078343D01*
X148232930Y-106060147D01*
X148219909Y-106032300D01*
X148207652Y-106002029D01*
X148210390Y-105999923D01*
X148225658Y-106018603D01*
X148225658Y-106018603D01*
G37*
X148225658Y-106018603D02*
X148245503Y-106049039D01*
X148251333Y-106065170D01*
X148246568Y-106078343D01*
X148232930Y-106060147D01*
X148219909Y-106032300D01*
X148207652Y-106002029D01*
X148210390Y-105999923D01*
X148225658Y-106018603D01*
G36*
X147067608Y-106079413D02*
X147218867Y-106080296D01*
X147355377Y-106082049D01*
X147471530Y-106084693D01*
X147561717Y-106088251D01*
X147589665Y-106089963D01*
X147664453Y-106096050D01*
X147713067Y-106102956D01*
X147743170Y-106112907D01*
X147762426Y-106128131D01*
X147773773Y-106143448D01*
X147794525Y-106201629D01*
X147799382Y-106284483D01*
X147789263Y-106387286D01*
X147765085Y-106505314D01*
X147727768Y-106633843D01*
X147678229Y-106768147D01*
X147631866Y-106873512D01*
X147561372Y-107012811D01*
X147491532Y-107128589D01*
X147415930Y-107230447D01*
X147328433Y-107327700D01*
X147269779Y-107384244D01*
X147220676Y-107418491D01*
X147171688Y-107432535D01*
X147113375Y-107428472D01*
X147036299Y-107408398D01*
X147006733Y-107399127D01*
X146912219Y-107363944D01*
X146795105Y-107312396D01*
X146660691Y-107247319D01*
X146514275Y-107171546D01*
X146361158Y-107087913D01*
X146206639Y-106999254D01*
X146056016Y-106908404D01*
X145914589Y-106818198D01*
X145889133Y-106801324D01*
X145717378Y-106682545D01*
X145576194Y-106575882D01*
X145465696Y-106481460D01*
X145386002Y-106399402D01*
X145337227Y-106329835D01*
X145319488Y-106272884D01*
X145332901Y-106228674D01*
X145345088Y-106216141D01*
X145395866Y-106189010D01*
X145479359Y-106164273D01*
X145594489Y-106142108D01*
X145740179Y-106122697D01*
X145915350Y-106106218D01*
X146066933Y-106095801D01*
X146164398Y-106091193D01*
X146286374Y-106087304D01*
X146427251Y-106084157D01*
X146581422Y-106081773D01*
X146743277Y-106080174D01*
X146907208Y-106079380D01*
X147067608Y-106079413D01*
X147067608Y-106079413D01*
G37*
X147067608Y-106079413D02*
X147218867Y-106080296D01*
X147355377Y-106082049D01*
X147471530Y-106084693D01*
X147561717Y-106088251D01*
X147589665Y-106089963D01*
X147664453Y-106096050D01*
X147713067Y-106102956D01*
X147743170Y-106112907D01*
X147762426Y-106128131D01*
X147773773Y-106143448D01*
X147794525Y-106201629D01*
X147799382Y-106284483D01*
X147789263Y-106387286D01*
X147765085Y-106505314D01*
X147727768Y-106633843D01*
X147678229Y-106768147D01*
X147631866Y-106873512D01*
X147561372Y-107012811D01*
X147491532Y-107128589D01*
X147415930Y-107230447D01*
X147328433Y-107327700D01*
X147269779Y-107384244D01*
X147220676Y-107418491D01*
X147171688Y-107432535D01*
X147113375Y-107428472D01*
X147036299Y-107408398D01*
X147006733Y-107399127D01*
X146912219Y-107363944D01*
X146795105Y-107312396D01*
X146660691Y-107247319D01*
X146514275Y-107171546D01*
X146361158Y-107087913D01*
X146206639Y-106999254D01*
X146056016Y-106908404D01*
X145914589Y-106818198D01*
X145889133Y-106801324D01*
X145717378Y-106682545D01*
X145576194Y-106575882D01*
X145465696Y-106481460D01*
X145386002Y-106399402D01*
X145337227Y-106329835D01*
X145319488Y-106272884D01*
X145332901Y-106228674D01*
X145345088Y-106216141D01*
X145395866Y-106189010D01*
X145479359Y-106164273D01*
X145594489Y-106142108D01*
X145740179Y-106122697D01*
X145915350Y-106106218D01*
X146066933Y-106095801D01*
X146164398Y-106091193D01*
X146286374Y-106087304D01*
X146427251Y-106084157D01*
X146581422Y-106081773D01*
X146743277Y-106080174D01*
X146907208Y-106079380D01*
X147067608Y-106079413D01*
G36*
X142865387Y-106080393D02*
X143033512Y-106082230D01*
X143192811Y-106084981D01*
X143337187Y-106088622D01*
X143460544Y-106093128D01*
X143521392Y-106096204D01*
X143715924Y-106110386D01*
X143882605Y-106128667D01*
X144020315Y-106150818D01*
X144127937Y-106176607D01*
X144204351Y-106205805D01*
X144248440Y-106238179D01*
X144254618Y-106247362D01*
X144258479Y-106289875D01*
X144232853Y-106345742D01*
X144178933Y-106413973D01*
X144097908Y-106493575D01*
X143990971Y-106583557D01*
X143859312Y-106682926D01*
X143704123Y-106790691D01*
X143526595Y-106905860D01*
X143327918Y-107027441D01*
X143292755Y-107048304D01*
X143207914Y-107096301D01*
X143106623Y-107150254D01*
X142995973Y-107206710D01*
X142883054Y-107262215D01*
X142774955Y-107313317D01*
X142678768Y-107356561D01*
X142601583Y-107388494D01*
X142572654Y-107399032D01*
X142488782Y-107424159D01*
X142425569Y-107432748D01*
X142373342Y-107423319D01*
X142322423Y-107394389D01*
X142272656Y-107353100D01*
X142193593Y-107270717D01*
X142116438Y-107169308D01*
X142042952Y-107053427D01*
X141974894Y-106927631D01*
X141914023Y-106796472D01*
X141862102Y-106664506D01*
X141820889Y-106536288D01*
X141792144Y-106416372D01*
X141777627Y-106309312D01*
X141779099Y-106219664D01*
X141798320Y-106151981D01*
X141804451Y-106141478D01*
X141818943Y-106123327D01*
X141838733Y-106110891D01*
X141870704Y-106102468D01*
X141921737Y-106096355D01*
X141998713Y-106090852D01*
X142012684Y-106089989D01*
X142105741Y-106085810D01*
X142226551Y-106082696D01*
X142369017Y-106080622D01*
X142527043Y-106079564D01*
X142694531Y-106079496D01*
X142865387Y-106080393D01*
X142865387Y-106080393D01*
G37*
X142865387Y-106080393D02*
X143033512Y-106082230D01*
X143192811Y-106084981D01*
X143337187Y-106088622D01*
X143460544Y-106093128D01*
X143521392Y-106096204D01*
X143715924Y-106110386D01*
X143882605Y-106128667D01*
X144020315Y-106150818D01*
X144127937Y-106176607D01*
X144204351Y-106205805D01*
X144248440Y-106238179D01*
X144254618Y-106247362D01*
X144258479Y-106289875D01*
X144232853Y-106345742D01*
X144178933Y-106413973D01*
X144097908Y-106493575D01*
X143990971Y-106583557D01*
X143859312Y-106682926D01*
X143704123Y-106790691D01*
X143526595Y-106905860D01*
X143327918Y-107027441D01*
X143292755Y-107048304D01*
X143207914Y-107096301D01*
X143106623Y-107150254D01*
X142995973Y-107206710D01*
X142883054Y-107262215D01*
X142774955Y-107313317D01*
X142678768Y-107356561D01*
X142601583Y-107388494D01*
X142572654Y-107399032D01*
X142488782Y-107424159D01*
X142425569Y-107432748D01*
X142373342Y-107423319D01*
X142322423Y-107394389D01*
X142272656Y-107353100D01*
X142193593Y-107270717D01*
X142116438Y-107169308D01*
X142042952Y-107053427D01*
X141974894Y-106927631D01*
X141914023Y-106796472D01*
X141862102Y-106664506D01*
X141820889Y-106536288D01*
X141792144Y-106416372D01*
X141777627Y-106309312D01*
X141779099Y-106219664D01*
X141798320Y-106151981D01*
X141804451Y-106141478D01*
X141818943Y-106123327D01*
X141838733Y-106110891D01*
X141870704Y-106102468D01*
X141921737Y-106096355D01*
X141998713Y-106090852D01*
X142012684Y-106089989D01*
X142105741Y-106085810D01*
X142226551Y-106082696D01*
X142369017Y-106080622D01*
X142527043Y-106079564D01*
X142694531Y-106079496D01*
X142865387Y-106080393D01*
G36*
X147921722Y-107556641D02*
X147924611Y-107583671D01*
X147923386Y-107629978D01*
X147918489Y-107690843D01*
X147910359Y-107761549D01*
X147899437Y-107837379D01*
X147886164Y-107913616D01*
X147870981Y-107985543D01*
X147859765Y-108029673D01*
X147834045Y-108109307D01*
X147802289Y-108188379D01*
X147768594Y-108258132D01*
X147737057Y-108309813D01*
X147719286Y-108329876D01*
X147693982Y-108329909D01*
X147654354Y-108303495D01*
X147650170Y-108299830D01*
X147624095Y-108274584D01*
X147609355Y-108250392D01*
X147603261Y-108217265D01*
X147603125Y-108165212D01*
X147604418Y-108129786D01*
X147608406Y-108062887D01*
X147616678Y-108017355D01*
X147633556Y-107980690D01*
X147663365Y-107940392D01*
X147674657Y-107926707D01*
X147715176Y-107874487D01*
X147761825Y-107808937D01*
X147809243Y-107738259D01*
X147852064Y-107670655D01*
X147884926Y-107614329D01*
X147901841Y-107579276D01*
X147914279Y-107553603D01*
X147921722Y-107556641D01*
X147921722Y-107556641D01*
G37*
X147921722Y-107556641D02*
X147924611Y-107583671D01*
X147923386Y-107629978D01*
X147918489Y-107690843D01*
X147910359Y-107761549D01*
X147899437Y-107837379D01*
X147886164Y-107913616D01*
X147870981Y-107985543D01*
X147859765Y-108029673D01*
X147834045Y-108109307D01*
X147802289Y-108188379D01*
X147768594Y-108258132D01*
X147737057Y-108309813D01*
X147719286Y-108329876D01*
X147693982Y-108329909D01*
X147654354Y-108303495D01*
X147650170Y-108299830D01*
X147624095Y-108274584D01*
X147609355Y-108250392D01*
X147603261Y-108217265D01*
X147603125Y-108165212D01*
X147604418Y-108129786D01*
X147608406Y-108062887D01*
X147616678Y-108017355D01*
X147633556Y-107980690D01*
X147663365Y-107940392D01*
X147674657Y-107926707D01*
X147715176Y-107874487D01*
X147761825Y-107808937D01*
X147809243Y-107738259D01*
X147852064Y-107670655D01*
X147884926Y-107614329D01*
X147901841Y-107579276D01*
X147914279Y-107553603D01*
X147921722Y-107556641D01*
G36*
X141666510Y-107560952D02*
X141679001Y-107587818D01*
X141699405Y-107628436D01*
X141734781Y-107687649D01*
X141779577Y-107757112D01*
X141828238Y-107828483D01*
X141875211Y-107893417D01*
X141914943Y-107943574D01*
X141918684Y-107947889D01*
X141948953Y-107985143D01*
X141966148Y-108018222D01*
X141974047Y-108059167D01*
X141976430Y-108120017D01*
X141976550Y-108132239D01*
X141975821Y-108197057D01*
X141970303Y-108238864D01*
X141956973Y-108268472D01*
X141932807Y-108296692D01*
X141929664Y-108299868D01*
X141896755Y-108332517D01*
X141878365Y-108344424D01*
X141864182Y-108337880D01*
X141846664Y-108318300D01*
X141797774Y-108244437D01*
X141753409Y-108141004D01*
X141714854Y-108012139D01*
X141683395Y-107861984D01*
X141664475Y-107731618D01*
X141655308Y-107642433D01*
X141652640Y-107583775D01*
X141656399Y-107556371D01*
X141666510Y-107560952D01*
X141666510Y-107560952D01*
G37*
X141666510Y-107560952D02*
X141679001Y-107587818D01*
X141699405Y-107628436D01*
X141734781Y-107687649D01*
X141779577Y-107757112D01*
X141828238Y-107828483D01*
X141875211Y-107893417D01*
X141914943Y-107943574D01*
X141918684Y-107947889D01*
X141948953Y-107985143D01*
X141966148Y-108018222D01*
X141974047Y-108059167D01*
X141976430Y-108120017D01*
X141976550Y-108132239D01*
X141975821Y-108197057D01*
X141970303Y-108238864D01*
X141956973Y-108268472D01*
X141932807Y-108296692D01*
X141929664Y-108299868D01*
X141896755Y-108332517D01*
X141878365Y-108344424D01*
X141864182Y-108337880D01*
X141846664Y-108318300D01*
X141797774Y-108244437D01*
X141753409Y-108141004D01*
X141714854Y-108012139D01*
X141683395Y-107861984D01*
X141664475Y-107731618D01*
X141655308Y-107642433D01*
X141652640Y-107583775D01*
X141656399Y-107556371D01*
X141666510Y-107560952D01*
G36*
X148774355Y-108998702D02*
X148835819Y-109041110D01*
X148887154Y-109087656D01*
X148936896Y-109140964D01*
X148993605Y-109209694D01*
X149053447Y-109288242D01*
X149112590Y-109371001D01*
X149167198Y-109452365D01*
X149213438Y-109526728D01*
X149247475Y-109588484D01*
X149265477Y-109632026D01*
X149267333Y-109643556D01*
X149256929Y-109666294D01*
X149230526Y-109666813D01*
X149195336Y-109647556D01*
X149158571Y-109610966D01*
X149154178Y-109605233D01*
X149029707Y-109441210D01*
X148921021Y-109305775D01*
X148827330Y-109197983D01*
X148747847Y-109116886D01*
X148746203Y-109115348D01*
X148634019Y-109010697D01*
X148677395Y-108990933D01*
X148722876Y-108982589D01*
X148774355Y-108998702D01*
X148774355Y-108998702D01*
G37*
X148774355Y-108998702D02*
X148835819Y-109041110D01*
X148887154Y-109087656D01*
X148936896Y-109140964D01*
X148993605Y-109209694D01*
X149053447Y-109288242D01*
X149112590Y-109371001D01*
X149167198Y-109452365D01*
X149213438Y-109526728D01*
X149247475Y-109588484D01*
X149265477Y-109632026D01*
X149267333Y-109643556D01*
X149256929Y-109666294D01*
X149230526Y-109666813D01*
X149195336Y-109647556D01*
X149158571Y-109610966D01*
X149154178Y-109605233D01*
X149029707Y-109441210D01*
X148921021Y-109305775D01*
X148827330Y-109197983D01*
X148747847Y-109116886D01*
X148746203Y-109115348D01*
X148634019Y-109010697D01*
X148677395Y-108990933D01*
X148722876Y-108982589D01*
X148774355Y-108998702D01*
G36*
X148311727Y-108746648D02*
X148376783Y-108758869D01*
X148438638Y-108775749D01*
X148488605Y-108795102D01*
X148517997Y-108814745D01*
X148522266Y-108824253D01*
X148513226Y-108852294D01*
X148487471Y-108904899D01*
X148447045Y-108978437D01*
X148393996Y-109069278D01*
X148330369Y-109173791D01*
X148280172Y-109253866D01*
X148235232Y-109322886D01*
X148182241Y-109401316D01*
X148124580Y-109484480D01*
X148065631Y-109567706D01*
X148008774Y-109646318D01*
X147957391Y-109715641D01*
X147914864Y-109771001D01*
X147884572Y-109807723D01*
X147869898Y-109821132D01*
X147869859Y-109821133D01*
X147873309Y-109807610D01*
X147890424Y-109771558D01*
X147917895Y-109719754D01*
X147929789Y-109698366D01*
X148008438Y-109554627D01*
X148079844Y-109416397D01*
X148142520Y-109287119D01*
X148194981Y-109170237D01*
X148235742Y-109069195D01*
X148263316Y-108987436D01*
X148276219Y-108928404D01*
X148274656Y-108898961D01*
X148252935Y-108872251D01*
X148215439Y-108846418D01*
X148215414Y-108846405D01*
X148178229Y-108816297D01*
X148167148Y-108783266D01*
X148182887Y-108755687D01*
X148206757Y-108744916D01*
X148252156Y-108741269D01*
X148311727Y-108746648D01*
X148311727Y-108746648D01*
G37*
X148311727Y-108746648D02*
X148376783Y-108758869D01*
X148438638Y-108775749D01*
X148488605Y-108795102D01*
X148517997Y-108814745D01*
X148522266Y-108824253D01*
X148513226Y-108852294D01*
X148487471Y-108904899D01*
X148447045Y-108978437D01*
X148393996Y-109069278D01*
X148330369Y-109173791D01*
X148280172Y-109253866D01*
X148235232Y-109322886D01*
X148182241Y-109401316D01*
X148124580Y-109484480D01*
X148065631Y-109567706D01*
X148008774Y-109646318D01*
X147957391Y-109715641D01*
X147914864Y-109771001D01*
X147884572Y-109807723D01*
X147869898Y-109821132D01*
X147869859Y-109821133D01*
X147873309Y-109807610D01*
X147890424Y-109771558D01*
X147917895Y-109719754D01*
X147929789Y-109698366D01*
X148008438Y-109554627D01*
X148079844Y-109416397D01*
X148142520Y-109287119D01*
X148194981Y-109170237D01*
X148235742Y-109069195D01*
X148263316Y-108987436D01*
X148276219Y-108928404D01*
X148274656Y-108898961D01*
X148252935Y-108872251D01*
X148215439Y-108846418D01*
X148215414Y-108846405D01*
X148178229Y-108816297D01*
X148167148Y-108783266D01*
X148182887Y-108755687D01*
X148206757Y-108744916D01*
X148252156Y-108741269D01*
X148311727Y-108746648D01*
G36*
X148596666Y-109219332D02*
X148660786Y-109252002D01*
X148733102Y-109314040D01*
X148762664Y-109344940D01*
X148804202Y-109394049D01*
X148853499Y-109458350D01*
X148906910Y-109532349D01*
X148960789Y-109610554D01*
X149011489Y-109687470D01*
X149055365Y-109757605D01*
X149088770Y-109815464D01*
X149108058Y-109855555D01*
X149111211Y-109870089D01*
X149094011Y-109897273D01*
X149063352Y-109896286D01*
X149045593Y-109884861D01*
X149023209Y-109861114D01*
X148988322Y-109818663D01*
X148948159Y-109766328D01*
X148944851Y-109761866D01*
X148867532Y-109659818D01*
X148789810Y-109561838D01*
X148715573Y-109472468D01*
X148648712Y-109396252D01*
X148593116Y-109337735D01*
X148552675Y-109301460D01*
X148547642Y-109297869D01*
X148505981Y-109262896D01*
X148496067Y-109236174D01*
X148518028Y-109218795D01*
X148537900Y-109214378D01*
X148596666Y-109219332D01*
X148596666Y-109219332D01*
G37*
X148596666Y-109219332D02*
X148660786Y-109252002D01*
X148733102Y-109314040D01*
X148762664Y-109344940D01*
X148804202Y-109394049D01*
X148853499Y-109458350D01*
X148906910Y-109532349D01*
X148960789Y-109610554D01*
X149011489Y-109687470D01*
X149055365Y-109757605D01*
X149088770Y-109815464D01*
X149108058Y-109855555D01*
X149111211Y-109870089D01*
X149094011Y-109897273D01*
X149063352Y-109896286D01*
X149045593Y-109884861D01*
X149023209Y-109861114D01*
X148988322Y-109818663D01*
X148948159Y-109766328D01*
X148944851Y-109761866D01*
X148867532Y-109659818D01*
X148789810Y-109561838D01*
X148715573Y-109472468D01*
X148648712Y-109396252D01*
X148593116Y-109337735D01*
X148552675Y-109301460D01*
X148547642Y-109297869D01*
X148505981Y-109262896D01*
X148496067Y-109236174D01*
X148518028Y-109218795D01*
X148537900Y-109214378D01*
X148596666Y-109219332D01*
G36*
X148436442Y-109435267D02*
X148465308Y-109448819D01*
X148501098Y-109476447D01*
X148549364Y-109522273D01*
X148598453Y-109572484D01*
X148653455Y-109634346D01*
X148714421Y-109710581D01*
X148776951Y-109794803D01*
X148836648Y-109880622D01*
X148889114Y-109961650D01*
X148929950Y-110031501D01*
X148954757Y-110083785D01*
X148958497Y-110095397D01*
X148954589Y-110119964D01*
X148926265Y-110123199D01*
X148898781Y-110114634D01*
X148881534Y-110098682D01*
X148848234Y-110060454D01*
X148802967Y-110004902D01*
X148749820Y-109936976D01*
X148721682Y-109900071D01*
X148655751Y-109815678D01*
X148585051Y-109729879D01*
X148517225Y-109651674D01*
X148459916Y-109590063D01*
X148449882Y-109580026D01*
X148401151Y-109529468D01*
X148364813Y-109486576D01*
X148345650Y-109457295D01*
X148344347Y-109448793D01*
X148367134Y-109436846D01*
X148407534Y-109431672D01*
X148408952Y-109431666D01*
X148436442Y-109435267D01*
X148436442Y-109435267D01*
G37*
X148436442Y-109435267D02*
X148465308Y-109448819D01*
X148501098Y-109476447D01*
X148549364Y-109522273D01*
X148598453Y-109572484D01*
X148653455Y-109634346D01*
X148714421Y-109710581D01*
X148776951Y-109794803D01*
X148836648Y-109880622D01*
X148889114Y-109961650D01*
X148929950Y-110031501D01*
X148954757Y-110083785D01*
X148958497Y-110095397D01*
X148954589Y-110119964D01*
X148926265Y-110123199D01*
X148898781Y-110114634D01*
X148881534Y-110098682D01*
X148848234Y-110060454D01*
X148802967Y-110004902D01*
X148749820Y-109936976D01*
X148721682Y-109900071D01*
X148655751Y-109815678D01*
X148585051Y-109729879D01*
X148517225Y-109651674D01*
X148459916Y-109590063D01*
X148449882Y-109580026D01*
X148401151Y-109529468D01*
X148364813Y-109486576D01*
X148345650Y-109457295D01*
X148344347Y-109448793D01*
X148367134Y-109436846D01*
X148407534Y-109431672D01*
X148408952Y-109431666D01*
X148436442Y-109435267D01*
G36*
X148294518Y-109667123D02*
X148360677Y-109711922D01*
X148436613Y-109784439D01*
X148520664Y-109882919D01*
X148611170Y-110005605D01*
X148696706Y-110135162D01*
X148736543Y-110200985D01*
X148768378Y-110258516D01*
X148788342Y-110300459D01*
X148793200Y-110317195D01*
X148781966Y-110341699D01*
X148753653Y-110342648D01*
X148722958Y-110324900D01*
X148704074Y-110304542D01*
X148669042Y-110262321D01*
X148622054Y-110203454D01*
X148567302Y-110133155D01*
X148535823Y-110092066D01*
X148457232Y-109989861D01*
X148394542Y-109910942D01*
X148343977Y-109851031D01*
X148301762Y-109805851D01*
X148264120Y-109771123D01*
X148227418Y-109742672D01*
X148194426Y-109708150D01*
X148189426Y-109676927D01*
X148211437Y-109656212D01*
X148239794Y-109651800D01*
X148294518Y-109667123D01*
X148294518Y-109667123D01*
G37*
X148294518Y-109667123D02*
X148360677Y-109711922D01*
X148436613Y-109784439D01*
X148520664Y-109882919D01*
X148611170Y-110005605D01*
X148696706Y-110135162D01*
X148736543Y-110200985D01*
X148768378Y-110258516D01*
X148788342Y-110300459D01*
X148793200Y-110317195D01*
X148781966Y-110341699D01*
X148753653Y-110342648D01*
X148722958Y-110324900D01*
X148704074Y-110304542D01*
X148669042Y-110262321D01*
X148622054Y-110203454D01*
X148567302Y-110133155D01*
X148535823Y-110092066D01*
X148457232Y-109989861D01*
X148394542Y-109910942D01*
X148343977Y-109851031D01*
X148301762Y-109805851D01*
X148264120Y-109771123D01*
X148227418Y-109742672D01*
X148194426Y-109708150D01*
X148189426Y-109676927D01*
X148211437Y-109656212D01*
X148239794Y-109651800D01*
X148294518Y-109667123D01*
G36*
X148130138Y-109887604D02*
X148192833Y-109929035D01*
X148267712Y-109999826D01*
X148269625Y-110001838D01*
X148332962Y-110071345D01*
X148389597Y-110140467D01*
X148445962Y-110217797D01*
X148508490Y-110311927D01*
X148545704Y-110370569D01*
X148593877Y-110449289D01*
X148623834Y-110504231D01*
X148636823Y-110539333D01*
X148634092Y-110558532D01*
X148616888Y-110565766D01*
X148607697Y-110566200D01*
X148583281Y-110553184D01*
X148542477Y-110513699D01*
X148484677Y-110447082D01*
X148409273Y-110352676D01*
X148400858Y-110341833D01*
X148332925Y-110256371D01*
X148261996Y-110171017D01*
X148194768Y-110093582D01*
X148137941Y-110031876D01*
X148116931Y-110010725D01*
X148064350Y-109958109D01*
X148034460Y-109923170D01*
X148024233Y-109901553D01*
X148030637Y-109888905D01*
X148031670Y-109888217D01*
X148077219Y-109874381D01*
X148130138Y-109887604D01*
X148130138Y-109887604D01*
G37*
X148130138Y-109887604D02*
X148192833Y-109929035D01*
X148267712Y-109999826D01*
X148269625Y-110001838D01*
X148332962Y-110071345D01*
X148389597Y-110140467D01*
X148445962Y-110217797D01*
X148508490Y-110311927D01*
X148545704Y-110370569D01*
X148593877Y-110449289D01*
X148623834Y-110504231D01*
X148636823Y-110539333D01*
X148634092Y-110558532D01*
X148616888Y-110565766D01*
X148607697Y-110566200D01*
X148583281Y-110553184D01*
X148542477Y-110513699D01*
X148484677Y-110447082D01*
X148409273Y-110352676D01*
X148400858Y-110341833D01*
X148332925Y-110256371D01*
X148261996Y-110171017D01*
X148194768Y-110093582D01*
X148137941Y-110031876D01*
X148116931Y-110010725D01*
X148064350Y-109958109D01*
X148034460Y-109923170D01*
X148024233Y-109901553D01*
X148030637Y-109888905D01*
X148031670Y-109888217D01*
X148077219Y-109874381D01*
X148130138Y-109887604D01*
G36*
X140899537Y-108990933D02*
X140942914Y-109010697D01*
X140831026Y-109115348D01*
X140780738Y-109166331D01*
X140717038Y-109236781D01*
X140646657Y-109318942D01*
X140576327Y-109405058D01*
X140545457Y-109444366D01*
X140472015Y-109536766D01*
X140412859Y-109605951D01*
X140369422Y-109650350D01*
X140343134Y-109668396D01*
X140340687Y-109668733D01*
X140314795Y-109657215D01*
X140309600Y-109643036D01*
X140319726Y-109609500D01*
X140347557Y-109555358D01*
X140389274Y-109486153D01*
X140441056Y-109407425D01*
X140499083Y-109324715D01*
X140559536Y-109243563D01*
X140618593Y-109169512D01*
X140672434Y-109108101D01*
X140692868Y-109087122D01*
X140762547Y-109025429D01*
X140819561Y-108991227D01*
X140868038Y-108982594D01*
X140899537Y-108990933D01*
X140899537Y-108990933D01*
G37*
X140899537Y-108990933D02*
X140942914Y-109010697D01*
X140831026Y-109115348D01*
X140780738Y-109166331D01*
X140717038Y-109236781D01*
X140646657Y-109318942D01*
X140576327Y-109405058D01*
X140545457Y-109444366D01*
X140472015Y-109536766D01*
X140412859Y-109605951D01*
X140369422Y-109650350D01*
X140343134Y-109668396D01*
X140340687Y-109668733D01*
X140314795Y-109657215D01*
X140309600Y-109643036D01*
X140319726Y-109609500D01*
X140347557Y-109555358D01*
X140389274Y-109486153D01*
X140441056Y-109407425D01*
X140499083Y-109324715D01*
X140559536Y-109243563D01*
X140618593Y-109169512D01*
X140672434Y-109108101D01*
X140692868Y-109087122D01*
X140762547Y-109025429D01*
X140819561Y-108991227D01*
X140868038Y-108982594D01*
X140899537Y-108990933D01*
G36*
X141370176Y-108744916D02*
X141403249Y-108764685D01*
X141408814Y-108795047D01*
X141387700Y-108828052D01*
X141359466Y-108847466D01*
X141323096Y-108873438D01*
X141309716Y-108909130D01*
X141308666Y-108932181D01*
X141318627Y-108998431D01*
X141348309Y-109091308D01*
X141397408Y-109210124D01*
X141465622Y-109354194D01*
X141552648Y-109522830D01*
X141639211Y-109681433D01*
X141671813Y-109741465D01*
X141695780Y-109788574D01*
X141707952Y-109816373D01*
X141708356Y-109821133D01*
X141695084Y-109808530D01*
X141666331Y-109774579D01*
X141626879Y-109725068D01*
X141597921Y-109687490D01*
X141538238Y-109606546D01*
X141472615Y-109513212D01*
X141403740Y-109411756D01*
X141334299Y-109306450D01*
X141266980Y-109201563D01*
X141204471Y-109101365D01*
X141149458Y-109010127D01*
X141104628Y-108932118D01*
X141072670Y-108871608D01*
X141056269Y-108832868D01*
X141054666Y-108824253D01*
X141070084Y-108805313D01*
X141110548Y-108785537D01*
X141167369Y-108767112D01*
X141231863Y-108752220D01*
X141295342Y-108743047D01*
X141349119Y-108741777D01*
X141370176Y-108744916D01*
X141370176Y-108744916D01*
G37*
X141370176Y-108744916D02*
X141403249Y-108764685D01*
X141408814Y-108795047D01*
X141387700Y-108828052D01*
X141359466Y-108847466D01*
X141323096Y-108873438D01*
X141309716Y-108909130D01*
X141308666Y-108932181D01*
X141318627Y-108998431D01*
X141348309Y-109091308D01*
X141397408Y-109210124D01*
X141465622Y-109354194D01*
X141552648Y-109522830D01*
X141639211Y-109681433D01*
X141671813Y-109741465D01*
X141695780Y-109788574D01*
X141707952Y-109816373D01*
X141708356Y-109821133D01*
X141695084Y-109808530D01*
X141666331Y-109774579D01*
X141626879Y-109725068D01*
X141597921Y-109687490D01*
X141538238Y-109606546D01*
X141472615Y-109513212D01*
X141403740Y-109411756D01*
X141334299Y-109306450D01*
X141266980Y-109201563D01*
X141204471Y-109101365D01*
X141149458Y-109010127D01*
X141104628Y-108932118D01*
X141072670Y-108871608D01*
X141056269Y-108832868D01*
X141054666Y-108824253D01*
X141070084Y-108805313D01*
X141110548Y-108785537D01*
X141167369Y-108767112D01*
X141231863Y-108752220D01*
X141295342Y-108743047D01*
X141349119Y-108741777D01*
X141370176Y-108744916D01*
G36*
X141076825Y-109218641D02*
X141086662Y-109238318D01*
X141066650Y-109268089D01*
X141028217Y-109298250D01*
X140991665Y-109329876D01*
X140937717Y-109386856D01*
X140868399Y-109466800D01*
X140785736Y-109567318D01*
X140691754Y-109686020D01*
X140613745Y-109787266D01*
X140560481Y-109851039D01*
X140516257Y-109891953D01*
X140483640Y-109908439D01*
X140465195Y-109898926D01*
X140461999Y-109880094D01*
X140471786Y-109848404D01*
X140498684Y-109795566D01*
X140538995Y-109727156D01*
X140589026Y-109648748D01*
X140645080Y-109565917D01*
X140703461Y-109484237D01*
X140760474Y-109409283D01*
X140812424Y-109346630D01*
X140824686Y-109333000D01*
X140897146Y-109264702D01*
X140964134Y-109225289D01*
X141031156Y-109211610D01*
X141036892Y-109211533D01*
X141076825Y-109218641D01*
X141076825Y-109218641D01*
G37*
X141076825Y-109218641D02*
X141086662Y-109238318D01*
X141066650Y-109268089D01*
X141028217Y-109298250D01*
X140991665Y-109329876D01*
X140937717Y-109386856D01*
X140868399Y-109466800D01*
X140785736Y-109567318D01*
X140691754Y-109686020D01*
X140613745Y-109787266D01*
X140560481Y-109851039D01*
X140516257Y-109891953D01*
X140483640Y-109908439D01*
X140465195Y-109898926D01*
X140461999Y-109880094D01*
X140471786Y-109848404D01*
X140498684Y-109795566D01*
X140538995Y-109727156D01*
X140589026Y-109648748D01*
X140645080Y-109565917D01*
X140703461Y-109484237D01*
X140760474Y-109409283D01*
X140812424Y-109346630D01*
X140824686Y-109333000D01*
X140897146Y-109264702D01*
X140964134Y-109225289D01*
X141031156Y-109211610D01*
X141036892Y-109211533D01*
X141076825Y-109218641D01*
G36*
X141216573Y-109437529D02*
X141232106Y-109455761D01*
X141217697Y-109487328D01*
X141173258Y-109533193D01*
X141160948Y-109544004D01*
X141122193Y-109582009D01*
X141068563Y-109640994D01*
X141005396Y-109714766D01*
X140938029Y-109797129D01*
X140887568Y-109861317D01*
X140825811Y-109940054D01*
X140769535Y-110009375D01*
X140722550Y-110064777D01*
X140688668Y-110101755D01*
X140672414Y-110115604D01*
X140631669Y-110125296D01*
X140615030Y-110113134D01*
X140614400Y-110106911D01*
X140622697Y-110084682D01*
X140644872Y-110041467D01*
X140676850Y-109984996D01*
X140692491Y-109958744D01*
X140776455Y-109827266D01*
X140860299Y-109709766D01*
X140941385Y-109609152D01*
X141017072Y-109528332D01*
X141084720Y-109470210D01*
X141141689Y-109437696D01*
X141171187Y-109431666D01*
X141216573Y-109437529D01*
X141216573Y-109437529D01*
G37*
X141216573Y-109437529D02*
X141232106Y-109455761D01*
X141217697Y-109487328D01*
X141173258Y-109533193D01*
X141160948Y-109544004D01*
X141122193Y-109582009D01*
X141068563Y-109640994D01*
X141005396Y-109714766D01*
X140938029Y-109797129D01*
X140887568Y-109861317D01*
X140825811Y-109940054D01*
X140769535Y-110009375D01*
X140722550Y-110064777D01*
X140688668Y-110101755D01*
X140672414Y-110115604D01*
X140631669Y-110125296D01*
X140615030Y-110113134D01*
X140614400Y-110106911D01*
X140622697Y-110084682D01*
X140644872Y-110041467D01*
X140676850Y-109984996D01*
X140692491Y-109958744D01*
X140776455Y-109827266D01*
X140860299Y-109709766D01*
X140941385Y-109609152D01*
X141017072Y-109528332D01*
X141084720Y-109470210D01*
X141141689Y-109437696D01*
X141171187Y-109431666D01*
X141216573Y-109437529D01*
G36*
X141389281Y-109670229D02*
X141390425Y-109697296D01*
X141362146Y-109733352D01*
X141333426Y-109755450D01*
X141304009Y-109781594D01*
X141258745Y-109829711D01*
X141202108Y-109894680D01*
X141138568Y-109971380D01*
X141076438Y-110049733D01*
X141013074Y-110130791D01*
X140955394Y-110203439D01*
X140907129Y-110263072D01*
X140872006Y-110305081D01*
X140853757Y-110324860D01*
X140853709Y-110324900D01*
X140817199Y-110344351D01*
X140791521Y-110338308D01*
X140783733Y-110314526D01*
X140793514Y-110285286D01*
X140820321Y-110234930D01*
X140860349Y-110169046D01*
X140909793Y-110093220D01*
X140964847Y-110013039D01*
X141021708Y-109934090D01*
X141076568Y-109861960D01*
X141125625Y-109802236D01*
X141153068Y-109772232D01*
X141219350Y-109711124D01*
X141275676Y-109672485D01*
X141304331Y-109661219D01*
X141360117Y-109656691D01*
X141389281Y-109670229D01*
X141389281Y-109670229D01*
G37*
X141389281Y-109670229D02*
X141390425Y-109697296D01*
X141362146Y-109733352D01*
X141333426Y-109755450D01*
X141304009Y-109781594D01*
X141258745Y-109829711D01*
X141202108Y-109894680D01*
X141138568Y-109971380D01*
X141076438Y-110049733D01*
X141013074Y-110130791D01*
X140955394Y-110203439D01*
X140907129Y-110263072D01*
X140872006Y-110305081D01*
X140853757Y-110324860D01*
X140853709Y-110324900D01*
X140817199Y-110344351D01*
X140791521Y-110338308D01*
X140783733Y-110314526D01*
X140793514Y-110285286D01*
X140820321Y-110234930D01*
X140860349Y-110169046D01*
X140909793Y-110093220D01*
X140964847Y-110013039D01*
X141021708Y-109934090D01*
X141076568Y-109861960D01*
X141125625Y-109802236D01*
X141153068Y-109772232D01*
X141219350Y-109711124D01*
X141275676Y-109672485D01*
X141304331Y-109661219D01*
X141360117Y-109656691D01*
X141389281Y-109670229D01*
G36*
X141522685Y-109877386D02*
X141545733Y-109889434D01*
X141554972Y-109902231D01*
X141546892Y-109921677D01*
X141518066Y-109952962D01*
X141481639Y-109986541D01*
X141441388Y-110026774D01*
X141386244Y-110087767D01*
X141321649Y-110163198D01*
X141253046Y-110246746D01*
X141201251Y-110312200D01*
X141117895Y-110416910D01*
X141052401Y-110493657D01*
X141004918Y-110542277D01*
X140975596Y-110562605D01*
X140973244Y-110563144D01*
X140942706Y-110558749D01*
X140936133Y-110544561D01*
X140945041Y-110520224D01*
X140969089Y-110474500D01*
X141004260Y-110413933D01*
X141046536Y-110345065D01*
X141091902Y-110274438D01*
X141136341Y-110208595D01*
X141175835Y-110154078D01*
X141175982Y-110153886D01*
X141234698Y-110081868D01*
X141297391Y-110012815D01*
X141357365Y-109953509D01*
X141407927Y-109910727D01*
X141430592Y-109896005D01*
X141482653Y-109875122D01*
X141522685Y-109877386D01*
X141522685Y-109877386D01*
G37*
X141522685Y-109877386D02*
X141545733Y-109889434D01*
X141554972Y-109902231D01*
X141546892Y-109921677D01*
X141518066Y-109952962D01*
X141481639Y-109986541D01*
X141441388Y-110026774D01*
X141386244Y-110087767D01*
X141321649Y-110163198D01*
X141253046Y-110246746D01*
X141201251Y-110312200D01*
X141117895Y-110416910D01*
X141052401Y-110493657D01*
X141004918Y-110542277D01*
X140975596Y-110562605D01*
X140973244Y-110563144D01*
X140942706Y-110558749D01*
X140936133Y-110544561D01*
X140945041Y-110520224D01*
X140969089Y-110474500D01*
X141004260Y-110413933D01*
X141046536Y-110345065D01*
X141091902Y-110274438D01*
X141136341Y-110208595D01*
X141175835Y-110154078D01*
X141175982Y-110153886D01*
X141234698Y-110081868D01*
X141297391Y-110012815D01*
X141357365Y-109953509D01*
X141407927Y-109910727D01*
X141430592Y-109896005D01*
X141482653Y-109875122D01*
X141522685Y-109877386D01*
G36*
X145064009Y-110161713D02*
X145110949Y-110164469D01*
X145180137Y-110169338D01*
X145275518Y-110176505D01*
X145389600Y-110185268D01*
X145506730Y-110194673D01*
X145632511Y-110205426D01*
X145762487Y-110217080D01*
X145892200Y-110229192D01*
X146017192Y-110241314D01*
X146133006Y-110253003D01*
X146235186Y-110263812D01*
X146319273Y-110273296D01*
X146380811Y-110281011D01*
X146415342Y-110286510D01*
X146421122Y-110288322D01*
X146411175Y-110292905D01*
X146371043Y-110294327D01*
X146304243Y-110292757D01*
X146214294Y-110288364D01*
X146104711Y-110281316D01*
X145979014Y-110271782D01*
X145855266Y-110261236D01*
X145699356Y-110246931D01*
X145550942Y-110232613D01*
X145413659Y-110218688D01*
X145291145Y-110205559D01*
X145187033Y-110193633D01*
X145104960Y-110183313D01*
X145048560Y-110175006D01*
X145021471Y-110169115D01*
X145019809Y-110168187D01*
X145017216Y-110164309D01*
X145021088Y-110161815D01*
X145035370Y-110160889D01*
X145064009Y-110161713D01*
X145064009Y-110161713D01*
G37*
X145064009Y-110161713D02*
X145110949Y-110164469D01*
X145180137Y-110169338D01*
X145275518Y-110176505D01*
X145389600Y-110185268D01*
X145506730Y-110194673D01*
X145632511Y-110205426D01*
X145762487Y-110217080D01*
X145892200Y-110229192D01*
X146017192Y-110241314D01*
X146133006Y-110253003D01*
X146235186Y-110263812D01*
X146319273Y-110273296D01*
X146380811Y-110281011D01*
X146415342Y-110286510D01*
X146421122Y-110288322D01*
X146411175Y-110292905D01*
X146371043Y-110294327D01*
X146304243Y-110292757D01*
X146214294Y-110288364D01*
X146104711Y-110281316D01*
X145979014Y-110271782D01*
X145855266Y-110261236D01*
X145699356Y-110246931D01*
X145550942Y-110232613D01*
X145413659Y-110218688D01*
X145291145Y-110205559D01*
X145187033Y-110193633D01*
X145104960Y-110183313D01*
X145048560Y-110175006D01*
X145021471Y-110169115D01*
X145019809Y-110168187D01*
X145017216Y-110164309D01*
X145021088Y-110161815D01*
X145035370Y-110160889D01*
X145064009Y-110161713D01*
G36*
X144558812Y-110165478D02*
X144558498Y-110166527D01*
X144537736Y-110172498D01*
X144487663Y-110180625D01*
X144412734Y-110190485D01*
X144317407Y-110201659D01*
X144206139Y-110213727D01*
X144083386Y-110226267D01*
X143953606Y-110238860D01*
X143821254Y-110251085D01*
X143690788Y-110262522D01*
X143566665Y-110272750D01*
X143453341Y-110281349D01*
X143355273Y-110287900D01*
X143276918Y-110291980D01*
X143222733Y-110293170D01*
X143216879Y-110293071D01*
X143198853Y-110290697D01*
X143212796Y-110285518D01*
X143256955Y-110277860D01*
X143329576Y-110268049D01*
X143391466Y-110260643D01*
X143477884Y-110250988D01*
X143569056Y-110241455D01*
X143669150Y-110231671D01*
X143782331Y-110221262D01*
X143912769Y-110209855D01*
X144064629Y-110197075D01*
X144242080Y-110182550D01*
X144441333Y-110166541D01*
X144500282Y-110162957D01*
X144541906Y-110162602D01*
X144558812Y-110165478D01*
X144558812Y-110165478D01*
G37*
X144558812Y-110165478D02*
X144558498Y-110166527D01*
X144537736Y-110172498D01*
X144487663Y-110180625D01*
X144412734Y-110190485D01*
X144317407Y-110201659D01*
X144206139Y-110213727D01*
X144083386Y-110226267D01*
X143953606Y-110238860D01*
X143821254Y-110251085D01*
X143690788Y-110262522D01*
X143566665Y-110272750D01*
X143453341Y-110281349D01*
X143355273Y-110287900D01*
X143276918Y-110291980D01*
X143222733Y-110293170D01*
X143216879Y-110293071D01*
X143198853Y-110290697D01*
X143212796Y-110285518D01*
X143256955Y-110277860D01*
X143329576Y-110268049D01*
X143391466Y-110260643D01*
X143477884Y-110250988D01*
X143569056Y-110241455D01*
X143669150Y-110231671D01*
X143782331Y-110221262D01*
X143912769Y-110209855D01*
X144064629Y-110197075D01*
X144242080Y-110182550D01*
X144441333Y-110166541D01*
X144500282Y-110162957D01*
X144541906Y-110162602D01*
X144558812Y-110165478D01*
G36*
X146473333Y-110303733D02*
X146464866Y-110312200D01*
X146456400Y-110303733D01*
X146464866Y-110295266D01*
X146473333Y-110303733D01*
X146473333Y-110303733D01*
G37*
X146473333Y-110303733D02*
X146464866Y-110312200D01*
X146456400Y-110303733D01*
X146464866Y-110295266D01*
X146473333Y-110303733D01*
G36*
X145551139Y-111198605D02*
X145626666Y-111280676D01*
X145626666Y-111423391D01*
X145626422Y-111493965D01*
X145622338Y-111538751D01*
X145609382Y-111565804D01*
X145582527Y-111583181D01*
X145536742Y-111598939D01*
X145512366Y-111606480D01*
X145474266Y-111618349D01*
X145474939Y-111367441D01*
X145475611Y-111116533D01*
X145551139Y-111198605D01*
X145551139Y-111198605D01*
G37*
X145551139Y-111198605D02*
X145626666Y-111280676D01*
X145626666Y-111423391D01*
X145626422Y-111493965D01*
X145622338Y-111538751D01*
X145609382Y-111565804D01*
X145582527Y-111583181D01*
X145536742Y-111598939D01*
X145512366Y-111606480D01*
X145474266Y-111618349D01*
X145474939Y-111367441D01*
X145475611Y-111116533D01*
X145551139Y-111198605D01*
G36*
X144101994Y-111366300D02*
X144101959Y-111453776D01*
X144101416Y-111527697D01*
X144100446Y-111582201D01*
X144099135Y-111611426D01*
X144098433Y-111614765D01*
X144081175Y-111609559D01*
X144043011Y-111598074D01*
X144026466Y-111593099D01*
X143958733Y-111572734D01*
X143953874Y-111427396D01*
X143949016Y-111282058D01*
X144025169Y-111199295D01*
X144101321Y-111116533D01*
X144101994Y-111366300D01*
X144101994Y-111366300D01*
G37*
X144101994Y-111366300D02*
X144101959Y-111453776D01*
X144101416Y-111527697D01*
X144100446Y-111582201D01*
X144099135Y-111611426D01*
X144098433Y-111614765D01*
X144081175Y-111609559D01*
X144043011Y-111598074D01*
X144026466Y-111593099D01*
X143958733Y-111572734D01*
X143953874Y-111427396D01*
X143949016Y-111282058D01*
X144025169Y-111199295D01*
X144101321Y-111116533D01*
X144101994Y-111366300D01*
G36*
X145422962Y-111065733D02*
X145423214Y-111372955D01*
X145423118Y-111485802D01*
X145421842Y-111569226D01*
X145418222Y-111627672D01*
X145411096Y-111665584D01*
X145399300Y-111687406D01*
X145381671Y-111697582D01*
X145357045Y-111700556D01*
X145337415Y-111700733D01*
X145326980Y-111699257D01*
X145319066Y-111692103D01*
X145313335Y-111675186D01*
X145309448Y-111644420D01*
X145307068Y-111595718D01*
X145305858Y-111524995D01*
X145305479Y-111428164D01*
X145305569Y-111315500D01*
X145306204Y-110930267D01*
X145422962Y-111065733D01*
X145422962Y-111065733D01*
G37*
X145422962Y-111065733D02*
X145423214Y-111372955D01*
X145423118Y-111485802D01*
X145421842Y-111569226D01*
X145418222Y-111627672D01*
X145411096Y-111665584D01*
X145399300Y-111687406D01*
X145381671Y-111697582D01*
X145357045Y-111700556D01*
X145337415Y-111700733D01*
X145326980Y-111699257D01*
X145319066Y-111692103D01*
X145313335Y-111675186D01*
X145309448Y-111644420D01*
X145307068Y-111595718D01*
X145305858Y-111524995D01*
X145305479Y-111428164D01*
X145305569Y-111315500D01*
X145306204Y-110930267D01*
X145422962Y-111065733D01*
G36*
X144272000Y-111700733D02*
X144233900Y-111699396D01*
X144193710Y-111694661D01*
X144174633Y-111689519D01*
X144166593Y-111677081D01*
X144160706Y-111644930D01*
X144156747Y-111589682D01*
X144154492Y-111507953D01*
X144153718Y-111396358D01*
X144153718Y-111373355D01*
X144153970Y-111065733D01*
X144270728Y-110930267D01*
X144272000Y-111700733D01*
X144272000Y-111700733D01*
G37*
X144272000Y-111700733D02*
X144233900Y-111699396D01*
X144193710Y-111694661D01*
X144174633Y-111689519D01*
X144166593Y-111677081D01*
X144160706Y-111644930D01*
X144156747Y-111589682D01*
X144154492Y-111507953D01*
X144153718Y-111396358D01*
X144153718Y-111373355D01*
X144153970Y-111065733D01*
X144270728Y-110930267D01*
X144272000Y-111700733D01*
G36*
X145254133Y-111768467D02*
X145135600Y-111768467D01*
X145135600Y-110871000D01*
X145254133Y-110871000D01*
X145254133Y-111768467D01*
X145254133Y-111768467D01*
G37*
X145254133Y-111768467D02*
X145135600Y-111768467D01*
X145135600Y-110871000D01*
X145254133Y-110871000D01*
X145254133Y-111768467D01*
G36*
X144445026Y-111319745D02*
X144449800Y-111768490D01*
X144386300Y-111768478D01*
X144322800Y-111768467D01*
X144322800Y-110871000D01*
X144440253Y-110871000D01*
X144445026Y-111319745D01*
X144445026Y-111319745D01*
G37*
X144445026Y-111319745D02*
X144449800Y-111768490D01*
X144386300Y-111768478D01*
X144322800Y-111768467D01*
X144322800Y-110871000D01*
X144440253Y-110871000D01*
X144445026Y-111319745D01*
G36*
X145084302Y-111309524D02*
X145083021Y-111815782D01*
X145045810Y-111825760D01*
X145018875Y-111833363D01*
X144997466Y-111837924D01*
X144980953Y-111836124D01*
X144968703Y-111824650D01*
X144960083Y-111800184D01*
X144954463Y-111759412D01*
X144951208Y-111699016D01*
X144949688Y-111615682D01*
X144949269Y-111506093D01*
X144949320Y-111366934D01*
X144949333Y-111319733D01*
X144949333Y-110803267D01*
X145085584Y-110803267D01*
X145084302Y-111309524D01*
X145084302Y-111309524D01*
G37*
X145084302Y-111309524D02*
X145083021Y-111815782D01*
X145045810Y-111825760D01*
X145018875Y-111833363D01*
X144997466Y-111837924D01*
X144980953Y-111836124D01*
X144968703Y-111824650D01*
X144960083Y-111800184D01*
X144954463Y-111759412D01*
X144951208Y-111699016D01*
X144949688Y-111615682D01*
X144949269Y-111506093D01*
X144949320Y-111366934D01*
X144949333Y-111319733D01*
X144949333Y-110803267D01*
X145085584Y-110803267D01*
X145084302Y-111309524D01*
G36*
X144564100Y-110803261D02*
X144627600Y-110803267D01*
X144627600Y-111836200D01*
X144589500Y-111835010D01*
X144546941Y-111828994D01*
X144526000Y-111822310D01*
X144518628Y-111814971D01*
X144512800Y-111798059D01*
X144508343Y-111768082D01*
X144505084Y-111721548D01*
X144502853Y-111654967D01*
X144501477Y-111564845D01*
X144500783Y-111447692D01*
X144500600Y-111307028D01*
X144500600Y-110803256D01*
X144564100Y-110803261D01*
X144564100Y-110803261D01*
G37*
X144564100Y-110803261D02*
X144627600Y-110803267D01*
X144627600Y-111836200D01*
X144589500Y-111835010D01*
X144546941Y-111828994D01*
X144526000Y-111822310D01*
X144518628Y-111814971D01*
X144512800Y-111798059D01*
X144508343Y-111768082D01*
X144505084Y-111721548D01*
X144502853Y-111654967D01*
X144501477Y-111564845D01*
X144500783Y-111447692D01*
X144500600Y-111307028D01*
X144500600Y-110803256D01*
X144564100Y-110803261D01*
G36*
X144881600Y-111887000D02*
X144678400Y-111887000D01*
X144678400Y-110718600D01*
X144881600Y-110718600D01*
X144881600Y-111887000D01*
X144881600Y-111887000D01*
G37*
X144881600Y-111887000D02*
X144678400Y-111887000D01*
X144678400Y-110718600D01*
X144881600Y-110718600D01*
X144881600Y-111887000D01*
G36*
X146160892Y-111506378D02*
X146194314Y-111534503D01*
X146247310Y-111583277D01*
X146266514Y-111601283D01*
X146379450Y-111700501D01*
X146477990Y-111772619D01*
X146560951Y-111816816D01*
X146593163Y-111827447D01*
X146620392Y-111843586D01*
X146651018Y-111873874D01*
X146677099Y-111908343D01*
X146690690Y-111937026D01*
X146689093Y-111947817D01*
X146672232Y-111944022D01*
X146631955Y-111929210D01*
X146575753Y-111906212D01*
X146552256Y-111896122D01*
X146420521Y-111829034D01*
X146309595Y-111752457D01*
X146222982Y-111669574D01*
X146164189Y-111583569D01*
X146141394Y-111522933D01*
X146138100Y-111502890D01*
X146143376Y-111496606D01*
X146160892Y-111506378D01*
X146160892Y-111506378D01*
G37*
X146160892Y-111506378D02*
X146194314Y-111534503D01*
X146247310Y-111583277D01*
X146266514Y-111601283D01*
X146379450Y-111700501D01*
X146477990Y-111772619D01*
X146560951Y-111816816D01*
X146593163Y-111827447D01*
X146620392Y-111843586D01*
X146651018Y-111873874D01*
X146677099Y-111908343D01*
X146690690Y-111937026D01*
X146689093Y-111947817D01*
X146672232Y-111944022D01*
X146631955Y-111929210D01*
X146575753Y-111906212D01*
X146552256Y-111896122D01*
X146420521Y-111829034D01*
X146309595Y-111752457D01*
X146222982Y-111669574D01*
X146164189Y-111583569D01*
X146141394Y-111522933D01*
X146138100Y-111502890D01*
X146143376Y-111496606D01*
X146160892Y-111506378D01*
G36*
X143437274Y-111513859D02*
X143435253Y-111522933D01*
X143395026Y-111616931D01*
X143322832Y-111706609D01*
X143220455Y-111790446D01*
X143089680Y-111866921D01*
X142968970Y-111920537D01*
X142922022Y-111937584D01*
X142890965Y-111946068D01*
X142883466Y-111945424D01*
X142898247Y-111910527D01*
X142938299Y-111869428D01*
X142997186Y-111827826D01*
X143045915Y-111801578D01*
X143136590Y-111747437D01*
X143240155Y-111666004D01*
X143300680Y-111611172D01*
X143362332Y-111553505D01*
X143403308Y-111517242D01*
X143427117Y-111500081D01*
X143437269Y-111499720D01*
X143437274Y-111513859D01*
X143437274Y-111513859D01*
G37*
X143437274Y-111513859D02*
X143435253Y-111522933D01*
X143395026Y-111616931D01*
X143322832Y-111706609D01*
X143220455Y-111790446D01*
X143089680Y-111866921D01*
X142968970Y-111920537D01*
X142922022Y-111937584D01*
X142890965Y-111946068D01*
X142883466Y-111945424D01*
X142898247Y-111910527D01*
X142938299Y-111869428D01*
X142997186Y-111827826D01*
X143045915Y-111801578D01*
X143136590Y-111747437D01*
X143240155Y-111666004D01*
X143300680Y-111611172D01*
X143362332Y-111553505D01*
X143403308Y-111517242D01*
X143427117Y-111500081D01*
X143437269Y-111499720D01*
X143437274Y-111513859D01*
G36*
X144816112Y-110554892D02*
X144868161Y-110570165D01*
X144938131Y-110592682D01*
X145019157Y-110620038D01*
X145104374Y-110649829D01*
X145186918Y-110679650D01*
X145259925Y-110707097D01*
X145316530Y-110729766D01*
X145349869Y-110745252D01*
X145351971Y-110746508D01*
X145379318Y-110767075D01*
X145425220Y-110805088D01*
X145483264Y-110855116D01*
X145546704Y-110911429D01*
X145646279Y-110999390D01*
X145725827Y-111065406D01*
X145788842Y-111111895D01*
X145838821Y-111141275D01*
X145879261Y-111155964D01*
X145904373Y-111158802D01*
X145940969Y-111155436D01*
X146002250Y-111146312D01*
X146079795Y-111132805D01*
X146165184Y-111116292D01*
X146168533Y-111115611D01*
X146319128Y-111089624D01*
X146472912Y-111071582D01*
X146622414Y-111061817D01*
X146760165Y-111060660D01*
X146878694Y-111068442D01*
X146952779Y-111080878D01*
X147029702Y-111102737D01*
X147109537Y-111131191D01*
X147160294Y-111153194D01*
X147232740Y-111197705D01*
X147305785Y-111257851D01*
X147371887Y-111325835D01*
X147423501Y-111393862D01*
X147453085Y-111454136D01*
X147453763Y-111456490D01*
X147472038Y-111577849D01*
X147460289Y-111693469D01*
X147420830Y-111798668D01*
X147355975Y-111888768D01*
X147268036Y-111959089D01*
X147186698Y-111996594D01*
X147072304Y-112018741D01*
X146959443Y-112009371D01*
X146853667Y-111970596D01*
X146760528Y-111904527D01*
X146685580Y-111813274D01*
X146679927Y-111803917D01*
X146646819Y-111719999D01*
X146632265Y-111620775D01*
X146633392Y-111594059D01*
X146846116Y-111594059D01*
X146862582Y-111670631D01*
X146910778Y-111735966D01*
X146945984Y-111763725D01*
X147014008Y-111796345D01*
X147079408Y-111797468D01*
X147133079Y-111777271D01*
X147200284Y-111726194D01*
X147240495Y-111659874D01*
X147251578Y-111584586D01*
X147231394Y-111506607D01*
X147227732Y-111499207D01*
X147181264Y-111440310D01*
X147120881Y-111406466D01*
X147053433Y-111395972D01*
X146985768Y-111407126D01*
X146924735Y-111438226D01*
X146877183Y-111487569D01*
X146849961Y-111553453D01*
X146846116Y-111594059D01*
X146633392Y-111594059D01*
X146636549Y-111519235D01*
X146659957Y-111428369D01*
X146671141Y-111404400D01*
X146740885Y-111306052D01*
X146829994Y-111232683D01*
X146934097Y-111187456D01*
X146985383Y-111177031D01*
X147074466Y-111164984D01*
X146998266Y-111140793D01*
X146946669Y-111129625D01*
X146872420Y-111122337D01*
X146771661Y-111118670D01*
X146659599Y-111118224D01*
X146540602Y-111120139D01*
X146443727Y-111124997D01*
X146357277Y-111133950D01*
X146269554Y-111148152D01*
X146187371Y-111164756D01*
X146074210Y-111188169D01*
X145987489Y-111202990D01*
X145920749Y-111208654D01*
X145867526Y-111204596D01*
X145821360Y-111190250D01*
X145775791Y-111165052D01*
X145724355Y-111128434D01*
X145718061Y-111123684D01*
X145655696Y-111074537D01*
X145579996Y-111012013D01*
X145502484Y-110945732D01*
X145458931Y-110907295D01*
X145404173Y-110858699D01*
X145359923Y-110822141D01*
X145319044Y-110793744D01*
X145274399Y-110769633D01*
X145218851Y-110745932D01*
X145145262Y-110718766D01*
X145051282Y-110685919D01*
X144789165Y-110594950D01*
X144551749Y-110676394D01*
X144464853Y-110706600D01*
X144387043Y-110734384D01*
X144325099Y-110757270D01*
X144285802Y-110772783D01*
X144278041Y-110776319D01*
X144252504Y-110794010D01*
X144207602Y-110829731D01*
X144149055Y-110878761D01*
X144082585Y-110936381D01*
X144062394Y-110954245D01*
X143963843Y-111040499D01*
X143885242Y-111105641D01*
X143822449Y-111152358D01*
X143771323Y-111183339D01*
X143727720Y-111201273D01*
X143687499Y-111208848D01*
X143668961Y-111209594D01*
X143625194Y-111206045D01*
X143557689Y-111196330D01*
X143475702Y-111181941D01*
X143389561Y-111164598D01*
X143296870Y-111145917D01*
X143215708Y-111133045D01*
X143135242Y-111124955D01*
X143044642Y-111120615D01*
X142933078Y-111118997D01*
X142908866Y-111118913D01*
X142796544Y-111119466D01*
X142712230Y-111122018D01*
X142650101Y-111127033D01*
X142604333Y-111134974D01*
X142570200Y-111145855D01*
X142529352Y-111163012D01*
X142517776Y-111171192D01*
X142533325Y-111174053D01*
X142553266Y-111174701D01*
X142659697Y-111193632D01*
X142758099Y-111242034D01*
X142842354Y-111315568D01*
X142906345Y-111409892D01*
X142917001Y-111432781D01*
X142940212Y-111497214D01*
X142949036Y-111557329D01*
X142946765Y-111627479D01*
X142922146Y-111743718D01*
X142871144Y-111843254D01*
X142798262Y-111923275D01*
X142708002Y-111980972D01*
X142604867Y-112013532D01*
X142493360Y-112018144D01*
X142377984Y-111991997D01*
X142368585Y-111988439D01*
X142268298Y-111932294D01*
X142189805Y-111853371D01*
X142135401Y-111756583D01*
X142107384Y-111646842D01*
X142107507Y-111624913D01*
X142329926Y-111624913D01*
X142330292Y-111627241D01*
X142355746Y-111695409D01*
X142403142Y-111754548D01*
X142451666Y-111787045D01*
X142515090Y-111798530D01*
X142585544Y-111786511D01*
X142649137Y-111754118D01*
X142667241Y-111738508D01*
X142710423Y-111674881D01*
X142727313Y-111602945D01*
X142718902Y-111531140D01*
X142686181Y-111467906D01*
X142630142Y-111421683D01*
X142630020Y-111421620D01*
X142552059Y-111397123D01*
X142477482Y-111401324D01*
X142412135Y-111430213D01*
X142361863Y-111479781D01*
X142332512Y-111546018D01*
X142329926Y-111624913D01*
X142107507Y-111624913D01*
X142108049Y-111529064D01*
X142121980Y-111460799D01*
X142149575Y-111402231D01*
X142199075Y-111334493D01*
X142263275Y-111265724D01*
X142334969Y-111204057D01*
X142372981Y-111177395D01*
X142431087Y-111147064D01*
X142507690Y-111116348D01*
X142587997Y-111091098D01*
X142597183Y-111088712D01*
X142662178Y-111073593D01*
X142720268Y-111064045D01*
X142781254Y-111059381D01*
X142854937Y-111058910D01*
X142951121Y-111061945D01*
X142967927Y-111062653D01*
X143139573Y-111075531D01*
X143313095Y-111098354D01*
X143408399Y-111115611D01*
X143494006Y-111132218D01*
X143572176Y-111145870D01*
X143634459Y-111155189D01*
X143672404Y-111158796D01*
X143673237Y-111158802D01*
X143717739Y-111148723D01*
X143777209Y-111117606D01*
X143853326Y-111064261D01*
X143947771Y-110987502D01*
X144062222Y-110886141D01*
X144073027Y-110876262D01*
X144221188Y-110740488D01*
X144491024Y-110644877D01*
X144582271Y-110613112D01*
X144663740Y-110585812D01*
X144729512Y-110564877D01*
X144773673Y-110552206D01*
X144788847Y-110549266D01*
X144816112Y-110554892D01*
X144816112Y-110554892D01*
G37*
X144816112Y-110554892D02*
X144868161Y-110570165D01*
X144938131Y-110592682D01*
X145019157Y-110620038D01*
X145104374Y-110649829D01*
X145186918Y-110679650D01*
X145259925Y-110707097D01*
X145316530Y-110729766D01*
X145349869Y-110745252D01*
X145351971Y-110746508D01*
X145379318Y-110767075D01*
X145425220Y-110805088D01*
X145483264Y-110855116D01*
X145546704Y-110911429D01*
X145646279Y-110999390D01*
X145725827Y-111065406D01*
X145788842Y-111111895D01*
X145838821Y-111141275D01*
X145879261Y-111155964D01*
X145904373Y-111158802D01*
X145940969Y-111155436D01*
X146002250Y-111146312D01*
X146079795Y-111132805D01*
X146165184Y-111116292D01*
X146168533Y-111115611D01*
X146319128Y-111089624D01*
X146472912Y-111071582D01*
X146622414Y-111061817D01*
X146760165Y-111060660D01*
X146878694Y-111068442D01*
X146952779Y-111080878D01*
X147029702Y-111102737D01*
X147109537Y-111131191D01*
X147160294Y-111153194D01*
X147232740Y-111197705D01*
X147305785Y-111257851D01*
X147371887Y-111325835D01*
X147423501Y-111393862D01*
X147453085Y-111454136D01*
X147453763Y-111456490D01*
X147472038Y-111577849D01*
X147460289Y-111693469D01*
X147420830Y-111798668D01*
X147355975Y-111888768D01*
X147268036Y-111959089D01*
X147186698Y-111996594D01*
X147072304Y-112018741D01*
X146959443Y-112009371D01*
X146853667Y-111970596D01*
X146760528Y-111904527D01*
X146685580Y-111813274D01*
X146679927Y-111803917D01*
X146646819Y-111719999D01*
X146632265Y-111620775D01*
X146633392Y-111594059D01*
X146846116Y-111594059D01*
X146862582Y-111670631D01*
X146910778Y-111735966D01*
X146945984Y-111763725D01*
X147014008Y-111796345D01*
X147079408Y-111797468D01*
X147133079Y-111777271D01*
X147200284Y-111726194D01*
X147240495Y-111659874D01*
X147251578Y-111584586D01*
X147231394Y-111506607D01*
X147227732Y-111499207D01*
X147181264Y-111440310D01*
X147120881Y-111406466D01*
X147053433Y-111395972D01*
X146985768Y-111407126D01*
X146924735Y-111438226D01*
X146877183Y-111487569D01*
X146849961Y-111553453D01*
X146846116Y-111594059D01*
X146633392Y-111594059D01*
X146636549Y-111519235D01*
X146659957Y-111428369D01*
X146671141Y-111404400D01*
X146740885Y-111306052D01*
X146829994Y-111232683D01*
X146934097Y-111187456D01*
X146985383Y-111177031D01*
X147074466Y-111164984D01*
X146998266Y-111140793D01*
X146946669Y-111129625D01*
X146872420Y-111122337D01*
X146771661Y-111118670D01*
X146659599Y-111118224D01*
X146540602Y-111120139D01*
X146443727Y-111124997D01*
X146357277Y-111133950D01*
X146269554Y-111148152D01*
X146187371Y-111164756D01*
X146074210Y-111188169D01*
X145987489Y-111202990D01*
X145920749Y-111208654D01*
X145867526Y-111204596D01*
X145821360Y-111190250D01*
X145775791Y-111165052D01*
X145724355Y-111128434D01*
X145718061Y-111123684D01*
X145655696Y-111074537D01*
X145579996Y-111012013D01*
X145502484Y-110945732D01*
X145458931Y-110907295D01*
X145404173Y-110858699D01*
X145359923Y-110822141D01*
X145319044Y-110793744D01*
X145274399Y-110769633D01*
X145218851Y-110745932D01*
X145145262Y-110718766D01*
X145051282Y-110685919D01*
X144789165Y-110594950D01*
X144551749Y-110676394D01*
X144464853Y-110706600D01*
X144387043Y-110734384D01*
X144325099Y-110757270D01*
X144285802Y-110772783D01*
X144278041Y-110776319D01*
X144252504Y-110794010D01*
X144207602Y-110829731D01*
X144149055Y-110878761D01*
X144082585Y-110936381D01*
X144062394Y-110954245D01*
X143963843Y-111040499D01*
X143885242Y-111105641D01*
X143822449Y-111152358D01*
X143771323Y-111183339D01*
X143727720Y-111201273D01*
X143687499Y-111208848D01*
X143668961Y-111209594D01*
X143625194Y-111206045D01*
X143557689Y-111196330D01*
X143475702Y-111181941D01*
X143389561Y-111164598D01*
X143296870Y-111145917D01*
X143215708Y-111133045D01*
X143135242Y-111124955D01*
X143044642Y-111120615D01*
X142933078Y-111118997D01*
X142908866Y-111118913D01*
X142796544Y-111119466D01*
X142712230Y-111122018D01*
X142650101Y-111127033D01*
X142604333Y-111134974D01*
X142570200Y-111145855D01*
X142529352Y-111163012D01*
X142517776Y-111171192D01*
X142533325Y-111174053D01*
X142553266Y-111174701D01*
X142659697Y-111193632D01*
X142758099Y-111242034D01*
X142842354Y-111315568D01*
X142906345Y-111409892D01*
X142917001Y-111432781D01*
X142940212Y-111497214D01*
X142949036Y-111557329D01*
X142946765Y-111627479D01*
X142922146Y-111743718D01*
X142871144Y-111843254D01*
X142798262Y-111923275D01*
X142708002Y-111980972D01*
X142604867Y-112013532D01*
X142493360Y-112018144D01*
X142377984Y-111991997D01*
X142368585Y-111988439D01*
X142268298Y-111932294D01*
X142189805Y-111853371D01*
X142135401Y-111756583D01*
X142107384Y-111646842D01*
X142107507Y-111624913D01*
X142329926Y-111624913D01*
X142330292Y-111627241D01*
X142355746Y-111695409D01*
X142403142Y-111754548D01*
X142451666Y-111787045D01*
X142515090Y-111798530D01*
X142585544Y-111786511D01*
X142649137Y-111754118D01*
X142667241Y-111738508D01*
X142710423Y-111674881D01*
X142727313Y-111602945D01*
X142718902Y-111531140D01*
X142686181Y-111467906D01*
X142630142Y-111421683D01*
X142630020Y-111421620D01*
X142552059Y-111397123D01*
X142477482Y-111401324D01*
X142412135Y-111430213D01*
X142361863Y-111479781D01*
X142332512Y-111546018D01*
X142329926Y-111624913D01*
X142107507Y-111624913D01*
X142108049Y-111529064D01*
X142121980Y-111460799D01*
X142149575Y-111402231D01*
X142199075Y-111334493D01*
X142263275Y-111265724D01*
X142334969Y-111204057D01*
X142372981Y-111177395D01*
X142431087Y-111147064D01*
X142507690Y-111116348D01*
X142587997Y-111091098D01*
X142597183Y-111088712D01*
X142662178Y-111073593D01*
X142720268Y-111064045D01*
X142781254Y-111059381D01*
X142854937Y-111058910D01*
X142951121Y-111061945D01*
X142967927Y-111062653D01*
X143139573Y-111075531D01*
X143313095Y-111098354D01*
X143408399Y-111115611D01*
X143494006Y-111132218D01*
X143572176Y-111145870D01*
X143634459Y-111155189D01*
X143672404Y-111158796D01*
X143673237Y-111158802D01*
X143717739Y-111148723D01*
X143777209Y-111117606D01*
X143853326Y-111064261D01*
X143947771Y-110987502D01*
X144062222Y-110886141D01*
X144073027Y-110876262D01*
X144221188Y-110740488D01*
X144491024Y-110644877D01*
X144582271Y-110613112D01*
X144663740Y-110585812D01*
X144729512Y-110564877D01*
X144773673Y-110552206D01*
X144788847Y-110549266D01*
X144816112Y-110554892D01*
G36*
X145168698Y-102231785D02*
X145537987Y-102271555D01*
X145890121Y-102338310D01*
X146227353Y-102432525D01*
X146551938Y-102554679D01*
X146710399Y-102626480D01*
X146960843Y-102761551D01*
X147196594Y-102918593D01*
X147413175Y-103093937D01*
X147606110Y-103283914D01*
X147770921Y-103484853D01*
X147789677Y-103511064D01*
X147939328Y-103752796D01*
X148062850Y-104015696D01*
X148160289Y-104299906D01*
X148231692Y-104605570D01*
X148277104Y-104932829D01*
X148286418Y-105045933D01*
X148293908Y-105150072D01*
X148300499Y-105226027D01*
X148307251Y-105279424D01*
X148315228Y-105315888D01*
X148325492Y-105341046D01*
X148339106Y-105360523D01*
X148347613Y-105370009D01*
X148389391Y-105437552D01*
X148410997Y-105524202D01*
X148412346Y-105621797D01*
X148393349Y-105722176D01*
X148353921Y-105817177D01*
X148352402Y-105819893D01*
X148302679Y-105908053D01*
X148368176Y-106090826D01*
X148433674Y-106273600D01*
X148564600Y-106273600D01*
X148631382Y-106472467D01*
X148665640Y-106568892D01*
X148693470Y-106634432D01*
X148715878Y-106671247D01*
X148728620Y-106681001D01*
X148769946Y-106702608D01*
X148823184Y-106741353D01*
X148878270Y-106788603D01*
X148925141Y-106835726D01*
X148953733Y-106874090D01*
X148953744Y-106874110D01*
X148969223Y-106918808D01*
X148984399Y-106987511D01*
X148998013Y-107070368D01*
X149008803Y-107157531D01*
X149015511Y-107239152D01*
X149016875Y-107305379D01*
X149013379Y-107340195D01*
X148995526Y-107392827D01*
X148967902Y-107449786D01*
X148961599Y-107460444D01*
X148942826Y-107492315D01*
X148932942Y-107518724D01*
X148931443Y-107549379D01*
X148937822Y-107593989D01*
X148951197Y-107660435D01*
X148971751Y-107784075D01*
X148975879Y-107881168D01*
X148963091Y-107955047D01*
X148932895Y-108009049D01*
X148895363Y-108040494D01*
X148849551Y-108068533D01*
X149016500Y-108322533D01*
X149155938Y-108540333D01*
X149273478Y-108736925D01*
X149370541Y-108915662D01*
X149448546Y-109079899D01*
X149508913Y-109232989D01*
X149553063Y-109378284D01*
X149582414Y-109519139D01*
X149598388Y-109658907D01*
X149600848Y-109702600D01*
X149601266Y-109861472D01*
X149586110Y-110000637D01*
X149553175Y-110131503D01*
X149500257Y-110265477D01*
X149486306Y-110295266D01*
X149450361Y-110366880D01*
X149413439Y-110431846D01*
X149371832Y-110494990D01*
X149321833Y-110561132D01*
X149259734Y-110635098D01*
X149181828Y-110721709D01*
X149084406Y-110825790D01*
X149053310Y-110858527D01*
X148849203Y-111079879D01*
X148634571Y-111325840D01*
X148414201Y-111590808D01*
X148225210Y-111827733D01*
X148103666Y-111978503D01*
X147996876Y-112101108D01*
X147903325Y-112197091D01*
X147821499Y-112267991D01*
X147749885Y-112315349D01*
X147741770Y-112319592D01*
X147634742Y-112361247D01*
X147501849Y-112392920D01*
X147349653Y-112414398D01*
X147184717Y-112425463D01*
X147013604Y-112425899D01*
X146842876Y-112415492D01*
X146679097Y-112394025D01*
X146528830Y-112361282D01*
X146522976Y-112359675D01*
X146375464Y-112311189D01*
X146252316Y-112252533D01*
X146144415Y-112178616D01*
X146058023Y-112100134D01*
X146004031Y-112042437D01*
X145957559Y-111986942D01*
X145925337Y-111941961D01*
X145916269Y-111925057D01*
X145894908Y-111888291D01*
X145872475Y-111870399D01*
X145869722Y-111870067D01*
X145843952Y-111877321D01*
X145797444Y-111896509D01*
X145739418Y-111923769D01*
X145728399Y-111929266D01*
X145560249Y-112003527D01*
X145385897Y-112058825D01*
X145199062Y-112096449D01*
X144993462Y-112117689D01*
X144780000Y-112123867D01*
X144564345Y-112117807D01*
X144372738Y-112098574D01*
X144197408Y-112064582D01*
X144030581Y-112014250D01*
X143864485Y-111945993D01*
X143832211Y-111930792D01*
X143771729Y-111902717D01*
X143722277Y-111881521D01*
X143692245Y-111870741D01*
X143688248Y-111870067D01*
X143671024Y-111883813D01*
X143646055Y-111918974D01*
X143630111Y-111946782D01*
X143578389Y-112022213D01*
X143504021Y-112102065D01*
X143415886Y-112178391D01*
X143322864Y-112243242D01*
X143261628Y-112276599D01*
X143135135Y-112329771D01*
X143006416Y-112369312D01*
X142867699Y-112396776D01*
X142711212Y-112413716D01*
X142536333Y-112421535D01*
X142374338Y-112422699D01*
X142240902Y-112418309D01*
X142131143Y-112408161D01*
X142097517Y-112403228D01*
X141988620Y-112381008D01*
X141892186Y-112350134D01*
X141803538Y-112307303D01*
X141718002Y-112249211D01*
X141630902Y-112172551D01*
X141537561Y-112074020D01*
X141433305Y-111950314D01*
X141402631Y-111912109D01*
X141273670Y-111750436D01*
X141162479Y-111611743D01*
X141065924Y-111492365D01*
X140980873Y-111388638D01*
X140904192Y-111296896D01*
X140832749Y-111213474D01*
X140763409Y-111134705D01*
X140693040Y-111056926D01*
X140618509Y-110976471D01*
X140536683Y-110889674D01*
X140458206Y-110807285D01*
X140385551Y-110729405D01*
X140315470Y-110650985D01*
X140253944Y-110578953D01*
X140206955Y-110520234D01*
X140189402Y-110496016D01*
X140082914Y-110313608D01*
X140008344Y-110126299D01*
X139965658Y-109932968D01*
X139954819Y-109732495D01*
X139959241Y-109688481D01*
X140034274Y-109688481D01*
X140043213Y-109852174D01*
X140057880Y-109989336D01*
X140087843Y-110117595D01*
X140135489Y-110241447D01*
X140203206Y-110365390D01*
X140293382Y-110493923D01*
X140408403Y-110631541D01*
X140521137Y-110752467D01*
X140684054Y-110924742D01*
X140845124Y-111102370D01*
X140995980Y-111275950D01*
X141113933Y-111418256D01*
X141161811Y-111477063D01*
X141201438Y-111524674D01*
X141228331Y-111555770D01*
X141237884Y-111565254D01*
X141232936Y-111551482D01*
X141215131Y-111514595D01*
X141187751Y-111461255D01*
X141172297Y-111432003D01*
X141135274Y-111369368D01*
X141086672Y-111300070D01*
X141023089Y-111219776D01*
X140941125Y-111124155D01*
X140856507Y-111029837D01*
X140719079Y-110877323D01*
X140592414Y-110733687D01*
X140478687Y-110601527D01*
X140380072Y-110483445D01*
X140298743Y-110382040D01*
X140236876Y-110299911D01*
X140199106Y-110243763D01*
X140147624Y-110137390D01*
X140112699Y-110019507D01*
X140094588Y-109897271D01*
X140093547Y-109777839D01*
X140109834Y-109668367D01*
X140143707Y-109576013D01*
X140173464Y-109530716D01*
X140192204Y-109508912D01*
X140199055Y-109506683D01*
X140194718Y-109528368D01*
X140180712Y-109575600D01*
X140166455Y-109639193D01*
X140163646Y-109704826D01*
X140173124Y-109779965D01*
X140195728Y-109872075D01*
X140224503Y-109965066D01*
X140249365Y-110038956D01*
X140265312Y-110080871D01*
X140272660Y-110090587D01*
X140271727Y-110067878D01*
X140262827Y-110012522D01*
X140250564Y-109946569D01*
X140239589Y-109884086D01*
X140232936Y-109835731D01*
X140231714Y-109809958D01*
X140232397Y-109808025D01*
X140241537Y-109818238D01*
X140255954Y-109861774D01*
X140275615Y-109938510D01*
X140300486Y-110048321D01*
X140312742Y-110105526D01*
X140349590Y-110279853D01*
X140503161Y-110471981D01*
X140572522Y-110557954D01*
X140647212Y-110649147D01*
X140724067Y-110741842D01*
X140799923Y-110832317D01*
X140871616Y-110916853D01*
X140935983Y-110991730D01*
X140989860Y-111053228D01*
X141030084Y-111097627D01*
X141053491Y-111121208D01*
X141057717Y-111124038D01*
X141061360Y-111110600D01*
X141055220Y-111076389D01*
X141053484Y-111070078D01*
X141040921Y-110995800D01*
X141038824Y-110908975D01*
X141042226Y-110874574D01*
X141091708Y-110874574D01*
X141093642Y-110991153D01*
X141119757Y-111127909D01*
X141169687Y-111283457D01*
X141243071Y-111456412D01*
X141339543Y-111645390D01*
X141343968Y-111653427D01*
X141427128Y-111794480D01*
X141511148Y-111915065D01*
X141605210Y-112027542D01*
X141681199Y-112107319D01*
X141743679Y-112167031D01*
X141801478Y-112213061D01*
X141861590Y-112248534D01*
X141931011Y-112276577D01*
X142016735Y-112300316D01*
X142125756Y-112322875D01*
X142189200Y-112334340D01*
X142219647Y-112336467D01*
X142277452Y-112337698D01*
X142356118Y-112337999D01*
X142449148Y-112337334D01*
X142527866Y-112336118D01*
X142649722Y-112332939D01*
X142745483Y-112328140D01*
X142822911Y-112320960D01*
X142889767Y-112310635D01*
X142953814Y-112296402D01*
X142967333Y-112292924D01*
X143090613Y-112257272D01*
X143189391Y-112220464D01*
X143272922Y-112178664D01*
X143329576Y-112142805D01*
X143449898Y-112042625D01*
X143540475Y-111928525D01*
X143574522Y-111866009D01*
X143602897Y-111813589D01*
X143629245Y-111778908D01*
X143645466Y-111769045D01*
X143657475Y-111770296D01*
X143675118Y-111774999D01*
X143702648Y-111784855D01*
X143744314Y-111801568D01*
X143804369Y-111826841D01*
X143887064Y-111862379D01*
X143992758Y-111908193D01*
X144088149Y-111947046D01*
X144177681Y-111976978D01*
X144268461Y-111999243D01*
X144367598Y-112015097D01*
X144482200Y-112025795D01*
X144619376Y-112032591D01*
X144712266Y-112035245D01*
X144887641Y-112037141D01*
X145036716Y-112033069D01*
X145166738Y-112021719D01*
X145284951Y-112001779D01*
X145398603Y-111971941D01*
X145514938Y-111930892D01*
X145641202Y-111877323D01*
X145677758Y-111860624D01*
X145750712Y-111828189D01*
X145817462Y-111800803D01*
X145868815Y-111782122D01*
X145889425Y-111776411D01*
X145917377Y-111773199D01*
X145937387Y-111780876D01*
X145956083Y-111805712D01*
X145980090Y-111853975D01*
X145986845Y-111868582D01*
X146059943Y-111987154D01*
X146162698Y-112090948D01*
X146293904Y-112179124D01*
X146452353Y-112250843D01*
X146603800Y-112297299D01*
X146660989Y-112310661D01*
X146715451Y-112320470D01*
X146773995Y-112327249D01*
X146843433Y-112331518D01*
X146930576Y-112333799D01*
X147042232Y-112334615D01*
X147091399Y-112334650D01*
X147257550Y-112332711D01*
X147395421Y-112325581D01*
X147510468Y-112311053D01*
X147608145Y-112286923D01*
X147693908Y-112250986D01*
X147773211Y-112201038D01*
X147851510Y-112134874D01*
X147934260Y-112050290D01*
X148011843Y-111962644D01*
X148089741Y-111869256D01*
X148150919Y-111787693D01*
X148203144Y-111706381D01*
X148254183Y-111613748D01*
X148279811Y-111563325D01*
X148365793Y-111379490D01*
X148428602Y-111218321D01*
X148468605Y-111078137D01*
X148486169Y-110957258D01*
X148481664Y-110854004D01*
X148455456Y-110766695D01*
X148454634Y-110764930D01*
X148421837Y-110711307D01*
X148373496Y-110650597D01*
X148325104Y-110600793D01*
X148299414Y-110577978D01*
X148273235Y-110556872D01*
X148243236Y-110535672D01*
X148206083Y-110512574D01*
X148158446Y-110485776D01*
X148096992Y-110453472D01*
X148018389Y-110413861D01*
X147919305Y-110365138D01*
X147796407Y-110305500D01*
X147646364Y-110233143D01*
X147641733Y-110230913D01*
X147547685Y-110181969D01*
X147472069Y-110132518D01*
X147400776Y-110072674D01*
X147360290Y-110033731D01*
X147239715Y-109914005D01*
X147136166Y-110007778D01*
X147029119Y-110095604D01*
X146919197Y-110169398D01*
X146815495Y-110223319D01*
X146777653Y-110238062D01*
X146759033Y-110244413D01*
X146741402Y-110249311D01*
X146721710Y-110252332D01*
X146696908Y-110253052D01*
X146663946Y-110251047D01*
X146619772Y-110245893D01*
X146561338Y-110237167D01*
X146485594Y-110224444D01*
X146389488Y-110207300D01*
X146269971Y-110185313D01*
X146123993Y-110158057D01*
X145948504Y-110125109D01*
X145901799Y-110116334D01*
X145681102Y-110075168D01*
X145490911Y-110040376D01*
X145328556Y-110011536D01*
X145191364Y-109988227D01*
X145076666Y-109970026D01*
X144981790Y-109956512D01*
X144904065Y-109947263D01*
X144840819Y-109941858D01*
X144789381Y-109939874D01*
X144784178Y-109939846D01*
X144727726Y-109943190D01*
X144640845Y-109953061D01*
X144526246Y-109969012D01*
X144386641Y-109990597D01*
X144224740Y-110017370D01*
X144043257Y-110048884D01*
X143844902Y-110084692D01*
X143632386Y-110124347D01*
X143442266Y-110160819D01*
X143317966Y-110184356D01*
X143199715Y-110205631D01*
X143093052Y-110223734D01*
X143003515Y-110237755D01*
X142936644Y-110246782D01*
X142900400Y-110249886D01*
X142813217Y-110239450D01*
X142718186Y-110203747D01*
X142612702Y-110141432D01*
X142494160Y-110051158D01*
X142460403Y-110022531D01*
X142354714Y-109931200D01*
X142426354Y-109931200D01*
X142523677Y-110009764D01*
X142614495Y-110077593D01*
X142704670Y-110135074D01*
X142787559Y-110178557D01*
X142856519Y-110204389D01*
X142887700Y-110209857D01*
X142892260Y-110194211D01*
X142896094Y-110150731D01*
X142898879Y-110085445D01*
X142900290Y-110004384D01*
X142900400Y-109973252D01*
X142900400Y-109883596D01*
X143086666Y-109883596D01*
X143087126Y-109993375D01*
X143088705Y-110073170D01*
X143091702Y-110126855D01*
X143096417Y-110158304D01*
X143103148Y-110171389D01*
X143108922Y-110171816D01*
X143135556Y-110165150D01*
X143185694Y-110155311D01*
X143249361Y-110144231D01*
X143261322Y-110142281D01*
X143391466Y-110121287D01*
X143391466Y-109725677D01*
X143391063Y-109613991D01*
X143389933Y-109514522D01*
X143388193Y-109431958D01*
X143385959Y-109370991D01*
X143383348Y-109336311D01*
X143381603Y-109330066D01*
X143361680Y-109340326D01*
X143323359Y-109367323D01*
X143273636Y-109405389D01*
X143219508Y-109448855D01*
X143167970Y-109492051D01*
X143126018Y-109529308D01*
X143100648Y-109554955D01*
X143096555Y-109561067D01*
X143093326Y-109585817D01*
X143090539Y-109638373D01*
X143088380Y-109712674D01*
X143087033Y-109802661D01*
X143086666Y-109883596D01*
X142900400Y-109883596D01*
X142900400Y-109735905D01*
X142811734Y-109796896D01*
X142719662Y-109854794D01*
X142638395Y-109892268D01*
X142556225Y-109914191D01*
X142515210Y-109920359D01*
X142426354Y-109931200D01*
X142354714Y-109931200D01*
X142328861Y-109908860D01*
X142280197Y-109975067D01*
X142214204Y-110045058D01*
X142115227Y-110120525D01*
X141983662Y-110201216D01*
X141819904Y-110286878D01*
X141720417Y-110334104D01*
X141559724Y-110411109D01*
X141428463Y-110481073D01*
X141323514Y-110546288D01*
X141241754Y-110609050D01*
X141180062Y-110671653D01*
X141135317Y-110736391D01*
X141114318Y-110779557D01*
X141091708Y-110874574D01*
X141042226Y-110874574D01*
X141046964Y-110826671D01*
X141057312Y-110784627D01*
X141105061Y-110687053D01*
X141180802Y-110594954D01*
X141286102Y-110506965D01*
X141422529Y-110421720D01*
X141545733Y-110358995D01*
X141691738Y-110289708D01*
X141810545Y-110232266D01*
X141905862Y-110184664D01*
X141981398Y-110144899D01*
X142040861Y-110110968D01*
X142087959Y-110080866D01*
X142126400Y-110052591D01*
X142151301Y-110031799D01*
X142212127Y-109976574D01*
X142247774Y-109937027D01*
X142259656Y-109907869D01*
X142249188Y-109883807D01*
X142217784Y-109859550D01*
X142200186Y-109848905D01*
X142108687Y-109782157D01*
X142011549Y-109687529D01*
X141912464Y-109569700D01*
X141815121Y-109433346D01*
X141723209Y-109283146D01*
X141660022Y-109164146D01*
X141625237Y-109090783D01*
X141604317Y-109035236D01*
X141594059Y-108986064D01*
X141591265Y-108931829D01*
X141591328Y-108918612D01*
X141596542Y-108847650D01*
X141608710Y-108777829D01*
X141619152Y-108741633D01*
X141645831Y-108669667D01*
X141562461Y-108669667D01*
X141490079Y-108672997D01*
X141396274Y-108682126D01*
X141289255Y-108695754D01*
X141177227Y-108712587D01*
X141068398Y-108731326D01*
X140970974Y-108750675D01*
X140893162Y-108769337D01*
X140853822Y-108781646D01*
X140712514Y-108849214D01*
X140568872Y-108945818D01*
X140428504Y-109067572D01*
X140399771Y-109096173D01*
X140345906Y-109153766D01*
X140300243Y-109210030D01*
X140257333Y-109272979D01*
X140211726Y-109350624D01*
X140157974Y-109450979D01*
X140156274Y-109454241D01*
X140034274Y-109688481D01*
X139959241Y-109688481D01*
X139975791Y-109523759D01*
X140023785Y-109325299D01*
X140109140Y-109325299D01*
X140115591Y-109324022D01*
X140131452Y-109304666D01*
X140154953Y-109275523D01*
X140192596Y-109229414D01*
X140236929Y-109175462D01*
X140244664Y-109166083D01*
X140340857Y-109061110D01*
X140447545Y-108968600D01*
X140569941Y-108885191D01*
X140713259Y-108807519D01*
X140882712Y-108732222D01*
X140971771Y-108697114D01*
X141079064Y-108650933D01*
X141160511Y-108601879D01*
X141223957Y-108543631D01*
X141277246Y-108469868D01*
X141297410Y-108434722D01*
X141329138Y-108361797D01*
X141359908Y-108264846D01*
X141387221Y-108153676D01*
X141408578Y-108038094D01*
X141418781Y-107958467D01*
X141429858Y-107848400D01*
X141390429Y-107924463D01*
X141339643Y-107999978D01*
X141276862Y-108048095D01*
X141195859Y-108072384D01*
X141124129Y-108077120D01*
X141041673Y-108079025D01*
X140951288Y-108083777D01*
X140901348Y-108087726D01*
X140790363Y-108098211D01*
X140606450Y-108379706D01*
X140475858Y-108584749D01*
X140363317Y-108772284D01*
X140269715Y-108940652D01*
X140195939Y-109088194D01*
X140142879Y-109213251D01*
X140115887Y-109296200D01*
X140109140Y-109325299D01*
X140023785Y-109325299D01*
X140028540Y-109305639D01*
X140113028Y-109077016D01*
X140142011Y-109011744D01*
X140195988Y-108902926D01*
X140267070Y-108773105D01*
X140351782Y-108628179D01*
X140446650Y-108474044D01*
X140548201Y-108316595D01*
X140578019Y-108271733D01*
X140714011Y-108068533D01*
X140673207Y-108034667D01*
X140628347Y-107980632D01*
X140604260Y-107908551D01*
X140601014Y-107825412D01*
X140633676Y-107825412D01*
X140633896Y-107872540D01*
X140642325Y-107915221D01*
X140650062Y-107939407D01*
X140667410Y-107976853D01*
X140692812Y-108004122D01*
X140731328Y-108022760D01*
X140788017Y-108034313D01*
X140867940Y-108040329D01*
X140976156Y-108042354D01*
X140986933Y-108042392D01*
X141082667Y-108042042D01*
X141151268Y-108039879D01*
X141199454Y-108035130D01*
X141233943Y-108027023D01*
X141261452Y-108014785D01*
X141269883Y-108009867D01*
X141329630Y-107953783D01*
X141375245Y-107867134D01*
X141406592Y-107750194D01*
X141410999Y-107724095D01*
X141419879Y-107656542D01*
X141420653Y-107610902D01*
X141412788Y-107576075D01*
X141402809Y-107554018D01*
X141376039Y-107484579D01*
X141352162Y-107385031D01*
X141331083Y-107254662D01*
X141312710Y-107092763D01*
X141296948Y-106898621D01*
X141283705Y-106671525D01*
X141281783Y-106631430D01*
X141277733Y-106544533D01*
X141311940Y-106544533D01*
X141319453Y-106671533D01*
X141332754Y-106876799D01*
X141346657Y-107050848D01*
X141361520Y-107196330D01*
X141377702Y-107315895D01*
X141395561Y-107412192D01*
X141415455Y-107487871D01*
X141437596Y-107545274D01*
X141452935Y-107589545D01*
X141456946Y-107640992D01*
X141451281Y-107708248D01*
X141444486Y-107782348D01*
X141441234Y-107858422D01*
X141441553Y-107899200D01*
X141441653Y-107977453D01*
X141437079Y-108072415D01*
X141428777Y-108174853D01*
X141417692Y-108275535D01*
X141404770Y-108365226D01*
X141390957Y-108434694D01*
X141384326Y-108458033D01*
X141362526Y-108513410D01*
X141338922Y-108559337D01*
X141328067Y-108574805D01*
X141312574Y-108594864D01*
X141317367Y-108602161D01*
X141347945Y-108599735D01*
X141367933Y-108596825D01*
X141416777Y-108589736D01*
X141486190Y-108579916D01*
X141563182Y-108569199D01*
X141583210Y-108566441D01*
X141661825Y-108553816D01*
X141714596Y-108540097D01*
X141749513Y-108522697D01*
X141767822Y-108506718D01*
X141804890Y-108467261D01*
X141760813Y-108403364D01*
X141696786Y-108292602D01*
X141638800Y-108156925D01*
X141593669Y-108016215D01*
X141580448Y-107963477D01*
X141570607Y-107910987D01*
X141563593Y-107852203D01*
X141558850Y-107780583D01*
X141555826Y-107689586D01*
X141553967Y-107572671D01*
X141553667Y-107543600D01*
X141552240Y-107425778D01*
X141550170Y-107336086D01*
X141546908Y-107268786D01*
X141541900Y-107218142D01*
X141534595Y-107178416D01*
X141524442Y-107143872D01*
X141512136Y-107111800D01*
X141492494Y-107061203D01*
X141465324Y-106987430D01*
X141433853Y-106899418D01*
X141401308Y-106806102D01*
X141392906Y-106781600D01*
X141311940Y-106544533D01*
X141277733Y-106544533D01*
X141270046Y-106379660D01*
X141200456Y-106349038D01*
X141130385Y-106319651D01*
X141083857Y-106306031D01*
X141054049Y-106308949D01*
X141034139Y-106329175D01*
X141017305Y-106367479D01*
X141016445Y-106369818D01*
X140992422Y-106436813D01*
X140980191Y-106478369D01*
X140979667Y-106500762D01*
X140990765Y-106510268D01*
X141013401Y-106513166D01*
X141014507Y-106513230D01*
X141039554Y-106515072D01*
X141059497Y-106519532D01*
X141074453Y-106529840D01*
X141084543Y-106549224D01*
X141089883Y-106580913D01*
X141090593Y-106628134D01*
X141086790Y-106694116D01*
X141078594Y-106782088D01*
X141066123Y-106895278D01*
X141049494Y-107036914D01*
X141037428Y-107138091D01*
X141020938Y-107275380D01*
X141005397Y-107403135D01*
X140991329Y-107517160D01*
X140979260Y-107613258D01*
X140969716Y-107687233D01*
X140963222Y-107734890D01*
X140960683Y-107750775D01*
X140938140Y-107784666D01*
X140895564Y-107801700D01*
X140843962Y-107798565D01*
X140824817Y-107791645D01*
X140797741Y-107772926D01*
X140785529Y-107741989D01*
X140783381Y-107709449D01*
X140817599Y-107709449D01*
X140829395Y-107747304D01*
X140857295Y-107769238D01*
X140890066Y-107770382D01*
X140913579Y-107751033D01*
X140919081Y-107729077D01*
X140927691Y-107678339D01*
X140938819Y-107603622D01*
X140951873Y-107509731D01*
X140966263Y-107401470D01*
X140981398Y-107283643D01*
X140996687Y-107161053D01*
X141011539Y-107038505D01*
X141025363Y-106920803D01*
X141037569Y-106812750D01*
X141047565Y-106719151D01*
X141054761Y-106644810D01*
X141058566Y-106594530D01*
X141058442Y-106573250D01*
X141037204Y-106558201D01*
X141005936Y-106556317D01*
X140969955Y-106569980D01*
X140956563Y-106603800D01*
X140955484Y-106630855D01*
X140963826Y-106627811D01*
X140969004Y-106620733D01*
X140979159Y-106618609D01*
X140984850Y-106646029D01*
X140986392Y-106699011D01*
X140984098Y-106773571D01*
X140978283Y-106865726D01*
X140969261Y-106971492D01*
X140957347Y-107086888D01*
X140942854Y-107207928D01*
X140926097Y-107330630D01*
X140907391Y-107451012D01*
X140900140Y-107493582D01*
X140884048Y-107581807D01*
X140871326Y-107640781D01*
X140860642Y-107674793D01*
X140850659Y-107688128D01*
X140840452Y-107685419D01*
X140823636Y-107677886D01*
X140817844Y-107697846D01*
X140817599Y-107709449D01*
X140783381Y-107709449D01*
X140782796Y-107700596D01*
X140776991Y-107647190D01*
X140756688Y-107611039D01*
X140734445Y-107590907D01*
X140687031Y-107553547D01*
X140659182Y-107680288D01*
X140641995Y-107764455D01*
X140633676Y-107825412D01*
X140601014Y-107825412D01*
X140600632Y-107815630D01*
X140617149Y-107699076D01*
X140629328Y-107645200D01*
X140658426Y-107526667D01*
X140617938Y-107464237D01*
X140588717Y-107410416D01*
X140567543Y-107356077D01*
X140564830Y-107345704D01*
X140561002Y-107298604D01*
X140563276Y-107228470D01*
X140570462Y-107145003D01*
X140581371Y-107057903D01*
X140594811Y-106976872D01*
X140609592Y-106911612D01*
X140622531Y-106875382D01*
X140651828Y-106835872D01*
X140699472Y-106787901D01*
X140755328Y-106740159D01*
X140809261Y-106701336D01*
X140849775Y-106680537D01*
X140871010Y-106662193D01*
X140893988Y-106618149D01*
X140920404Y-106544962D01*
X140927405Y-106522803D01*
X140958724Y-106424436D01*
X140983816Y-106354338D01*
X141005279Y-106308081D01*
X141007991Y-106304517D01*
X141221455Y-106304517D01*
X141228485Y-106318355D01*
X141237067Y-106325784D01*
X141253796Y-106334690D01*
X141264283Y-106326673D01*
X141271718Y-106295749D01*
X141277723Y-106249540D01*
X141287910Y-106189100D01*
X141303248Y-106127865D01*
X141320852Y-106074752D01*
X141337837Y-106038678D01*
X141349384Y-106028066D01*
X141349538Y-106042220D01*
X141339985Y-106077975D01*
X141333162Y-106098364D01*
X141313280Y-106163451D01*
X141301596Y-106227126D01*
X141298874Y-106293752D01*
X141305877Y-106367691D01*
X141323369Y-106453308D01*
X141352114Y-106554963D01*
X141392875Y-106677022D01*
X141446417Y-106823845D01*
X141472033Y-106891667D01*
X141566912Y-107127743D01*
X141662935Y-107340806D01*
X141759165Y-107529395D01*
X141854663Y-107692049D01*
X141948492Y-107827308D01*
X142039715Y-107933710D01*
X142127394Y-108009796D01*
X142210592Y-108054104D01*
X142220150Y-108057192D01*
X142266222Y-108067549D01*
X142312567Y-108068201D01*
X142372368Y-108058756D01*
X142404517Y-108051719D01*
X142550014Y-108012737D01*
X142718583Y-107957793D01*
X142904763Y-107889175D01*
X143103095Y-107809166D01*
X143308118Y-107720053D01*
X143514373Y-107624120D01*
X143716401Y-107523654D01*
X143900422Y-107425549D01*
X143968802Y-107388694D01*
X144009900Y-107368547D01*
X144025137Y-107363840D01*
X144015933Y-107373308D01*
X143983709Y-107395682D01*
X143929885Y-107429696D01*
X143855883Y-107474084D01*
X143827219Y-107490826D01*
X143653322Y-107587566D01*
X143467384Y-107683460D01*
X143275409Y-107775878D01*
X143083398Y-107862193D01*
X142897357Y-107939773D01*
X142723287Y-108005991D01*
X142567192Y-108058218D01*
X142468356Y-108085920D01*
X142386107Y-108105629D01*
X142327662Y-108116719D01*
X142284309Y-108120040D01*
X142247335Y-108116440D01*
X142220057Y-108110115D01*
X142121014Y-108066894D01*
X142020847Y-107990383D01*
X141920025Y-107881121D01*
X141819017Y-107739647D01*
X141718293Y-107566499D01*
X141677654Y-107487419D01*
X141604999Y-107341227D01*
X141599744Y-107484747D01*
X141601353Y-107656887D01*
X141617755Y-107827075D01*
X141647516Y-107989293D01*
X141689201Y-108137519D01*
X141741375Y-108265734D01*
X141802604Y-108367917D01*
X141813562Y-108381961D01*
X141847880Y-108424133D01*
X141895773Y-108380953D01*
X141945784Y-108337191D01*
X141972191Y-108316942D01*
X141975072Y-108319503D01*
X141954501Y-108344171D01*
X141910554Y-108390246D01*
X141892866Y-108408093D01*
X141779242Y-108535589D01*
X141695892Y-108659534D01*
X141643444Y-108778561D01*
X141622525Y-108891297D01*
X141630182Y-108981962D01*
X141655147Y-109056671D01*
X141698798Y-109149603D01*
X141756874Y-109254071D01*
X141825116Y-109363391D01*
X141899263Y-109470878D01*
X141975053Y-109569847D01*
X142048227Y-109653611D01*
X142076085Y-109681626D01*
X142189835Y-109776317D01*
X142300668Y-109838309D01*
X142411151Y-109868321D01*
X142523852Y-109867074D01*
X142634040Y-109838069D01*
X142692731Y-109809475D01*
X142761354Y-109766361D01*
X142825543Y-109717796D01*
X142828479Y-109715302D01*
X142886348Y-109665838D01*
X142959102Y-109603708D01*
X143035848Y-109538211D01*
X143083696Y-109497400D01*
X143249021Y-109365788D01*
X143431812Y-109236668D01*
X143486964Y-109201727D01*
X143577733Y-109201727D01*
X143577733Y-109638430D01*
X143578365Y-109779857D01*
X143580210Y-109895977D01*
X143583195Y-109984830D01*
X143587245Y-110044458D01*
X143592285Y-110072903D01*
X143594352Y-110075133D01*
X143618341Y-110072433D01*
X143665686Y-110065334D01*
X143726393Y-110055339D01*
X143729819Y-110054753D01*
X143848666Y-110034373D01*
X143848666Y-109555220D01*
X143848222Y-109402494D01*
X143846838Y-109281609D01*
X143844431Y-109190552D01*
X143840923Y-109127308D01*
X143836232Y-109089864D01*
X143830278Y-109076204D01*
X143829525Y-109076066D01*
X143806333Y-109083676D01*
X143762277Y-109103823D01*
X143706035Y-109132481D01*
X143694058Y-109138897D01*
X143577733Y-109201727D01*
X143486964Y-109201727D01*
X143624085Y-109114857D01*
X143817854Y-109005170D01*
X143843749Y-108992346D01*
X144034933Y-108992346D01*
X144034933Y-109992542D01*
X144107174Y-109981708D01*
X144169571Y-109971548D01*
X144229784Y-109960543D01*
X144238408Y-109958816D01*
X144297400Y-109946756D01*
X144301884Y-109433313D01*
X144306368Y-108919869D01*
X144259551Y-108930948D01*
X144215874Y-108942051D01*
X144156805Y-108957985D01*
X144123833Y-108967187D01*
X144034933Y-108992346D01*
X143843749Y-108992346D01*
X144005136Y-108912424D01*
X144049360Y-108894033D01*
X144492133Y-108894033D01*
X144492133Y-109918110D01*
X144581033Y-109901527D01*
X144634015Y-109895682D01*
X144710069Y-109892451D01*
X144798482Y-109892093D01*
X144877366Y-109894333D01*
X145084800Y-109903722D01*
X145084800Y-108919869D01*
X145270564Y-108919869D01*
X145275048Y-109434001D01*
X145279533Y-109948133D01*
X145381133Y-109967454D01*
X145440547Y-109978152D01*
X145489589Y-109985924D01*
X145512366Y-109988621D01*
X145520875Y-109987205D01*
X145527586Y-109979408D01*
X145532710Y-109961674D01*
X145536459Y-109930451D01*
X145539045Y-109882184D01*
X145540679Y-109813319D01*
X145541575Y-109720301D01*
X145541942Y-109599577D01*
X145542000Y-109491406D01*
X145542000Y-109293767D01*
X145731086Y-109293767D01*
X145731165Y-109408028D01*
X145732226Y-109553046D01*
X145732236Y-109554075D01*
X145736733Y-110032084D01*
X145829866Y-110051708D01*
X145889220Y-110063126D01*
X145940295Y-110071098D01*
X145961385Y-110073233D01*
X145999771Y-110075133D01*
X145996143Y-109725396D01*
X146185466Y-109725396D01*
X146185466Y-110120726D01*
X146325166Y-110145405D01*
X146390656Y-110156034D01*
X146443043Y-110162786D01*
X146473683Y-110164610D01*
X146477566Y-110163942D01*
X146481644Y-110145861D01*
X146485178Y-110099420D01*
X146487943Y-110030125D01*
X146489101Y-109973402D01*
X146676533Y-109973402D01*
X146677061Y-110058629D01*
X146678513Y-110130273D01*
X146680687Y-110182277D01*
X146683383Y-110208584D01*
X146684408Y-110210600D01*
X146703638Y-110205606D01*
X146744040Y-110192856D01*
X146772910Y-110183226D01*
X146846939Y-110150029D01*
X146934635Y-110097941D01*
X147026678Y-110032941D01*
X147099227Y-109973880D01*
X147157854Y-109922733D01*
X147097684Y-109922733D01*
X146990927Y-109907551D01*
X146978601Y-109902803D01*
X147317374Y-109902803D01*
X147324786Y-109932298D01*
X147358851Y-109971216D01*
X147393994Y-110003192D01*
X147450663Y-110050130D01*
X147510964Y-110093504D01*
X147580520Y-110136584D01*
X147664960Y-110182636D01*
X147769910Y-110234930D01*
X147892677Y-110292877D01*
X148045397Y-110366187D01*
X148169484Y-110431543D01*
X148268569Y-110491290D01*
X148346280Y-110547775D01*
X148406248Y-110603344D01*
X148444533Y-110649606D01*
X148495733Y-110731242D01*
X148525476Y-110810638D01*
X148536913Y-110899685D01*
X148534720Y-110990024D01*
X148525782Y-111120429D01*
X148588546Y-111050748D01*
X148633832Y-110999259D01*
X148695211Y-110927778D01*
X148767418Y-110842592D01*
X148845189Y-110749993D01*
X148923260Y-110656270D01*
X148996366Y-110567714D01*
X149059243Y-110490613D01*
X149100385Y-110439200D01*
X149169188Y-110350001D01*
X149220758Y-110276885D01*
X149260270Y-110210538D01*
X149292897Y-110141649D01*
X149323814Y-110060905D01*
X149345018Y-109998933D01*
X149380735Y-109874512D01*
X149402720Y-109759451D01*
X149410448Y-109659291D01*
X149403398Y-109579569D01*
X149388639Y-109537500D01*
X149378279Y-109509506D01*
X149383185Y-109499400D01*
X149402413Y-109514819D01*
X149424230Y-109555832D01*
X149445994Y-109614573D01*
X149465063Y-109683175D01*
X149478794Y-109753774D01*
X149483718Y-109798664D01*
X149478741Y-109957482D01*
X149441612Y-110106911D01*
X149371649Y-110249473D01*
X149354648Y-110275902D01*
X149291808Y-110363908D01*
X149208843Y-110470683D01*
X149109835Y-110591309D01*
X148998867Y-110720871D01*
X148880020Y-110854451D01*
X148818375Y-110921800D01*
X148716842Y-111032193D01*
X148635684Y-111121914D01*
X148571807Y-111194714D01*
X148522120Y-111254338D01*
X148483528Y-111304535D01*
X148452941Y-111349054D01*
X148427265Y-111391641D01*
X148420168Y-111404400D01*
X148397232Y-111447534D01*
X148385981Y-111472782D01*
X148388001Y-111478746D01*
X148404879Y-111464024D01*
X148438204Y-111427217D01*
X148489561Y-111366924D01*
X148560540Y-111281746D01*
X148564142Y-111277400D01*
X148623663Y-111207530D01*
X148699995Y-111120844D01*
X148786386Y-111024846D01*
X148876081Y-110927045D01*
X148960337Y-110837045D01*
X149068582Y-110721752D01*
X149156045Y-110625732D01*
X149226181Y-110544605D01*
X149282445Y-110473989D01*
X149328293Y-110409505D01*
X149367178Y-110346770D01*
X149402557Y-110281404D01*
X149409690Y-110267281D01*
X149478151Y-110095980D01*
X149515969Y-109915299D01*
X149524730Y-109790710D01*
X149527553Y-109657972D01*
X149412969Y-109438986D01*
X149358289Y-109337933D01*
X149310724Y-109259232D01*
X149264194Y-109194047D01*
X149212616Y-109133539D01*
X149177026Y-109096120D01*
X149057464Y-108985578D01*
X148932886Y-108891354D01*
X148810259Y-108818212D01*
X148705584Y-108773777D01*
X148623190Y-108751559D01*
X148515684Y-108729525D01*
X148391799Y-108709059D01*
X148260267Y-108691543D01*
X148129821Y-108678361D01*
X148078782Y-108674536D01*
X147931632Y-108664785D01*
X147965412Y-108773059D01*
X147985782Y-108857327D01*
X147989778Y-108935422D01*
X147976069Y-109015603D01*
X147943326Y-109106128D01*
X147895953Y-109204294D01*
X147794499Y-109384010D01*
X147689199Y-109541378D01*
X147582328Y-109673561D01*
X147476159Y-109777726D01*
X147380303Y-109846821D01*
X147336064Y-109876416D01*
X147317374Y-109902803D01*
X146978601Y-109902803D01*
X146876222Y-109863368D01*
X146778578Y-109805860D01*
X146676533Y-109736205D01*
X146676533Y-109973402D01*
X146489101Y-109973402D01*
X146489712Y-109943484D01*
X146490266Y-109854920D01*
X146490266Y-109552038D01*
X146348133Y-109441052D01*
X146288987Y-109395576D01*
X146239845Y-109359118D01*
X146206666Y-109336019D01*
X146195733Y-109330066D01*
X146192833Y-109346218D01*
X146190251Y-109391543D01*
X146188108Y-109461351D01*
X146186526Y-109550949D01*
X146185627Y-109655646D01*
X146185466Y-109725396D01*
X145996143Y-109725396D01*
X145995252Y-109639542D01*
X145990733Y-109203950D01*
X145880742Y-109140008D01*
X145824715Y-109109015D01*
X145778475Y-109086297D01*
X145751003Y-109076220D01*
X145749245Y-109076066D01*
X145742774Y-109082722D01*
X145737832Y-109104741D01*
X145734309Y-109145203D01*
X145732097Y-109207185D01*
X145731086Y-109293767D01*
X145542000Y-109293767D01*
X145542000Y-108992346D01*
X145453100Y-108967187D01*
X145392877Y-108950548D01*
X145338580Y-108936211D01*
X145317382Y-108930948D01*
X145270564Y-108919869D01*
X145084800Y-108919869D01*
X145084800Y-108894231D01*
X145021300Y-108883735D01*
X144970237Y-108878548D01*
X144897022Y-108875139D01*
X144811371Y-108873512D01*
X144723004Y-108873675D01*
X144641640Y-108875632D01*
X144576995Y-108879390D01*
X144545049Y-108883450D01*
X144492133Y-108894033D01*
X144049360Y-108894033D01*
X144160732Y-108847719D01*
X144319900Y-108793132D01*
X144460564Y-108755512D01*
X144592442Y-108733108D01*
X144725254Y-108724171D01*
X144839266Y-108725564D01*
X145015839Y-108742761D01*
X145196170Y-108780810D01*
X145383796Y-108840984D01*
X145582250Y-108924554D01*
X145795070Y-109032795D01*
X145967466Y-109131663D01*
X146127214Y-109229865D01*
X146264160Y-109320469D01*
X146386535Y-109409437D01*
X146502568Y-109502732D01*
X146611769Y-109598392D01*
X146722932Y-109694936D01*
X146818261Y-109767500D01*
X146902795Y-109818771D01*
X146981575Y-109851438D01*
X147059640Y-109868187D01*
X147124691Y-109871933D01*
X147232218Y-109855398D01*
X147342819Y-109806671D01*
X147454654Y-109727068D01*
X147565887Y-109617906D01*
X147674680Y-109480501D01*
X147678497Y-109475089D01*
X147751070Y-109366804D01*
X147817166Y-109258723D01*
X147873398Y-109157061D01*
X147916375Y-109068036D01*
X147942709Y-108997864D01*
X147946348Y-108983759D01*
X147954458Y-108876366D01*
X147931268Y-108764441D01*
X147876370Y-108647105D01*
X147789359Y-108523476D01*
X147739112Y-108468191D01*
X147771398Y-108468191D01*
X147808337Y-108505429D01*
X147836099Y-108525419D01*
X147879439Y-108542098D01*
X147944831Y-108557465D01*
X148018671Y-108570366D01*
X148095548Y-108582248D01*
X148163280Y-108591994D01*
X148212708Y-108598324D01*
X148230673Y-108599999D01*
X148269280Y-108601933D01*
X148234868Y-108555367D01*
X148203990Y-108493221D01*
X148178850Y-108398578D01*
X148159601Y-108272342D01*
X148146399Y-108115421D01*
X148141458Y-108007345D01*
X148137673Y-107910377D01*
X148134617Y-107848400D01*
X148147074Y-107848400D01*
X148158340Y-107958467D01*
X148184745Y-108135260D01*
X148225094Y-108291748D01*
X148278133Y-108424452D01*
X148342612Y-108529895D01*
X148378978Y-108571534D01*
X148415031Y-108601890D01*
X148464520Y-108632557D01*
X148532836Y-108666331D01*
X148625371Y-108706008D01*
X148682773Y-108729079D01*
X148857241Y-108804224D01*
X149003917Y-108881763D01*
X149128824Y-108965879D01*
X149237988Y-109060756D01*
X149337437Y-109170577D01*
X149360466Y-109199542D01*
X149399979Y-109249308D01*
X149430861Y-109286176D01*
X149447976Y-109304088D01*
X149449699Y-109304833D01*
X149445626Y-109288734D01*
X149430904Y-109248610D01*
X149408213Y-109191566D01*
X149394324Y-109157984D01*
X149326214Y-109010017D01*
X149237284Y-108842114D01*
X149126746Y-108652883D01*
X148993812Y-108440933D01*
X148953969Y-108379617D01*
X148898055Y-108294199D01*
X148848843Y-108219122D01*
X148809195Y-108158742D01*
X148781974Y-108117420D01*
X148770043Y-108099514D01*
X148769762Y-108099132D01*
X148752801Y-108096869D01*
X148708357Y-108092970D01*
X148642745Y-108087939D01*
X148562280Y-108082281D01*
X148542570Y-108080960D01*
X148435903Y-108072504D01*
X148356937Y-108061606D01*
X148299507Y-108045540D01*
X148257448Y-108021584D01*
X148224597Y-107987013D01*
X148194787Y-107939103D01*
X148186504Y-107923609D01*
X148147074Y-107848400D01*
X148134617Y-107848400D01*
X148133195Y-107819568D01*
X148128489Y-107743024D01*
X148124022Y-107688853D01*
X148123376Y-107683449D01*
X148162206Y-107683449D01*
X148173104Y-107766751D01*
X148194074Y-107848431D01*
X148222147Y-107914847D01*
X148251537Y-107961291D01*
X148284965Y-107995241D01*
X148327910Y-108018409D01*
X148385848Y-108032507D01*
X148464258Y-108039245D01*
X148568616Y-108040335D01*
X148621168Y-108039527D01*
X148716838Y-108037324D01*
X148784521Y-108034552D01*
X148830092Y-108030267D01*
X148859428Y-108023522D01*
X148878406Y-108013375D01*
X148892903Y-107998878D01*
X148895794Y-107995358D01*
X148926487Y-107941229D01*
X148939705Y-107873024D01*
X148935901Y-107785188D01*
X148920374Y-107694509D01*
X148890661Y-107552918D01*
X148842867Y-107590592D01*
X148809929Y-107624509D01*
X148796158Y-107666145D01*
X148794136Y-107699637D01*
X148788118Y-107752888D01*
X148769565Y-107782559D01*
X148760446Y-107788537D01*
X148704151Y-107805207D01*
X148657649Y-107792273D01*
X148634989Y-107767967D01*
X148626594Y-107740695D01*
X148615156Y-107682582D01*
X148601106Y-107596474D01*
X148584873Y-107485216D01*
X148566885Y-107351657D01*
X148547573Y-107198641D01*
X148541240Y-107146497D01*
X148521837Y-106984840D01*
X148506537Y-106853608D01*
X148495449Y-106749595D01*
X148488680Y-106669595D01*
X148486336Y-106610402D01*
X148487753Y-106583474D01*
X148516944Y-106583474D01*
X148517122Y-106603800D01*
X148522412Y-106661423D01*
X148530877Y-106741843D01*
X148541908Y-106840175D01*
X148554893Y-106951533D01*
X148569224Y-107071033D01*
X148584291Y-107193789D01*
X148599484Y-107314915D01*
X148614192Y-107429527D01*
X148627807Y-107532738D01*
X148639719Y-107619664D01*
X148649317Y-107685419D01*
X148655993Y-107725118D01*
X148658207Y-107734100D01*
X148677812Y-107765371D01*
X148706383Y-107770032D01*
X148732548Y-107761921D01*
X148752994Y-107738921D01*
X148759333Y-107709048D01*
X148755905Y-107680485D01*
X148742628Y-107680758D01*
X148736371Y-107685510D01*
X148725918Y-107688121D01*
X148716147Y-107674476D01*
X148705776Y-107640293D01*
X148693519Y-107581292D01*
X148678093Y-107493194D01*
X148677328Y-107488617D01*
X148656446Y-107356278D01*
X148637840Y-107224110D01*
X148621816Y-107095861D01*
X148608681Y-106975282D01*
X148598742Y-106866120D01*
X148592305Y-106772126D01*
X148589678Y-106697050D01*
X148591168Y-106644639D01*
X148597081Y-106618645D01*
X148606289Y-106620733D01*
X148619481Y-106633735D01*
X148621806Y-106618303D01*
X148620369Y-106603800D01*
X148610254Y-106573097D01*
X148582708Y-106562180D01*
X148564600Y-106561467D01*
X148528880Y-106565531D01*
X148516944Y-106583474D01*
X148487753Y-106583474D01*
X148488525Y-106568811D01*
X148495355Y-106541617D01*
X148506932Y-106525612D01*
X148523363Y-106517593D01*
X148544757Y-106514353D01*
X148562425Y-106513230D01*
X148585581Y-106510433D01*
X148597103Y-106501204D01*
X148596931Y-106479236D01*
X148585002Y-106438220D01*
X148561252Y-106371850D01*
X148561015Y-106371199D01*
X148544087Y-106332389D01*
X148523958Y-106311652D01*
X148493815Y-106308192D01*
X148446848Y-106321218D01*
X148376709Y-106349736D01*
X148307352Y-106379454D01*
X148295774Y-106639793D01*
X148283350Y-106868346D01*
X148267755Y-107067738D01*
X148249110Y-107237047D01*
X148227536Y-107375351D01*
X148203152Y-107481728D01*
X148176142Y-107555131D01*
X148162759Y-107609313D01*
X148162206Y-107683449D01*
X148123376Y-107683449D01*
X148122344Y-107674822D01*
X148123435Y-107592466D01*
X148139128Y-107545715D01*
X148163475Y-107481254D01*
X148185188Y-107394997D01*
X148204574Y-107284733D01*
X148221938Y-107148249D01*
X148237587Y-106983337D01*
X148251827Y-106787785D01*
X148257900Y-106688467D01*
X148266261Y-106544533D01*
X148167934Y-106823933D01*
X148134251Y-106919077D01*
X148102953Y-107006438D01*
X148076375Y-107079577D01*
X148056851Y-107132058D01*
X148048182Y-107154133D01*
X148039000Y-107194122D01*
X148031902Y-107265961D01*
X148026846Y-107370256D01*
X148023795Y-107507615D01*
X148023377Y-107543600D01*
X148021652Y-107666992D01*
X148018885Y-107763064D01*
X148014521Y-107838358D01*
X148008005Y-107899415D01*
X147998782Y-107952779D01*
X147986295Y-108004992D01*
X147983264Y-108016215D01*
X147933925Y-108168184D01*
X147874845Y-108303155D01*
X147815798Y-108403829D01*
X147771398Y-108468191D01*
X147739112Y-108468191D01*
X147676633Y-108399448D01*
X147623862Y-108345689D01*
X147595557Y-108314614D01*
X147591659Y-108306448D01*
X147612115Y-108321417D01*
X147656867Y-108359746D01*
X147681159Y-108381312D01*
X147729052Y-108424133D01*
X147764055Y-108381800D01*
X147805232Y-108319611D01*
X147848215Y-108233401D01*
X147888933Y-108132500D01*
X147923318Y-108026240D01*
X147930222Y-108000800D01*
X147949057Y-107910939D01*
X147962821Y-107803118D01*
X147972242Y-107670893D01*
X147975216Y-107602867D01*
X147978001Y-107513769D01*
X147979353Y-107438726D01*
X147979253Y-107383241D01*
X147977684Y-107352820D01*
X147976052Y-107348867D01*
X147965080Y-107366511D01*
X147942227Y-107407761D01*
X147911054Y-107466081D01*
X147881965Y-107521697D01*
X147782879Y-107699389D01*
X147686486Y-107844441D01*
X147591866Y-107957886D01*
X147498102Y-108040757D01*
X147404273Y-108094089D01*
X147359511Y-108109347D01*
X147299831Y-108117305D01*
X147224115Y-108112257D01*
X147128785Y-108093518D01*
X147010263Y-108060400D01*
X146879733Y-108017362D01*
X146706443Y-107952542D01*
X146514730Y-107872673D01*
X146313907Y-107782138D01*
X146113287Y-107685322D01*
X145922186Y-107586607D01*
X145749915Y-107490376D01*
X145711333Y-107467491D01*
X145641571Y-107424603D01*
X145590349Y-107391320D01*
X145559426Y-107369219D01*
X145550563Y-107359879D01*
X145565520Y-107364878D01*
X145606057Y-107385794D01*
X145643600Y-107406760D01*
X145804949Y-107494679D01*
X145981774Y-107584186D01*
X146168345Y-107672846D01*
X146358934Y-107758227D01*
X146547812Y-107837896D01*
X146729250Y-107909419D01*
X146897519Y-107970364D01*
X147046892Y-108018298D01*
X147146516Y-108045069D01*
X147220297Y-108061320D01*
X147272250Y-108068520D01*
X147313004Y-108067293D01*
X147353186Y-108058260D01*
X147356282Y-108057342D01*
X147424578Y-108024233D01*
X147501694Y-107965481D01*
X147582184Y-107886156D01*
X147660602Y-107791330D01*
X147697134Y-107739981D01*
X147763162Y-107632599D01*
X147835547Y-107497993D01*
X147911866Y-107341648D01*
X147989697Y-107169050D01*
X148066616Y-106985684D01*
X148140202Y-106797034D01*
X148208031Y-106608586D01*
X148242792Y-106504590D01*
X148267080Y-106392897D01*
X148274433Y-106270151D01*
X148263721Y-106155254D01*
X148263685Y-106155066D01*
X148257327Y-106115524D01*
X148259914Y-106105645D01*
X148269228Y-106117804D01*
X148281479Y-106151532D01*
X148292555Y-106204623D01*
X148297345Y-106240570D01*
X148307239Y-106302464D01*
X148320652Y-106330998D01*
X148337496Y-106326022D01*
X148343007Y-106318294D01*
X148341343Y-106297537D01*
X148330279Y-106251440D01*
X148311604Y-106186628D01*
X148287109Y-106109724D01*
X148284666Y-106102394D01*
X148217318Y-105901066D01*
X141342681Y-105901066D01*
X141275241Y-106102668D01*
X141247532Y-106186657D01*
X141229990Y-106244444D01*
X141221627Y-106281805D01*
X141221455Y-106304517D01*
X141007991Y-106304517D01*
X141025709Y-106281238D01*
X141047705Y-106269379D01*
X141073863Y-106268078D01*
X141076664Y-106268344D01*
X141098783Y-106269546D01*
X141115654Y-106264331D01*
X141130679Y-106247455D01*
X141147258Y-106213679D01*
X141168790Y-106157761D01*
X141194086Y-106087333D01*
X141223952Y-105999914D01*
X141241427Y-105938893D01*
X141247580Y-105899589D01*
X141243479Y-105877324D01*
X141242414Y-105875666D01*
X141186877Y-105777888D01*
X141158491Y-105681518D01*
X141155845Y-105655533D01*
X141152514Y-105562723D01*
X141155182Y-105495715D01*
X141165249Y-105446761D01*
X141184110Y-105408111D01*
X141205436Y-105380577D01*
X141227821Y-105352687D01*
X141242856Y-105324521D01*
X141252647Y-105287887D01*
X141253257Y-105283000D01*
X141339274Y-105283000D01*
X148217466Y-105283000D01*
X148217291Y-105227967D01*
X148213992Y-105140720D01*
X148205317Y-105030240D01*
X148192411Y-104906523D01*
X148176422Y-104779567D01*
X148158494Y-104659372D01*
X148140924Y-104561614D01*
X148065860Y-104267980D01*
X147962677Y-103992788D01*
X147831942Y-103736476D01*
X147674220Y-103499484D01*
X147490080Y-103282252D01*
X147280088Y-103085218D01*
X147044810Y-102908823D01*
X146784814Y-102753506D01*
X146500666Y-102619705D01*
X146192933Y-102507861D01*
X145862182Y-102418414D01*
X145508979Y-102351801D01*
X145248247Y-102318950D01*
X145136990Y-102310917D01*
X145000760Y-102306269D01*
X144847530Y-102304830D01*
X144685274Y-102306427D01*
X144521964Y-102310886D01*
X144365574Y-102318033D01*
X144224076Y-102327692D01*
X144105445Y-102339691D01*
X144068799Y-102344710D01*
X143800245Y-102394181D01*
X143530859Y-102461090D01*
X143269677Y-102542687D01*
X143025733Y-102636221D01*
X142858066Y-102713277D01*
X142585599Y-102865266D01*
X142341028Y-103035509D01*
X142124028Y-103224520D01*
X141934274Y-103432813D01*
X141771443Y-103660903D01*
X141635210Y-103909302D01*
X141525249Y-104178527D01*
X141441237Y-104469089D01*
X141382849Y-104781505D01*
X141350696Y-105100967D01*
X141339274Y-105283000D01*
X141253257Y-105283000D01*
X141259304Y-105234594D01*
X141264934Y-105156453D01*
X141265510Y-105147155D01*
X141293378Y-104836726D01*
X141337921Y-104552746D01*
X141400453Y-104291479D01*
X141482287Y-104049194D01*
X141584735Y-103822155D01*
X141709110Y-103606630D01*
X141856726Y-103398884D01*
X141898945Y-103345842D01*
X142081580Y-103147350D01*
X142291916Y-102965655D01*
X142527779Y-102801609D01*
X142786993Y-102656062D01*
X143067382Y-102529866D01*
X143366770Y-102423873D01*
X143682982Y-102338934D01*
X144013843Y-102275899D01*
X144357175Y-102235621D01*
X144710805Y-102218951D01*
X144780000Y-102218523D01*
X145168698Y-102231785D01*
X145168698Y-102231785D01*
G37*
X145168698Y-102231785D02*
X145537987Y-102271555D01*
X145890121Y-102338310D01*
X146227353Y-102432525D01*
X146551938Y-102554679D01*
X146710399Y-102626480D01*
X146960843Y-102761551D01*
X147196594Y-102918593D01*
X147413175Y-103093937D01*
X147606110Y-103283914D01*
X147770921Y-103484853D01*
X147789677Y-103511064D01*
X147939328Y-103752796D01*
X148062850Y-104015696D01*
X148160289Y-104299906D01*
X148231692Y-104605570D01*
X148277104Y-104932829D01*
X148286418Y-105045933D01*
X148293908Y-105150072D01*
X148300499Y-105226027D01*
X148307251Y-105279424D01*
X148315228Y-105315888D01*
X148325492Y-105341046D01*
X148339106Y-105360523D01*
X148347613Y-105370009D01*
X148389391Y-105437552D01*
X148410997Y-105524202D01*
X148412346Y-105621797D01*
X148393349Y-105722176D01*
X148353921Y-105817177D01*
X148352402Y-105819893D01*
X148302679Y-105908053D01*
X148368176Y-106090826D01*
X148433674Y-106273600D01*
X148564600Y-106273600D01*
X148631382Y-106472467D01*
X148665640Y-106568892D01*
X148693470Y-106634432D01*
X148715878Y-106671247D01*
X148728620Y-106681001D01*
X148769946Y-106702608D01*
X148823184Y-106741353D01*
X148878270Y-106788603D01*
X148925141Y-106835726D01*
X148953733Y-106874090D01*
X148953744Y-106874110D01*
X148969223Y-106918808D01*
X148984399Y-106987511D01*
X148998013Y-107070368D01*
X149008803Y-107157531D01*
X149015511Y-107239152D01*
X149016875Y-107305379D01*
X149013379Y-107340195D01*
X148995526Y-107392827D01*
X148967902Y-107449786D01*
X148961599Y-107460444D01*
X148942826Y-107492315D01*
X148932942Y-107518724D01*
X148931443Y-107549379D01*
X148937822Y-107593989D01*
X148951197Y-107660435D01*
X148971751Y-107784075D01*
X148975879Y-107881168D01*
X148963091Y-107955047D01*
X148932895Y-108009049D01*
X148895363Y-108040494D01*
X148849551Y-108068533D01*
X149016500Y-108322533D01*
X149155938Y-108540333D01*
X149273478Y-108736925D01*
X149370541Y-108915662D01*
X149448546Y-109079899D01*
X149508913Y-109232989D01*
X149553063Y-109378284D01*
X149582414Y-109519139D01*
X149598388Y-109658907D01*
X149600848Y-109702600D01*
X149601266Y-109861472D01*
X149586110Y-110000637D01*
X149553175Y-110131503D01*
X149500257Y-110265477D01*
X149486306Y-110295266D01*
X149450361Y-110366880D01*
X149413439Y-110431846D01*
X149371832Y-110494990D01*
X149321833Y-110561132D01*
X149259734Y-110635098D01*
X149181828Y-110721709D01*
X149084406Y-110825790D01*
X149053310Y-110858527D01*
X148849203Y-111079879D01*
X148634571Y-111325840D01*
X148414201Y-111590808D01*
X148225210Y-111827733D01*
X148103666Y-111978503D01*
X147996876Y-112101108D01*
X147903325Y-112197091D01*
X147821499Y-112267991D01*
X147749885Y-112315349D01*
X147741770Y-112319592D01*
X147634742Y-112361247D01*
X147501849Y-112392920D01*
X147349653Y-112414398D01*
X147184717Y-112425463D01*
X147013604Y-112425899D01*
X146842876Y-112415492D01*
X146679097Y-112394025D01*
X146528830Y-112361282D01*
X146522976Y-112359675D01*
X146375464Y-112311189D01*
X146252316Y-112252533D01*
X146144415Y-112178616D01*
X146058023Y-112100134D01*
X146004031Y-112042437D01*
X145957559Y-111986942D01*
X145925337Y-111941961D01*
X145916269Y-111925057D01*
X145894908Y-111888291D01*
X145872475Y-111870399D01*
X145869722Y-111870067D01*
X145843952Y-111877321D01*
X145797444Y-111896509D01*
X145739418Y-111923769D01*
X145728399Y-111929266D01*
X145560249Y-112003527D01*
X145385897Y-112058825D01*
X145199062Y-112096449D01*
X144993462Y-112117689D01*
X144780000Y-112123867D01*
X144564345Y-112117807D01*
X144372738Y-112098574D01*
X144197408Y-112064582D01*
X144030581Y-112014250D01*
X143864485Y-111945993D01*
X143832211Y-111930792D01*
X143771729Y-111902717D01*
X143722277Y-111881521D01*
X143692245Y-111870741D01*
X143688248Y-111870067D01*
X143671024Y-111883813D01*
X143646055Y-111918974D01*
X143630111Y-111946782D01*
X143578389Y-112022213D01*
X143504021Y-112102065D01*
X143415886Y-112178391D01*
X143322864Y-112243242D01*
X143261628Y-112276599D01*
X143135135Y-112329771D01*
X143006416Y-112369312D01*
X142867699Y-112396776D01*
X142711212Y-112413716D01*
X142536333Y-112421535D01*
X142374338Y-112422699D01*
X142240902Y-112418309D01*
X142131143Y-112408161D01*
X142097517Y-112403228D01*
X141988620Y-112381008D01*
X141892186Y-112350134D01*
X141803538Y-112307303D01*
X141718002Y-112249211D01*
X141630902Y-112172551D01*
X141537561Y-112074020D01*
X141433305Y-111950314D01*
X141402631Y-111912109D01*
X141273670Y-111750436D01*
X141162479Y-111611743D01*
X141065924Y-111492365D01*
X140980873Y-111388638D01*
X140904192Y-111296896D01*
X140832749Y-111213474D01*
X140763409Y-111134705D01*
X140693040Y-111056926D01*
X140618509Y-110976471D01*
X140536683Y-110889674D01*
X140458206Y-110807285D01*
X140385551Y-110729405D01*
X140315470Y-110650985D01*
X140253944Y-110578953D01*
X140206955Y-110520234D01*
X140189402Y-110496016D01*
X140082914Y-110313608D01*
X140008344Y-110126299D01*
X139965658Y-109932968D01*
X139954819Y-109732495D01*
X139959241Y-109688481D01*
X140034274Y-109688481D01*
X140043213Y-109852174D01*
X140057880Y-109989336D01*
X140087843Y-110117595D01*
X140135489Y-110241447D01*
X140203206Y-110365390D01*
X140293382Y-110493923D01*
X140408403Y-110631541D01*
X140521137Y-110752467D01*
X140684054Y-110924742D01*
X140845124Y-111102370D01*
X140995980Y-111275950D01*
X141113933Y-111418256D01*
X141161811Y-111477063D01*
X141201438Y-111524674D01*
X141228331Y-111555770D01*
X141237884Y-111565254D01*
X141232936Y-111551482D01*
X141215131Y-111514595D01*
X141187751Y-111461255D01*
X141172297Y-111432003D01*
X141135274Y-111369368D01*
X141086672Y-111300070D01*
X141023089Y-111219776D01*
X140941125Y-111124155D01*
X140856507Y-111029837D01*
X140719079Y-110877323D01*
X140592414Y-110733687D01*
X140478687Y-110601527D01*
X140380072Y-110483445D01*
X140298743Y-110382040D01*
X140236876Y-110299911D01*
X140199106Y-110243763D01*
X140147624Y-110137390D01*
X140112699Y-110019507D01*
X140094588Y-109897271D01*
X140093547Y-109777839D01*
X140109834Y-109668367D01*
X140143707Y-109576013D01*
X140173464Y-109530716D01*
X140192204Y-109508912D01*
X140199055Y-109506683D01*
X140194718Y-109528368D01*
X140180712Y-109575600D01*
X140166455Y-109639193D01*
X140163646Y-109704826D01*
X140173124Y-109779965D01*
X140195728Y-109872075D01*
X140224503Y-109965066D01*
X140249365Y-110038956D01*
X140265312Y-110080871D01*
X140272660Y-110090587D01*
X140271727Y-110067878D01*
X140262827Y-110012522D01*
X140250564Y-109946569D01*
X140239589Y-109884086D01*
X140232936Y-109835731D01*
X140231714Y-109809958D01*
X140232397Y-109808025D01*
X140241537Y-109818238D01*
X140255954Y-109861774D01*
X140275615Y-109938510D01*
X140300486Y-110048321D01*
X140312742Y-110105526D01*
X140349590Y-110279853D01*
X140503161Y-110471981D01*
X140572522Y-110557954D01*
X140647212Y-110649147D01*
X140724067Y-110741842D01*
X140799923Y-110832317D01*
X140871616Y-110916853D01*
X140935983Y-110991730D01*
X140989860Y-111053228D01*
X141030084Y-111097627D01*
X141053491Y-111121208D01*
X141057717Y-111124038D01*
X141061360Y-111110600D01*
X141055220Y-111076389D01*
X141053484Y-111070078D01*
X141040921Y-110995800D01*
X141038824Y-110908975D01*
X141042226Y-110874574D01*
X141091708Y-110874574D01*
X141093642Y-110991153D01*
X141119757Y-111127909D01*
X141169687Y-111283457D01*
X141243071Y-111456412D01*
X141339543Y-111645390D01*
X141343968Y-111653427D01*
X141427128Y-111794480D01*
X141511148Y-111915065D01*
X141605210Y-112027542D01*
X141681199Y-112107319D01*
X141743679Y-112167031D01*
X141801478Y-112213061D01*
X141861590Y-112248534D01*
X141931011Y-112276577D01*
X142016735Y-112300316D01*
X142125756Y-112322875D01*
X142189200Y-112334340D01*
X142219647Y-112336467D01*
X142277452Y-112337698D01*
X142356118Y-112337999D01*
X142449148Y-112337334D01*
X142527866Y-112336118D01*
X142649722Y-112332939D01*
X142745483Y-112328140D01*
X142822911Y-112320960D01*
X142889767Y-112310635D01*
X142953814Y-112296402D01*
X142967333Y-112292924D01*
X143090613Y-112257272D01*
X143189391Y-112220464D01*
X143272922Y-112178664D01*
X143329576Y-112142805D01*
X143449898Y-112042625D01*
X143540475Y-111928525D01*
X143574522Y-111866009D01*
X143602897Y-111813589D01*
X143629245Y-111778908D01*
X143645466Y-111769045D01*
X143657475Y-111770296D01*
X143675118Y-111774999D01*
X143702648Y-111784855D01*
X143744314Y-111801568D01*
X143804369Y-111826841D01*
X143887064Y-111862379D01*
X143992758Y-111908193D01*
X144088149Y-111947046D01*
X144177681Y-111976978D01*
X144268461Y-111999243D01*
X144367598Y-112015097D01*
X144482200Y-112025795D01*
X144619376Y-112032591D01*
X144712266Y-112035245D01*
X144887641Y-112037141D01*
X145036716Y-112033069D01*
X145166738Y-112021719D01*
X145284951Y-112001779D01*
X145398603Y-111971941D01*
X145514938Y-111930892D01*
X145641202Y-111877323D01*
X145677758Y-111860624D01*
X145750712Y-111828189D01*
X145817462Y-111800803D01*
X145868815Y-111782122D01*
X145889425Y-111776411D01*
X145917377Y-111773199D01*
X145937387Y-111780876D01*
X145956083Y-111805712D01*
X145980090Y-111853975D01*
X145986845Y-111868582D01*
X146059943Y-111987154D01*
X146162698Y-112090948D01*
X146293904Y-112179124D01*
X146452353Y-112250843D01*
X146603800Y-112297299D01*
X146660989Y-112310661D01*
X146715451Y-112320470D01*
X146773995Y-112327249D01*
X146843433Y-112331518D01*
X146930576Y-112333799D01*
X147042232Y-112334615D01*
X147091399Y-112334650D01*
X147257550Y-112332711D01*
X147395421Y-112325581D01*
X147510468Y-112311053D01*
X147608145Y-112286923D01*
X147693908Y-112250986D01*
X147773211Y-112201038D01*
X147851510Y-112134874D01*
X147934260Y-112050290D01*
X148011843Y-111962644D01*
X148089741Y-111869256D01*
X148150919Y-111787693D01*
X148203144Y-111706381D01*
X148254183Y-111613748D01*
X148279811Y-111563325D01*
X148365793Y-111379490D01*
X148428602Y-111218321D01*
X148468605Y-111078137D01*
X148486169Y-110957258D01*
X148481664Y-110854004D01*
X148455456Y-110766695D01*
X148454634Y-110764930D01*
X148421837Y-110711307D01*
X148373496Y-110650597D01*
X148325104Y-110600793D01*
X148299414Y-110577978D01*
X148273235Y-110556872D01*
X148243236Y-110535672D01*
X148206083Y-110512574D01*
X148158446Y-110485776D01*
X148096992Y-110453472D01*
X148018389Y-110413861D01*
X147919305Y-110365138D01*
X147796407Y-110305500D01*
X147646364Y-110233143D01*
X147641733Y-110230913D01*
X147547685Y-110181969D01*
X147472069Y-110132518D01*
X147400776Y-110072674D01*
X147360290Y-110033731D01*
X147239715Y-109914005D01*
X147136166Y-110007778D01*
X147029119Y-110095604D01*
X146919197Y-110169398D01*
X146815495Y-110223319D01*
X146777653Y-110238062D01*
X146759033Y-110244413D01*
X146741402Y-110249311D01*
X146721710Y-110252332D01*
X146696908Y-110253052D01*
X146663946Y-110251047D01*
X146619772Y-110245893D01*
X146561338Y-110237167D01*
X146485594Y-110224444D01*
X146389488Y-110207300D01*
X146269971Y-110185313D01*
X146123993Y-110158057D01*
X145948504Y-110125109D01*
X145901799Y-110116334D01*
X145681102Y-110075168D01*
X145490911Y-110040376D01*
X145328556Y-110011536D01*
X145191364Y-109988227D01*
X145076666Y-109970026D01*
X144981790Y-109956512D01*
X144904065Y-109947263D01*
X144840819Y-109941858D01*
X144789381Y-109939874D01*
X144784178Y-109939846D01*
X144727726Y-109943190D01*
X144640845Y-109953061D01*
X144526246Y-109969012D01*
X144386641Y-109990597D01*
X144224740Y-110017370D01*
X144043257Y-110048884D01*
X143844902Y-110084692D01*
X143632386Y-110124347D01*
X143442266Y-110160819D01*
X143317966Y-110184356D01*
X143199715Y-110205631D01*
X143093052Y-110223734D01*
X143003515Y-110237755D01*
X142936644Y-110246782D01*
X142900400Y-110249886D01*
X142813217Y-110239450D01*
X142718186Y-110203747D01*
X142612702Y-110141432D01*
X142494160Y-110051158D01*
X142460403Y-110022531D01*
X142354714Y-109931200D01*
X142426354Y-109931200D01*
X142523677Y-110009764D01*
X142614495Y-110077593D01*
X142704670Y-110135074D01*
X142787559Y-110178557D01*
X142856519Y-110204389D01*
X142887700Y-110209857D01*
X142892260Y-110194211D01*
X142896094Y-110150731D01*
X142898879Y-110085445D01*
X142900290Y-110004384D01*
X142900400Y-109973252D01*
X142900400Y-109883596D01*
X143086666Y-109883596D01*
X143087126Y-109993375D01*
X143088705Y-110073170D01*
X143091702Y-110126855D01*
X143096417Y-110158304D01*
X143103148Y-110171389D01*
X143108922Y-110171816D01*
X143135556Y-110165150D01*
X143185694Y-110155311D01*
X143249361Y-110144231D01*
X143261322Y-110142281D01*
X143391466Y-110121287D01*
X143391466Y-109725677D01*
X143391063Y-109613991D01*
X143389933Y-109514522D01*
X143388193Y-109431958D01*
X143385959Y-109370991D01*
X143383348Y-109336311D01*
X143381603Y-109330066D01*
X143361680Y-109340326D01*
X143323359Y-109367323D01*
X143273636Y-109405389D01*
X143219508Y-109448855D01*
X143167970Y-109492051D01*
X143126018Y-109529308D01*
X143100648Y-109554955D01*
X143096555Y-109561067D01*
X143093326Y-109585817D01*
X143090539Y-109638373D01*
X143088380Y-109712674D01*
X143087033Y-109802661D01*
X143086666Y-109883596D01*
X142900400Y-109883596D01*
X142900400Y-109735905D01*
X142811734Y-109796896D01*
X142719662Y-109854794D01*
X142638395Y-109892268D01*
X142556225Y-109914191D01*
X142515210Y-109920359D01*
X142426354Y-109931200D01*
X142354714Y-109931200D01*
X142328861Y-109908860D01*
X142280197Y-109975067D01*
X142214204Y-110045058D01*
X142115227Y-110120525D01*
X141983662Y-110201216D01*
X141819904Y-110286878D01*
X141720417Y-110334104D01*
X141559724Y-110411109D01*
X141428463Y-110481073D01*
X141323514Y-110546288D01*
X141241754Y-110609050D01*
X141180062Y-110671653D01*
X141135317Y-110736391D01*
X141114318Y-110779557D01*
X141091708Y-110874574D01*
X141042226Y-110874574D01*
X141046964Y-110826671D01*
X141057312Y-110784627D01*
X141105061Y-110687053D01*
X141180802Y-110594954D01*
X141286102Y-110506965D01*
X141422529Y-110421720D01*
X141545733Y-110358995D01*
X141691738Y-110289708D01*
X141810545Y-110232266D01*
X141905862Y-110184664D01*
X141981398Y-110144899D01*
X142040861Y-110110968D01*
X142087959Y-110080866D01*
X142126400Y-110052591D01*
X142151301Y-110031799D01*
X142212127Y-109976574D01*
X142247774Y-109937027D01*
X142259656Y-109907869D01*
X142249188Y-109883807D01*
X142217784Y-109859550D01*
X142200186Y-109848905D01*
X142108687Y-109782157D01*
X142011549Y-109687529D01*
X141912464Y-109569700D01*
X141815121Y-109433346D01*
X141723209Y-109283146D01*
X141660022Y-109164146D01*
X141625237Y-109090783D01*
X141604317Y-109035236D01*
X141594059Y-108986064D01*
X141591265Y-108931829D01*
X141591328Y-108918612D01*
X141596542Y-108847650D01*
X141608710Y-108777829D01*
X141619152Y-108741633D01*
X141645831Y-108669667D01*
X141562461Y-108669667D01*
X141490079Y-108672997D01*
X141396274Y-108682126D01*
X141289255Y-108695754D01*
X141177227Y-108712587D01*
X141068398Y-108731326D01*
X140970974Y-108750675D01*
X140893162Y-108769337D01*
X140853822Y-108781646D01*
X140712514Y-108849214D01*
X140568872Y-108945818D01*
X140428504Y-109067572D01*
X140399771Y-109096173D01*
X140345906Y-109153766D01*
X140300243Y-109210030D01*
X140257333Y-109272979D01*
X140211726Y-109350624D01*
X140157974Y-109450979D01*
X140156274Y-109454241D01*
X140034274Y-109688481D01*
X139959241Y-109688481D01*
X139975791Y-109523759D01*
X140023785Y-109325299D01*
X140109140Y-109325299D01*
X140115591Y-109324022D01*
X140131452Y-109304666D01*
X140154953Y-109275523D01*
X140192596Y-109229414D01*
X140236929Y-109175462D01*
X140244664Y-109166083D01*
X140340857Y-109061110D01*
X140447545Y-108968600D01*
X140569941Y-108885191D01*
X140713259Y-108807519D01*
X140882712Y-108732222D01*
X140971771Y-108697114D01*
X141079064Y-108650933D01*
X141160511Y-108601879D01*
X141223957Y-108543631D01*
X141277246Y-108469868D01*
X141297410Y-108434722D01*
X141329138Y-108361797D01*
X141359908Y-108264846D01*
X141387221Y-108153676D01*
X141408578Y-108038094D01*
X141418781Y-107958467D01*
X141429858Y-107848400D01*
X141390429Y-107924463D01*
X141339643Y-107999978D01*
X141276862Y-108048095D01*
X141195859Y-108072384D01*
X141124129Y-108077120D01*
X141041673Y-108079025D01*
X140951288Y-108083777D01*
X140901348Y-108087726D01*
X140790363Y-108098211D01*
X140606450Y-108379706D01*
X140475858Y-108584749D01*
X140363317Y-108772284D01*
X140269715Y-108940652D01*
X140195939Y-109088194D01*
X140142879Y-109213251D01*
X140115887Y-109296200D01*
X140109140Y-109325299D01*
X140023785Y-109325299D01*
X140028540Y-109305639D01*
X140113028Y-109077016D01*
X140142011Y-109011744D01*
X140195988Y-108902926D01*
X140267070Y-108773105D01*
X140351782Y-108628179D01*
X140446650Y-108474044D01*
X140548201Y-108316595D01*
X140578019Y-108271733D01*
X140714011Y-108068533D01*
X140673207Y-108034667D01*
X140628347Y-107980632D01*
X140604260Y-107908551D01*
X140601014Y-107825412D01*
X140633676Y-107825412D01*
X140633896Y-107872540D01*
X140642325Y-107915221D01*
X140650062Y-107939407D01*
X140667410Y-107976853D01*
X140692812Y-108004122D01*
X140731328Y-108022760D01*
X140788017Y-108034313D01*
X140867940Y-108040329D01*
X140976156Y-108042354D01*
X140986933Y-108042392D01*
X141082667Y-108042042D01*
X141151268Y-108039879D01*
X141199454Y-108035130D01*
X141233943Y-108027023D01*
X141261452Y-108014785D01*
X141269883Y-108009867D01*
X141329630Y-107953783D01*
X141375245Y-107867134D01*
X141406592Y-107750194D01*
X141410999Y-107724095D01*
X141419879Y-107656542D01*
X141420653Y-107610902D01*
X141412788Y-107576075D01*
X141402809Y-107554018D01*
X141376039Y-107484579D01*
X141352162Y-107385031D01*
X141331083Y-107254662D01*
X141312710Y-107092763D01*
X141296948Y-106898621D01*
X141283705Y-106671525D01*
X141281783Y-106631430D01*
X141277733Y-106544533D01*
X141311940Y-106544533D01*
X141319453Y-106671533D01*
X141332754Y-106876799D01*
X141346657Y-107050848D01*
X141361520Y-107196330D01*
X141377702Y-107315895D01*
X141395561Y-107412192D01*
X141415455Y-107487871D01*
X141437596Y-107545274D01*
X141452935Y-107589545D01*
X141456946Y-107640992D01*
X141451281Y-107708248D01*
X141444486Y-107782348D01*
X141441234Y-107858422D01*
X141441553Y-107899200D01*
X141441653Y-107977453D01*
X141437079Y-108072415D01*
X141428777Y-108174853D01*
X141417692Y-108275535D01*
X141404770Y-108365226D01*
X141390957Y-108434694D01*
X141384326Y-108458033D01*
X141362526Y-108513410D01*
X141338922Y-108559337D01*
X141328067Y-108574805D01*
X141312574Y-108594864D01*
X141317367Y-108602161D01*
X141347945Y-108599735D01*
X141367933Y-108596825D01*
X141416777Y-108589736D01*
X141486190Y-108579916D01*
X141563182Y-108569199D01*
X141583210Y-108566441D01*
X141661825Y-108553816D01*
X141714596Y-108540097D01*
X141749513Y-108522697D01*
X141767822Y-108506718D01*
X141804890Y-108467261D01*
X141760813Y-108403364D01*
X141696786Y-108292602D01*
X141638800Y-108156925D01*
X141593669Y-108016215D01*
X141580448Y-107963477D01*
X141570607Y-107910987D01*
X141563593Y-107852203D01*
X141558850Y-107780583D01*
X141555826Y-107689586D01*
X141553967Y-107572671D01*
X141553667Y-107543600D01*
X141552240Y-107425778D01*
X141550170Y-107336086D01*
X141546908Y-107268786D01*
X141541900Y-107218142D01*
X141534595Y-107178416D01*
X141524442Y-107143872D01*
X141512136Y-107111800D01*
X141492494Y-107061203D01*
X141465324Y-106987430D01*
X141433853Y-106899418D01*
X141401308Y-106806102D01*
X141392906Y-106781600D01*
X141311940Y-106544533D01*
X141277733Y-106544533D01*
X141270046Y-106379660D01*
X141200456Y-106349038D01*
X141130385Y-106319651D01*
X141083857Y-106306031D01*
X141054049Y-106308949D01*
X141034139Y-106329175D01*
X141017305Y-106367479D01*
X141016445Y-106369818D01*
X140992422Y-106436813D01*
X140980191Y-106478369D01*
X140979667Y-106500762D01*
X140990765Y-106510268D01*
X141013401Y-106513166D01*
X141014507Y-106513230D01*
X141039554Y-106515072D01*
X141059497Y-106519532D01*
X141074453Y-106529840D01*
X141084543Y-106549224D01*
X141089883Y-106580913D01*
X141090593Y-106628134D01*
X141086790Y-106694116D01*
X141078594Y-106782088D01*
X141066123Y-106895278D01*
X141049494Y-107036914D01*
X141037428Y-107138091D01*
X141020938Y-107275380D01*
X141005397Y-107403135D01*
X140991329Y-107517160D01*
X140979260Y-107613258D01*
X140969716Y-107687233D01*
X140963222Y-107734890D01*
X140960683Y-107750775D01*
X140938140Y-107784666D01*
X140895564Y-107801700D01*
X140843962Y-107798565D01*
X140824817Y-107791645D01*
X140797741Y-107772926D01*
X140785529Y-107741989D01*
X140783381Y-107709449D01*
X140817599Y-107709449D01*
X140829395Y-107747304D01*
X140857295Y-107769238D01*
X140890066Y-107770382D01*
X140913579Y-107751033D01*
X140919081Y-107729077D01*
X140927691Y-107678339D01*
X140938819Y-107603622D01*
X140951873Y-107509731D01*
X140966263Y-107401470D01*
X140981398Y-107283643D01*
X140996687Y-107161053D01*
X141011539Y-107038505D01*
X141025363Y-106920803D01*
X141037569Y-106812750D01*
X141047565Y-106719151D01*
X141054761Y-106644810D01*
X141058566Y-106594530D01*
X141058442Y-106573250D01*
X141037204Y-106558201D01*
X141005936Y-106556317D01*
X140969955Y-106569980D01*
X140956563Y-106603800D01*
X140955484Y-106630855D01*
X140963826Y-106627811D01*
X140969004Y-106620733D01*
X140979159Y-106618609D01*
X140984850Y-106646029D01*
X140986392Y-106699011D01*
X140984098Y-106773571D01*
X140978283Y-106865726D01*
X140969261Y-106971492D01*
X140957347Y-107086888D01*
X140942854Y-107207928D01*
X140926097Y-107330630D01*
X140907391Y-107451012D01*
X140900140Y-107493582D01*
X140884048Y-107581807D01*
X140871326Y-107640781D01*
X140860642Y-107674793D01*
X140850659Y-107688128D01*
X140840452Y-107685419D01*
X140823636Y-107677886D01*
X140817844Y-107697846D01*
X140817599Y-107709449D01*
X140783381Y-107709449D01*
X140782796Y-107700596D01*
X140776991Y-107647190D01*
X140756688Y-107611039D01*
X140734445Y-107590907D01*
X140687031Y-107553547D01*
X140659182Y-107680288D01*
X140641995Y-107764455D01*
X140633676Y-107825412D01*
X140601014Y-107825412D01*
X140600632Y-107815630D01*
X140617149Y-107699076D01*
X140629328Y-107645200D01*
X140658426Y-107526667D01*
X140617938Y-107464237D01*
X140588717Y-107410416D01*
X140567543Y-107356077D01*
X140564830Y-107345704D01*
X140561002Y-107298604D01*
X140563276Y-107228470D01*
X140570462Y-107145003D01*
X140581371Y-107057903D01*
X140594811Y-106976872D01*
X140609592Y-106911612D01*
X140622531Y-106875382D01*
X140651828Y-106835872D01*
X140699472Y-106787901D01*
X140755328Y-106740159D01*
X140809261Y-106701336D01*
X140849775Y-106680537D01*
X140871010Y-106662193D01*
X140893988Y-106618149D01*
X140920404Y-106544962D01*
X140927405Y-106522803D01*
X140958724Y-106424436D01*
X140983816Y-106354338D01*
X141005279Y-106308081D01*
X141007991Y-106304517D01*
X141221455Y-106304517D01*
X141228485Y-106318355D01*
X141237067Y-106325784D01*
X141253796Y-106334690D01*
X141264283Y-106326673D01*
X141271718Y-106295749D01*
X141277723Y-106249540D01*
X141287910Y-106189100D01*
X141303248Y-106127865D01*
X141320852Y-106074752D01*
X141337837Y-106038678D01*
X141349384Y-106028066D01*
X141349538Y-106042220D01*
X141339985Y-106077975D01*
X141333162Y-106098364D01*
X141313280Y-106163451D01*
X141301596Y-106227126D01*
X141298874Y-106293752D01*
X141305877Y-106367691D01*
X141323369Y-106453308D01*
X141352114Y-106554963D01*
X141392875Y-106677022D01*
X141446417Y-106823845D01*
X141472033Y-106891667D01*
X141566912Y-107127743D01*
X141662935Y-107340806D01*
X141759165Y-107529395D01*
X141854663Y-107692049D01*
X141948492Y-107827308D01*
X142039715Y-107933710D01*
X142127394Y-108009796D01*
X142210592Y-108054104D01*
X142220150Y-108057192D01*
X142266222Y-108067549D01*
X142312567Y-108068201D01*
X142372368Y-108058756D01*
X142404517Y-108051719D01*
X142550014Y-108012737D01*
X142718583Y-107957793D01*
X142904763Y-107889175D01*
X143103095Y-107809166D01*
X143308118Y-107720053D01*
X143514373Y-107624120D01*
X143716401Y-107523654D01*
X143900422Y-107425549D01*
X143968802Y-107388694D01*
X144009900Y-107368547D01*
X144025137Y-107363840D01*
X144015933Y-107373308D01*
X143983709Y-107395682D01*
X143929885Y-107429696D01*
X143855883Y-107474084D01*
X143827219Y-107490826D01*
X143653322Y-107587566D01*
X143467384Y-107683460D01*
X143275409Y-107775878D01*
X143083398Y-107862193D01*
X142897357Y-107939773D01*
X142723287Y-108005991D01*
X142567192Y-108058218D01*
X142468356Y-108085920D01*
X142386107Y-108105629D01*
X142327662Y-108116719D01*
X142284309Y-108120040D01*
X142247335Y-108116440D01*
X142220057Y-108110115D01*
X142121014Y-108066894D01*
X142020847Y-107990383D01*
X141920025Y-107881121D01*
X141819017Y-107739647D01*
X141718293Y-107566499D01*
X141677654Y-107487419D01*
X141604999Y-107341227D01*
X141599744Y-107484747D01*
X141601353Y-107656887D01*
X141617755Y-107827075D01*
X141647516Y-107989293D01*
X141689201Y-108137519D01*
X141741375Y-108265734D01*
X141802604Y-108367917D01*
X141813562Y-108381961D01*
X141847880Y-108424133D01*
X141895773Y-108380953D01*
X141945784Y-108337191D01*
X141972191Y-108316942D01*
X141975072Y-108319503D01*
X141954501Y-108344171D01*
X141910554Y-108390246D01*
X141892866Y-108408093D01*
X141779242Y-108535589D01*
X141695892Y-108659534D01*
X141643444Y-108778561D01*
X141622525Y-108891297D01*
X141630182Y-108981962D01*
X141655147Y-109056671D01*
X141698798Y-109149603D01*
X141756874Y-109254071D01*
X141825116Y-109363391D01*
X141899263Y-109470878D01*
X141975053Y-109569847D01*
X142048227Y-109653611D01*
X142076085Y-109681626D01*
X142189835Y-109776317D01*
X142300668Y-109838309D01*
X142411151Y-109868321D01*
X142523852Y-109867074D01*
X142634040Y-109838069D01*
X142692731Y-109809475D01*
X142761354Y-109766361D01*
X142825543Y-109717796D01*
X142828479Y-109715302D01*
X142886348Y-109665838D01*
X142959102Y-109603708D01*
X143035848Y-109538211D01*
X143083696Y-109497400D01*
X143249021Y-109365788D01*
X143431812Y-109236668D01*
X143486964Y-109201727D01*
X143577733Y-109201727D01*
X143577733Y-109638430D01*
X143578365Y-109779857D01*
X143580210Y-109895977D01*
X143583195Y-109984830D01*
X143587245Y-110044458D01*
X143592285Y-110072903D01*
X143594352Y-110075133D01*
X143618341Y-110072433D01*
X143665686Y-110065334D01*
X143726393Y-110055339D01*
X143729819Y-110054753D01*
X143848666Y-110034373D01*
X143848666Y-109555220D01*
X143848222Y-109402494D01*
X143846838Y-109281609D01*
X143844431Y-109190552D01*
X143840923Y-109127308D01*
X143836232Y-109089864D01*
X143830278Y-109076204D01*
X143829525Y-109076066D01*
X143806333Y-109083676D01*
X143762277Y-109103823D01*
X143706035Y-109132481D01*
X143694058Y-109138897D01*
X143577733Y-109201727D01*
X143486964Y-109201727D01*
X143624085Y-109114857D01*
X143817854Y-109005170D01*
X143843749Y-108992346D01*
X144034933Y-108992346D01*
X144034933Y-109992542D01*
X144107174Y-109981708D01*
X144169571Y-109971548D01*
X144229784Y-109960543D01*
X144238408Y-109958816D01*
X144297400Y-109946756D01*
X144301884Y-109433313D01*
X144306368Y-108919869D01*
X144259551Y-108930948D01*
X144215874Y-108942051D01*
X144156805Y-108957985D01*
X144123833Y-108967187D01*
X144034933Y-108992346D01*
X143843749Y-108992346D01*
X144005136Y-108912424D01*
X144049360Y-108894033D01*
X144492133Y-108894033D01*
X144492133Y-109918110D01*
X144581033Y-109901527D01*
X144634015Y-109895682D01*
X144710069Y-109892451D01*
X144798482Y-109892093D01*
X144877366Y-109894333D01*
X145084800Y-109903722D01*
X145084800Y-108919869D01*
X145270564Y-108919869D01*
X145275048Y-109434001D01*
X145279533Y-109948133D01*
X145381133Y-109967454D01*
X145440547Y-109978152D01*
X145489589Y-109985924D01*
X145512366Y-109988621D01*
X145520875Y-109987205D01*
X145527586Y-109979408D01*
X145532710Y-109961674D01*
X145536459Y-109930451D01*
X145539045Y-109882184D01*
X145540679Y-109813319D01*
X145541575Y-109720301D01*
X145541942Y-109599577D01*
X145542000Y-109491406D01*
X145542000Y-109293767D01*
X145731086Y-109293767D01*
X145731165Y-109408028D01*
X145732226Y-109553046D01*
X145732236Y-109554075D01*
X145736733Y-110032084D01*
X145829866Y-110051708D01*
X145889220Y-110063126D01*
X145940295Y-110071098D01*
X145961385Y-110073233D01*
X145999771Y-110075133D01*
X145996143Y-109725396D01*
X146185466Y-109725396D01*
X146185466Y-110120726D01*
X146325166Y-110145405D01*
X146390656Y-110156034D01*
X146443043Y-110162786D01*
X146473683Y-110164610D01*
X146477566Y-110163942D01*
X146481644Y-110145861D01*
X146485178Y-110099420D01*
X146487943Y-110030125D01*
X146489101Y-109973402D01*
X146676533Y-109973402D01*
X146677061Y-110058629D01*
X146678513Y-110130273D01*
X146680687Y-110182277D01*
X146683383Y-110208584D01*
X146684408Y-110210600D01*
X146703638Y-110205606D01*
X146744040Y-110192856D01*
X146772910Y-110183226D01*
X146846939Y-110150029D01*
X146934635Y-110097941D01*
X147026678Y-110032941D01*
X147099227Y-109973880D01*
X147157854Y-109922733D01*
X147097684Y-109922733D01*
X146990927Y-109907551D01*
X146978601Y-109902803D01*
X147317374Y-109902803D01*
X147324786Y-109932298D01*
X147358851Y-109971216D01*
X147393994Y-110003192D01*
X147450663Y-110050130D01*
X147510964Y-110093504D01*
X147580520Y-110136584D01*
X147664960Y-110182636D01*
X147769910Y-110234930D01*
X147892677Y-110292877D01*
X148045397Y-110366187D01*
X148169484Y-110431543D01*
X148268569Y-110491290D01*
X148346280Y-110547775D01*
X148406248Y-110603344D01*
X148444533Y-110649606D01*
X148495733Y-110731242D01*
X148525476Y-110810638D01*
X148536913Y-110899685D01*
X148534720Y-110990024D01*
X148525782Y-111120429D01*
X148588546Y-111050748D01*
X148633832Y-110999259D01*
X148695211Y-110927778D01*
X148767418Y-110842592D01*
X148845189Y-110749993D01*
X148923260Y-110656270D01*
X148996366Y-110567714D01*
X149059243Y-110490613D01*
X149100385Y-110439200D01*
X149169188Y-110350001D01*
X149220758Y-110276885D01*
X149260270Y-110210538D01*
X149292897Y-110141649D01*
X149323814Y-110060905D01*
X149345018Y-109998933D01*
X149380735Y-109874512D01*
X149402720Y-109759451D01*
X149410448Y-109659291D01*
X149403398Y-109579569D01*
X149388639Y-109537500D01*
X149378279Y-109509506D01*
X149383185Y-109499400D01*
X149402413Y-109514819D01*
X149424230Y-109555832D01*
X149445994Y-109614573D01*
X149465063Y-109683175D01*
X149478794Y-109753774D01*
X149483718Y-109798664D01*
X149478741Y-109957482D01*
X149441612Y-110106911D01*
X149371649Y-110249473D01*
X149354648Y-110275902D01*
X149291808Y-110363908D01*
X149208843Y-110470683D01*
X149109835Y-110591309D01*
X148998867Y-110720871D01*
X148880020Y-110854451D01*
X148818375Y-110921800D01*
X148716842Y-111032193D01*
X148635684Y-111121914D01*
X148571807Y-111194714D01*
X148522120Y-111254338D01*
X148483528Y-111304535D01*
X148452941Y-111349054D01*
X148427265Y-111391641D01*
X148420168Y-111404400D01*
X148397232Y-111447534D01*
X148385981Y-111472782D01*
X148388001Y-111478746D01*
X148404879Y-111464024D01*
X148438204Y-111427217D01*
X148489561Y-111366924D01*
X148560540Y-111281746D01*
X148564142Y-111277400D01*
X148623663Y-111207530D01*
X148699995Y-111120844D01*
X148786386Y-111024846D01*
X148876081Y-110927045D01*
X148960337Y-110837045D01*
X149068582Y-110721752D01*
X149156045Y-110625732D01*
X149226181Y-110544605D01*
X149282445Y-110473989D01*
X149328293Y-110409505D01*
X149367178Y-110346770D01*
X149402557Y-110281404D01*
X149409690Y-110267281D01*
X149478151Y-110095980D01*
X149515969Y-109915299D01*
X149524730Y-109790710D01*
X149527553Y-109657972D01*
X149412969Y-109438986D01*
X149358289Y-109337933D01*
X149310724Y-109259232D01*
X149264194Y-109194047D01*
X149212616Y-109133539D01*
X149177026Y-109096120D01*
X149057464Y-108985578D01*
X148932886Y-108891354D01*
X148810259Y-108818212D01*
X148705584Y-108773777D01*
X148623190Y-108751559D01*
X148515684Y-108729525D01*
X148391799Y-108709059D01*
X148260267Y-108691543D01*
X148129821Y-108678361D01*
X148078782Y-108674536D01*
X147931632Y-108664785D01*
X147965412Y-108773059D01*
X147985782Y-108857327D01*
X147989778Y-108935422D01*
X147976069Y-109015603D01*
X147943326Y-109106128D01*
X147895953Y-109204294D01*
X147794499Y-109384010D01*
X147689199Y-109541378D01*
X147582328Y-109673561D01*
X147476159Y-109777726D01*
X147380303Y-109846821D01*
X147336064Y-109876416D01*
X147317374Y-109902803D01*
X146978601Y-109902803D01*
X146876222Y-109863368D01*
X146778578Y-109805860D01*
X146676533Y-109736205D01*
X146676533Y-109973402D01*
X146489101Y-109973402D01*
X146489712Y-109943484D01*
X146490266Y-109854920D01*
X146490266Y-109552038D01*
X146348133Y-109441052D01*
X146288987Y-109395576D01*
X146239845Y-109359118D01*
X146206666Y-109336019D01*
X146195733Y-109330066D01*
X146192833Y-109346218D01*
X146190251Y-109391543D01*
X146188108Y-109461351D01*
X146186526Y-109550949D01*
X146185627Y-109655646D01*
X146185466Y-109725396D01*
X145996143Y-109725396D01*
X145995252Y-109639542D01*
X145990733Y-109203950D01*
X145880742Y-109140008D01*
X145824715Y-109109015D01*
X145778475Y-109086297D01*
X145751003Y-109076220D01*
X145749245Y-109076066D01*
X145742774Y-109082722D01*
X145737832Y-109104741D01*
X145734309Y-109145203D01*
X145732097Y-109207185D01*
X145731086Y-109293767D01*
X145542000Y-109293767D01*
X145542000Y-108992346D01*
X145453100Y-108967187D01*
X145392877Y-108950548D01*
X145338580Y-108936211D01*
X145317382Y-108930948D01*
X145270564Y-108919869D01*
X145084800Y-108919869D01*
X145084800Y-108894231D01*
X145021300Y-108883735D01*
X144970237Y-108878548D01*
X144897022Y-108875139D01*
X144811371Y-108873512D01*
X144723004Y-108873675D01*
X144641640Y-108875632D01*
X144576995Y-108879390D01*
X144545049Y-108883450D01*
X144492133Y-108894033D01*
X144049360Y-108894033D01*
X144160732Y-108847719D01*
X144319900Y-108793132D01*
X144460564Y-108755512D01*
X144592442Y-108733108D01*
X144725254Y-108724171D01*
X144839266Y-108725564D01*
X145015839Y-108742761D01*
X145196170Y-108780810D01*
X145383796Y-108840984D01*
X145582250Y-108924554D01*
X145795070Y-109032795D01*
X145967466Y-109131663D01*
X146127214Y-109229865D01*
X146264160Y-109320469D01*
X146386535Y-109409437D01*
X146502568Y-109502732D01*
X146611769Y-109598392D01*
X146722932Y-109694936D01*
X146818261Y-109767500D01*
X146902795Y-109818771D01*
X146981575Y-109851438D01*
X147059640Y-109868187D01*
X147124691Y-109871933D01*
X147232218Y-109855398D01*
X147342819Y-109806671D01*
X147454654Y-109727068D01*
X147565887Y-109617906D01*
X147674680Y-109480501D01*
X147678497Y-109475089D01*
X147751070Y-109366804D01*
X147817166Y-109258723D01*
X147873398Y-109157061D01*
X147916375Y-109068036D01*
X147942709Y-108997864D01*
X147946348Y-108983759D01*
X147954458Y-108876366D01*
X147931268Y-108764441D01*
X147876370Y-108647105D01*
X147789359Y-108523476D01*
X147739112Y-108468191D01*
X147771398Y-108468191D01*
X147808337Y-108505429D01*
X147836099Y-108525419D01*
X147879439Y-108542098D01*
X147944831Y-108557465D01*
X148018671Y-108570366D01*
X148095548Y-108582248D01*
X148163280Y-108591994D01*
X148212708Y-108598324D01*
X148230673Y-108599999D01*
X148269280Y-108601933D01*
X148234868Y-108555367D01*
X148203990Y-108493221D01*
X148178850Y-108398578D01*
X148159601Y-108272342D01*
X148146399Y-108115421D01*
X148141458Y-108007345D01*
X148137673Y-107910377D01*
X148134617Y-107848400D01*
X148147074Y-107848400D01*
X148158340Y-107958467D01*
X148184745Y-108135260D01*
X148225094Y-108291748D01*
X148278133Y-108424452D01*
X148342612Y-108529895D01*
X148378978Y-108571534D01*
X148415031Y-108601890D01*
X148464520Y-108632557D01*
X148532836Y-108666331D01*
X148625371Y-108706008D01*
X148682773Y-108729079D01*
X148857241Y-108804224D01*
X149003917Y-108881763D01*
X149128824Y-108965879D01*
X149237988Y-109060756D01*
X149337437Y-109170577D01*
X149360466Y-109199542D01*
X149399979Y-109249308D01*
X149430861Y-109286176D01*
X149447976Y-109304088D01*
X149449699Y-109304833D01*
X149445626Y-109288734D01*
X149430904Y-109248610D01*
X149408213Y-109191566D01*
X149394324Y-109157984D01*
X149326214Y-109010017D01*
X149237284Y-108842114D01*
X149126746Y-108652883D01*
X148993812Y-108440933D01*
X148953969Y-108379617D01*
X148898055Y-108294199D01*
X148848843Y-108219122D01*
X148809195Y-108158742D01*
X148781974Y-108117420D01*
X148770043Y-108099514D01*
X148769762Y-108099132D01*
X148752801Y-108096869D01*
X148708357Y-108092970D01*
X148642745Y-108087939D01*
X148562280Y-108082281D01*
X148542570Y-108080960D01*
X148435903Y-108072504D01*
X148356937Y-108061606D01*
X148299507Y-108045540D01*
X148257448Y-108021584D01*
X148224597Y-107987013D01*
X148194787Y-107939103D01*
X148186504Y-107923609D01*
X148147074Y-107848400D01*
X148134617Y-107848400D01*
X148133195Y-107819568D01*
X148128489Y-107743024D01*
X148124022Y-107688853D01*
X148123376Y-107683449D01*
X148162206Y-107683449D01*
X148173104Y-107766751D01*
X148194074Y-107848431D01*
X148222147Y-107914847D01*
X148251537Y-107961291D01*
X148284965Y-107995241D01*
X148327910Y-108018409D01*
X148385848Y-108032507D01*
X148464258Y-108039245D01*
X148568616Y-108040335D01*
X148621168Y-108039527D01*
X148716838Y-108037324D01*
X148784521Y-108034552D01*
X148830092Y-108030267D01*
X148859428Y-108023522D01*
X148878406Y-108013375D01*
X148892903Y-107998878D01*
X148895794Y-107995358D01*
X148926487Y-107941229D01*
X148939705Y-107873024D01*
X148935901Y-107785188D01*
X148920374Y-107694509D01*
X148890661Y-107552918D01*
X148842867Y-107590592D01*
X148809929Y-107624509D01*
X148796158Y-107666145D01*
X148794136Y-107699637D01*
X148788118Y-107752888D01*
X148769565Y-107782559D01*
X148760446Y-107788537D01*
X148704151Y-107805207D01*
X148657649Y-107792273D01*
X148634989Y-107767967D01*
X148626594Y-107740695D01*
X148615156Y-107682582D01*
X148601106Y-107596474D01*
X148584873Y-107485216D01*
X148566885Y-107351657D01*
X148547573Y-107198641D01*
X148541240Y-107146497D01*
X148521837Y-106984840D01*
X148506537Y-106853608D01*
X148495449Y-106749595D01*
X148488680Y-106669595D01*
X148486336Y-106610402D01*
X148487753Y-106583474D01*
X148516944Y-106583474D01*
X148517122Y-106603800D01*
X148522412Y-106661423D01*
X148530877Y-106741843D01*
X148541908Y-106840175D01*
X148554893Y-106951533D01*
X148569224Y-107071033D01*
X148584291Y-107193789D01*
X148599484Y-107314915D01*
X148614192Y-107429527D01*
X148627807Y-107532738D01*
X148639719Y-107619664D01*
X148649317Y-107685419D01*
X148655993Y-107725118D01*
X148658207Y-107734100D01*
X148677812Y-107765371D01*
X148706383Y-107770032D01*
X148732548Y-107761921D01*
X148752994Y-107738921D01*
X148759333Y-107709048D01*
X148755905Y-107680485D01*
X148742628Y-107680758D01*
X148736371Y-107685510D01*
X148725918Y-107688121D01*
X148716147Y-107674476D01*
X148705776Y-107640293D01*
X148693519Y-107581292D01*
X148678093Y-107493194D01*
X148677328Y-107488617D01*
X148656446Y-107356278D01*
X148637840Y-107224110D01*
X148621816Y-107095861D01*
X148608681Y-106975282D01*
X148598742Y-106866120D01*
X148592305Y-106772126D01*
X148589678Y-106697050D01*
X148591168Y-106644639D01*
X148597081Y-106618645D01*
X148606289Y-106620733D01*
X148619481Y-106633735D01*
X148621806Y-106618303D01*
X148620369Y-106603800D01*
X148610254Y-106573097D01*
X148582708Y-106562180D01*
X148564600Y-106561467D01*
X148528880Y-106565531D01*
X148516944Y-106583474D01*
X148487753Y-106583474D01*
X148488525Y-106568811D01*
X148495355Y-106541617D01*
X148506932Y-106525612D01*
X148523363Y-106517593D01*
X148544757Y-106514353D01*
X148562425Y-106513230D01*
X148585581Y-106510433D01*
X148597103Y-106501204D01*
X148596931Y-106479236D01*
X148585002Y-106438220D01*
X148561252Y-106371850D01*
X148561015Y-106371199D01*
X148544087Y-106332389D01*
X148523958Y-106311652D01*
X148493815Y-106308192D01*
X148446848Y-106321218D01*
X148376709Y-106349736D01*
X148307352Y-106379454D01*
X148295774Y-106639793D01*
X148283350Y-106868346D01*
X148267755Y-107067738D01*
X148249110Y-107237047D01*
X148227536Y-107375351D01*
X148203152Y-107481728D01*
X148176142Y-107555131D01*
X148162759Y-107609313D01*
X148162206Y-107683449D01*
X148123376Y-107683449D01*
X148122344Y-107674822D01*
X148123435Y-107592466D01*
X148139128Y-107545715D01*
X148163475Y-107481254D01*
X148185188Y-107394997D01*
X148204574Y-107284733D01*
X148221938Y-107148249D01*
X148237587Y-106983337D01*
X148251827Y-106787785D01*
X148257900Y-106688467D01*
X148266261Y-106544533D01*
X148167934Y-106823933D01*
X148134251Y-106919077D01*
X148102953Y-107006438D01*
X148076375Y-107079577D01*
X148056851Y-107132058D01*
X148048182Y-107154133D01*
X148039000Y-107194122D01*
X148031902Y-107265961D01*
X148026846Y-107370256D01*
X148023795Y-107507615D01*
X148023377Y-107543600D01*
X148021652Y-107666992D01*
X148018885Y-107763064D01*
X148014521Y-107838358D01*
X148008005Y-107899415D01*
X147998782Y-107952779D01*
X147986295Y-108004992D01*
X147983264Y-108016215D01*
X147933925Y-108168184D01*
X147874845Y-108303155D01*
X147815798Y-108403829D01*
X147771398Y-108468191D01*
X147739112Y-108468191D01*
X147676633Y-108399448D01*
X147623862Y-108345689D01*
X147595557Y-108314614D01*
X147591659Y-108306448D01*
X147612115Y-108321417D01*
X147656867Y-108359746D01*
X147681159Y-108381312D01*
X147729052Y-108424133D01*
X147764055Y-108381800D01*
X147805232Y-108319611D01*
X147848215Y-108233401D01*
X147888933Y-108132500D01*
X147923318Y-108026240D01*
X147930222Y-108000800D01*
X147949057Y-107910939D01*
X147962821Y-107803118D01*
X147972242Y-107670893D01*
X147975216Y-107602867D01*
X147978001Y-107513769D01*
X147979353Y-107438726D01*
X147979253Y-107383241D01*
X147977684Y-107352820D01*
X147976052Y-107348867D01*
X147965080Y-107366511D01*
X147942227Y-107407761D01*
X147911054Y-107466081D01*
X147881965Y-107521697D01*
X147782879Y-107699389D01*
X147686486Y-107844441D01*
X147591866Y-107957886D01*
X147498102Y-108040757D01*
X147404273Y-108094089D01*
X147359511Y-108109347D01*
X147299831Y-108117305D01*
X147224115Y-108112257D01*
X147128785Y-108093518D01*
X147010263Y-108060400D01*
X146879733Y-108017362D01*
X146706443Y-107952542D01*
X146514730Y-107872673D01*
X146313907Y-107782138D01*
X146113287Y-107685322D01*
X145922186Y-107586607D01*
X145749915Y-107490376D01*
X145711333Y-107467491D01*
X145641571Y-107424603D01*
X145590349Y-107391320D01*
X145559426Y-107369219D01*
X145550563Y-107359879D01*
X145565520Y-107364878D01*
X145606057Y-107385794D01*
X145643600Y-107406760D01*
X145804949Y-107494679D01*
X145981774Y-107584186D01*
X146168345Y-107672846D01*
X146358934Y-107758227D01*
X146547812Y-107837896D01*
X146729250Y-107909419D01*
X146897519Y-107970364D01*
X147046892Y-108018298D01*
X147146516Y-108045069D01*
X147220297Y-108061320D01*
X147272250Y-108068520D01*
X147313004Y-108067293D01*
X147353186Y-108058260D01*
X147356282Y-108057342D01*
X147424578Y-108024233D01*
X147501694Y-107965481D01*
X147582184Y-107886156D01*
X147660602Y-107791330D01*
X147697134Y-107739981D01*
X147763162Y-107632599D01*
X147835547Y-107497993D01*
X147911866Y-107341648D01*
X147989697Y-107169050D01*
X148066616Y-106985684D01*
X148140202Y-106797034D01*
X148208031Y-106608586D01*
X148242792Y-106504590D01*
X148267080Y-106392897D01*
X148274433Y-106270151D01*
X148263721Y-106155254D01*
X148263685Y-106155066D01*
X148257327Y-106115524D01*
X148259914Y-106105645D01*
X148269228Y-106117804D01*
X148281479Y-106151532D01*
X148292555Y-106204623D01*
X148297345Y-106240570D01*
X148307239Y-106302464D01*
X148320652Y-106330998D01*
X148337496Y-106326022D01*
X148343007Y-106318294D01*
X148341343Y-106297537D01*
X148330279Y-106251440D01*
X148311604Y-106186628D01*
X148287109Y-106109724D01*
X148284666Y-106102394D01*
X148217318Y-105901066D01*
X141342681Y-105901066D01*
X141275241Y-106102668D01*
X141247532Y-106186657D01*
X141229990Y-106244444D01*
X141221627Y-106281805D01*
X141221455Y-106304517D01*
X141007991Y-106304517D01*
X141025709Y-106281238D01*
X141047705Y-106269379D01*
X141073863Y-106268078D01*
X141076664Y-106268344D01*
X141098783Y-106269546D01*
X141115654Y-106264331D01*
X141130679Y-106247455D01*
X141147258Y-106213679D01*
X141168790Y-106157761D01*
X141194086Y-106087333D01*
X141223952Y-105999914D01*
X141241427Y-105938893D01*
X141247580Y-105899589D01*
X141243479Y-105877324D01*
X141242414Y-105875666D01*
X141186877Y-105777888D01*
X141158491Y-105681518D01*
X141155845Y-105655533D01*
X141152514Y-105562723D01*
X141155182Y-105495715D01*
X141165249Y-105446761D01*
X141184110Y-105408111D01*
X141205436Y-105380577D01*
X141227821Y-105352687D01*
X141242856Y-105324521D01*
X141252647Y-105287887D01*
X141253257Y-105283000D01*
X141339274Y-105283000D01*
X148217466Y-105283000D01*
X148217291Y-105227967D01*
X148213992Y-105140720D01*
X148205317Y-105030240D01*
X148192411Y-104906523D01*
X148176422Y-104779567D01*
X148158494Y-104659372D01*
X148140924Y-104561614D01*
X148065860Y-104267980D01*
X147962677Y-103992788D01*
X147831942Y-103736476D01*
X147674220Y-103499484D01*
X147490080Y-103282252D01*
X147280088Y-103085218D01*
X147044810Y-102908823D01*
X146784814Y-102753506D01*
X146500666Y-102619705D01*
X146192933Y-102507861D01*
X145862182Y-102418414D01*
X145508979Y-102351801D01*
X145248247Y-102318950D01*
X145136990Y-102310917D01*
X145000760Y-102306269D01*
X144847530Y-102304830D01*
X144685274Y-102306427D01*
X144521964Y-102310886D01*
X144365574Y-102318033D01*
X144224076Y-102327692D01*
X144105445Y-102339691D01*
X144068799Y-102344710D01*
X143800245Y-102394181D01*
X143530859Y-102461090D01*
X143269677Y-102542687D01*
X143025733Y-102636221D01*
X142858066Y-102713277D01*
X142585599Y-102865266D01*
X142341028Y-103035509D01*
X142124028Y-103224520D01*
X141934274Y-103432813D01*
X141771443Y-103660903D01*
X141635210Y-103909302D01*
X141525249Y-104178527D01*
X141441237Y-104469089D01*
X141382849Y-104781505D01*
X141350696Y-105100967D01*
X141339274Y-105283000D01*
X141253257Y-105283000D01*
X141259304Y-105234594D01*
X141264934Y-105156453D01*
X141265510Y-105147155D01*
X141293378Y-104836726D01*
X141337921Y-104552746D01*
X141400453Y-104291479D01*
X141482287Y-104049194D01*
X141584735Y-103822155D01*
X141709110Y-103606630D01*
X141856726Y-103398884D01*
X141898945Y-103345842D01*
X142081580Y-103147350D01*
X142291916Y-102965655D01*
X142527779Y-102801609D01*
X142786993Y-102656062D01*
X143067382Y-102529866D01*
X143366770Y-102423873D01*
X143682982Y-102338934D01*
X144013843Y-102275899D01*
X144357175Y-102235621D01*
X144710805Y-102218951D01*
X144780000Y-102218523D01*
X145168698Y-102231785D01*
G04 #@! TO.C,*
D10*
G04 #@! TO.C,R4*
X149693333Y-69117380D02*
X149360000Y-68641190D01*
X149121904Y-69117380D02*
X149121904Y-68117380D01*
X149502857Y-68117380D01*
X149598095Y-68165000D01*
X149645714Y-68212619D01*
X149693333Y-68307857D01*
X149693333Y-68450714D01*
X149645714Y-68545952D01*
X149598095Y-68593571D01*
X149502857Y-68641190D01*
X149121904Y-68641190D01*
X150550476Y-68450714D02*
X150550476Y-69117380D01*
X150312380Y-68069761D02*
X150074285Y-68784047D01*
X150693333Y-68784047D01*
G04 #@! TO.C,R1*
X142073333Y-69117380D02*
X141740000Y-68641190D01*
X141501904Y-69117380D02*
X141501904Y-68117380D01*
X141882857Y-68117380D01*
X141978095Y-68165000D01*
X142025714Y-68212619D01*
X142073333Y-68307857D01*
X142073333Y-68450714D01*
X142025714Y-68545952D01*
X141978095Y-68593571D01*
X141882857Y-68641190D01*
X141501904Y-68641190D01*
X143025714Y-69117380D02*
X142454285Y-69117380D01*
X142740000Y-69117380D02*
X142740000Y-68117380D01*
X142644761Y-68260238D01*
X142549523Y-68355476D01*
X142454285Y-68403095D01*
G04 #@! TO.C,TTGO T-Display*
D14*
X164114523Y-91317619D02*
X164114523Y-90951904D01*
X164754523Y-91134761D02*
X164114523Y-91134761D01*
X164114523Y-90830000D02*
X164114523Y-90464285D01*
X164754523Y-90647142D02*
X164114523Y-90647142D01*
X164145000Y-89915714D02*
X164114523Y-89976666D01*
X164114523Y-90068095D01*
X164145000Y-90159523D01*
X164205952Y-90220476D01*
X164266904Y-90250952D01*
X164388809Y-90281428D01*
X164480238Y-90281428D01*
X164602142Y-90250952D01*
X164663095Y-90220476D01*
X164724047Y-90159523D01*
X164754523Y-90068095D01*
X164754523Y-90007142D01*
X164724047Y-89915714D01*
X164693571Y-89885238D01*
X164480238Y-89885238D01*
X164480238Y-90007142D01*
X164114523Y-89489047D02*
X164114523Y-89367142D01*
X164145000Y-89306190D01*
X164205952Y-89245238D01*
X164327857Y-89214761D01*
X164541190Y-89214761D01*
X164663095Y-89245238D01*
X164724047Y-89306190D01*
X164754523Y-89367142D01*
X164754523Y-89489047D01*
X164724047Y-89550000D01*
X164663095Y-89610952D01*
X164541190Y-89641428D01*
X164327857Y-89641428D01*
X164205952Y-89610952D01*
X164145000Y-89550000D01*
X164114523Y-89489047D01*
X164114523Y-88544285D02*
X164114523Y-88178571D01*
X164754523Y-88361428D02*
X164114523Y-88361428D01*
X164510714Y-87965238D02*
X164510714Y-87477619D01*
X164754523Y-87172857D02*
X164114523Y-87172857D01*
X164114523Y-87020476D01*
X164145000Y-86929047D01*
X164205952Y-86868095D01*
X164266904Y-86837619D01*
X164388809Y-86807142D01*
X164480238Y-86807142D01*
X164602142Y-86837619D01*
X164663095Y-86868095D01*
X164724047Y-86929047D01*
X164754523Y-87020476D01*
X164754523Y-87172857D01*
X164754523Y-86532857D02*
X164327857Y-86532857D01*
X164114523Y-86532857D02*
X164145000Y-86563333D01*
X164175476Y-86532857D01*
X164145000Y-86502380D01*
X164114523Y-86532857D01*
X164175476Y-86532857D01*
X164724047Y-86258571D02*
X164754523Y-86197619D01*
X164754523Y-86075714D01*
X164724047Y-86014761D01*
X164663095Y-85984285D01*
X164632619Y-85984285D01*
X164571666Y-86014761D01*
X164541190Y-86075714D01*
X164541190Y-86167142D01*
X164510714Y-86228095D01*
X164449761Y-86258571D01*
X164419285Y-86258571D01*
X164358333Y-86228095D01*
X164327857Y-86167142D01*
X164327857Y-86075714D01*
X164358333Y-86014761D01*
X164327857Y-85710000D02*
X164967857Y-85710000D01*
X164358333Y-85710000D02*
X164327857Y-85649047D01*
X164327857Y-85527142D01*
X164358333Y-85466190D01*
X164388809Y-85435714D01*
X164449761Y-85405238D01*
X164632619Y-85405238D01*
X164693571Y-85435714D01*
X164724047Y-85466190D01*
X164754523Y-85527142D01*
X164754523Y-85649047D01*
X164724047Y-85710000D01*
X164754523Y-85039523D02*
X164724047Y-85100476D01*
X164663095Y-85130952D01*
X164114523Y-85130952D01*
X164754523Y-84521428D02*
X164419285Y-84521428D01*
X164358333Y-84551904D01*
X164327857Y-84612857D01*
X164327857Y-84734761D01*
X164358333Y-84795714D01*
X164724047Y-84521428D02*
X164754523Y-84582380D01*
X164754523Y-84734761D01*
X164724047Y-84795714D01*
X164663095Y-84826190D01*
X164602142Y-84826190D01*
X164541190Y-84795714D01*
X164510714Y-84734761D01*
X164510714Y-84582380D01*
X164480238Y-84521428D01*
X164327857Y-84277619D02*
X164754523Y-84125238D01*
X164327857Y-83972857D02*
X164754523Y-84125238D01*
X164906904Y-84186190D01*
X164937380Y-84216666D01*
X164967857Y-84277619D01*
G04 #@! TO.C,L2*
D10*
X153860082Y-107802288D02*
X153383891Y-107802288D01*
X153383891Y-106802288D01*
X154145796Y-106897527D02*
X154193415Y-106849908D01*
X154288653Y-106802288D01*
X154526749Y-106802288D01*
X154621987Y-106849908D01*
X154669606Y-106897527D01*
X154717225Y-106992765D01*
X154717225Y-107088003D01*
X154669606Y-107230860D01*
X154098177Y-107802288D01*
X154717225Y-107802288D01*
G04 #@! TO.C,R2*
X153860082Y-103357288D02*
X153526749Y-102881098D01*
X153288653Y-103357288D02*
X153288653Y-102357288D01*
X153669606Y-102357288D01*
X153764844Y-102404908D01*
X153812463Y-102452527D01*
X153860082Y-102547765D01*
X153860082Y-102690622D01*
X153812463Y-102785860D01*
X153764844Y-102833479D01*
X153669606Y-102881098D01*
X153288653Y-102881098D01*
X154241034Y-102452527D02*
X154288653Y-102404908D01*
X154383891Y-102357288D01*
X154621987Y-102357288D01*
X154717225Y-102404908D01*
X154764844Y-102452527D01*
X154812463Y-102547765D01*
X154812463Y-102643003D01*
X154764844Y-102785860D01*
X154193415Y-103357288D01*
X154812463Y-103357288D01*
G04 #@! TO.C,READ*
X153233571Y-112847380D02*
X152900238Y-112371190D01*
X152662142Y-112847380D02*
X152662142Y-111847380D01*
X153043095Y-111847380D01*
X153138333Y-111895000D01*
X153185952Y-111942619D01*
X153233571Y-112037857D01*
X153233571Y-112180714D01*
X153185952Y-112275952D01*
X153138333Y-112323571D01*
X153043095Y-112371190D01*
X152662142Y-112371190D01*
X153662142Y-112323571D02*
X153995476Y-112323571D01*
X154138333Y-112847380D02*
X153662142Y-112847380D01*
X153662142Y-111847380D01*
X154138333Y-111847380D01*
X154519285Y-112561666D02*
X154995476Y-112561666D01*
X154424047Y-112847380D02*
X154757380Y-111847380D01*
X155090714Y-112847380D01*
X155424047Y-112847380D02*
X155424047Y-111847380D01*
X155662142Y-111847380D01*
X155805000Y-111895000D01*
X155900238Y-111990238D01*
X155947857Y-112085476D01*
X155995476Y-112275952D01*
X155995476Y-112418809D01*
X155947857Y-112609285D01*
X155900238Y-112704523D01*
X155805000Y-112799761D01*
X155662142Y-112847380D01*
X155424047Y-112847380D01*
G04 #@! TO.C,WRITE*
X133255000Y-111847380D02*
X133493095Y-112847380D01*
X133683571Y-112133095D01*
X133874047Y-112847380D01*
X134112142Y-111847380D01*
X135064523Y-112847380D02*
X134731190Y-112371190D01*
X134493095Y-112847380D02*
X134493095Y-111847380D01*
X134874047Y-111847380D01*
X134969285Y-111895000D01*
X135016904Y-111942619D01*
X135064523Y-112037857D01*
X135064523Y-112180714D01*
X135016904Y-112275952D01*
X134969285Y-112323571D01*
X134874047Y-112371190D01*
X134493095Y-112371190D01*
X135493095Y-112847380D02*
X135493095Y-111847380D01*
X135826428Y-111847380D02*
X136397857Y-111847380D01*
X136112142Y-112847380D02*
X136112142Y-111847380D01*
X136731190Y-112323571D02*
X137064523Y-112323571D01*
X137207380Y-112847380D02*
X136731190Y-112847380D01*
X136731190Y-111847380D01*
X137207380Y-111847380D01*
G04 #@! TO.C,R2*
X135445082Y-103357288D02*
X135111749Y-102881098D01*
X134873653Y-103357288D02*
X134873653Y-102357288D01*
X135254606Y-102357288D01*
X135349844Y-102404908D01*
X135397463Y-102452527D01*
X135445082Y-102547765D01*
X135445082Y-102690622D01*
X135397463Y-102785860D01*
X135349844Y-102833479D01*
X135254606Y-102881098D01*
X134873653Y-102881098D01*
X135826034Y-102452527D02*
X135873653Y-102404908D01*
X135968891Y-102357288D01*
X136206987Y-102357288D01*
X136302225Y-102404908D01*
X136349844Y-102452527D01*
X136397463Y-102547765D01*
X136397463Y-102643003D01*
X136349844Y-102785860D01*
X135778415Y-103357288D01*
X136397463Y-103357288D01*
G04 #@! TO.C,L2*
X135445082Y-107802288D02*
X134968891Y-107802288D01*
X134968891Y-106802288D01*
X135730796Y-106897527D02*
X135778415Y-106849908D01*
X135873653Y-106802288D01*
X136111749Y-106802288D01*
X136206987Y-106849908D01*
X136254606Y-106897527D01*
X136302225Y-106992765D01*
X136302225Y-107088003D01*
X136254606Y-107230860D01*
X135683177Y-107802288D01*
X136302225Y-107802288D01*
G04 #@! TO.C,iButton*
X111811428Y-97962380D02*
X111811428Y-97295714D01*
X111811428Y-96962380D02*
X111763809Y-97010000D01*
X111811428Y-97057619D01*
X111859047Y-97010000D01*
X111811428Y-96962380D01*
X111811428Y-97057619D01*
X112620952Y-97438571D02*
X112763809Y-97486190D01*
X112811428Y-97533809D01*
X112859047Y-97629047D01*
X112859047Y-97771904D01*
X112811428Y-97867142D01*
X112763809Y-97914761D01*
X112668571Y-97962380D01*
X112287619Y-97962380D01*
X112287619Y-96962380D01*
X112620952Y-96962380D01*
X112716190Y-97010000D01*
X112763809Y-97057619D01*
X112811428Y-97152857D01*
X112811428Y-97248095D01*
X112763809Y-97343333D01*
X112716190Y-97390952D01*
X112620952Y-97438571D01*
X112287619Y-97438571D01*
X113716190Y-97295714D02*
X113716190Y-97962380D01*
X113287619Y-97295714D02*
X113287619Y-97819523D01*
X113335238Y-97914761D01*
X113430476Y-97962380D01*
X113573333Y-97962380D01*
X113668571Y-97914761D01*
X113716190Y-97867142D01*
X114049523Y-97295714D02*
X114430476Y-97295714D01*
X114192380Y-96962380D02*
X114192380Y-97819523D01*
X114240000Y-97914761D01*
X114335238Y-97962380D01*
X114430476Y-97962380D01*
X114620952Y-97295714D02*
X115001904Y-97295714D01*
X114763809Y-96962380D02*
X114763809Y-97819523D01*
X114811428Y-97914761D01*
X114906666Y-97962380D01*
X115001904Y-97962380D01*
X115478095Y-97962380D02*
X115382857Y-97914761D01*
X115335238Y-97867142D01*
X115287619Y-97771904D01*
X115287619Y-97486190D01*
X115335238Y-97390952D01*
X115382857Y-97343333D01*
X115478095Y-97295714D01*
X115620952Y-97295714D01*
X115716190Y-97343333D01*
X115763809Y-97390952D01*
X115811428Y-97486190D01*
X115811428Y-97771904D01*
X115763809Y-97867142D01*
X115716190Y-97914761D01*
X115620952Y-97962380D01*
X115478095Y-97962380D01*
X116240000Y-97295714D02*
X116240000Y-97962380D01*
X116240000Y-97390952D02*
X116287619Y-97343333D01*
X116382857Y-97295714D01*
X116525714Y-97295714D01*
X116620952Y-97343333D01*
X116668571Y-97438571D01*
X116668571Y-97962380D01*
G04 #@! TO.C,*
G04 #@! TD*
M02*
