G04 #@! TF.GenerationSoftware,KiCad,Pcbnew,5.0.2+dfsg1-1*
G04 #@! TF.CreationDate,2020-04-26T19:31:52+02:00*
G04 #@! TF.ProjectId,iClone,69436c6f-6e65-42e6-9b69-6361645f7063,rev?*
G04 #@! TF.SameCoordinates,Original*
G04 #@! TF.FileFunction,Legend,Bot*
G04 #@! TF.FilePolarity,Positive*
%FSLAX46Y46*%
G04 Gerber Fmt 4.6, Leading zero omitted, Abs format (unit mm)*
G04 Created by KiCad (PCBNEW 5.0.2+dfsg1-1) date dom 26 abr 2020 19:31:52 CEST*
%MOMM*%
%LPD*%
G01*
G04 APERTURE LIST*
%ADD10C,0.150000*%
%ADD11C,0.010000*%
G04 APERTURE END LIST*
D10*
X170353095Y-83794761D02*
X169486428Y-83794761D01*
X169053095Y-83794761D02*
X169115000Y-83732857D01*
X169176904Y-83794761D01*
X169115000Y-83856666D01*
X169053095Y-83794761D01*
X169176904Y-83794761D01*
X170229285Y-85156666D02*
X170291190Y-85094761D01*
X170353095Y-84909047D01*
X170353095Y-84785238D01*
X170291190Y-84599523D01*
X170167380Y-84475714D01*
X170043571Y-84413809D01*
X169795952Y-84351904D01*
X169610238Y-84351904D01*
X169362619Y-84413809D01*
X169238809Y-84475714D01*
X169115000Y-84599523D01*
X169053095Y-84785238D01*
X169053095Y-84909047D01*
X169115000Y-85094761D01*
X169176904Y-85156666D01*
X170353095Y-85899523D02*
X170291190Y-85775714D01*
X170167380Y-85713809D01*
X169053095Y-85713809D01*
X170353095Y-86580476D02*
X170291190Y-86456666D01*
X170229285Y-86394761D01*
X170105476Y-86332857D01*
X169734047Y-86332857D01*
X169610238Y-86394761D01*
X169548333Y-86456666D01*
X169486428Y-86580476D01*
X169486428Y-86766190D01*
X169548333Y-86890000D01*
X169610238Y-86951904D01*
X169734047Y-87013809D01*
X170105476Y-87013809D01*
X170229285Y-86951904D01*
X170291190Y-86890000D01*
X170353095Y-86766190D01*
X170353095Y-86580476D01*
X169486428Y-87570952D02*
X170353095Y-87570952D01*
X169610238Y-87570952D02*
X169548333Y-87632857D01*
X169486428Y-87756666D01*
X169486428Y-87942380D01*
X169548333Y-88066190D01*
X169672142Y-88128095D01*
X170353095Y-88128095D01*
X170291190Y-89242380D02*
X170353095Y-89118571D01*
X170353095Y-88870952D01*
X170291190Y-88747142D01*
X170167380Y-88685238D01*
X169672142Y-88685238D01*
X169548333Y-88747142D01*
X169486428Y-88870952D01*
X169486428Y-89118571D01*
X169548333Y-89242380D01*
X169672142Y-89304285D01*
X169795952Y-89304285D01*
X169919761Y-88685238D01*
X170353095Y-90851904D02*
X169486428Y-90851904D01*
X169734047Y-90851904D02*
X169610238Y-90913809D01*
X169548333Y-90975714D01*
X169486428Y-91099523D01*
X169486428Y-91223333D01*
X170291190Y-92151904D02*
X170353095Y-92028095D01*
X170353095Y-91780476D01*
X170291190Y-91656666D01*
X170167380Y-91594761D01*
X169672142Y-91594761D01*
X169548333Y-91656666D01*
X169486428Y-91780476D01*
X169486428Y-92028095D01*
X169548333Y-92151904D01*
X169672142Y-92213809D01*
X169795952Y-92213809D01*
X169919761Y-91594761D01*
X169486428Y-92647142D02*
X170353095Y-92956666D01*
X169486428Y-93266190D01*
X169053095Y-94999523D02*
X169053095Y-95123333D01*
X169115000Y-95247142D01*
X169176904Y-95309047D01*
X169300714Y-95370952D01*
X169548333Y-95432857D01*
X169857857Y-95432857D01*
X170105476Y-95370952D01*
X170229285Y-95309047D01*
X170291190Y-95247142D01*
X170353095Y-95123333D01*
X170353095Y-94999523D01*
X170291190Y-94875714D01*
X170229285Y-94813809D01*
X170105476Y-94751904D01*
X169857857Y-94690000D01*
X169548333Y-94690000D01*
X169300714Y-94751904D01*
X169176904Y-94813809D01*
X169115000Y-94875714D01*
X169053095Y-94999523D01*
X170229285Y-95990000D02*
X170291190Y-96051904D01*
X170353095Y-95990000D01*
X170291190Y-95928095D01*
X170229285Y-95990000D01*
X170353095Y-95990000D01*
X169053095Y-96856666D02*
X169053095Y-96980476D01*
X169115000Y-97104285D01*
X169176904Y-97166190D01*
X169300714Y-97228095D01*
X169548333Y-97290000D01*
X169857857Y-97290000D01*
X170105476Y-97228095D01*
X170229285Y-97166190D01*
X170291190Y-97104285D01*
X170353095Y-96980476D01*
X170353095Y-96856666D01*
X170291190Y-96732857D01*
X170229285Y-96670952D01*
X170105476Y-96609047D01*
X169857857Y-96547142D01*
X169548333Y-96547142D01*
X169300714Y-96609047D01*
X169176904Y-96670952D01*
X169115000Y-96732857D01*
X169053095Y-96856666D01*
X170229285Y-97847142D02*
X170291190Y-97909047D01*
X170353095Y-97847142D01*
X170291190Y-97785238D01*
X170229285Y-97847142D01*
X170353095Y-97847142D01*
X170353095Y-99147142D02*
X170353095Y-98404285D01*
X170353095Y-98775714D02*
X169053095Y-98775714D01*
X169238809Y-98651904D01*
X169362619Y-98528095D01*
X169424523Y-98404285D01*
X172453095Y-85528095D02*
X171153095Y-85528095D01*
X172081666Y-85961428D01*
X171153095Y-86394761D01*
X172453095Y-86394761D01*
X172453095Y-87570952D02*
X171772142Y-87570952D01*
X171648333Y-87509047D01*
X171586428Y-87385238D01*
X171586428Y-87137619D01*
X171648333Y-87013809D01*
X172391190Y-87570952D02*
X172453095Y-87447142D01*
X172453095Y-87137619D01*
X172391190Y-87013809D01*
X172267380Y-86951904D01*
X172143571Y-86951904D01*
X172019761Y-87013809D01*
X171957857Y-87137619D01*
X171957857Y-87447142D01*
X171895952Y-87570952D01*
X171586428Y-88066190D02*
X172453095Y-88375714D01*
X171586428Y-88685238D02*
X172453095Y-88375714D01*
X172762619Y-88251904D01*
X172824523Y-88190000D01*
X172886428Y-88066190D01*
X171586428Y-90728095D02*
X172453095Y-90728095D01*
X171091190Y-90418571D02*
X172019761Y-90109047D01*
X172019761Y-90913809D01*
X172391190Y-91470952D02*
X172453095Y-91470952D01*
X172576904Y-91409047D01*
X172638809Y-91347142D01*
X171276904Y-92956666D02*
X171215000Y-93018571D01*
X171153095Y-93142380D01*
X171153095Y-93451904D01*
X171215000Y-93575714D01*
X171276904Y-93637619D01*
X171400714Y-93699523D01*
X171524523Y-93699523D01*
X171710238Y-93637619D01*
X172453095Y-92894761D01*
X172453095Y-93699523D01*
X171153095Y-94504285D02*
X171153095Y-94628095D01*
X171215000Y-94751904D01*
X171276904Y-94813809D01*
X171400714Y-94875714D01*
X171648333Y-94937619D01*
X171957857Y-94937619D01*
X172205476Y-94875714D01*
X172329285Y-94813809D01*
X172391190Y-94751904D01*
X172453095Y-94628095D01*
X172453095Y-94504285D01*
X172391190Y-94380476D01*
X172329285Y-94318571D01*
X172205476Y-94256666D01*
X171957857Y-94194761D01*
X171648333Y-94194761D01*
X171400714Y-94256666D01*
X171276904Y-94318571D01*
X171215000Y-94380476D01*
X171153095Y-94504285D01*
X171276904Y-95432857D02*
X171215000Y-95494761D01*
X171153095Y-95618571D01*
X171153095Y-95928095D01*
X171215000Y-96051904D01*
X171276904Y-96113809D01*
X171400714Y-96175714D01*
X171524523Y-96175714D01*
X171710238Y-96113809D01*
X172453095Y-95370952D01*
X172453095Y-96175714D01*
X171153095Y-96980476D02*
X171153095Y-97104285D01*
X171215000Y-97228095D01*
X171276904Y-97290000D01*
X171400714Y-97351904D01*
X171648333Y-97413809D01*
X171957857Y-97413809D01*
X172205476Y-97351904D01*
X172329285Y-97290000D01*
X172391190Y-97228095D01*
X172453095Y-97104285D01*
X172453095Y-96980476D01*
X172391190Y-96856666D01*
X172329285Y-96794761D01*
X172205476Y-96732857D01*
X171957857Y-96670952D01*
X171648333Y-96670952D01*
X171400714Y-96732857D01*
X171276904Y-96794761D01*
X171215000Y-96856666D01*
X171153095Y-96980476D01*
D11*
G04 #@! TO.C,G\002A\002A\002A*
G36*
X161620542Y-103171739D02*
X161803805Y-103399166D01*
X162117648Y-103588711D01*
X162466274Y-103635594D01*
X162801652Y-103538032D01*
X162941514Y-103441367D01*
X163124214Y-103184833D01*
X163209682Y-102854513D01*
X163185539Y-102523075D01*
X163123789Y-102371319D01*
X162883658Y-102104520D01*
X162571620Y-101963832D01*
X162232818Y-101955529D01*
X161912396Y-102085887D01*
X161791487Y-102186153D01*
X161575319Y-102502780D01*
X161518437Y-102841151D01*
X161620542Y-103171739D01*
X161620542Y-103171739D01*
G37*
X161620542Y-103171739D02*
X161803805Y-103399166D01*
X162117648Y-103588711D01*
X162466274Y-103635594D01*
X162801652Y-103538032D01*
X162941514Y-103441367D01*
X163124214Y-103184833D01*
X163209682Y-102854513D01*
X163185539Y-102523075D01*
X163123789Y-102371319D01*
X162883658Y-102104520D01*
X162571620Y-101963832D01*
X162232818Y-101955529D01*
X161912396Y-102085887D01*
X161791487Y-102186153D01*
X161575319Y-102502780D01*
X161518437Y-102841151D01*
X161620542Y-103171739D01*
G36*
X161599844Y-80546955D02*
X161801427Y-80807567D01*
X162095806Y-80977354D01*
X162388339Y-81024117D01*
X162739445Y-80948913D01*
X163008117Y-80751455D01*
X163174894Y-80466675D01*
X163220316Y-80129507D01*
X163124925Y-79774883D01*
X163105355Y-79736961D01*
X162896133Y-79478808D01*
X162605012Y-79352578D01*
X162372738Y-79332666D01*
X162012610Y-79409699D01*
X161729690Y-79633460D01*
X161576254Y-79894065D01*
X161516354Y-80230720D01*
X161599844Y-80546955D01*
X161599844Y-80546955D01*
G37*
X161599844Y-80546955D02*
X161801427Y-80807567D01*
X162095806Y-80977354D01*
X162388339Y-81024117D01*
X162739445Y-80948913D01*
X163008117Y-80751455D01*
X163174894Y-80466675D01*
X163220316Y-80129507D01*
X163124925Y-79774883D01*
X163105355Y-79736961D01*
X162896133Y-79478808D01*
X162605012Y-79352578D01*
X162372738Y-79332666D01*
X162012610Y-79409699D01*
X161729690Y-79633460D01*
X161576254Y-79894065D01*
X161516354Y-80230720D01*
X161599844Y-80546955D01*
G36*
X136758450Y-109776459D02*
X137157881Y-109728996D01*
X137662642Y-109663391D01*
X138243299Y-109584006D01*
X138870415Y-109495205D01*
X139514556Y-109401350D01*
X140146284Y-109306805D01*
X140736165Y-109215931D01*
X141254764Y-109133093D01*
X141672643Y-109062654D01*
X141960368Y-109008976D01*
X142013713Y-108997518D01*
X142482355Y-108896134D01*
X142829531Y-108837695D01*
X143097529Y-108822033D01*
X143328634Y-108848982D01*
X143565136Y-108918374D01*
X143752929Y-108990654D01*
X144044967Y-109094742D01*
X144221832Y-109129474D01*
X144271334Y-109097284D01*
X144181284Y-109000609D01*
X144075953Y-108926115D01*
X143893700Y-108840072D01*
X143609475Y-108741049D01*
X143306434Y-108656142D01*
X142989631Y-108583701D01*
X142770722Y-108557384D01*
X142584752Y-108576901D01*
X142366767Y-108641958D01*
X142338314Y-108651789D01*
X141916809Y-108768023D01*
X141340403Y-108879707D01*
X140623508Y-108985043D01*
X139780533Y-109082235D01*
X138825890Y-109169486D01*
X137773990Y-109245002D01*
X137397683Y-109267630D01*
X136407699Y-109324363D01*
X136229899Y-109834399D01*
X136758450Y-109776459D01*
X136758450Y-109776459D01*
G37*
X136758450Y-109776459D02*
X137157881Y-109728996D01*
X137662642Y-109663391D01*
X138243299Y-109584006D01*
X138870415Y-109495205D01*
X139514556Y-109401350D01*
X140146284Y-109306805D01*
X140736165Y-109215931D01*
X141254764Y-109133093D01*
X141672643Y-109062654D01*
X141960368Y-109008976D01*
X142013713Y-108997518D01*
X142482355Y-108896134D01*
X142829531Y-108837695D01*
X143097529Y-108822033D01*
X143328634Y-108848982D01*
X143565136Y-108918374D01*
X143752929Y-108990654D01*
X144044967Y-109094742D01*
X144221832Y-109129474D01*
X144271334Y-109097284D01*
X144181284Y-109000609D01*
X144075953Y-108926115D01*
X143893700Y-108840072D01*
X143609475Y-108741049D01*
X143306434Y-108656142D01*
X142989631Y-108583701D01*
X142770722Y-108557384D01*
X142584752Y-108576901D01*
X142366767Y-108641958D01*
X142338314Y-108651789D01*
X141916809Y-108768023D01*
X141340403Y-108879707D01*
X140623508Y-108985043D01*
X139780533Y-109082235D01*
X138825890Y-109169486D01*
X137773990Y-109245002D01*
X137397683Y-109267630D01*
X136407699Y-109324363D01*
X136229899Y-109834399D01*
X136758450Y-109776459D01*
G36*
X142622137Y-111871043D02*
X142767202Y-111953484D01*
X143035849Y-111998496D01*
X143450062Y-112012838D01*
X143452066Y-112012843D01*
X143846230Y-111990690D01*
X144114352Y-111909433D01*
X144294880Y-111750191D01*
X144406168Y-111544237D01*
X144471204Y-111290355D01*
X144509878Y-110939039D01*
X144522141Y-110544295D01*
X144507945Y-110160126D01*
X144467242Y-109840538D01*
X144407847Y-109652652D01*
X144174422Y-109395349D01*
X143845925Y-109251112D01*
X143637000Y-109230277D01*
X143383000Y-109234554D01*
X143624931Y-109307054D01*
X143870025Y-109416994D01*
X144072089Y-109569512D01*
X144179790Y-109722961D01*
X144186037Y-109762288D01*
X144162065Y-109809073D01*
X144122537Y-109761841D01*
X143921341Y-109597045D01*
X143604559Y-109496699D01*
X143334815Y-109474000D01*
X142979164Y-109474000D01*
X143212509Y-109657548D01*
X143412976Y-109871075D01*
X143562593Y-110120496D01*
X143641697Y-110413345D01*
X143675239Y-110759929D01*
X143661307Y-111089259D01*
X143597990Y-111330343D01*
X143595317Y-111335452D01*
X143442008Y-111480131D01*
X143194299Y-111593305D01*
X142927046Y-111648609D01*
X142749329Y-111633421D01*
X142615119Y-111625416D01*
X142578669Y-111742708D01*
X142578667Y-111744419D01*
X142622137Y-111871043D01*
X142622137Y-111871043D01*
G37*
X142622137Y-111871043D02*
X142767202Y-111953484D01*
X143035849Y-111998496D01*
X143450062Y-112012838D01*
X143452066Y-112012843D01*
X143846230Y-111990690D01*
X144114352Y-111909433D01*
X144294880Y-111750191D01*
X144406168Y-111544237D01*
X144471204Y-111290355D01*
X144509878Y-110939039D01*
X144522141Y-110544295D01*
X144507945Y-110160126D01*
X144467242Y-109840538D01*
X144407847Y-109652652D01*
X144174422Y-109395349D01*
X143845925Y-109251112D01*
X143637000Y-109230277D01*
X143383000Y-109234554D01*
X143624931Y-109307054D01*
X143870025Y-109416994D01*
X144072089Y-109569512D01*
X144179790Y-109722961D01*
X144186037Y-109762288D01*
X144162065Y-109809073D01*
X144122537Y-109761841D01*
X143921341Y-109597045D01*
X143604559Y-109496699D01*
X143334815Y-109474000D01*
X142979164Y-109474000D01*
X143212509Y-109657548D01*
X143412976Y-109871075D01*
X143562593Y-110120496D01*
X143641697Y-110413345D01*
X143675239Y-110759929D01*
X143661307Y-111089259D01*
X143597990Y-111330343D01*
X143595317Y-111335452D01*
X143442008Y-111480131D01*
X143194299Y-111593305D01*
X142927046Y-111648609D01*
X142749329Y-111633421D01*
X142615119Y-111625416D01*
X142578669Y-111742708D01*
X142578667Y-111744419D01*
X142622137Y-111871043D01*
G36*
X136319434Y-73427910D02*
X136372280Y-73523163D01*
X136449501Y-73587713D01*
X136584387Y-73630525D01*
X136810233Y-73660566D01*
X137160331Y-73686802D01*
X137317437Y-73696686D01*
X138558203Y-73781447D01*
X139632339Y-73872249D01*
X140542455Y-73969414D01*
X141291157Y-74073258D01*
X141881054Y-74184102D01*
X142314753Y-74302264D01*
X142338314Y-74310458D01*
X142562569Y-74381757D01*
X142746648Y-74407481D01*
X142955186Y-74387501D01*
X143252819Y-74321688D01*
X143306434Y-74308524D01*
X143722320Y-74186592D01*
X144037172Y-74054905D01*
X144226703Y-73925325D01*
X144272000Y-73836833D01*
X144201519Y-73827966D01*
X144017601Y-73877137D01*
X143785167Y-73963775D01*
X143298875Y-74122164D01*
X142888139Y-74158190D01*
X142520959Y-74077487D01*
X142354526Y-74033292D01*
X142053984Y-73972703D01*
X141642101Y-73899017D01*
X141141645Y-73815535D01*
X140575385Y-73725554D01*
X139966090Y-73632373D01*
X139336526Y-73539292D01*
X138709463Y-73449609D01*
X138107669Y-73366622D01*
X137553912Y-73293631D01*
X137070961Y-73233934D01*
X136681584Y-73190830D01*
X136408549Y-73167617D01*
X136274624Y-73167596D01*
X136265884Y-73171227D01*
X136265012Y-73270931D01*
X136319434Y-73427910D01*
X136319434Y-73427910D01*
G37*
X136319434Y-73427910D02*
X136372280Y-73523163D01*
X136449501Y-73587713D01*
X136584387Y-73630525D01*
X136810233Y-73660566D01*
X137160331Y-73686802D01*
X137317437Y-73696686D01*
X138558203Y-73781447D01*
X139632339Y-73872249D01*
X140542455Y-73969414D01*
X141291157Y-74073258D01*
X141881054Y-74184102D01*
X142314753Y-74302264D01*
X142338314Y-74310458D01*
X142562569Y-74381757D01*
X142746648Y-74407481D01*
X142955186Y-74387501D01*
X143252819Y-74321688D01*
X143306434Y-74308524D01*
X143722320Y-74186592D01*
X144037172Y-74054905D01*
X144226703Y-73925325D01*
X144272000Y-73836833D01*
X144201519Y-73827966D01*
X144017601Y-73877137D01*
X143785167Y-73963775D01*
X143298875Y-74122164D01*
X142888139Y-74158190D01*
X142520959Y-74077487D01*
X142354526Y-74033292D01*
X142053984Y-73972703D01*
X141642101Y-73899017D01*
X141141645Y-73815535D01*
X140575385Y-73725554D01*
X139966090Y-73632373D01*
X139336526Y-73539292D01*
X138709463Y-73449609D01*
X138107669Y-73366622D01*
X137553912Y-73293631D01*
X137070961Y-73233934D01*
X136681584Y-73190830D01*
X136408549Y-73167617D01*
X136274624Y-73167596D01*
X136265884Y-73171227D01*
X136265012Y-73270931D01*
X136319434Y-73427910D01*
G36*
X142614792Y-71331090D02*
X142751132Y-71333679D01*
X142772472Y-71328584D01*
X143043295Y-71330321D01*
X143333523Y-71430673D01*
X143554316Y-71598033D01*
X143563908Y-71610161D01*
X143641817Y-71814633D01*
X143672250Y-72117967D01*
X143655274Y-72456502D01*
X143590957Y-72766579D01*
X143562593Y-72844170D01*
X143410223Y-73097232D01*
X143212509Y-73307117D01*
X142979164Y-73490666D01*
X143333453Y-73490666D01*
X143636346Y-73455722D01*
X143921064Y-73369843D01*
X143958705Y-73352083D01*
X144229667Y-73213501D01*
X144067220Y-73395696D01*
X143864296Y-73553582D01*
X143643887Y-73653643D01*
X143383000Y-73729394D01*
X143620038Y-73737030D01*
X143954280Y-73680012D01*
X144245693Y-73510885D01*
X144424850Y-73281365D01*
X144482547Y-73051091D01*
X144513812Y-72710228D01*
X144519316Y-72315340D01*
X144499728Y-71922989D01*
X144455721Y-71589737D01*
X144402576Y-71401833D01*
X144249864Y-71157243D01*
X144029302Y-71015079D01*
X143702682Y-70955671D01*
X143526150Y-70950666D01*
X143067083Y-70969450D01*
X142763807Y-71027584D01*
X142606798Y-71127746D01*
X142578667Y-71216863D01*
X142614792Y-71331090D01*
X142614792Y-71331090D01*
G37*
X142614792Y-71331090D02*
X142751132Y-71333679D01*
X142772472Y-71328584D01*
X143043295Y-71330321D01*
X143333523Y-71430673D01*
X143554316Y-71598033D01*
X143563908Y-71610161D01*
X143641817Y-71814633D01*
X143672250Y-72117967D01*
X143655274Y-72456502D01*
X143590957Y-72766579D01*
X143562593Y-72844170D01*
X143410223Y-73097232D01*
X143212509Y-73307117D01*
X142979164Y-73490666D01*
X143333453Y-73490666D01*
X143636346Y-73455722D01*
X143921064Y-73369843D01*
X143958705Y-73352083D01*
X144229667Y-73213501D01*
X144067220Y-73395696D01*
X143864296Y-73553582D01*
X143643887Y-73653643D01*
X143383000Y-73729394D01*
X143620038Y-73737030D01*
X143954280Y-73680012D01*
X144245693Y-73510885D01*
X144424850Y-73281365D01*
X144482547Y-73051091D01*
X144513812Y-72710228D01*
X144519316Y-72315340D01*
X144499728Y-71922989D01*
X144455721Y-71589737D01*
X144402576Y-71401833D01*
X144249864Y-71157243D01*
X144029302Y-71015079D01*
X143702682Y-70955671D01*
X143526150Y-70950666D01*
X143067083Y-70969450D01*
X142763807Y-71027584D01*
X142606798Y-71127746D01*
X142578667Y-71216863D01*
X142614792Y-71331090D01*
G36*
X134408334Y-74422000D02*
X134450667Y-74379666D01*
X134408334Y-74337333D01*
X134366000Y-74379666D01*
X134408334Y-74422000D01*
X134408334Y-74422000D01*
G37*
X134408334Y-74422000D02*
X134450667Y-74379666D01*
X134408334Y-74337333D01*
X134366000Y-74379666D01*
X134408334Y-74422000D01*
G36*
X134792068Y-102878040D02*
X134796480Y-103634335D01*
X134805244Y-104316886D01*
X134818467Y-104897650D01*
X134836258Y-105348586D01*
X134844818Y-105488325D01*
X134875251Y-105862266D01*
X134909780Y-106105337D01*
X134959537Y-106255853D01*
X135035654Y-106352132D01*
X135112243Y-106408865D01*
X135403144Y-106512626D01*
X135817415Y-106536913D01*
X136331432Y-106486317D01*
X136921573Y-106365429D01*
X137564215Y-106178841D01*
X138235736Y-105931145D01*
X138762563Y-105699332D01*
X139459055Y-105346864D01*
X140037945Y-104997661D01*
X140547238Y-104619652D01*
X141033500Y-104182166D01*
X141292341Y-103922770D01*
X141449417Y-103737012D01*
X141528982Y-103585427D01*
X141555292Y-103428550D01*
X141555983Y-103332024D01*
X141523282Y-103064128D01*
X141446090Y-102727713D01*
X141375040Y-102496504D01*
X141279367Y-102255680D01*
X141122779Y-101900090D01*
X140921788Y-101465565D01*
X140692906Y-100987935D01*
X140497125Y-100591504D01*
X140051151Y-99734238D01*
X139581419Y-98891373D01*
X139097605Y-98076251D01*
X138609383Y-97302213D01*
X138126429Y-96582602D01*
X137658419Y-95930758D01*
X137215028Y-95360025D01*
X136805931Y-94883743D01*
X136440805Y-94515255D01*
X136129323Y-94267901D01*
X135881163Y-94155025D01*
X135825260Y-94149333D01*
X135611118Y-94185819D01*
X135475704Y-94265444D01*
X135340051Y-94519330D01*
X135216365Y-94936796D01*
X135105543Y-95512449D01*
X135008485Y-96240899D01*
X134926089Y-97116752D01*
X134874006Y-97874666D01*
X134850965Y-98361994D01*
X134831523Y-98971872D01*
X134815788Y-99676258D01*
X134803868Y-100447110D01*
X134795869Y-101256385D01*
X134791900Y-102076043D01*
X134792068Y-102878040D01*
X134792068Y-102878040D01*
G37*
X134792068Y-102878040D02*
X134796480Y-103634335D01*
X134805244Y-104316886D01*
X134818467Y-104897650D01*
X134836258Y-105348586D01*
X134844818Y-105488325D01*
X134875251Y-105862266D01*
X134909780Y-106105337D01*
X134959537Y-106255853D01*
X135035654Y-106352132D01*
X135112243Y-106408865D01*
X135403144Y-106512626D01*
X135817415Y-106536913D01*
X136331432Y-106486317D01*
X136921573Y-106365429D01*
X137564215Y-106178841D01*
X138235736Y-105931145D01*
X138762563Y-105699332D01*
X139459055Y-105346864D01*
X140037945Y-104997661D01*
X140547238Y-104619652D01*
X141033500Y-104182166D01*
X141292341Y-103922770D01*
X141449417Y-103737012D01*
X141528982Y-103585427D01*
X141555292Y-103428550D01*
X141555983Y-103332024D01*
X141523282Y-103064128D01*
X141446090Y-102727713D01*
X141375040Y-102496504D01*
X141279367Y-102255680D01*
X141122779Y-101900090D01*
X140921788Y-101465565D01*
X140692906Y-100987935D01*
X140497125Y-100591504D01*
X140051151Y-99734238D01*
X139581419Y-98891373D01*
X139097605Y-98076251D01*
X138609383Y-97302213D01*
X138126429Y-96582602D01*
X137658419Y-95930758D01*
X137215028Y-95360025D01*
X136805931Y-94883743D01*
X136440805Y-94515255D01*
X136129323Y-94267901D01*
X135881163Y-94155025D01*
X135825260Y-94149333D01*
X135611118Y-94185819D01*
X135475704Y-94265444D01*
X135340051Y-94519330D01*
X135216365Y-94936796D01*
X135105543Y-95512449D01*
X135008485Y-96240899D01*
X134926089Y-97116752D01*
X134874006Y-97874666D01*
X134850965Y-98361994D01*
X134831523Y-98971872D01*
X134815788Y-99676258D01*
X134803868Y-100447110D01*
X134795869Y-101256385D01*
X134791900Y-102076043D01*
X134792068Y-102878040D01*
G36*
X134796965Y-81866935D02*
X134806149Y-82707562D01*
X134819906Y-83504057D01*
X134838112Y-84225937D01*
X134860640Y-84842720D01*
X134876023Y-85146960D01*
X134946931Y-86119624D01*
X135038338Y-86953027D01*
X135149091Y-87641579D01*
X135278037Y-88179687D01*
X135424024Y-88561759D01*
X135585898Y-88782204D01*
X135631813Y-88813092D01*
X135844374Y-88832397D01*
X136123711Y-88704269D01*
X136464865Y-88434667D01*
X136862876Y-88029544D01*
X137312785Y-87494858D01*
X137809632Y-86836564D01*
X138348457Y-86060618D01*
X138924301Y-85172976D01*
X139532205Y-84179594D01*
X139636523Y-84003775D01*
X139876507Y-83579571D01*
X140146272Y-83073118D01*
X140428550Y-82519867D01*
X140706077Y-81955270D01*
X140961584Y-81414778D01*
X141177805Y-80933843D01*
X141337473Y-80547917D01*
X141390160Y-80403274D01*
X141515829Y-79983342D01*
X141558680Y-79666859D01*
X141511544Y-79405783D01*
X141367254Y-79152068D01*
X141167616Y-78911589D01*
X140750978Y-78511209D01*
X140240207Y-78121223D01*
X139657998Y-77750438D01*
X139027045Y-77407665D01*
X138370042Y-77101713D01*
X137709684Y-76841391D01*
X137068664Y-76635508D01*
X136469677Y-76492875D01*
X135935417Y-76422300D01*
X135488578Y-76432592D01*
X135151855Y-76532561D01*
X135107227Y-76559087D01*
X135014500Y-76631993D01*
X134951150Y-76729184D01*
X134908503Y-76885199D01*
X134877884Y-77134578D01*
X134850620Y-77511861D01*
X134844946Y-77603421D01*
X134824050Y-78068708D01*
X134808481Y-78672757D01*
X134798113Y-79385087D01*
X134792822Y-80175215D01*
X134792481Y-81012659D01*
X134796965Y-81866935D01*
X134796965Y-81866935D01*
G37*
X134796965Y-81866935D02*
X134806149Y-82707562D01*
X134819906Y-83504057D01*
X134838112Y-84225937D01*
X134860640Y-84842720D01*
X134876023Y-85146960D01*
X134946931Y-86119624D01*
X135038338Y-86953027D01*
X135149091Y-87641579D01*
X135278037Y-88179687D01*
X135424024Y-88561759D01*
X135585898Y-88782204D01*
X135631813Y-88813092D01*
X135844374Y-88832397D01*
X136123711Y-88704269D01*
X136464865Y-88434667D01*
X136862876Y-88029544D01*
X137312785Y-87494858D01*
X137809632Y-86836564D01*
X138348457Y-86060618D01*
X138924301Y-85172976D01*
X139532205Y-84179594D01*
X139636523Y-84003775D01*
X139876507Y-83579571D01*
X140146272Y-83073118D01*
X140428550Y-82519867D01*
X140706077Y-81955270D01*
X140961584Y-81414778D01*
X141177805Y-80933843D01*
X141337473Y-80547917D01*
X141390160Y-80403274D01*
X141515829Y-79983342D01*
X141558680Y-79666859D01*
X141511544Y-79405783D01*
X141367254Y-79152068D01*
X141167616Y-78911589D01*
X140750978Y-78511209D01*
X140240207Y-78121223D01*
X139657998Y-77750438D01*
X139027045Y-77407665D01*
X138370042Y-77101713D01*
X137709684Y-76841391D01*
X137068664Y-76635508D01*
X136469677Y-76492875D01*
X135935417Y-76422300D01*
X135488578Y-76432592D01*
X135151855Y-76532561D01*
X135107227Y-76559087D01*
X135014500Y-76631993D01*
X134951150Y-76729184D01*
X134908503Y-76885199D01*
X134877884Y-77134578D01*
X134850620Y-77511861D01*
X134844946Y-77603421D01*
X134824050Y-78068708D01*
X134808481Y-78672757D01*
X134798113Y-79385087D01*
X134792822Y-80175215D01*
X134792481Y-81012659D01*
X134796965Y-81866935D01*
G36*
X142178205Y-107148614D02*
X142313358Y-107163058D01*
X142544889Y-107156934D01*
X142849214Y-107132445D01*
X143202745Y-107091795D01*
X143581896Y-107037186D01*
X143963081Y-106970823D01*
X144322714Y-106894908D01*
X144543368Y-106838829D01*
X144941537Y-106710227D01*
X145336894Y-106551446D01*
X145685663Y-106382971D01*
X145944067Y-106225287D01*
X146044383Y-106136434D01*
X146044546Y-106009912D01*
X145912475Y-105811771D01*
X145894149Y-105790852D01*
X145767920Y-105660479D01*
X145646963Y-105586777D01*
X145481327Y-105556306D01*
X145221059Y-105555625D01*
X145043929Y-105562090D01*
X144709435Y-105582032D01*
X144481774Y-105623391D01*
X144298450Y-105707783D01*
X144096961Y-105856826D01*
X144028537Y-105913288D01*
X143767438Y-106115880D01*
X143439686Y-106349128D01*
X143086295Y-106586215D01*
X142748278Y-106800322D01*
X142466648Y-106964631D01*
X142291382Y-107049206D01*
X142163018Y-107111397D01*
X142178205Y-107148614D01*
X142178205Y-107148614D01*
G37*
X142178205Y-107148614D02*
X142313358Y-107163058D01*
X142544889Y-107156934D01*
X142849214Y-107132445D01*
X143202745Y-107091795D01*
X143581896Y-107037186D01*
X143963081Y-106970823D01*
X144322714Y-106894908D01*
X144543368Y-106838829D01*
X144941537Y-106710227D01*
X145336894Y-106551446D01*
X145685663Y-106382971D01*
X145944067Y-106225287D01*
X146044383Y-106136434D01*
X146044546Y-106009912D01*
X145912475Y-105811771D01*
X145894149Y-105790852D01*
X145767920Y-105660479D01*
X145646963Y-105586777D01*
X145481327Y-105556306D01*
X145221059Y-105555625D01*
X145043929Y-105562090D01*
X144709435Y-105582032D01*
X144481774Y-105623391D01*
X144298450Y-105707783D01*
X144096961Y-105856826D01*
X144028537Y-105913288D01*
X143767438Y-106115880D01*
X143439686Y-106349128D01*
X143086295Y-106586215D01*
X142748278Y-106800322D01*
X142466648Y-106964631D01*
X142291382Y-107049206D01*
X142163018Y-107111397D01*
X142178205Y-107148614D01*
G36*
X142451667Y-75992346D02*
X142798700Y-76192732D01*
X143203090Y-76452520D01*
X143611978Y-76735296D01*
X143972499Y-77004649D01*
X144209136Y-77202917D01*
X144357060Y-77319022D01*
X144520402Y-77385060D01*
X144752920Y-77415124D01*
X145048311Y-77422949D01*
X145374457Y-77419401D01*
X145584887Y-77392625D01*
X145733009Y-77327810D01*
X145872231Y-77210143D01*
X145894342Y-77188320D01*
X146045486Y-77032707D01*
X146128922Y-76936925D01*
X146134667Y-76926276D01*
X146080114Y-76859450D01*
X145984204Y-76767410D01*
X145675765Y-76561440D01*
X145228048Y-76363322D01*
X144671103Y-76181612D01*
X144034983Y-76024866D01*
X143349740Y-75901639D01*
X142663334Y-75821961D01*
X142028334Y-75769160D01*
X142451667Y-75992346D01*
X142451667Y-75992346D01*
G37*
X142451667Y-75992346D02*
X142798700Y-76192732D01*
X143203090Y-76452520D01*
X143611978Y-76735296D01*
X143972499Y-77004649D01*
X144209136Y-77202917D01*
X144357060Y-77319022D01*
X144520402Y-77385060D01*
X144752920Y-77415124D01*
X145048311Y-77422949D01*
X145374457Y-77419401D01*
X145584887Y-77392625D01*
X145733009Y-77327810D01*
X145872231Y-77210143D01*
X145894342Y-77188320D01*
X146045486Y-77032707D01*
X146128922Y-76936925D01*
X146134667Y-76926276D01*
X146080114Y-76859450D01*
X145984204Y-76767410D01*
X145675765Y-76561440D01*
X145228048Y-76363322D01*
X144671103Y-76181612D01*
X144034983Y-76024866D01*
X143349740Y-75901639D01*
X142663334Y-75821961D01*
X142028334Y-75769160D01*
X142451667Y-75992346D01*
G36*
X149352956Y-111338238D02*
X149383435Y-111400257D01*
X149623653Y-111746527D01*
X150005643Y-112141848D01*
X150513708Y-112572997D01*
X151132154Y-113026750D01*
X151845285Y-113489884D01*
X151912299Y-113530800D01*
X152275874Y-113739072D01*
X152522669Y-113846849D01*
X152669415Y-113857797D01*
X152732842Y-113775579D01*
X152738667Y-113711770D01*
X152672756Y-113587721D01*
X152472672Y-113384715D01*
X152134891Y-113099526D01*
X151701500Y-112763318D01*
X151272973Y-112427763D01*
X150832828Y-112062914D01*
X150427703Y-111708662D01*
X150104232Y-111404898D01*
X150052735Y-111352992D01*
X149778398Y-111073785D01*
X149597645Y-110901438D01*
X149485962Y-110821454D01*
X149418839Y-110819339D01*
X149371763Y-110880595D01*
X149345992Y-110935041D01*
X149296317Y-111130920D01*
X149352956Y-111338238D01*
X149352956Y-111338238D01*
G37*
X149352956Y-111338238D02*
X149383435Y-111400257D01*
X149623653Y-111746527D01*
X150005643Y-112141848D01*
X150513708Y-112572997D01*
X151132154Y-113026750D01*
X151845285Y-113489884D01*
X151912299Y-113530800D01*
X152275874Y-113739072D01*
X152522669Y-113846849D01*
X152669415Y-113857797D01*
X152732842Y-113775579D01*
X152738667Y-113711770D01*
X152672756Y-113587721D01*
X152472672Y-113384715D01*
X152134891Y-113099526D01*
X151701500Y-112763318D01*
X151272973Y-112427763D01*
X150832828Y-112062914D01*
X150427703Y-111708662D01*
X150104232Y-111404898D01*
X150052735Y-111352992D01*
X149778398Y-111073785D01*
X149597645Y-110901438D01*
X149485962Y-110821454D01*
X149418839Y-110819339D01*
X149371763Y-110880595D01*
X149345992Y-110935041D01*
X149296317Y-111130920D01*
X149352956Y-111338238D01*
G36*
X148128239Y-109098636D02*
X148189347Y-109423917D01*
X148273745Y-109733191D01*
X148370513Y-109983025D01*
X148468728Y-110129985D01*
X148516268Y-110151333D01*
X148656471Y-110106134D01*
X148919496Y-109977355D01*
X149287187Y-109775228D01*
X149741392Y-109509982D01*
X150263958Y-109191846D01*
X150664334Y-108940861D01*
X151016567Y-108711550D01*
X151413809Y-108443116D01*
X151832793Y-108152416D01*
X152250258Y-107856307D01*
X152642938Y-107571644D01*
X152987571Y-107315284D01*
X153260893Y-107104083D01*
X153439640Y-106954899D01*
X153500667Y-106885703D01*
X153433204Y-106901539D01*
X153253325Y-106986415D01*
X152994799Y-107123903D01*
X152886834Y-107184331D01*
X152183151Y-107571852D01*
X151501787Y-107925646D01*
X150860550Y-108238007D01*
X150277249Y-108501234D01*
X149769691Y-108707623D01*
X149355685Y-108849470D01*
X149053039Y-108919074D01*
X148889807Y-108913283D01*
X148756256Y-108804678D01*
X148627093Y-108617198D01*
X148627028Y-108617073D01*
X148476485Y-108431145D01*
X148311331Y-108375742D01*
X148173438Y-108454436D01*
X148119583Y-108573786D01*
X148101344Y-108800781D01*
X148128239Y-109098636D01*
X148128239Y-109098636D01*
G37*
X148128239Y-109098636D02*
X148189347Y-109423917D01*
X148273745Y-109733191D01*
X148370513Y-109983025D01*
X148468728Y-110129985D01*
X148516268Y-110151333D01*
X148656471Y-110106134D01*
X148919496Y-109977355D01*
X149287187Y-109775228D01*
X149741392Y-109509982D01*
X150263958Y-109191846D01*
X150664334Y-108940861D01*
X151016567Y-108711550D01*
X151413809Y-108443116D01*
X151832793Y-108152416D01*
X152250258Y-107856307D01*
X152642938Y-107571644D01*
X152987571Y-107315284D01*
X153260893Y-107104083D01*
X153439640Y-106954899D01*
X153500667Y-106885703D01*
X153433204Y-106901539D01*
X153253325Y-106986415D01*
X152994799Y-107123903D01*
X152886834Y-107184331D01*
X152183151Y-107571852D01*
X151501787Y-107925646D01*
X150860550Y-108238007D01*
X150277249Y-108501234D01*
X149769691Y-108707623D01*
X149355685Y-108849470D01*
X149053039Y-108919074D01*
X148889807Y-108913283D01*
X148756256Y-108804678D01*
X148627093Y-108617198D01*
X148627028Y-108617073D01*
X148476485Y-108431145D01*
X148311331Y-108375742D01*
X148173438Y-108454436D01*
X148119583Y-108573786D01*
X148101344Y-108800781D01*
X148128239Y-109098636D01*
G36*
X150491661Y-110523331D02*
X150655013Y-110843931D01*
X150965203Y-111205514D01*
X151119700Y-111353320D01*
X151365245Y-111561010D01*
X151686750Y-111807498D01*
X152056748Y-112074554D01*
X152447771Y-112343947D01*
X152832352Y-112597448D01*
X153183025Y-112816825D01*
X153472321Y-112983850D01*
X153672775Y-113080291D01*
X153745448Y-113096055D01*
X153882279Y-113005304D01*
X153880618Y-112847132D01*
X153859124Y-112808212D01*
X153766656Y-112716632D01*
X153573357Y-112553807D01*
X153314603Y-112349094D01*
X153204334Y-112264808D01*
X152455747Y-111688265D01*
X151850825Y-111200639D01*
X151389279Y-110801682D01*
X151070819Y-110491144D01*
X150913945Y-110298849D01*
X150734018Y-110079469D01*
X150592389Y-110015783D01*
X150497018Y-110109024D01*
X150466891Y-110229503D01*
X150491661Y-110523331D01*
X150491661Y-110523331D01*
G37*
X150491661Y-110523331D02*
X150655013Y-110843931D01*
X150965203Y-111205514D01*
X151119700Y-111353320D01*
X151365245Y-111561010D01*
X151686750Y-111807498D01*
X152056748Y-112074554D01*
X152447771Y-112343947D01*
X152832352Y-112597448D01*
X153183025Y-112816825D01*
X153472321Y-112983850D01*
X153672775Y-113080291D01*
X153745448Y-113096055D01*
X153882279Y-113005304D01*
X153880618Y-112847132D01*
X153859124Y-112808212D01*
X153766656Y-112716632D01*
X153573357Y-112553807D01*
X153314603Y-112349094D01*
X153204334Y-112264808D01*
X152455747Y-111688265D01*
X151850825Y-111200639D01*
X151389279Y-110801682D01*
X151070819Y-110491144D01*
X150913945Y-110298849D01*
X150734018Y-110079469D01*
X150592389Y-110015783D01*
X150497018Y-110109024D01*
X150466891Y-110229503D01*
X150491661Y-110523331D01*
G36*
X151571338Y-109722212D02*
X151639098Y-109866540D01*
X151777234Y-110045494D01*
X152006366Y-110286824D01*
X152257420Y-110532267D01*
X152566730Y-110807277D01*
X152947908Y-111112105D01*
X153369014Y-111424757D01*
X153798109Y-111723244D01*
X154203252Y-111985572D01*
X154552504Y-112189751D01*
X154813924Y-112313788D01*
X154871988Y-112332489D01*
X154994820Y-112312946D01*
X155010998Y-112171325D01*
X154968173Y-112033905D01*
X154888412Y-111947674D01*
X154697273Y-111781174D01*
X154419510Y-111554838D01*
X154079882Y-111289101D01*
X153895358Y-111148412D01*
X153473390Y-110818757D01*
X153044394Y-110465256D01*
X152653371Y-110126126D01*
X152345318Y-109839582D01*
X152295132Y-109789413D01*
X152042339Y-109545755D01*
X151827880Y-109364068D01*
X151681477Y-109268253D01*
X151638965Y-109261736D01*
X151579233Y-109375673D01*
X151553363Y-109577674D01*
X151553334Y-109584764D01*
X151571338Y-109722212D01*
X151571338Y-109722212D01*
G37*
X151571338Y-109722212D02*
X151639098Y-109866540D01*
X151777234Y-110045494D01*
X152006366Y-110286824D01*
X152257420Y-110532267D01*
X152566730Y-110807277D01*
X152947908Y-111112105D01*
X153369014Y-111424757D01*
X153798109Y-111723244D01*
X154203252Y-111985572D01*
X154552504Y-112189751D01*
X154813924Y-112313788D01*
X154871988Y-112332489D01*
X154994820Y-112312946D01*
X155010998Y-112171325D01*
X154968173Y-112033905D01*
X154888412Y-111947674D01*
X154697273Y-111781174D01*
X154419510Y-111554838D01*
X154079882Y-111289101D01*
X153895358Y-111148412D01*
X153473390Y-110818757D01*
X153044394Y-110465256D01*
X152653371Y-110126126D01*
X152345318Y-109839582D01*
X152295132Y-109789413D01*
X152042339Y-109545755D01*
X151827880Y-109364068D01*
X151681477Y-109268253D01*
X151638965Y-109261736D01*
X151579233Y-109375673D01*
X151553363Y-109577674D01*
X151553334Y-109584764D01*
X151571338Y-109722212D01*
G36*
X152729312Y-109007476D02*
X152947222Y-109333593D01*
X153295695Y-109705930D01*
X153762694Y-110113094D01*
X154336184Y-110543693D01*
X155004129Y-110986333D01*
X155074427Y-111030061D01*
X155404685Y-111226535D01*
X155692641Y-111383547D01*
X155901822Y-111482025D01*
X155984594Y-111506000D01*
X156104385Y-111449486D01*
X156107902Y-111307639D01*
X156019500Y-111154790D01*
X155917710Y-111060370D01*
X155706607Y-110885210D01*
X155412269Y-110650270D01*
X155060775Y-110376511D01*
X154855334Y-110219118D01*
X154344308Y-109826162D01*
X153949713Y-109512712D01*
X153650158Y-109259888D01*
X153424255Y-109048810D01*
X153250614Y-108860600D01*
X153108359Y-108677094D01*
X152935753Y-108512132D01*
X152779635Y-108487133D01*
X152676063Y-108597185D01*
X152654000Y-108738972D01*
X152729312Y-109007476D01*
X152729312Y-109007476D01*
G37*
X152729312Y-109007476D02*
X152947222Y-109333593D01*
X153295695Y-109705930D01*
X153762694Y-110113094D01*
X154336184Y-110543693D01*
X155004129Y-110986333D01*
X155074427Y-111030061D01*
X155404685Y-111226535D01*
X155692641Y-111383547D01*
X155901822Y-111482025D01*
X155984594Y-111506000D01*
X156104385Y-111449486D01*
X156107902Y-111307639D01*
X156019500Y-111154790D01*
X155917710Y-111060370D01*
X155706607Y-110885210D01*
X155412269Y-110650270D01*
X155060775Y-110376511D01*
X154855334Y-110219118D01*
X154344308Y-109826162D01*
X153949713Y-109512712D01*
X153650158Y-109259888D01*
X153424255Y-109048810D01*
X153250614Y-108860600D01*
X153108359Y-108677094D01*
X152935753Y-108512132D01*
X152779635Y-108487133D01*
X152676063Y-108597185D01*
X152654000Y-108738972D01*
X152729312Y-109007476D01*
G36*
X153808389Y-108089662D02*
X153979598Y-108419339D01*
X154300922Y-108798485D01*
X154767932Y-109222675D01*
X155376199Y-109687481D01*
X156121295Y-110188479D01*
X156247848Y-110268524D01*
X156571258Y-110465277D01*
X156848375Y-110622350D01*
X157044149Y-110720538D01*
X157115681Y-110744000D01*
X157225846Y-110693890D01*
X157219874Y-110562396D01*
X157110676Y-110377768D01*
X156911165Y-110168256D01*
X156816676Y-110089802D01*
X156188464Y-109598155D01*
X155679746Y-109196514D01*
X155275373Y-108872196D01*
X154960197Y-108612515D01*
X154719071Y-108404788D01*
X154536846Y-108236329D01*
X154398375Y-108094455D01*
X154304530Y-107986230D01*
X154091008Y-107743074D01*
X153949199Y-107634618D01*
X153858168Y-107653825D01*
X153796976Y-107793659D01*
X153791723Y-107813881D01*
X153808389Y-108089662D01*
X153808389Y-108089662D01*
G37*
X153808389Y-108089662D02*
X153979598Y-108419339D01*
X154300922Y-108798485D01*
X154767932Y-109222675D01*
X155376199Y-109687481D01*
X156121295Y-110188479D01*
X156247848Y-110268524D01*
X156571258Y-110465277D01*
X156848375Y-110622350D01*
X157044149Y-110720538D01*
X157115681Y-110744000D01*
X157225846Y-110693890D01*
X157219874Y-110562396D01*
X157110676Y-110377768D01*
X156911165Y-110168256D01*
X156816676Y-110089802D01*
X156188464Y-109598155D01*
X155679746Y-109196514D01*
X155275373Y-108872196D01*
X154960197Y-108612515D01*
X154719071Y-108404788D01*
X154536846Y-108236329D01*
X154398375Y-108094455D01*
X154304530Y-107986230D01*
X154091008Y-107743074D01*
X153949199Y-107634618D01*
X153858168Y-107653825D01*
X153796976Y-107793659D01*
X153791723Y-107813881D01*
X153808389Y-108089662D01*
G36*
X149357081Y-72060826D02*
X149409898Y-72142181D01*
X149471474Y-72161940D01*
X149568116Y-72104323D01*
X149726129Y-71953547D01*
X149971822Y-71693832D01*
X149975604Y-71689782D01*
X150229480Y-71439554D01*
X150581057Y-71122678D01*
X150991529Y-70772698D01*
X151422084Y-70423156D01*
X151616834Y-70271262D01*
X152105729Y-69885297D01*
X152456852Y-69585006D01*
X152668424Y-69372012D01*
X152738667Y-69248504D01*
X152684573Y-69116126D01*
X152614670Y-69088000D01*
X152437402Y-69139796D01*
X152158744Y-69282248D01*
X151805994Y-69495951D01*
X151406449Y-69761500D01*
X150987406Y-70059491D01*
X150576163Y-70370519D01*
X150200017Y-70675178D01*
X149886266Y-70954064D01*
X149664179Y-71185405D01*
X149430154Y-71493308D01*
X149314476Y-71727973D01*
X149304984Y-71924059D01*
X149357081Y-72060826D01*
X149357081Y-72060826D01*
G37*
X149357081Y-72060826D02*
X149409898Y-72142181D01*
X149471474Y-72161940D01*
X149568116Y-72104323D01*
X149726129Y-71953547D01*
X149971822Y-71693832D01*
X149975604Y-71689782D01*
X150229480Y-71439554D01*
X150581057Y-71122678D01*
X150991529Y-70772698D01*
X151422084Y-70423156D01*
X151616834Y-70271262D01*
X152105729Y-69885297D01*
X152456852Y-69585006D01*
X152668424Y-69372012D01*
X152738667Y-69248504D01*
X152684573Y-69116126D01*
X152614670Y-69088000D01*
X152437402Y-69139796D01*
X152158744Y-69282248D01*
X151805994Y-69495951D01*
X151406449Y-69761500D01*
X150987406Y-70059491D01*
X150576163Y-70370519D01*
X150200017Y-70675178D01*
X149886266Y-70954064D01*
X149664179Y-71185405D01*
X149430154Y-71493308D01*
X149314476Y-71727973D01*
X149304984Y-71924059D01*
X149357081Y-72060826D01*
G36*
X148119583Y-74390880D02*
X148218428Y-74556249D01*
X148370237Y-74584072D01*
X148535261Y-74478501D01*
X148632334Y-74337333D01*
X148762192Y-74155483D01*
X148940653Y-74088583D01*
X149055908Y-74083333D01*
X149387158Y-74133139D01*
X149851541Y-74281548D01*
X150445623Y-74527044D01*
X151165970Y-74868113D01*
X152009149Y-75303240D01*
X152802167Y-75736055D01*
X153102324Y-75899066D01*
X153337869Y-76018904D01*
X153476868Y-76079763D01*
X153500667Y-76081781D01*
X153437651Y-76015422D01*
X153267897Y-75871657D01*
X153020343Y-75674399D01*
X152832450Y-75529606D01*
X152427732Y-75231191D01*
X151961060Y-74903077D01*
X151453783Y-74558700D01*
X150927251Y-74211497D01*
X150402816Y-73874903D01*
X149901827Y-73562355D01*
X149445635Y-73287290D01*
X149055589Y-73063142D01*
X148753041Y-72903350D01*
X148559341Y-72821348D01*
X148516268Y-72813333D01*
X148421565Y-72890424D01*
X148322688Y-73092740D01*
X148230561Y-73376849D01*
X148156103Y-73699317D01*
X148110237Y-74016711D01*
X148103884Y-74285597D01*
X148119583Y-74390880D01*
X148119583Y-74390880D01*
G37*
X148119583Y-74390880D02*
X148218428Y-74556249D01*
X148370237Y-74584072D01*
X148535261Y-74478501D01*
X148632334Y-74337333D01*
X148762192Y-74155483D01*
X148940653Y-74088583D01*
X149055908Y-74083333D01*
X149387158Y-74133139D01*
X149851541Y-74281548D01*
X150445623Y-74527044D01*
X151165970Y-74868113D01*
X152009149Y-75303240D01*
X152802167Y-75736055D01*
X153102324Y-75899066D01*
X153337869Y-76018904D01*
X153476868Y-76079763D01*
X153500667Y-76081781D01*
X153437651Y-76015422D01*
X153267897Y-75871657D01*
X153020343Y-75674399D01*
X152832450Y-75529606D01*
X152427732Y-75231191D01*
X151961060Y-74903077D01*
X151453783Y-74558700D01*
X150927251Y-74211497D01*
X150402816Y-73874903D01*
X149901827Y-73562355D01*
X149445635Y-73287290D01*
X149055589Y-73063142D01*
X148753041Y-72903350D01*
X148559341Y-72821348D01*
X148516268Y-72813333D01*
X148421565Y-72890424D01*
X148322688Y-73092740D01*
X148230561Y-73376849D01*
X148156103Y-73699317D01*
X148110237Y-74016711D01*
X148103884Y-74285597D01*
X148119583Y-74390880D01*
G36*
X150489264Y-72924387D02*
X150590039Y-72975853D01*
X150741472Y-72880854D01*
X150920832Y-72655410D01*
X151087187Y-72457790D01*
X151379219Y-72179321D01*
X151800431Y-71817032D01*
X152354323Y-71367949D01*
X153044397Y-70829101D01*
X153331334Y-70609134D01*
X153650390Y-70342340D01*
X153854951Y-70121024D01*
X153937216Y-69957946D01*
X153889384Y-69865863D01*
X153795470Y-69850000D01*
X153637020Y-69898934D01*
X153372833Y-70033420D01*
X153030782Y-70234979D01*
X152638742Y-70485132D01*
X152224586Y-70765401D01*
X151816186Y-71057308D01*
X151441418Y-71342374D01*
X151128153Y-71602123D01*
X151060000Y-71663431D01*
X150718511Y-72025734D01*
X150521448Y-72360673D01*
X150453053Y-72695783D01*
X150452667Y-72724462D01*
X150489264Y-72924387D01*
X150489264Y-72924387D01*
G37*
X150489264Y-72924387D02*
X150590039Y-72975853D01*
X150741472Y-72880854D01*
X150920832Y-72655410D01*
X151087187Y-72457790D01*
X151379219Y-72179321D01*
X151800431Y-71817032D01*
X152354323Y-71367949D01*
X153044397Y-70829101D01*
X153331334Y-70609134D01*
X153650390Y-70342340D01*
X153854951Y-70121024D01*
X153937216Y-69957946D01*
X153889384Y-69865863D01*
X153795470Y-69850000D01*
X153637020Y-69898934D01*
X153372833Y-70033420D01*
X153030782Y-70234979D01*
X152638742Y-70485132D01*
X152224586Y-70765401D01*
X151816186Y-71057308D01*
X151441418Y-71342374D01*
X151128153Y-71602123D01*
X151060000Y-71663431D01*
X150718511Y-72025734D01*
X150521448Y-72360673D01*
X150453053Y-72695783D01*
X150452667Y-72724462D01*
X150489264Y-72924387D01*
G36*
X151582648Y-73622868D02*
X151673808Y-73700532D01*
X151831639Y-73628487D01*
X152060965Y-73406293D01*
X152115021Y-73344742D01*
X152305045Y-73150965D01*
X152599972Y-72882817D01*
X152968830Y-72566983D01*
X153380647Y-72230145D01*
X153701587Y-71977842D01*
X154095270Y-71669059D01*
X154441878Y-71387677D01*
X154718888Y-71152752D01*
X154903776Y-70983342D01*
X154973020Y-70902074D01*
X155021482Y-70698346D01*
X154960672Y-70615151D01*
X154929556Y-70612000D01*
X154818413Y-70653485D01*
X154602337Y-70764360D01*
X154319979Y-70924254D01*
X154188722Y-71002456D01*
X153531329Y-71422275D01*
X152943831Y-71841498D01*
X152440763Y-72246927D01*
X152036659Y-72625361D01*
X151746053Y-72963600D01*
X151583479Y-73248445D01*
X151553334Y-73395935D01*
X151582648Y-73622868D01*
X151582648Y-73622868D01*
G37*
X151582648Y-73622868D02*
X151673808Y-73700532D01*
X151831639Y-73628487D01*
X152060965Y-73406293D01*
X152115021Y-73344742D01*
X152305045Y-73150965D01*
X152599972Y-72882817D01*
X152968830Y-72566983D01*
X153380647Y-72230145D01*
X153701587Y-71977842D01*
X154095270Y-71669059D01*
X154441878Y-71387677D01*
X154718888Y-71152752D01*
X154903776Y-70983342D01*
X154973020Y-70902074D01*
X155021482Y-70698346D01*
X154960672Y-70615151D01*
X154929556Y-70612000D01*
X154818413Y-70653485D01*
X154602337Y-70764360D01*
X154319979Y-70924254D01*
X154188722Y-71002456D01*
X153531329Y-71422275D01*
X152943831Y-71841498D01*
X152440763Y-72246927D01*
X152036659Y-72625361D01*
X151746053Y-72963600D01*
X151583479Y-73248445D01*
X151553334Y-73395935D01*
X151582648Y-73622868D01*
G36*
X152738025Y-74466643D02*
X152772893Y-74499938D01*
X152864452Y-74533412D01*
X152971364Y-74462360D01*
X153125641Y-74264982D01*
X153132727Y-74254898D01*
X153276830Y-74092847D01*
X153529879Y-73852737D01*
X153865272Y-73558000D01*
X154256407Y-73232070D01*
X154643667Y-72923988D01*
X155048818Y-72606708D01*
X155411964Y-72317898D01*
X155710091Y-72076216D01*
X155920187Y-71900317D01*
X156019240Y-71808860D01*
X156019500Y-71808546D01*
X156116343Y-71627024D01*
X156088860Y-71497943D01*
X155974722Y-71458666D01*
X155835604Y-71505836D01*
X155588945Y-71635097D01*
X155263517Y-71828072D01*
X154888089Y-72066387D01*
X154491431Y-72331667D01*
X154102313Y-72605536D01*
X153749505Y-72869620D01*
X153679953Y-72924313D01*
X153237830Y-73311892D01*
X152915463Y-73672267D01*
X152719966Y-73993087D01*
X152658450Y-74261996D01*
X152738025Y-74466643D01*
X152738025Y-74466643D01*
G37*
X152738025Y-74466643D02*
X152772893Y-74499938D01*
X152864452Y-74533412D01*
X152971364Y-74462360D01*
X153125641Y-74264982D01*
X153132727Y-74254898D01*
X153276830Y-74092847D01*
X153529879Y-73852737D01*
X153865272Y-73558000D01*
X154256407Y-73232070D01*
X154643667Y-72923988D01*
X155048818Y-72606708D01*
X155411964Y-72317898D01*
X155710091Y-72076216D01*
X155920187Y-71900317D01*
X156019240Y-71808860D01*
X156019500Y-71808546D01*
X156116343Y-71627024D01*
X156088860Y-71497943D01*
X155974722Y-71458666D01*
X155835604Y-71505836D01*
X155588945Y-71635097D01*
X155263517Y-71828072D01*
X154888089Y-72066387D01*
X154491431Y-72331667D01*
X154102313Y-72605536D01*
X153749505Y-72869620D01*
X153679953Y-72924313D01*
X153237830Y-73311892D01*
X152915463Y-73672267D01*
X152719966Y-73993087D01*
X152658450Y-74261996D01*
X152738025Y-74466643D01*
G36*
X153788707Y-75163167D02*
X153842169Y-75268666D01*
X153906156Y-75314862D01*
X154003386Y-75274460D01*
X154159810Y-75130331D01*
X154327706Y-74948197D01*
X154528871Y-74746943D01*
X154833835Y-74471221D01*
X155210991Y-74148246D01*
X155628732Y-73805231D01*
X155956000Y-73546255D01*
X156479550Y-73129478D01*
X156863288Y-72802008D01*
X157106388Y-72564592D01*
X157208026Y-72417982D01*
X157210722Y-72406224D01*
X157192847Y-72259374D01*
X157133494Y-72220666D01*
X156969429Y-72270394D01*
X156701368Y-72406991D01*
X156357570Y-72611574D01*
X155966292Y-72865262D01*
X155555790Y-73149174D01*
X155154323Y-73444427D01*
X154790148Y-73732140D01*
X154519311Y-73967473D01*
X154133095Y-74353792D01*
X153887548Y-74672319D01*
X153775231Y-74937347D01*
X153788707Y-75163167D01*
X153788707Y-75163167D01*
G37*
X153788707Y-75163167D02*
X153842169Y-75268666D01*
X153906156Y-75314862D01*
X154003386Y-75274460D01*
X154159810Y-75130331D01*
X154327706Y-74948197D01*
X154528871Y-74746943D01*
X154833835Y-74471221D01*
X155210991Y-74148246D01*
X155628732Y-73805231D01*
X155956000Y-73546255D01*
X156479550Y-73129478D01*
X156863288Y-72802008D01*
X157106388Y-72564592D01*
X157208026Y-72417982D01*
X157210722Y-72406224D01*
X157192847Y-72259374D01*
X157133494Y-72220666D01*
X156969429Y-72270394D01*
X156701368Y-72406991D01*
X156357570Y-72611574D01*
X155966292Y-72865262D01*
X155555790Y-73149174D01*
X155154323Y-73444427D01*
X154790148Y-73732140D01*
X154519311Y-73967473D01*
X154133095Y-74353792D01*
X153887548Y-74672319D01*
X153775231Y-74937347D01*
X153788707Y-75163167D01*
G36*
X155201602Y-92956473D02*
X155223044Y-93287828D01*
X155256283Y-93731889D01*
X155299275Y-94266249D01*
X155349978Y-94868502D01*
X155406348Y-95516241D01*
X155466340Y-96187060D01*
X155527913Y-96858553D01*
X155589022Y-97508313D01*
X155647624Y-98113934D01*
X155701675Y-98653010D01*
X155749132Y-99103133D01*
X155787951Y-99441899D01*
X155816090Y-99646899D01*
X155826450Y-99695000D01*
X155849698Y-99695115D01*
X155859841Y-99548030D01*
X155857817Y-99275297D01*
X155844565Y-98898464D01*
X155821022Y-98439084D01*
X155788125Y-97918705D01*
X155746813Y-97358879D01*
X155701180Y-96816333D01*
X155629655Y-96036780D01*
X155558067Y-95294710D01*
X155488439Y-94608299D01*
X155422797Y-93995725D01*
X155363165Y-93475166D01*
X155311568Y-93064800D01*
X155270030Y-92782804D01*
X155240575Y-92647355D01*
X155235937Y-92639048D01*
X155202019Y-92672608D01*
X155194000Y-92760230D01*
X155201602Y-92956473D01*
X155201602Y-92956473D01*
G37*
X155201602Y-92956473D02*
X155223044Y-93287828D01*
X155256283Y-93731889D01*
X155299275Y-94266249D01*
X155349978Y-94868502D01*
X155406348Y-95516241D01*
X155466340Y-96187060D01*
X155527913Y-96858553D01*
X155589022Y-97508313D01*
X155647624Y-98113934D01*
X155701675Y-98653010D01*
X155749132Y-99103133D01*
X155787951Y-99441899D01*
X155816090Y-99646899D01*
X155826450Y-99695000D01*
X155849698Y-99695115D01*
X155859841Y-99548030D01*
X155857817Y-99275297D01*
X155844565Y-98898464D01*
X155821022Y-98439084D01*
X155788125Y-97918705D01*
X155746813Y-97358879D01*
X155701180Y-96816333D01*
X155629655Y-96036780D01*
X155558067Y-95294710D01*
X155488439Y-94608299D01*
X155422797Y-93995725D01*
X155363165Y-93475166D01*
X155311568Y-93064800D01*
X155270030Y-92782804D01*
X155240575Y-92647355D01*
X155235937Y-92639048D01*
X155202019Y-92672608D01*
X155194000Y-92760230D01*
X155201602Y-92956473D01*
G36*
X155219249Y-90331880D02*
X155226650Y-90332491D01*
X155256633Y-90229006D01*
X155297393Y-89978951D01*
X155346825Y-89604598D01*
X155402824Y-89128219D01*
X155463285Y-88572086D01*
X155526105Y-87958472D01*
X155589178Y-87309649D01*
X155650400Y-86647890D01*
X155707666Y-85995467D01*
X155758872Y-85374651D01*
X155801913Y-84807716D01*
X155834685Y-84316933D01*
X155855082Y-83924576D01*
X155861001Y-83652915D01*
X155860521Y-83624396D01*
X155848688Y-83540979D01*
X155822663Y-83615288D01*
X155784410Y-83836488D01*
X155735896Y-84193745D01*
X155694507Y-84539666D01*
X155600326Y-85416428D01*
X155500078Y-86454416D01*
X155394486Y-87645659D01*
X155284269Y-88982188D01*
X155227505Y-89704333D01*
X155209195Y-90010505D01*
X155206427Y-90231705D01*
X155219249Y-90331880D01*
X155219249Y-90331880D01*
G37*
X155219249Y-90331880D02*
X155226650Y-90332491D01*
X155256633Y-90229006D01*
X155297393Y-89978951D01*
X155346825Y-89604598D01*
X155402824Y-89128219D01*
X155463285Y-88572086D01*
X155526105Y-87958472D01*
X155589178Y-87309649D01*
X155650400Y-86647890D01*
X155707666Y-85995467D01*
X155758872Y-85374651D01*
X155801913Y-84807716D01*
X155834685Y-84316933D01*
X155855082Y-83924576D01*
X155861001Y-83652915D01*
X155860521Y-83624396D01*
X155848688Y-83540979D01*
X155822663Y-83615288D01*
X155784410Y-83836488D01*
X155735896Y-84193745D01*
X155694507Y-84539666D01*
X155600326Y-85416428D01*
X155500078Y-86454416D01*
X155394486Y-87645659D01*
X155284269Y-88982188D01*
X155227505Y-89704333D01*
X155209195Y-90010505D01*
X155206427Y-90231705D01*
X155219249Y-90331880D01*
G36*
X155913667Y-99906666D02*
X155956000Y-99864333D01*
X155913667Y-99822000D01*
X155871334Y-99864333D01*
X155913667Y-99906666D01*
X155913667Y-99906666D01*
G37*
X155913667Y-99906666D02*
X155956000Y-99864333D01*
X155913667Y-99822000D01*
X155871334Y-99864333D01*
X155913667Y-99906666D01*
G36*
X160388025Y-95295695D02*
X160798383Y-95673333D01*
X161511954Y-95673333D01*
X161864828Y-95672113D01*
X162088757Y-95651690D01*
X162224022Y-95586914D01*
X162310908Y-95452638D01*
X162389696Y-95223714D01*
X162427400Y-95101833D01*
X162486744Y-94911333D01*
X161232206Y-94914695D01*
X159977667Y-94918056D01*
X160388025Y-95295695D01*
X160388025Y-95295695D01*
G37*
X160388025Y-95295695D02*
X160798383Y-95673333D01*
X161511954Y-95673333D01*
X161864828Y-95672113D01*
X162088757Y-95651690D01*
X162224022Y-95586914D01*
X162310908Y-95452638D01*
X162389696Y-95223714D01*
X162427400Y-95101833D01*
X162486744Y-94911333D01*
X161232206Y-94914695D01*
X159977667Y-94918056D01*
X160388025Y-95295695D01*
G36*
X161226500Y-88049971D02*
X161663880Y-88049799D01*
X162033484Y-88047080D01*
X162306004Y-88042233D01*
X162452131Y-88035678D01*
X162468827Y-88032166D01*
X162442795Y-87945877D01*
X162385372Y-87755055D01*
X162360496Y-87672333D01*
X162258672Y-87333666D01*
X161531981Y-87309373D01*
X160805289Y-87285080D01*
X160391478Y-87665845D01*
X159977667Y-88046609D01*
X161226500Y-88049971D01*
X161226500Y-88049971D01*
G37*
X161226500Y-88049971D02*
X161663880Y-88049799D01*
X162033484Y-88047080D01*
X162306004Y-88042233D01*
X162452131Y-88035678D01*
X162468827Y-88032166D01*
X162442795Y-87945877D01*
X162385372Y-87755055D01*
X162360496Y-87672333D01*
X162258672Y-87333666D01*
X161531981Y-87309373D01*
X160805289Y-87285080D01*
X160391478Y-87665845D01*
X159977667Y-88046609D01*
X161226500Y-88049971D01*
G36*
X159709546Y-94657333D02*
X161252715Y-94657333D01*
X161818329Y-94656399D01*
X162236783Y-94649735D01*
X162530250Y-94631544D01*
X162720904Y-94596029D01*
X162830917Y-94537396D01*
X162882462Y-94449846D01*
X162897713Y-94327585D01*
X162898667Y-94227075D01*
X162891291Y-94174905D01*
X162855541Y-94135341D01*
X162770988Y-94106699D01*
X162617200Y-94087293D01*
X162373747Y-94075438D01*
X162020196Y-94069448D01*
X161536119Y-94067639D01*
X160972500Y-94068191D01*
X159046334Y-94071715D01*
X159709546Y-94657333D01*
X159709546Y-94657333D01*
G37*
X159709546Y-94657333D02*
X161252715Y-94657333D01*
X161818329Y-94656399D01*
X162236783Y-94649735D01*
X162530250Y-94631544D01*
X162720904Y-94596029D01*
X162830917Y-94537396D01*
X162882462Y-94449846D01*
X162897713Y-94327585D01*
X162898667Y-94227075D01*
X162891291Y-94174905D01*
X162855541Y-94135341D01*
X162770988Y-94106699D01*
X162617200Y-94087293D01*
X162373747Y-94075438D01*
X162020196Y-94069448D01*
X161536119Y-94067639D01*
X160972500Y-94068191D01*
X159046334Y-94071715D01*
X159709546Y-94657333D01*
G36*
X160972500Y-88896821D02*
X162898667Y-88900000D01*
X162891983Y-88709500D01*
X162868305Y-88508554D01*
X162842594Y-88413166D01*
X162780408Y-88372969D01*
X162619653Y-88343532D01*
X162343412Y-88323736D01*
X161934764Y-88312462D01*
X161376791Y-88308592D01*
X161261778Y-88308592D01*
X159723667Y-88309852D01*
X159385000Y-88601747D01*
X159046334Y-88893642D01*
X160972500Y-88896821D01*
X160972500Y-88896821D01*
G37*
X160972500Y-88896821D02*
X162898667Y-88900000D01*
X162891983Y-88709500D01*
X162868305Y-88508554D01*
X162842594Y-88413166D01*
X162780408Y-88372969D01*
X162619653Y-88343532D01*
X162343412Y-88323736D01*
X161934764Y-88312462D01*
X161376791Y-88308592D01*
X161261778Y-88308592D01*
X159723667Y-88309852D01*
X159385000Y-88601747D01*
X159046334Y-88893642D01*
X160972500Y-88896821D01*
G36*
X163237334Y-93810666D02*
X163237334Y-93218000D01*
X158750000Y-93218000D01*
X158750000Y-93810666D01*
X163237334Y-93810666D01*
X163237334Y-93810666D01*
G37*
X163237334Y-93810666D02*
X163237334Y-93218000D01*
X158750000Y-93218000D01*
X158750000Y-93810666D01*
X163237334Y-93810666D01*
G36*
X163237334Y-89789000D02*
X163237334Y-89154000D01*
X158750000Y-89154000D01*
X158750000Y-89789000D01*
X163237334Y-89789000D01*
X163237334Y-89789000D01*
G37*
X163237334Y-89789000D02*
X163237334Y-89154000D01*
X158750000Y-89154000D01*
X158750000Y-89789000D01*
X163237334Y-89789000D01*
G36*
X163471584Y-92964000D02*
X163522636Y-92773500D01*
X163561033Y-92637568D01*
X163584274Y-92529530D01*
X163575788Y-92446196D01*
X163519004Y-92384376D01*
X163397351Y-92340879D01*
X163194256Y-92312516D01*
X162893149Y-92296096D01*
X162477458Y-92288430D01*
X161930612Y-92286328D01*
X161236039Y-92286599D01*
X160993667Y-92286666D01*
X158411334Y-92286666D01*
X158411334Y-92964000D01*
X163471584Y-92964000D01*
X163471584Y-92964000D01*
G37*
X163471584Y-92964000D02*
X163522636Y-92773500D01*
X163561033Y-92637568D01*
X163584274Y-92529530D01*
X163575788Y-92446196D01*
X163519004Y-92384376D01*
X163397351Y-92340879D01*
X163194256Y-92312516D01*
X162893149Y-92296096D01*
X162477458Y-92288430D01*
X161930612Y-92286328D01*
X161236039Y-92286599D01*
X160993667Y-92286666D01*
X158411334Y-92286666D01*
X158411334Y-92964000D01*
X163471584Y-92964000D01*
G36*
X158411308Y-90360500D02*
X158411334Y-90678000D01*
X163576000Y-90678000D01*
X163570049Y-90487500D01*
X163539971Y-90274708D01*
X163506549Y-90170000D01*
X163469856Y-90133142D01*
X163385295Y-90104001D01*
X163235411Y-90081715D01*
X163002743Y-90065424D01*
X162669835Y-90054268D01*
X162219227Y-90047386D01*
X161633462Y-90043917D01*
X160930142Y-90043000D01*
X158411283Y-90043000D01*
X158411308Y-90360500D01*
X158411308Y-90360500D01*
G37*
X158411308Y-90360500D02*
X158411334Y-90678000D01*
X163576000Y-90678000D01*
X163570049Y-90487500D01*
X163539971Y-90274708D01*
X163506549Y-90170000D01*
X163469856Y-90133142D01*
X163385295Y-90104001D01*
X163235411Y-90081715D01*
X163002743Y-90065424D01*
X162669835Y-90054268D01*
X162219227Y-90047386D01*
X161633462Y-90043917D01*
X160930142Y-90043000D01*
X158411283Y-90043000D01*
X158411308Y-90360500D01*
G36*
X163830000Y-91948000D02*
X163830000Y-90932000D01*
X157988000Y-90932000D01*
X157988000Y-91948000D01*
X163830000Y-91948000D01*
X163830000Y-91948000D01*
G37*
X163830000Y-91948000D02*
X163830000Y-90932000D01*
X157988000Y-90932000D01*
X157988000Y-91948000D01*
X163830000Y-91948000D01*
G36*
X161926689Y-98344219D02*
X162067170Y-98511193D01*
X162310868Y-98776000D01*
X162401415Y-98872572D01*
X162897507Y-99437252D01*
X163258095Y-99929954D01*
X163479080Y-100344757D01*
X163532235Y-100505818D01*
X163612933Y-100641961D01*
X163764372Y-100795093D01*
X163936718Y-100925495D01*
X164080133Y-100993451D01*
X164134086Y-100985469D01*
X164115111Y-100901162D01*
X164041053Y-100699776D01*
X163926061Y-100418766D01*
X163875612Y-100301281D01*
X163532852Y-99627293D01*
X163144710Y-99066693D01*
X162725156Y-98634866D01*
X162288163Y-98347194D01*
X162009667Y-98246775D01*
X161909426Y-98230362D01*
X161877937Y-98256727D01*
X161926689Y-98344219D01*
X161926689Y-98344219D01*
G37*
X161926689Y-98344219D02*
X162067170Y-98511193D01*
X162310868Y-98776000D01*
X162401415Y-98872572D01*
X162897507Y-99437252D01*
X163258095Y-99929954D01*
X163479080Y-100344757D01*
X163532235Y-100505818D01*
X163612933Y-100641961D01*
X163764372Y-100795093D01*
X163936718Y-100925495D01*
X164080133Y-100993451D01*
X164134086Y-100985469D01*
X164115111Y-100901162D01*
X164041053Y-100699776D01*
X163926061Y-100418766D01*
X163875612Y-100301281D01*
X163532852Y-99627293D01*
X163144710Y-99066693D01*
X162725156Y-98634866D01*
X162288163Y-98347194D01*
X162009667Y-98246775D01*
X161909426Y-98230362D01*
X161877937Y-98256727D01*
X161926689Y-98344219D01*
G36*
X161964297Y-84726374D02*
X162009667Y-84716267D01*
X162479655Y-84515131D01*
X162928046Y-84154161D01*
X163347231Y-83642278D01*
X163729606Y-82988401D01*
X163997684Y-82384850D01*
X164082923Y-82150110D01*
X164125340Y-81994827D01*
X164122119Y-81957333D01*
X163947634Y-82031237D01*
X163742140Y-82231497D01*
X163534131Y-82525934D01*
X163402890Y-82769579D01*
X163132184Y-83222953D01*
X162725021Y-83740777D01*
X162450859Y-84043401D01*
X162162525Y-84351663D01*
X161981209Y-84556541D01*
X161895405Y-84675585D01*
X161893603Y-84726346D01*
X161964297Y-84726374D01*
X161964297Y-84726374D01*
G37*
X161964297Y-84726374D02*
X162009667Y-84716267D01*
X162479655Y-84515131D01*
X162928046Y-84154161D01*
X163347231Y-83642278D01*
X163729606Y-82988401D01*
X163997684Y-82384850D01*
X164082923Y-82150110D01*
X164125340Y-81994827D01*
X164122119Y-81957333D01*
X163947634Y-82031237D01*
X163742140Y-82231497D01*
X163534131Y-82525934D01*
X163402890Y-82769579D01*
X163132184Y-83222953D01*
X162725021Y-83740777D01*
X162450859Y-84043401D01*
X162162525Y-84351663D01*
X161981209Y-84556541D01*
X161895405Y-84675585D01*
X161893603Y-84726346D01*
X161964297Y-84726374D01*
G36*
X157169461Y-91619086D02*
X157245829Y-91879817D01*
X157358418Y-92230116D01*
X157495208Y-92635641D01*
X157644180Y-93062053D01*
X157793315Y-93475010D01*
X157930591Y-93840173D01*
X158043990Y-94123201D01*
X158121492Y-94289753D01*
X158127540Y-94299856D01*
X158230374Y-94436591D01*
X158420442Y-94666103D01*
X158670583Y-94956322D01*
X158952146Y-95273523D01*
X159391951Y-95771399D01*
X159722032Y-96169135D01*
X159954477Y-96484211D01*
X160101378Y-96734107D01*
X160174823Y-96936305D01*
X160189009Y-97061869D01*
X160172183Y-97244846D01*
X160126561Y-97551250D01*
X160059026Y-97938977D01*
X159976462Y-98365923D01*
X159973058Y-98382666D01*
X159843119Y-99135642D01*
X159752911Y-99904561D01*
X159704088Y-100652073D01*
X159698303Y-101340827D01*
X159737211Y-101933471D01*
X159799392Y-102303898D01*
X159908684Y-102688514D01*
X160050957Y-103087685D01*
X160160970Y-103341470D01*
X160383527Y-103703700D01*
X160684256Y-104068928D01*
X161024178Y-104399437D01*
X161364313Y-104657508D01*
X161665682Y-104805427D01*
X161677449Y-104808817D01*
X162284248Y-104900193D01*
X162862344Y-104841449D01*
X163388341Y-104644153D01*
X163838841Y-104319875D01*
X164190448Y-103880184D01*
X164377971Y-103473492D01*
X164488705Y-102901521D01*
X164441857Y-102337215D01*
X164247983Y-101808336D01*
X163917636Y-101342644D01*
X163461372Y-100967900D01*
X163414585Y-100939637D01*
X162991126Y-100772806D01*
X162491139Y-100700743D01*
X162450077Y-100702671D01*
X162450077Y-101792068D01*
X162786132Y-101866246D01*
X163042896Y-102045796D01*
X163298646Y-102395030D01*
X163398941Y-102720587D01*
X163349555Y-103050546D01*
X163281358Y-103205395D01*
X163025971Y-103541421D01*
X162694370Y-103742479D01*
X162317933Y-103797890D01*
X161928036Y-103696973D01*
X161891035Y-103678660D01*
X161596785Y-103439516D01*
X161421933Y-103111751D01*
X161376300Y-102735845D01*
X161469708Y-102352275D01*
X161537764Y-102222561D01*
X161775756Y-101976114D01*
X162096573Y-101830654D01*
X162450077Y-101792068D01*
X162450077Y-100702671D01*
X161979314Y-100724776D01*
X161520341Y-100846232D01*
X161408984Y-100898474D01*
X160966840Y-101210425D01*
X160612325Y-101615260D01*
X160371262Y-102074648D01*
X160269473Y-102550256D01*
X160268034Y-102592113D01*
X160262069Y-102912333D01*
X160124274Y-102573666D01*
X160068244Y-102396194D01*
X160029079Y-102165034D01*
X160004464Y-101851070D01*
X159992083Y-101425183D01*
X159989564Y-100880333D01*
X159995670Y-100296740D01*
X160014415Y-99828159D01*
X160050949Y-99420434D01*
X160110416Y-99019411D01*
X160197965Y-98570934D01*
X160217991Y-98476856D01*
X160335446Y-97911118D01*
X160409804Y-97477537D01*
X160438249Y-97143799D01*
X160417963Y-96877587D01*
X160346130Y-96646585D01*
X160219931Y-96418479D01*
X160036550Y-96160953D01*
X160013420Y-96130306D01*
X159767688Y-95818482D01*
X159455064Y-95439984D01*
X159123661Y-95052424D01*
X158931474Y-94834655D01*
X158688495Y-94560868D01*
X158505704Y-94339619D01*
X158363720Y-94135224D01*
X158243167Y-93911999D01*
X158124663Y-93634257D01*
X157988831Y-93266314D01*
X157824596Y-92796412D01*
X157369750Y-91485825D01*
X157776972Y-90298746D01*
X157928003Y-89864269D01*
X158066922Y-89475218D01*
X158181353Y-89165497D01*
X158258917Y-88969011D01*
X158276597Y-88930206D01*
X158365050Y-88802522D01*
X158543654Y-88578010D01*
X158788806Y-88285276D01*
X159076905Y-87952926D01*
X159166226Y-87851971D01*
X159597497Y-87359215D01*
X159923205Y-86966211D01*
X160156791Y-86652248D01*
X160311698Y-86396615D01*
X160401367Y-86178602D01*
X160439240Y-85977497D01*
X160442971Y-85884809D01*
X160425224Y-85665971D01*
X160376652Y-85328449D01*
X160304705Y-84918513D01*
X160217991Y-84487809D01*
X160124585Y-84024354D01*
X160060228Y-83618540D01*
X160019774Y-83216211D01*
X159998075Y-82763213D01*
X159989985Y-82205390D01*
X159989564Y-82084333D01*
X159992330Y-81522722D01*
X160005092Y-81101152D01*
X160030167Y-80790507D01*
X160069871Y-80561668D01*
X160124274Y-80391000D01*
X160210062Y-80186760D01*
X160250961Y-80128883D01*
X160265267Y-80206627D01*
X160268507Y-80306333D01*
X160363160Y-80838488D01*
X160605172Y-81330498D01*
X160972841Y-81751774D01*
X161444463Y-82071728D01*
X161558908Y-82125007D01*
X161881069Y-82241064D01*
X162181648Y-82285182D01*
X162532395Y-82273825D01*
X163113589Y-82150733D01*
X163611269Y-81895724D01*
X164011378Y-81531311D01*
X164299860Y-81080010D01*
X164462660Y-80564335D01*
X164485721Y-80006801D01*
X164354987Y-79429922D01*
X164337197Y-79382928D01*
X164056472Y-78881494D01*
X163661855Y-78489027D01*
X163177914Y-78217008D01*
X162629213Y-78076921D01*
X162497435Y-78077664D01*
X162497435Y-79189426D01*
X162852209Y-79309578D01*
X163156840Y-79543080D01*
X163330225Y-79798333D01*
X163387649Y-80115451D01*
X163327558Y-80467723D01*
X163165591Y-80785687D01*
X163087539Y-80876205D01*
X162769404Y-81092117D01*
X162409724Y-81176567D01*
X162050699Y-81134512D01*
X161734530Y-80970908D01*
X161503415Y-80690713D01*
X161503100Y-80690104D01*
X161381720Y-80302130D01*
X161403340Y-79929676D01*
X161548144Y-79602650D01*
X161796315Y-79350960D01*
X162128035Y-79204516D01*
X162497435Y-79189426D01*
X162497435Y-78077664D01*
X162040320Y-78080245D01*
X161698994Y-78149900D01*
X161406154Y-78287876D01*
X161067468Y-78535379D01*
X160723619Y-78856379D01*
X160415287Y-79214845D01*
X160281975Y-79404905D01*
X160130319Y-79695438D01*
X159976739Y-80078451D01*
X159850490Y-80479986D01*
X159838562Y-80525919D01*
X159729341Y-81168517D01*
X159689857Y-81931737D01*
X159719028Y-82782389D01*
X159815773Y-83687282D01*
X159970441Y-84572476D01*
X160055117Y-84999756D01*
X160124554Y-85391190D01*
X160171657Y-85703851D01*
X160189329Y-85894812D01*
X160189334Y-85896662D01*
X160142345Y-86116490D01*
X159996656Y-86403994D01*
X159745181Y-86769240D01*
X159380832Y-87222296D01*
X158896525Y-87773229D01*
X158773182Y-87908561D01*
X158091187Y-88652788D01*
X157616260Y-89996572D01*
X157458125Y-90452145D01*
X157322297Y-90858980D01*
X157218278Y-91187354D01*
X157155570Y-91407541D01*
X157141334Y-91482262D01*
X157169461Y-91619086D01*
X157169461Y-91619086D01*
G37*
X157169461Y-91619086D02*
X157245829Y-91879817D01*
X157358418Y-92230116D01*
X157495208Y-92635641D01*
X157644180Y-93062053D01*
X157793315Y-93475010D01*
X157930591Y-93840173D01*
X158043990Y-94123201D01*
X158121492Y-94289753D01*
X158127540Y-94299856D01*
X158230374Y-94436591D01*
X158420442Y-94666103D01*
X158670583Y-94956322D01*
X158952146Y-95273523D01*
X159391951Y-95771399D01*
X159722032Y-96169135D01*
X159954477Y-96484211D01*
X160101378Y-96734107D01*
X160174823Y-96936305D01*
X160189009Y-97061869D01*
X160172183Y-97244846D01*
X160126561Y-97551250D01*
X160059026Y-97938977D01*
X159976462Y-98365923D01*
X159973058Y-98382666D01*
X159843119Y-99135642D01*
X159752911Y-99904561D01*
X159704088Y-100652073D01*
X159698303Y-101340827D01*
X159737211Y-101933471D01*
X159799392Y-102303898D01*
X159908684Y-102688514D01*
X160050957Y-103087685D01*
X160160970Y-103341470D01*
X160383527Y-103703700D01*
X160684256Y-104068928D01*
X161024178Y-104399437D01*
X161364313Y-104657508D01*
X161665682Y-104805427D01*
X161677449Y-104808817D01*
X162284248Y-104900193D01*
X162862344Y-104841449D01*
X163388341Y-104644153D01*
X163838841Y-104319875D01*
X164190448Y-103880184D01*
X164377971Y-103473492D01*
X164488705Y-102901521D01*
X164441857Y-102337215D01*
X164247983Y-101808336D01*
X163917636Y-101342644D01*
X163461372Y-100967900D01*
X163414585Y-100939637D01*
X162991126Y-100772806D01*
X162491139Y-100700743D01*
X162450077Y-100702671D01*
X162450077Y-101792068D01*
X162786132Y-101866246D01*
X163042896Y-102045796D01*
X163298646Y-102395030D01*
X163398941Y-102720587D01*
X163349555Y-103050546D01*
X163281358Y-103205395D01*
X163025971Y-103541421D01*
X162694370Y-103742479D01*
X162317933Y-103797890D01*
X161928036Y-103696973D01*
X161891035Y-103678660D01*
X161596785Y-103439516D01*
X161421933Y-103111751D01*
X161376300Y-102735845D01*
X161469708Y-102352275D01*
X161537764Y-102222561D01*
X161775756Y-101976114D01*
X162096573Y-101830654D01*
X162450077Y-101792068D01*
X162450077Y-100702671D01*
X161979314Y-100724776D01*
X161520341Y-100846232D01*
X161408984Y-100898474D01*
X160966840Y-101210425D01*
X160612325Y-101615260D01*
X160371262Y-102074648D01*
X160269473Y-102550256D01*
X160268034Y-102592113D01*
X160262069Y-102912333D01*
X160124274Y-102573666D01*
X160068244Y-102396194D01*
X160029079Y-102165034D01*
X160004464Y-101851070D01*
X159992083Y-101425183D01*
X159989564Y-100880333D01*
X159995670Y-100296740D01*
X160014415Y-99828159D01*
X160050949Y-99420434D01*
X160110416Y-99019411D01*
X160197965Y-98570934D01*
X160217991Y-98476856D01*
X160335446Y-97911118D01*
X160409804Y-97477537D01*
X160438249Y-97143799D01*
X160417963Y-96877587D01*
X160346130Y-96646585D01*
X160219931Y-96418479D01*
X160036550Y-96160953D01*
X160013420Y-96130306D01*
X159767688Y-95818482D01*
X159455064Y-95439984D01*
X159123661Y-95052424D01*
X158931474Y-94834655D01*
X158688495Y-94560868D01*
X158505704Y-94339619D01*
X158363720Y-94135224D01*
X158243167Y-93911999D01*
X158124663Y-93634257D01*
X157988831Y-93266314D01*
X157824596Y-92796412D01*
X157369750Y-91485825D01*
X157776972Y-90298746D01*
X157928003Y-89864269D01*
X158066922Y-89475218D01*
X158181353Y-89165497D01*
X158258917Y-88969011D01*
X158276597Y-88930206D01*
X158365050Y-88802522D01*
X158543654Y-88578010D01*
X158788806Y-88285276D01*
X159076905Y-87952926D01*
X159166226Y-87851971D01*
X159597497Y-87359215D01*
X159923205Y-86966211D01*
X160156791Y-86652248D01*
X160311698Y-86396615D01*
X160401367Y-86178602D01*
X160439240Y-85977497D01*
X160442971Y-85884809D01*
X160425224Y-85665971D01*
X160376652Y-85328449D01*
X160304705Y-84918513D01*
X160217991Y-84487809D01*
X160124585Y-84024354D01*
X160060228Y-83618540D01*
X160019774Y-83216211D01*
X159998075Y-82763213D01*
X159989985Y-82205390D01*
X159989564Y-82084333D01*
X159992330Y-81522722D01*
X160005092Y-81101152D01*
X160030167Y-80790507D01*
X160069871Y-80561668D01*
X160124274Y-80391000D01*
X160210062Y-80186760D01*
X160250961Y-80128883D01*
X160265267Y-80206627D01*
X160268507Y-80306333D01*
X160363160Y-80838488D01*
X160605172Y-81330498D01*
X160972841Y-81751774D01*
X161444463Y-82071728D01*
X161558908Y-82125007D01*
X161881069Y-82241064D01*
X162181648Y-82285182D01*
X162532395Y-82273825D01*
X163113589Y-82150733D01*
X163611269Y-81895724D01*
X164011378Y-81531311D01*
X164299860Y-81080010D01*
X164462660Y-80564335D01*
X164485721Y-80006801D01*
X164354987Y-79429922D01*
X164337197Y-79382928D01*
X164056472Y-78881494D01*
X163661855Y-78489027D01*
X163177914Y-78217008D01*
X162629213Y-78076921D01*
X162497435Y-78077664D01*
X162497435Y-79189426D01*
X162852209Y-79309578D01*
X163156840Y-79543080D01*
X163330225Y-79798333D01*
X163387649Y-80115451D01*
X163327558Y-80467723D01*
X163165591Y-80785687D01*
X163087539Y-80876205D01*
X162769404Y-81092117D01*
X162409724Y-81176567D01*
X162050699Y-81134512D01*
X161734530Y-80970908D01*
X161503415Y-80690713D01*
X161503100Y-80690104D01*
X161381720Y-80302130D01*
X161403340Y-79929676D01*
X161548144Y-79602650D01*
X161796315Y-79350960D01*
X162128035Y-79204516D01*
X162497435Y-79189426D01*
X162497435Y-78077664D01*
X162040320Y-78080245D01*
X161698994Y-78149900D01*
X161406154Y-78287876D01*
X161067468Y-78535379D01*
X160723619Y-78856379D01*
X160415287Y-79214845D01*
X160281975Y-79404905D01*
X160130319Y-79695438D01*
X159976739Y-80078451D01*
X159850490Y-80479986D01*
X159838562Y-80525919D01*
X159729341Y-81168517D01*
X159689857Y-81931737D01*
X159719028Y-82782389D01*
X159815773Y-83687282D01*
X159970441Y-84572476D01*
X160055117Y-84999756D01*
X160124554Y-85391190D01*
X160171657Y-85703851D01*
X160189329Y-85894812D01*
X160189334Y-85896662D01*
X160142345Y-86116490D01*
X159996656Y-86403994D01*
X159745181Y-86769240D01*
X159380832Y-87222296D01*
X158896525Y-87773229D01*
X158773182Y-87908561D01*
X158091187Y-88652788D01*
X157616260Y-89996572D01*
X157458125Y-90452145D01*
X157322297Y-90858980D01*
X157218278Y-91187354D01*
X157155570Y-91407541D01*
X157141334Y-91482262D01*
X157169461Y-91619086D01*
G36*
X115512885Y-92846287D02*
X115541493Y-93445843D01*
X115560751Y-93683666D01*
X115799001Y-95505565D01*
X116154530Y-97237479D01*
X116624315Y-98872119D01*
X117205333Y-100402193D01*
X117894562Y-101820413D01*
X118688980Y-103119488D01*
X119585565Y-104292129D01*
X120262674Y-105024200D01*
X121108759Y-105813128D01*
X121946058Y-106473342D01*
X122818846Y-107036933D01*
X123643652Y-107474680D01*
X124789910Y-107974874D01*
X125961379Y-108368433D01*
X127191602Y-108663755D01*
X128514123Y-108869238D01*
X129624667Y-108972091D01*
X130145343Y-109009539D01*
X130525101Y-109042485D01*
X130792074Y-109076242D01*
X130974391Y-109116124D01*
X131100185Y-109167443D01*
X131197587Y-109235515D01*
X131245173Y-109278188D01*
X131587217Y-109490508D01*
X132023609Y-109598884D01*
X132514711Y-109602916D01*
X133020883Y-109502206D01*
X133494466Y-109300876D01*
X133935266Y-109053395D01*
X135763000Y-109708373D01*
X135763000Y-110363000D01*
X136757336Y-110696910D01*
X137239459Y-110868201D01*
X137567163Y-111007351D01*
X137751234Y-111119390D01*
X137800004Y-111183100D01*
X137908600Y-111390825D01*
X138103153Y-111657771D01*
X138340449Y-111933669D01*
X138577273Y-112168246D01*
X138769279Y-112310650D01*
X138998194Y-112390492D01*
X139346499Y-112467936D01*
X139764296Y-112536578D01*
X140201689Y-112590015D01*
X140608782Y-112621842D01*
X140935677Y-112625656D01*
X141089294Y-112608404D01*
X141357482Y-112517879D01*
X141645023Y-112378867D01*
X141697221Y-112347997D01*
X141856578Y-112254132D01*
X141988620Y-112204713D01*
X142141894Y-112197215D01*
X142364946Y-112229112D01*
X142697178Y-112295985D01*
X143315378Y-112398759D01*
X143800839Y-112419399D01*
X144170236Y-112355455D01*
X144440244Y-112204477D01*
X144597471Y-112016816D01*
X144737667Y-111787755D01*
X146007667Y-112622502D01*
X146997824Y-113258702D01*
X147883854Y-113795053D01*
X148688858Y-114243453D01*
X149435933Y-114615802D01*
X150148176Y-114923998D01*
X150848687Y-115179942D01*
X151172334Y-115283098D01*
X151502981Y-115378330D01*
X151792282Y-115443983D01*
X152086877Y-115485645D01*
X152433404Y-115508908D01*
X152878506Y-115519361D01*
X153162000Y-115521578D01*
X153796374Y-115514763D01*
X154309624Y-115480574D01*
X154749071Y-115408966D01*
X155162034Y-115289895D01*
X155595835Y-115113318D01*
X155998334Y-114919553D01*
X156339406Y-114738332D01*
X156660134Y-114543409D01*
X156984092Y-114316259D01*
X157334857Y-114038359D01*
X157736006Y-113691185D01*
X158211113Y-113256212D01*
X158687636Y-112806550D01*
X159795153Y-111785332D01*
X161025209Y-110712004D01*
X162349273Y-109610942D01*
X163533667Y-108666483D01*
X164324484Y-108026073D01*
X164973179Y-107453661D01*
X165477465Y-106951501D01*
X165835055Y-106521848D01*
X166024260Y-106210469D01*
X166225780Y-105653555D01*
X166376937Y-104968758D01*
X166476781Y-104190159D01*
X166524358Y-103351839D01*
X166518718Y-102487877D01*
X166458908Y-101632356D01*
X166343977Y-100819356D01*
X166193374Y-100154884D01*
X165950948Y-99417320D01*
X165657668Y-98801581D01*
X165288082Y-98262076D01*
X164895671Y-97830116D01*
X164607187Y-97560156D01*
X164329712Y-97327796D01*
X164104806Y-97166689D01*
X164020285Y-97121345D01*
X163836456Y-97014542D01*
X163746998Y-96902375D01*
X163745334Y-96888614D01*
X163781605Y-96759761D01*
X163877545Y-96527221D01*
X164013844Y-96237094D01*
X164041333Y-96181995D01*
X164412635Y-95341249D01*
X164689125Y-94469489D01*
X164877247Y-93535310D01*
X164983446Y-92507310D01*
X165014335Y-91440000D01*
X164984038Y-90361725D01*
X164887870Y-89403694D01*
X164717913Y-88527042D01*
X164466250Y-87692908D01*
X164124965Y-86862426D01*
X164048959Y-86701055D01*
X163908588Y-86398646D01*
X163802606Y-86151389D01*
X163748704Y-86001226D01*
X163745334Y-85981243D01*
X163814065Y-85895123D01*
X163989870Y-85770278D01*
X164128911Y-85690555D01*
X164506066Y-85431949D01*
X164905328Y-85060108D01*
X165286957Y-84619433D01*
X165611210Y-84154323D01*
X165777994Y-83848141D01*
X166043854Y-83215675D01*
X166241562Y-82572080D01*
X166378883Y-81878496D01*
X166463582Y-81096064D01*
X166502674Y-80221666D01*
X166508494Y-79411690D01*
X166486545Y-78744510D01*
X166435808Y-78195717D01*
X166411142Y-78027589D01*
X166237411Y-77271244D01*
X165972933Y-76629607D01*
X165599125Y-76064198D01*
X165303598Y-75734333D01*
X165103149Y-75545901D01*
X164792662Y-75272428D01*
X164395292Y-74933438D01*
X163934193Y-74548455D01*
X163432520Y-74137003D01*
X162913426Y-73718606D01*
X162906783Y-73713301D01*
X162128315Y-73088114D01*
X161455981Y-72539082D01*
X160860437Y-72040767D01*
X160312344Y-71567733D01*
X159782360Y-71094544D01*
X159241143Y-70595762D01*
X158659353Y-70045951D01*
X158492950Y-69886836D01*
X157928740Y-69357558D01*
X157447329Y-68934253D01*
X157020027Y-68595442D01*
X156618141Y-68319646D01*
X156212981Y-68085388D01*
X155839722Y-67900619D01*
X155067663Y-67591447D01*
X154318796Y-67403756D01*
X153532607Y-67325967D01*
X152874416Y-67333151D01*
X152837408Y-67336615D01*
X152837408Y-67711371D01*
X153655871Y-67756067D01*
X154341683Y-67829404D01*
X154982976Y-67979219D01*
X155602237Y-68217449D01*
X156221953Y-68556034D01*
X156864614Y-69006910D01*
X157552707Y-69582015D01*
X158157334Y-70145689D01*
X159018713Y-70960272D01*
X159906851Y-71765623D01*
X160774753Y-72519901D01*
X161486281Y-73109666D01*
X161780317Y-73349056D01*
X162018369Y-73547192D01*
X162173853Y-73681655D01*
X162221271Y-73729424D01*
X162152427Y-73704717D01*
X161968100Y-73615764D01*
X161701684Y-73478995D01*
X161558565Y-73403378D01*
X161244962Y-73217644D01*
X160895870Y-72972146D01*
X160490059Y-72650208D01*
X160006298Y-72235151D01*
X159547732Y-71823791D01*
X158784549Y-71136484D01*
X158065788Y-70502998D01*
X157404446Y-69934200D01*
X156813524Y-69440956D01*
X156306020Y-69034130D01*
X155894933Y-68724589D01*
X155613817Y-68535530D01*
X155081949Y-68278124D01*
X154492534Y-68103498D01*
X153881354Y-68012940D01*
X153284194Y-68007736D01*
X152736836Y-68089173D01*
X152275065Y-68258537D01*
X152048582Y-68407321D01*
X151939560Y-68501024D01*
X151928414Y-68535279D01*
X152036842Y-68513591D01*
X152273000Y-68443564D01*
X152590968Y-68372279D01*
X152919133Y-68358232D01*
X153294825Y-68405620D01*
X153755375Y-68518640D01*
X154220334Y-68662515D01*
X154589782Y-68786825D01*
X154799356Y-68866560D01*
X154847934Y-68903303D01*
X154734393Y-68898635D01*
X154457612Y-68854135D01*
X154127846Y-68792824D01*
X153815432Y-68737946D01*
X153573657Y-68704681D01*
X153444793Y-68698573D01*
X153435125Y-68701986D01*
X153483722Y-68746186D01*
X153693471Y-68816287D01*
X154066094Y-68912757D01*
X154603309Y-69036064D01*
X154897667Y-69100100D01*
X155475186Y-69247614D01*
X155884482Y-69406125D01*
X156040667Y-69499924D01*
X156312660Y-69707775D01*
X156686095Y-70004176D01*
X157134152Y-70367117D01*
X157630015Y-70774588D01*
X158146864Y-71204582D01*
X158657882Y-71635087D01*
X159045615Y-71966048D01*
X160025757Y-72808476D01*
X159360240Y-72757155D01*
X159213998Y-72753754D01*
X159213998Y-72987076D01*
X159815441Y-73074753D01*
X160511440Y-73277583D01*
X161108319Y-73505096D01*
X161889799Y-73860228D01*
X162666274Y-74276226D01*
X163409641Y-74733835D01*
X164091794Y-75213797D01*
X164684627Y-75696855D01*
X165160035Y-76163753D01*
X165379975Y-76431868D01*
X165619290Y-76814346D01*
X165804117Y-77246248D01*
X165938563Y-77749663D01*
X166026732Y-78346676D01*
X166072731Y-79059374D01*
X166080665Y-79909846D01*
X166076552Y-80179333D01*
X166060185Y-80789921D01*
X166035713Y-81270035D01*
X165999306Y-81658482D01*
X165947133Y-81994067D01*
X165875362Y-82315595D01*
X165859622Y-82376666D01*
X165681359Y-82993069D01*
X165497319Y-83486955D01*
X165288320Y-83904613D01*
X165109025Y-84187883D01*
X164608125Y-84789490D01*
X164037625Y-85242378D01*
X163725048Y-85412610D01*
X163462947Y-85554485D01*
X163289543Y-85686228D01*
X163240225Y-85767333D01*
X163246483Y-85827377D01*
X163269994Y-85915594D01*
X163319274Y-86053241D01*
X163402840Y-86261574D01*
X163529208Y-86561849D01*
X163706894Y-86975322D01*
X163935964Y-87503790D01*
X164130232Y-87980748D01*
X164279890Y-88428406D01*
X164391216Y-88882307D01*
X164470486Y-89377992D01*
X164523974Y-89951003D01*
X164557958Y-90636881D01*
X164571227Y-91101333D01*
X164580707Y-91978205D01*
X164560348Y-92723582D01*
X164503595Y-93373690D01*
X164403898Y-93964759D01*
X164254704Y-94533017D01*
X164049460Y-95114691D01*
X163781614Y-95746010D01*
X163698122Y-95928792D01*
X163535948Y-96293561D01*
X163399015Y-96627312D01*
X163305613Y-96884077D01*
X163277058Y-96987125D01*
X163261010Y-97128099D01*
X163300324Y-97228583D01*
X163426613Y-97322424D01*
X163671489Y-97443470D01*
X163727363Y-97469270D01*
X164322322Y-97826789D01*
X164832602Y-98315398D01*
X165262071Y-98940850D01*
X165614592Y-99708902D01*
X165894034Y-100625306D01*
X165919914Y-100733016D01*
X165979566Y-101028658D01*
X166022248Y-101350730D01*
X166050187Y-101732678D01*
X166065608Y-102207947D01*
X166070740Y-102809983D01*
X166070653Y-102997000D01*
X166059374Y-103830176D01*
X166021586Y-104522050D01*
X165946229Y-105099947D01*
X165822248Y-105591191D01*
X165638583Y-106023107D01*
X165384177Y-106423021D01*
X165047972Y-106818257D01*
X164618911Y-107236139D01*
X164208219Y-107599219D01*
X163741282Y-107988705D01*
X163333466Y-108294596D01*
X162926908Y-108555723D01*
X162463742Y-108810915D01*
X162211627Y-108939058D01*
X161292452Y-109368969D01*
X160486606Y-109683012D01*
X159785687Y-109883025D01*
X159181293Y-109970848D01*
X158665023Y-109948321D01*
X158228476Y-109817283D01*
X158219651Y-109813170D01*
X157951534Y-109649189D01*
X157647986Y-109407483D01*
X157398967Y-109165523D01*
X157284890Y-109037072D01*
X157179360Y-108906177D01*
X157073360Y-108756180D01*
X156957873Y-108570419D01*
X156823879Y-108332233D01*
X156662363Y-108024963D01*
X156464306Y-107631947D01*
X156220691Y-107136525D01*
X155922499Y-106522037D01*
X155560714Y-105771822D01*
X155549564Y-105748666D01*
X155304847Y-105278427D01*
X155057591Y-104900349D01*
X154758369Y-104543882D01*
X154563658Y-104341454D01*
X153965027Y-103738575D01*
X154433890Y-103220832D01*
X154874251Y-102683962D01*
X155243839Y-102132846D01*
X155513494Y-101612899D01*
X155585759Y-101426974D01*
X155619897Y-101315842D01*
X155643038Y-101197491D01*
X155652994Y-101055705D01*
X155647579Y-100874266D01*
X155624604Y-100636957D01*
X155581883Y-100327561D01*
X155517226Y-99929862D01*
X155428448Y-99427641D01*
X155313360Y-98804682D01*
X155169775Y-98044767D01*
X155032345Y-97324333D01*
X154998632Y-97147722D01*
X154998632Y-98467333D01*
X155122025Y-99165833D01*
X155175172Y-99493284D01*
X155208933Y-99755219D01*
X155218051Y-99908415D01*
X155214712Y-99927833D01*
X155124299Y-99948239D01*
X154892116Y-99965922D01*
X154545716Y-99979749D01*
X154258007Y-99985619D01*
X154258007Y-100922666D01*
X154684908Y-100925301D01*
X155043946Y-100932538D01*
X155304887Y-100943377D01*
X155437497Y-100956817D01*
X155448000Y-100962041D01*
X155423031Y-101058190D01*
X155359281Y-101260203D01*
X155311132Y-101404551D01*
X155145146Y-101774696D01*
X154884704Y-102213176D01*
X154559705Y-102673392D01*
X154264402Y-103036135D01*
X154008667Y-103329270D01*
X154008667Y-103030335D01*
X153951356Y-102609024D01*
X153951356Y-104116020D01*
X154039982Y-104165831D01*
X154267591Y-104363552D01*
X154539385Y-104674980D01*
X154826577Y-105061019D01*
X155100380Y-105482572D01*
X155332008Y-105900543D01*
X155361249Y-105960333D01*
X155538003Y-106330935D01*
X155754159Y-106786994D01*
X155977539Y-107260506D01*
X156113639Y-107550287D01*
X156521613Y-108350903D01*
X156920326Y-108989587D01*
X157314493Y-109473159D01*
X157643029Y-109762668D01*
X158051209Y-110018666D01*
X158448193Y-110167383D01*
X158893424Y-110224569D01*
X159345120Y-110213602D01*
X159997146Y-110168912D01*
X159648740Y-110483574D01*
X159271406Y-110816513D01*
X158803445Y-111217393D01*
X158279270Y-111657822D01*
X157733293Y-112109409D01*
X157199926Y-112543760D01*
X156713584Y-112932483D01*
X156308677Y-113247186D01*
X156198849Y-113329915D01*
X155806967Y-113613054D01*
X155483702Y-113818146D01*
X155168336Y-113976446D01*
X154800152Y-114119207D01*
X154420849Y-114245124D01*
X153841788Y-114421933D01*
X153387162Y-114538341D01*
X153024892Y-114598580D01*
X152722898Y-114606878D01*
X152449100Y-114567465D01*
X152294167Y-114525523D01*
X152028788Y-114457670D01*
X151911633Y-114457688D01*
X151940581Y-114515538D01*
X152113509Y-114621184D01*
X152336500Y-114725781D01*
X152917467Y-114899544D01*
X153576531Y-114964794D01*
X154259290Y-114918457D01*
X154589938Y-114853125D01*
X154898184Y-114758529D01*
X155226525Y-114617005D01*
X155586592Y-114419871D01*
X155990019Y-114158443D01*
X156448437Y-113824038D01*
X156973480Y-113407972D01*
X157576779Y-112901563D01*
X158269968Y-112296127D01*
X159064678Y-111582979D01*
X159493070Y-111193049D01*
X160036738Y-110707070D01*
X160526069Y-110290988D01*
X160942995Y-109959439D01*
X161269446Y-109727059D01*
X161398070Y-109649935D01*
X161618318Y-109534210D01*
X161750545Y-109474826D01*
X161787636Y-109479984D01*
X161722475Y-109557885D01*
X161547947Y-109716732D01*
X161256936Y-109964726D01*
X160842327Y-110310069D01*
X160782000Y-110360040D01*
X160427041Y-110662038D01*
X159989479Y-111046793D01*
X159508352Y-111479258D01*
X159022696Y-111924385D01*
X158623000Y-112298336D01*
X158075759Y-112813406D01*
X157629004Y-113226026D01*
X157262873Y-113552868D01*
X156957502Y-113810603D01*
X156693028Y-114015902D01*
X156449588Y-114185436D01*
X156207319Y-114335876D01*
X156167667Y-114359096D01*
X155334047Y-114771362D01*
X154499114Y-115030977D01*
X153621108Y-115149723D01*
X153329221Y-115159831D01*
X153066832Y-115161003D01*
X152858668Y-115148859D01*
X152667961Y-115111629D01*
X152457947Y-115037542D01*
X152191859Y-114914829D01*
X151832931Y-114731719D01*
X151581035Y-114600167D01*
X151075234Y-114326191D01*
X150680792Y-114086876D01*
X150352919Y-113851373D01*
X150046826Y-113588833D01*
X149874999Y-113425132D01*
X149355348Y-112863022D01*
X148898192Y-112263779D01*
X148530297Y-111666725D01*
X148278429Y-111111182D01*
X148256839Y-111047847D01*
X148178130Y-110749606D01*
X148090823Y-110325516D01*
X148001332Y-109818392D01*
X147916074Y-109271052D01*
X147841464Y-108726312D01*
X147783918Y-108226989D01*
X147749852Y-107815899D01*
X147743334Y-107620868D01*
X147743334Y-107205756D01*
X148272500Y-107370863D01*
X148691350Y-107470675D01*
X149083602Y-107487533D01*
X149490232Y-107414865D01*
X149952218Y-107246097D01*
X150406703Y-107028513D01*
X151278732Y-106540924D01*
X152053257Y-106026217D01*
X152713058Y-105498212D01*
X153240916Y-104970730D01*
X153619614Y-104457593D01*
X153628612Y-104442358D01*
X153766929Y-104218342D01*
X153862011Y-104117965D01*
X153951356Y-104116020D01*
X153951356Y-102609024D01*
X153938957Y-102517875D01*
X153742369Y-101970459D01*
X153437720Y-101439433D01*
X153412730Y-101404056D01*
X153068014Y-100922666D01*
X154258007Y-100922666D01*
X154258007Y-99985619D01*
X154112657Y-99988585D01*
X153672293Y-99991333D01*
X152160580Y-99991333D01*
X151742852Y-99462166D01*
X151521040Y-99175698D01*
X151322527Y-98909762D01*
X151186304Y-98716728D01*
X151175491Y-98700166D01*
X151025858Y-98467333D01*
X154998632Y-98467333D01*
X154998632Y-97147722D01*
X154821457Y-96219561D01*
X154641044Y-95263877D01*
X154489841Y-94440037D01*
X154366584Y-93730795D01*
X154270009Y-93118909D01*
X154198852Y-92587132D01*
X154151848Y-92118222D01*
X154127733Y-91694933D01*
X154125244Y-91300021D01*
X154143115Y-90916242D01*
X154180083Y-90526351D01*
X154234883Y-90113104D01*
X154306252Y-89659257D01*
X154392925Y-89147565D01*
X154420953Y-88984666D01*
X154540221Y-88304396D01*
X154682322Y-87514144D01*
X154836950Y-86669990D01*
X154993796Y-85828010D01*
X155142552Y-85044281D01*
X155199098Y-84751333D01*
X155316782Y-84129831D01*
X155423158Y-83538576D01*
X155513673Y-83005261D01*
X155583776Y-82557579D01*
X155628913Y-82223224D01*
X155644432Y-82042000D01*
X155592121Y-81605608D01*
X155413223Y-81129863D01*
X155101044Y-80601808D01*
X154648894Y-80008488D01*
X154508563Y-79843072D01*
X154051000Y-79313567D01*
X154051000Y-79671773D01*
X154443821Y-80158386D01*
X154782965Y-80612477D01*
X155070372Y-81063352D01*
X155287785Y-81477797D01*
X155416946Y-81822599D01*
X155444284Y-81978500D01*
X155366057Y-82001301D01*
X155148656Y-82020472D01*
X154822228Y-82034395D01*
X154416921Y-82041451D01*
X154261263Y-82042000D01*
X153773110Y-82042000D01*
X153773110Y-82974212D01*
X154206152Y-82975031D01*
X154599857Y-82979593D01*
X154920441Y-82987996D01*
X155134117Y-83000341D01*
X155206385Y-83013940D01*
X155211105Y-83110050D01*
X155188887Y-83331829D01*
X155144284Y-83638563D01*
X155121192Y-83775940D01*
X154995391Y-84497333D01*
X153020362Y-84497333D01*
X152462382Y-84495316D01*
X151965499Y-84489658D01*
X151553183Y-84480944D01*
X151248903Y-84469759D01*
X151076126Y-84456690D01*
X151045334Y-84448018D01*
X151096629Y-84348401D01*
X151231616Y-84156796D01*
X151421948Y-83908183D01*
X151639278Y-83637541D01*
X151855258Y-83379851D01*
X152041540Y-83170092D01*
X152169777Y-83043244D01*
X152200337Y-83022775D01*
X152323283Y-83006372D01*
X152575818Y-82993215D01*
X152924158Y-82983403D01*
X153334517Y-82977036D01*
X153773110Y-82974212D01*
X153773110Y-82042000D01*
X153074525Y-82042000D01*
X153379480Y-81598674D01*
X153668971Y-81138312D01*
X153856339Y-80731978D01*
X153965958Y-80321128D01*
X153996798Y-80116053D01*
X154051000Y-79671773D01*
X154051000Y-79313567D01*
X153941121Y-79186411D01*
X154277283Y-78928047D01*
X154698160Y-78525704D01*
X155113030Y-77976967D01*
X155505583Y-77304464D01*
X155633435Y-77046666D01*
X155988295Y-76303466D01*
X156282368Y-75696190D01*
X156525441Y-75206835D01*
X156727297Y-74817398D01*
X156897722Y-74509876D01*
X157046503Y-74266267D01*
X157183423Y-74068568D01*
X157318268Y-73898776D01*
X157387957Y-73818735D01*
X157794089Y-73430381D01*
X158221612Y-73163348D01*
X158688818Y-73016093D01*
X159213998Y-72987076D01*
X159213998Y-72753754D01*
X158828192Y-72744779D01*
X158395926Y-72809792D01*
X158006136Y-72966354D01*
X157678167Y-73172872D01*
X157256211Y-73556684D01*
X156834464Y-74105498D01*
X156415984Y-74815007D01*
X156189975Y-75268666D01*
X155843542Y-75998690D01*
X155556330Y-76592725D01*
X155318321Y-77069312D01*
X155119497Y-77446992D01*
X154949840Y-77744306D01*
X154799332Y-77979796D01*
X154657954Y-78172003D01*
X154553996Y-78296505D01*
X154278057Y-78600721D01*
X154080517Y-78778847D01*
X153934410Y-78837357D01*
X153812769Y-78782722D01*
X153688630Y-78621412D01*
X153626700Y-78519045D01*
X153297544Y-78068528D01*
X152829763Y-77589144D01*
X152247222Y-77099689D01*
X151573782Y-76618961D01*
X150833308Y-76165756D01*
X150239144Y-75850673D01*
X149868003Y-75674520D01*
X149588649Y-75567157D01*
X149346047Y-75513011D01*
X149085165Y-75496507D01*
X148988062Y-75496641D01*
X148633253Y-75522711D01*
X148284146Y-75583553D01*
X148103167Y-75635760D01*
X147743334Y-75769155D01*
X147743334Y-75352309D01*
X147759988Y-74990396D01*
X147805630Y-74521374D01*
X147873773Y-73986277D01*
X147957935Y-73426138D01*
X148051631Y-72881993D01*
X148148377Y-72394873D01*
X148241688Y-72005814D01*
X148303232Y-71809111D01*
X148641071Y-71102572D01*
X149124090Y-70384360D01*
X149732859Y-69682523D01*
X149875866Y-69538855D01*
X150163831Y-69269534D01*
X150445153Y-69041219D01*
X150759895Y-68826667D01*
X151148122Y-68598633D01*
X151649898Y-68329871D01*
X151666204Y-68321374D01*
X152837408Y-67711371D01*
X152837408Y-67336615D01*
X152176133Y-67398526D01*
X151471009Y-67531133D01*
X150971742Y-67672913D01*
X150971742Y-68088998D01*
X151034441Y-68093875D01*
X150973897Y-68160973D01*
X150918334Y-68204338D01*
X150772773Y-68318327D01*
X150542482Y-68503830D01*
X150272964Y-68724138D01*
X150225414Y-68763322D01*
X149700550Y-69244287D01*
X149238001Y-69777726D01*
X148820954Y-70389706D01*
X148432595Y-71106295D01*
X148056112Y-71953561D01*
X147880572Y-72398859D01*
X147667684Y-72903435D01*
X147462321Y-73271781D01*
X147257142Y-73525302D01*
X146800028Y-73878352D01*
X146197671Y-74175589D01*
X145466667Y-74411024D01*
X144623609Y-74578669D01*
X144187334Y-74632963D01*
X143637000Y-74689293D01*
X144017317Y-74492146D01*
X144394890Y-74238218D01*
X144635477Y-73924310D01*
X144756920Y-73519295D01*
X144780602Y-73160645D01*
X144790122Y-72748411D01*
X144813876Y-72296565D01*
X144833617Y-72046889D01*
X144886030Y-71492112D01*
X146007254Y-70759490D01*
X146905862Y-70179267D01*
X147687802Y-69690293D01*
X148371764Y-69282064D01*
X148976432Y-68944078D01*
X149520495Y-68665834D01*
X150022640Y-68436828D01*
X150433433Y-68271923D01*
X150775004Y-68147846D01*
X150971742Y-68088998D01*
X150971742Y-67672913D01*
X150743487Y-67737733D01*
X149978011Y-68025086D01*
X149159024Y-68399951D01*
X148270971Y-68869089D01*
X147298294Y-69439260D01*
X146225437Y-70117223D01*
X145753667Y-70427471D01*
X144737667Y-71102243D01*
X144568334Y-70902131D01*
X144294977Y-70679244D01*
X143931599Y-70560331D01*
X143522060Y-70545879D01*
X143522060Y-70708384D01*
X143757699Y-70709484D01*
X143971108Y-70751626D01*
X144092034Y-70790313D01*
X144279268Y-70877054D01*
X144415612Y-71004064D01*
X144508800Y-71196643D01*
X144566566Y-71480089D01*
X144596645Y-71879703D01*
X144606771Y-72420784D01*
X144606960Y-72474666D01*
X144605213Y-72953337D01*
X144594397Y-73296343D01*
X144570651Y-73537273D01*
X144530115Y-73709716D01*
X144468927Y-73847261D01*
X144444338Y-73889418D01*
X144164378Y-74187786D01*
X143732270Y-74416082D01*
X143150606Y-74573011D01*
X143038962Y-74592191D01*
X142711368Y-74636800D01*
X142479407Y-74639297D01*
X142273289Y-74593754D01*
X142056760Y-74508756D01*
X141710401Y-74390443D01*
X141248535Y-74285981D01*
X140660180Y-74193894D01*
X139934353Y-74112708D01*
X139060073Y-74040946D01*
X138148979Y-73983853D01*
X137117667Y-73926523D01*
X137117667Y-74099701D01*
X137752667Y-74137268D01*
X138778994Y-74203773D01*
X139649240Y-74273288D01*
X140376651Y-74347604D01*
X140974477Y-74428513D01*
X141455963Y-74517807D01*
X141834358Y-74617275D01*
X142121371Y-74727980D01*
X142342254Y-74804606D01*
X142598601Y-74824674D01*
X142936242Y-74796091D01*
X143297323Y-74762412D01*
X143659608Y-74746553D01*
X143855727Y-74748599D01*
X144093409Y-74749040D01*
X144450614Y-74736149D01*
X144878254Y-74712212D01*
X145310947Y-74680843D01*
X146007316Y-74604680D01*
X146552806Y-74499574D01*
X146964067Y-74361234D01*
X147257751Y-74185366D01*
X147269026Y-74176032D01*
X147369244Y-74101627D01*
X147405628Y-74127643D01*
X147393325Y-74282093D01*
X147379127Y-74379666D01*
X147343679Y-74623886D01*
X147294580Y-74970950D01*
X147240997Y-75355912D01*
X147227207Y-75456052D01*
X147164083Y-75849128D01*
X147095484Y-76112983D01*
X147008487Y-76287565D01*
X146928593Y-76379110D01*
X146731308Y-76564450D01*
X146411821Y-76344065D01*
X145858009Y-76023930D01*
X145179626Y-75734003D01*
X144476075Y-75508345D01*
X144212385Y-75442243D01*
X143949934Y-75393039D01*
X143656014Y-75357965D01*
X143297917Y-75334252D01*
X142842933Y-75319133D01*
X142258356Y-75309839D01*
X142113000Y-75308339D01*
X141523892Y-75301200D01*
X141075431Y-75290854D01*
X140738932Y-75274541D01*
X140485712Y-75249502D01*
X140287083Y-75212978D01*
X140114363Y-75162210D01*
X139954000Y-75100683D01*
X139701018Y-75002472D01*
X139332153Y-74866621D01*
X138892089Y-74709266D01*
X138425511Y-74546540D01*
X138303000Y-74504533D01*
X137117667Y-74099701D01*
X137117667Y-73926523D01*
X136288974Y-73880455D01*
X136138028Y-73537394D01*
X135991796Y-73188316D01*
X135924676Y-72956741D01*
X135940636Y-72808424D01*
X136043646Y-72709119D01*
X136237675Y-72624582D01*
X136244092Y-72622228D01*
X136579066Y-72502111D01*
X136786844Y-72440955D01*
X136898809Y-72438336D01*
X136946343Y-72493828D01*
X136960829Y-72607009D01*
X136961153Y-72612536D01*
X136970394Y-72738465D01*
X136992710Y-72838740D01*
X137044239Y-72913958D01*
X137141121Y-72964719D01*
X137299493Y-72991618D01*
X137535495Y-72995255D01*
X137865264Y-72976226D01*
X138304941Y-72935129D01*
X138870662Y-72872563D01*
X139578567Y-72789124D01*
X140086650Y-72728287D01*
X140772934Y-72645531D01*
X141411550Y-72567545D01*
X141981513Y-72496966D01*
X142461840Y-72436432D01*
X142831548Y-72388581D01*
X143069651Y-72356050D01*
X143148877Y-72343371D01*
X143318324Y-72230706D01*
X143403498Y-72017864D01*
X143387843Y-71759873D01*
X143353228Y-71664089D01*
X143259632Y-71528707D01*
X143104944Y-71467649D01*
X142931445Y-71456192D01*
X142931445Y-71629296D01*
X143125692Y-71685896D01*
X143240113Y-71822342D01*
X143250063Y-71984706D01*
X143150167Y-72107899D01*
X143040387Y-72135408D01*
X142786695Y-72178458D01*
X142413112Y-72234096D01*
X141943658Y-72299367D01*
X141402352Y-72371317D01*
X140813214Y-72446991D01*
X140200266Y-72523436D01*
X139587525Y-72597696D01*
X138999014Y-72666817D01*
X138458751Y-72727846D01*
X137990756Y-72777827D01*
X137619051Y-72813806D01*
X137367653Y-72832830D01*
X137261253Y-72832211D01*
X137186004Y-72726024D01*
X137176587Y-72569684D01*
X137244900Y-72389775D01*
X137414000Y-72322819D01*
X137549278Y-72317420D01*
X137534055Y-72359131D01*
X137498667Y-72385023D01*
X137485810Y-72437189D01*
X137620854Y-72466723D01*
X137884105Y-72475177D01*
X138255868Y-72464105D01*
X138716448Y-72435063D01*
X139246149Y-72389603D01*
X139825276Y-72329281D01*
X140434135Y-72255649D01*
X141053030Y-72170263D01*
X141662266Y-72074677D01*
X141859000Y-72040956D01*
X142253376Y-71969435D01*
X142583193Y-71905179D01*
X142814713Y-71855073D01*
X142914197Y-71826004D01*
X142914882Y-71825444D01*
X142890385Y-71757087D01*
X142830215Y-71709359D01*
X142776147Y-71652398D01*
X142871415Y-71630657D01*
X142931445Y-71629296D01*
X142931445Y-71456192D01*
X142897982Y-71453982D01*
X142630952Y-71424957D01*
X142450196Y-71323444D01*
X142349536Y-71212228D01*
X142162738Y-70975158D01*
X142796442Y-70835912D01*
X143217278Y-70749976D01*
X143522060Y-70708384D01*
X143522060Y-70545879D01*
X143464133Y-70543834D01*
X142878515Y-70628198D01*
X142621000Y-70686641D01*
X142028334Y-70832132D01*
X141716185Y-70629690D01*
X141447080Y-70483585D01*
X141175388Y-70377718D01*
X141123519Y-70364151D01*
X140888023Y-70345010D01*
X140537352Y-70356381D01*
X140120014Y-70392314D01*
X139684514Y-70446855D01*
X139279362Y-70514056D01*
X138953063Y-70587964D01*
X138771912Y-70652655D01*
X138574361Y-70799142D01*
X138334506Y-71037363D01*
X138095795Y-71316642D01*
X137901679Y-71586307D01*
X137797684Y-71788876D01*
X137705964Y-71895052D01*
X137485747Y-72009941D01*
X137119810Y-72142021D01*
X137009016Y-72177026D01*
X136517182Y-72333621D01*
X136166692Y-72459082D01*
X135935408Y-72566396D01*
X135917587Y-72579959D01*
X135917587Y-73647276D01*
X135986776Y-73682427D01*
X136023922Y-73725337D01*
X136068453Y-73808984D01*
X136028365Y-73861419D01*
X135873747Y-73898591D01*
X135642702Y-73928617D01*
X135340503Y-73979551D01*
X135034327Y-74056242D01*
X134768761Y-74144263D01*
X134588392Y-74229186D01*
X134535334Y-74286924D01*
X134606100Y-74287694D01*
X134784877Y-74239926D01*
X134886819Y-74205810D01*
X135212254Y-74106401D01*
X135530629Y-74047981D01*
X135863759Y-74034370D01*
X136233457Y-74069385D01*
X136661539Y-74156846D01*
X137169818Y-74300571D01*
X137780109Y-74504379D01*
X138514226Y-74772089D01*
X138853334Y-74900165D01*
X140079397Y-75392755D01*
X141174205Y-75886896D01*
X142132130Y-76379078D01*
X142947547Y-76865791D01*
X143614831Y-77343527D01*
X144128356Y-77808774D01*
X144482495Y-78258023D01*
X144603258Y-78487543D01*
X144692406Y-78708093D01*
X144735398Y-78883040D01*
X144734865Y-79071073D01*
X144693436Y-79330881D01*
X144650567Y-79543099D01*
X144489145Y-80186246D01*
X144249538Y-80948373D01*
X143942279Y-81804228D01*
X143577901Y-82728559D01*
X143166936Y-83696113D01*
X142719917Y-84681639D01*
X142247377Y-85659884D01*
X141759847Y-86605596D01*
X141522748Y-87042112D01*
X141338473Y-87384014D01*
X141237736Y-87589504D01*
X141214203Y-87665687D01*
X141261540Y-87619666D01*
X141373411Y-87458545D01*
X141543483Y-87189427D01*
X141765421Y-86819418D01*
X141849129Y-86676097D01*
X142332831Y-85806612D01*
X142812301Y-84876923D01*
X143274393Y-83917045D01*
X143705964Y-82956994D01*
X144093867Y-82026786D01*
X144424957Y-81156438D01*
X144686091Y-80375964D01*
X144824599Y-79881782D01*
X144938971Y-79356085D01*
X144980368Y-78943400D01*
X144944043Y-78601759D01*
X144825253Y-78289197D01*
X144619254Y-77963747D01*
X144605657Y-77945127D01*
X144257695Y-77553733D01*
X143776787Y-77133843D01*
X143192008Y-76706182D01*
X142532435Y-76291476D01*
X141827143Y-75910450D01*
X141591685Y-75796743D01*
X141097000Y-75565000D01*
X141816667Y-75538721D01*
X142678719Y-75546799D01*
X143530593Y-75628859D01*
X144342259Y-75777751D01*
X145083690Y-75986319D01*
X145724856Y-76247412D01*
X146235730Y-76553877D01*
X146304808Y-76607811D01*
X146515667Y-76779404D01*
X146299766Y-77018868D01*
X146080630Y-77269863D01*
X145979832Y-77402426D01*
X145993927Y-77415778D01*
X146119469Y-77309143D01*
X146353014Y-77081743D01*
X146394188Y-77040171D01*
X146958892Y-76529015D01*
X147532603Y-76123808D01*
X148094271Y-75834976D01*
X148622850Y-75672948D01*
X149097290Y-75648148D01*
X149180403Y-75659957D01*
X149543988Y-75768118D01*
X150000867Y-75970128D01*
X150518984Y-76245988D01*
X151066285Y-76575695D01*
X151610717Y-76939250D01*
X152120226Y-77316652D01*
X152562757Y-77687899D01*
X152803133Y-77920426D01*
X153276587Y-78489179D01*
X153586545Y-79043343D01*
X153736606Y-79595757D01*
X153730371Y-80159262D01*
X153585344Y-80710204D01*
X153442377Y-81003659D01*
X153226805Y-81346774D01*
X152983983Y-81667719D01*
X152971510Y-81682398D01*
X152724904Y-81970921D01*
X152414620Y-82334289D01*
X152086799Y-82718454D01*
X151877849Y-82963468D01*
X151193267Y-83824999D01*
X150530218Y-84770594D01*
X150403634Y-84973293D01*
X150403634Y-85428666D01*
X152587150Y-85428666D01*
X153294287Y-85431825D01*
X153874884Y-85441053D01*
X154319150Y-85455978D01*
X154617292Y-85476226D01*
X154759518Y-85501426D01*
X154770667Y-85511761D01*
X154757165Y-85631708D01*
X154721669Y-85868432D01*
X154671698Y-86171967D01*
X154668766Y-86189095D01*
X154566866Y-86783333D01*
X152171100Y-86783333D01*
X151407470Y-86781114D01*
X150803048Y-86774190D01*
X150347762Y-86762158D01*
X150031543Y-86744616D01*
X149844319Y-86721162D01*
X149776019Y-86691393D01*
X149775334Y-86687627D01*
X149813383Y-86571665D01*
X149914116Y-86351386D01*
X150057408Y-86070178D01*
X150089484Y-86010294D01*
X150403634Y-85428666D01*
X150403634Y-84973293D01*
X149910269Y-85763322D01*
X149364016Y-86749953D01*
X149364016Y-87714666D01*
X154357709Y-87714666D01*
X154303543Y-88075873D01*
X154252742Y-88387859D01*
X154197714Y-88688921D01*
X154189080Y-88732040D01*
X154128783Y-89027000D01*
X151561564Y-89049422D01*
X148994346Y-89071844D01*
X149051546Y-88837755D01*
X149108413Y-88619507D01*
X149189555Y-88324330D01*
X149236381Y-88159166D01*
X149364016Y-87714666D01*
X149364016Y-86749953D01*
X149354992Y-86766252D01*
X148885954Y-87742454D01*
X148865167Y-87794966D01*
X148865167Y-90000666D01*
X153985550Y-90000666D01*
X153902636Y-90445166D01*
X153873411Y-90710078D01*
X153857254Y-91090348D01*
X153855466Y-91532410D01*
X153866666Y-91926833D01*
X153913611Y-92964000D01*
X148994346Y-92964000D01*
X148994346Y-93892822D01*
X151565006Y-93915244D01*
X154135667Y-93937666D01*
X154232272Y-94445666D01*
X154285762Y-94742738D01*
X154324620Y-94987946D01*
X154338105Y-95101833D01*
X154331022Y-95144406D01*
X154292011Y-95177974D01*
X154203286Y-95203599D01*
X154047066Y-95222341D01*
X153805567Y-95235263D01*
X153461006Y-95243426D01*
X152995599Y-95247891D01*
X152391563Y-95249720D01*
X151855675Y-95250000D01*
X150863838Y-95250000D01*
X150863838Y-96195431D01*
X151435141Y-96195828D01*
X152160230Y-96201133D01*
X152165377Y-96201181D01*
X154555420Y-96223666D01*
X154653542Y-96689333D01*
X154710631Y-96986101D01*
X154750492Y-97241477D01*
X154761166Y-97346929D01*
X154770667Y-97538858D01*
X152592709Y-97516262D01*
X150414752Y-97493666D01*
X150095043Y-96943710D01*
X149940076Y-96663575D01*
X149826485Y-96432378D01*
X149776102Y-96295017D01*
X149775334Y-96286225D01*
X149808611Y-96253870D01*
X149918707Y-96229160D01*
X150121015Y-96211549D01*
X150430927Y-96200489D01*
X150863838Y-96195431D01*
X150863838Y-95250000D01*
X149364016Y-95250000D01*
X149236381Y-94805500D01*
X149151824Y-94504536D01*
X149078639Y-94233126D01*
X149051546Y-94126911D01*
X148994346Y-93892822D01*
X148994346Y-92964000D01*
X148866156Y-92964000D01*
X148813677Y-92646500D01*
X148787742Y-92391189D01*
X148770694Y-92025111D01*
X148762562Y-91596859D01*
X148763374Y-91155024D01*
X148773161Y-90748200D01*
X148791952Y-90424978D01*
X148812250Y-90265249D01*
X148865167Y-90000666D01*
X148865167Y-87794966D01*
X148524726Y-88654997D01*
X148484834Y-88773000D01*
X148269543Y-89471508D01*
X148123637Y-90072646D01*
X148038996Y-90629599D01*
X148007502Y-91195550D01*
X148020567Y-91814118D01*
X148122067Y-92726316D01*
X148342505Y-93676323D01*
X148686644Y-94677181D01*
X149159251Y-95741931D01*
X149765091Y-96883615D01*
X150053317Y-97377330D01*
X150544328Y-98176072D01*
X150997347Y-98860802D01*
X151442188Y-99472675D01*
X151908661Y-100052844D01*
X152386961Y-100598846D01*
X152869682Y-101154664D01*
X153232501Y-101631308D01*
X153488857Y-102053979D01*
X153652189Y-102447877D01*
X153735938Y-102838202D01*
X153754667Y-103163455D01*
X153671992Y-103701094D01*
X153428355Y-104254095D01*
X153030340Y-104813272D01*
X152484529Y-105369437D01*
X151797504Y-105913404D01*
X151770445Y-105932487D01*
X151229022Y-106295350D01*
X150688614Y-106625834D01*
X150180306Y-106906991D01*
X149735180Y-107121877D01*
X149384321Y-107253546D01*
X149313794Y-107271741D01*
X148776830Y-107312293D01*
X148217208Y-107196340D01*
X147630525Y-106921852D01*
X147012379Y-106486796D01*
X146735957Y-106235563D01*
X146735957Y-106396994D01*
X146922145Y-106581685D01*
X147022094Y-106720497D01*
X147105490Y-106937196D01*
X147182327Y-107264155D01*
X147246829Y-107633355D01*
X147306316Y-108019253D01*
X147355085Y-108360931D01*
X147386706Y-108611939D01*
X147394996Y-108703955D01*
X147390736Y-108844627D01*
X147330200Y-108836442D01*
X147252297Y-108769684D01*
X147077558Y-108655516D01*
X146825270Y-108537133D01*
X146738274Y-108504193D01*
X146500145Y-108445937D01*
X146133431Y-108386881D01*
X145678815Y-108330947D01*
X145176979Y-108282054D01*
X144668606Y-108244125D01*
X144194378Y-108221081D01*
X143794979Y-108216842D01*
X143764000Y-108217519D01*
X143637000Y-108215517D01*
X143637000Y-108275373D01*
X144187334Y-108331703D01*
X145067743Y-108463081D01*
X145848021Y-108663682D01*
X146510362Y-108927108D01*
X147036961Y-109246960D01*
X147250278Y-109432499D01*
X147402052Y-109613360D01*
X147555661Y-109862892D01*
X147725013Y-110207997D01*
X147924019Y-110675580D01*
X148029640Y-110939942D01*
X148412797Y-111829039D01*
X148813021Y-112578581D01*
X149250968Y-113218309D01*
X149747294Y-113777962D01*
X150322654Y-114287281D01*
X150392713Y-114342333D01*
X150641541Y-114539898D01*
X150825883Y-114694305D01*
X150915443Y-114779880D01*
X150919166Y-114788499D01*
X150838673Y-114768132D01*
X150638050Y-114694520D01*
X150352833Y-114581065D01*
X150184921Y-114511622D01*
X149445085Y-114171074D01*
X148605570Y-113726422D01*
X147659416Y-113173731D01*
X146599664Y-112509062D01*
X146293085Y-112309849D01*
X145865998Y-112030278D01*
X145490609Y-111784217D01*
X145188713Y-111585978D01*
X144982102Y-111449873D01*
X144892571Y-111390215D01*
X144890659Y-111388813D01*
X144879347Y-111304008D01*
X144859850Y-111081786D01*
X144834695Y-110753725D01*
X144806407Y-110351404D01*
X144799801Y-110252852D01*
X144757521Y-109719517D01*
X144703029Y-109324686D01*
X144622703Y-109037536D01*
X144502923Y-108827243D01*
X144330067Y-108662985D01*
X144090514Y-108513938D01*
X144013044Y-108472520D01*
X143637000Y-108275373D01*
X143637000Y-108215517D01*
X143389734Y-108211618D01*
X142992253Y-108182956D01*
X142851053Y-108165984D01*
X142551688Y-108144774D01*
X142551688Y-108331711D01*
X142838430Y-108352119D01*
X143026385Y-108376791D01*
X143616293Y-108509613D01*
X144070161Y-108719346D01*
X144379804Y-109001664D01*
X144462369Y-109135787D01*
X144531991Y-109369561D01*
X144581848Y-109723945D01*
X144611547Y-110154468D01*
X144620696Y-110616659D01*
X144608901Y-111066046D01*
X144575771Y-111458159D01*
X144520912Y-111748527D01*
X144486239Y-111839691D01*
X144286772Y-112059984D01*
X143979536Y-112212189D01*
X143626772Y-112268000D01*
X143449688Y-112250174D01*
X143165820Y-112203183D01*
X142833191Y-112136757D01*
X142796442Y-112128753D01*
X142162738Y-111989507D01*
X142349536Y-111752438D01*
X142518696Y-111588853D01*
X142727830Y-111520545D01*
X142893188Y-111510684D01*
X143159441Y-111480591D01*
X143307798Y-111387826D01*
X143337688Y-111342232D01*
X143421038Y-111060691D01*
X143356296Y-110828073D01*
X143234834Y-110714757D01*
X143098291Y-110672621D01*
X142807397Y-110615256D01*
X142376243Y-110544790D01*
X141818919Y-110463354D01*
X141149514Y-110373077D01*
X140382120Y-110276089D01*
X140128291Y-110245205D01*
X139319920Y-110147980D01*
X138663669Y-110071318D01*
X138143510Y-110015760D01*
X137743419Y-109981848D01*
X137447367Y-109970122D01*
X137312333Y-109977262D01*
X137312333Y-110124763D01*
X137414000Y-110125684D01*
X137700650Y-110152100D01*
X138101552Y-110194414D01*
X138592276Y-110249575D01*
X139148389Y-110314529D01*
X139745460Y-110386225D01*
X140359058Y-110461611D01*
X140964750Y-110537634D01*
X141538106Y-110611242D01*
X142054693Y-110679383D01*
X142490080Y-110739006D01*
X142819836Y-110787057D01*
X143019528Y-110820485D01*
X143065500Y-110831705D01*
X143221833Y-110929158D01*
X143245186Y-111071807D01*
X143204608Y-111202741D01*
X143089606Y-111304970D01*
X142940241Y-111336666D01*
X142797428Y-111319528D01*
X142798793Y-111253141D01*
X142822550Y-111221856D01*
X142835608Y-111169592D01*
X142767380Y-111120739D01*
X142596465Y-111068880D01*
X142301462Y-111007595D01*
X141860969Y-110930469D01*
X141838084Y-110926640D01*
X141176392Y-110822233D01*
X140515551Y-110729203D01*
X139874308Y-110649082D01*
X139271410Y-110583406D01*
X138725602Y-110533710D01*
X138255633Y-110501527D01*
X137880250Y-110488392D01*
X137618198Y-110495840D01*
X137488225Y-110525405D01*
X137498667Y-110571446D01*
X137563674Y-110637409D01*
X137486517Y-110649030D01*
X137414000Y-110641847D01*
X137260488Y-110591274D01*
X137205899Y-110453540D01*
X137202334Y-110363000D01*
X137222647Y-110184411D01*
X137312333Y-110124763D01*
X137312333Y-109977262D01*
X137239331Y-109981123D01*
X137103282Y-110015393D01*
X137023195Y-110073472D01*
X136983044Y-110155902D01*
X136966802Y-110263223D01*
X136961153Y-110352129D01*
X136947167Y-110467905D01*
X136901023Y-110525519D01*
X136791181Y-110524659D01*
X136586102Y-110465012D01*
X136254249Y-110346264D01*
X136250996Y-110345075D01*
X136056948Y-110260437D01*
X135953259Y-110159792D01*
X135935962Y-110009079D01*
X136001091Y-109774241D01*
X136143681Y-109423546D01*
X136292269Y-109076760D01*
X137593968Y-109018872D01*
X138736733Y-108956752D01*
X139733693Y-108878778D01*
X140580238Y-108785553D01*
X141271758Y-108677680D01*
X141803643Y-108555762D01*
X142170654Y-108420714D01*
X142347518Y-108353631D01*
X142551688Y-108331711D01*
X142551688Y-108144774D01*
X142504278Y-108141415D01*
X142236708Y-108189356D01*
X142120848Y-108236934D01*
X141773124Y-108364322D01*
X141291120Y-108478648D01*
X140667971Y-108580851D01*
X139896807Y-108671872D01*
X138970762Y-108752651D01*
X137882968Y-108824128D01*
X137795000Y-108829122D01*
X137117667Y-108867188D01*
X138514667Y-108377614D01*
X138990498Y-108209839D01*
X139427384Y-108053903D01*
X139793116Y-107921449D01*
X140055484Y-107824117D01*
X140165667Y-107780910D01*
X140365613Y-107735004D01*
X140724805Y-107699510D01*
X141246280Y-107674232D01*
X141933075Y-107658979D01*
X142113000Y-107656886D01*
X142729963Y-107648261D01*
X143210322Y-107634428D01*
X143586789Y-107612609D01*
X143892077Y-107580029D01*
X144158897Y-107533911D01*
X144419962Y-107471478D01*
X144476075Y-107456321D01*
X145235922Y-107209625D01*
X145910774Y-106914227D01*
X146414145Y-106618990D01*
X146735957Y-106396994D01*
X146735957Y-106235563D01*
X146392241Y-105923168D01*
X146123445Y-105659314D01*
X145968070Y-105517785D01*
X145927242Y-105498299D01*
X146002087Y-105600577D01*
X146193731Y-105824337D01*
X146301560Y-105945797D01*
X146515667Y-106185262D01*
X146304808Y-106356854D01*
X145815689Y-106671882D01*
X145191826Y-106942161D01*
X144463619Y-107160366D01*
X143661469Y-107319176D01*
X142815776Y-107411266D01*
X141956943Y-107429314D01*
X141864367Y-107426514D01*
X141107734Y-107399666D01*
X141822034Y-107045663D01*
X142748878Y-106546006D01*
X143520225Y-106043537D01*
X144133003Y-105540925D01*
X144584139Y-105040835D01*
X144870561Y-104545935D01*
X144941734Y-104337555D01*
X144981524Y-104039155D01*
X144956286Y-103660577D01*
X144862589Y-103183928D01*
X144697002Y-102591319D01*
X144481812Y-101938666D01*
X144162466Y-101083893D01*
X143769346Y-100137242D01*
X143324683Y-99146326D01*
X142850709Y-98158754D01*
X142369655Y-97222136D01*
X141903754Y-96384083D01*
X141828128Y-96255635D01*
X141614107Y-95902620D01*
X141439816Y-95628190D01*
X141314024Y-95443432D01*
X141245496Y-95359437D01*
X141242999Y-95387295D01*
X141315301Y-95538095D01*
X141434727Y-95758000D01*
X141903385Y-96630868D01*
X142372363Y-97566462D01*
X142829942Y-98537135D01*
X143264401Y-99515240D01*
X143664020Y-100473130D01*
X144017079Y-101383158D01*
X144311858Y-102217677D01*
X144536636Y-102949041D01*
X144620346Y-103272583D01*
X144701599Y-103641488D01*
X144737603Y-103901254D01*
X144731467Y-104105020D01*
X144686300Y-104305930D01*
X144681711Y-104321414D01*
X144516167Y-104662891D01*
X144222406Y-105048471D01*
X143825782Y-105450922D01*
X143351652Y-105843010D01*
X143094906Y-106025673D01*
X142539936Y-106366812D01*
X141846495Y-106738660D01*
X141040149Y-107129918D01*
X140146468Y-107529288D01*
X139191019Y-107925471D01*
X138199371Y-108307168D01*
X137197091Y-108663082D01*
X136906000Y-108760551D01*
X136321487Y-108885657D01*
X135693250Y-108905602D01*
X135090943Y-108821435D01*
X134789334Y-108728598D01*
X134548923Y-108643367D01*
X134452140Y-108628340D01*
X134491529Y-108675203D01*
X134723735Y-108799056D01*
X135054589Y-108916373D01*
X135413978Y-109006695D01*
X135731790Y-109049567D01*
X135778367Y-109050666D01*
X135981893Y-109079831D01*
X136062939Y-109152607D01*
X135999023Y-109246913D01*
X135986469Y-109255039D01*
X135882687Y-109246719D01*
X135652203Y-109191397D01*
X135328141Y-109098023D01*
X134943620Y-108975547D01*
X134906969Y-108963333D01*
X133900334Y-108626593D01*
X133900334Y-74253406D01*
X134908343Y-73916207D01*
X135328284Y-73777661D01*
X135617219Y-73689952D01*
X135804027Y-73648137D01*
X135917587Y-73647276D01*
X135917587Y-72579959D01*
X135801190Y-72668549D01*
X135741898Y-72778527D01*
X135735393Y-72909317D01*
X135736719Y-72923323D01*
X135742733Y-73033915D01*
X135716654Y-73118274D01*
X135632277Y-73193399D01*
X135463396Y-73276292D01*
X135183804Y-73383951D01*
X134831667Y-73510434D01*
X134394571Y-73659763D01*
X134089464Y-73747138D01*
X133892947Y-73777902D01*
X133781623Y-73757398D01*
X133773334Y-73752071D01*
X133284439Y-73474387D01*
X132802591Y-73332457D01*
X132672667Y-73319229D01*
X132208615Y-73302571D01*
X131873578Y-73315913D01*
X131628808Y-73366245D01*
X131435557Y-73460553D01*
X131297887Y-73567181D01*
X131158437Y-73679107D01*
X131017604Y-73754280D01*
X130834434Y-73803238D01*
X130810000Y-73806290D01*
X130810000Y-74236371D01*
X130810000Y-108627333D01*
X130534834Y-108626459D01*
X130098603Y-108609962D01*
X129546200Y-108566586D01*
X128927615Y-108502059D01*
X128292838Y-108422112D01*
X127691860Y-108332473D01*
X127203069Y-108244623D01*
X125734374Y-107869194D01*
X124357925Y-107353136D01*
X123075937Y-106699234D01*
X121890621Y-105910274D01*
X120804193Y-104989041D01*
X119818864Y-103938321D01*
X118936849Y-102760900D01*
X118160362Y-101459562D01*
X117491614Y-100037094D01*
X116932820Y-98496280D01*
X116486194Y-96839907D01*
X116153948Y-95070760D01*
X116036894Y-94192185D01*
X115981649Y-93575430D01*
X115942129Y-92837636D01*
X115918705Y-92026403D01*
X115911751Y-91189328D01*
X115921638Y-90374010D01*
X115948740Y-89628046D01*
X115993429Y-88999035D01*
X115996036Y-88972470D01*
X116231420Y-87248718D01*
X116584132Y-85599681D01*
X117049563Y-84034478D01*
X117623103Y-82562229D01*
X118300142Y-81192054D01*
X119076073Y-79933073D01*
X119946284Y-78794405D01*
X120906167Y-77785169D01*
X121951113Y-76914486D01*
X122169615Y-76757980D01*
X123296089Y-76052619D01*
X124481628Y-75471054D01*
X125742395Y-75008131D01*
X127094554Y-74658696D01*
X128554269Y-74417597D01*
X129899834Y-74293480D01*
X130810000Y-74236371D01*
X130810000Y-73806290D01*
X130567971Y-73836523D01*
X130177264Y-73864673D01*
X130130774Y-73867550D01*
X128779343Y-73980793D01*
X127559839Y-74149786D01*
X126441996Y-74381629D01*
X125395549Y-74683418D01*
X124390231Y-75062251D01*
X123695653Y-75376651D01*
X122436282Y-76077473D01*
X121273710Y-76915816D01*
X120209537Y-77889167D01*
X119245359Y-78995010D01*
X118382775Y-80230830D01*
X117623383Y-81594111D01*
X116968780Y-83082340D01*
X116420565Y-84693001D01*
X115980335Y-86423579D01*
X115695074Y-87968666D01*
X115634434Y-88467645D01*
X115583816Y-89097031D01*
X115544130Y-89818146D01*
X115516285Y-90592309D01*
X115501190Y-91380840D01*
X115499753Y-92145059D01*
X115512885Y-92846287D01*
X115512885Y-92846287D01*
G37*
X115512885Y-92846287D02*
X115541493Y-93445843D01*
X115560751Y-93683666D01*
X115799001Y-95505565D01*
X116154530Y-97237479D01*
X116624315Y-98872119D01*
X117205333Y-100402193D01*
X117894562Y-101820413D01*
X118688980Y-103119488D01*
X119585565Y-104292129D01*
X120262674Y-105024200D01*
X121108759Y-105813128D01*
X121946058Y-106473342D01*
X122818846Y-107036933D01*
X123643652Y-107474680D01*
X124789910Y-107974874D01*
X125961379Y-108368433D01*
X127191602Y-108663755D01*
X128514123Y-108869238D01*
X129624667Y-108972091D01*
X130145343Y-109009539D01*
X130525101Y-109042485D01*
X130792074Y-109076242D01*
X130974391Y-109116124D01*
X131100185Y-109167443D01*
X131197587Y-109235515D01*
X131245173Y-109278188D01*
X131587217Y-109490508D01*
X132023609Y-109598884D01*
X132514711Y-109602916D01*
X133020883Y-109502206D01*
X133494466Y-109300876D01*
X133935266Y-109053395D01*
X135763000Y-109708373D01*
X135763000Y-110363000D01*
X136757336Y-110696910D01*
X137239459Y-110868201D01*
X137567163Y-111007351D01*
X137751234Y-111119390D01*
X137800004Y-111183100D01*
X137908600Y-111390825D01*
X138103153Y-111657771D01*
X138340449Y-111933669D01*
X138577273Y-112168246D01*
X138769279Y-112310650D01*
X138998194Y-112390492D01*
X139346499Y-112467936D01*
X139764296Y-112536578D01*
X140201689Y-112590015D01*
X140608782Y-112621842D01*
X140935677Y-112625656D01*
X141089294Y-112608404D01*
X141357482Y-112517879D01*
X141645023Y-112378867D01*
X141697221Y-112347997D01*
X141856578Y-112254132D01*
X141988620Y-112204713D01*
X142141894Y-112197215D01*
X142364946Y-112229112D01*
X142697178Y-112295985D01*
X143315378Y-112398759D01*
X143800839Y-112419399D01*
X144170236Y-112355455D01*
X144440244Y-112204477D01*
X144597471Y-112016816D01*
X144737667Y-111787755D01*
X146007667Y-112622502D01*
X146997824Y-113258702D01*
X147883854Y-113795053D01*
X148688858Y-114243453D01*
X149435933Y-114615802D01*
X150148176Y-114923998D01*
X150848687Y-115179942D01*
X151172334Y-115283098D01*
X151502981Y-115378330D01*
X151792282Y-115443983D01*
X152086877Y-115485645D01*
X152433404Y-115508908D01*
X152878506Y-115519361D01*
X153162000Y-115521578D01*
X153796374Y-115514763D01*
X154309624Y-115480574D01*
X154749071Y-115408966D01*
X155162034Y-115289895D01*
X155595835Y-115113318D01*
X155998334Y-114919553D01*
X156339406Y-114738332D01*
X156660134Y-114543409D01*
X156984092Y-114316259D01*
X157334857Y-114038359D01*
X157736006Y-113691185D01*
X158211113Y-113256212D01*
X158687636Y-112806550D01*
X159795153Y-111785332D01*
X161025209Y-110712004D01*
X162349273Y-109610942D01*
X163533667Y-108666483D01*
X164324484Y-108026073D01*
X164973179Y-107453661D01*
X165477465Y-106951501D01*
X165835055Y-106521848D01*
X166024260Y-106210469D01*
X166225780Y-105653555D01*
X166376937Y-104968758D01*
X166476781Y-104190159D01*
X166524358Y-103351839D01*
X166518718Y-102487877D01*
X166458908Y-101632356D01*
X166343977Y-100819356D01*
X166193374Y-100154884D01*
X165950948Y-99417320D01*
X165657668Y-98801581D01*
X165288082Y-98262076D01*
X164895671Y-97830116D01*
X164607187Y-97560156D01*
X164329712Y-97327796D01*
X164104806Y-97166689D01*
X164020285Y-97121345D01*
X163836456Y-97014542D01*
X163746998Y-96902375D01*
X163745334Y-96888614D01*
X163781605Y-96759761D01*
X163877545Y-96527221D01*
X164013844Y-96237094D01*
X164041333Y-96181995D01*
X164412635Y-95341249D01*
X164689125Y-94469489D01*
X164877247Y-93535310D01*
X164983446Y-92507310D01*
X165014335Y-91440000D01*
X164984038Y-90361725D01*
X164887870Y-89403694D01*
X164717913Y-88527042D01*
X164466250Y-87692908D01*
X164124965Y-86862426D01*
X164048959Y-86701055D01*
X163908588Y-86398646D01*
X163802606Y-86151389D01*
X163748704Y-86001226D01*
X163745334Y-85981243D01*
X163814065Y-85895123D01*
X163989870Y-85770278D01*
X164128911Y-85690555D01*
X164506066Y-85431949D01*
X164905328Y-85060108D01*
X165286957Y-84619433D01*
X165611210Y-84154323D01*
X165777994Y-83848141D01*
X166043854Y-83215675D01*
X166241562Y-82572080D01*
X166378883Y-81878496D01*
X166463582Y-81096064D01*
X166502674Y-80221666D01*
X166508494Y-79411690D01*
X166486545Y-78744510D01*
X166435808Y-78195717D01*
X166411142Y-78027589D01*
X166237411Y-77271244D01*
X165972933Y-76629607D01*
X165599125Y-76064198D01*
X165303598Y-75734333D01*
X165103149Y-75545901D01*
X164792662Y-75272428D01*
X164395292Y-74933438D01*
X163934193Y-74548455D01*
X163432520Y-74137003D01*
X162913426Y-73718606D01*
X162906783Y-73713301D01*
X162128315Y-73088114D01*
X161455981Y-72539082D01*
X160860437Y-72040767D01*
X160312344Y-71567733D01*
X159782360Y-71094544D01*
X159241143Y-70595762D01*
X158659353Y-70045951D01*
X158492950Y-69886836D01*
X157928740Y-69357558D01*
X157447329Y-68934253D01*
X157020027Y-68595442D01*
X156618141Y-68319646D01*
X156212981Y-68085388D01*
X155839722Y-67900619D01*
X155067663Y-67591447D01*
X154318796Y-67403756D01*
X153532607Y-67325967D01*
X152874416Y-67333151D01*
X152837408Y-67336615D01*
X152837408Y-67711371D01*
X153655871Y-67756067D01*
X154341683Y-67829404D01*
X154982976Y-67979219D01*
X155602237Y-68217449D01*
X156221953Y-68556034D01*
X156864614Y-69006910D01*
X157552707Y-69582015D01*
X158157334Y-70145689D01*
X159018713Y-70960272D01*
X159906851Y-71765623D01*
X160774753Y-72519901D01*
X161486281Y-73109666D01*
X161780317Y-73349056D01*
X162018369Y-73547192D01*
X162173853Y-73681655D01*
X162221271Y-73729424D01*
X162152427Y-73704717D01*
X161968100Y-73615764D01*
X161701684Y-73478995D01*
X161558565Y-73403378D01*
X161244962Y-73217644D01*
X160895870Y-72972146D01*
X160490059Y-72650208D01*
X160006298Y-72235151D01*
X159547732Y-71823791D01*
X158784549Y-71136484D01*
X158065788Y-70502998D01*
X157404446Y-69934200D01*
X156813524Y-69440956D01*
X156306020Y-69034130D01*
X155894933Y-68724589D01*
X155613817Y-68535530D01*
X155081949Y-68278124D01*
X154492534Y-68103498D01*
X153881354Y-68012940D01*
X153284194Y-68007736D01*
X152736836Y-68089173D01*
X152275065Y-68258537D01*
X152048582Y-68407321D01*
X151939560Y-68501024D01*
X151928414Y-68535279D01*
X152036842Y-68513591D01*
X152273000Y-68443564D01*
X152590968Y-68372279D01*
X152919133Y-68358232D01*
X153294825Y-68405620D01*
X153755375Y-68518640D01*
X154220334Y-68662515D01*
X154589782Y-68786825D01*
X154799356Y-68866560D01*
X154847934Y-68903303D01*
X154734393Y-68898635D01*
X154457612Y-68854135D01*
X154127846Y-68792824D01*
X153815432Y-68737946D01*
X153573657Y-68704681D01*
X153444793Y-68698573D01*
X153435125Y-68701986D01*
X153483722Y-68746186D01*
X153693471Y-68816287D01*
X154066094Y-68912757D01*
X154603309Y-69036064D01*
X154897667Y-69100100D01*
X155475186Y-69247614D01*
X155884482Y-69406125D01*
X156040667Y-69499924D01*
X156312660Y-69707775D01*
X156686095Y-70004176D01*
X157134152Y-70367117D01*
X157630015Y-70774588D01*
X158146864Y-71204582D01*
X158657882Y-71635087D01*
X159045615Y-71966048D01*
X160025757Y-72808476D01*
X159360240Y-72757155D01*
X159213998Y-72753754D01*
X159213998Y-72987076D01*
X159815441Y-73074753D01*
X160511440Y-73277583D01*
X161108319Y-73505096D01*
X161889799Y-73860228D01*
X162666274Y-74276226D01*
X163409641Y-74733835D01*
X164091794Y-75213797D01*
X164684627Y-75696855D01*
X165160035Y-76163753D01*
X165379975Y-76431868D01*
X165619290Y-76814346D01*
X165804117Y-77246248D01*
X165938563Y-77749663D01*
X166026732Y-78346676D01*
X166072731Y-79059374D01*
X166080665Y-79909846D01*
X166076552Y-80179333D01*
X166060185Y-80789921D01*
X166035713Y-81270035D01*
X165999306Y-81658482D01*
X165947133Y-81994067D01*
X165875362Y-82315595D01*
X165859622Y-82376666D01*
X165681359Y-82993069D01*
X165497319Y-83486955D01*
X165288320Y-83904613D01*
X165109025Y-84187883D01*
X164608125Y-84789490D01*
X164037625Y-85242378D01*
X163725048Y-85412610D01*
X163462947Y-85554485D01*
X163289543Y-85686228D01*
X163240225Y-85767333D01*
X163246483Y-85827377D01*
X163269994Y-85915594D01*
X163319274Y-86053241D01*
X163402840Y-86261574D01*
X163529208Y-86561849D01*
X163706894Y-86975322D01*
X163935964Y-87503790D01*
X164130232Y-87980748D01*
X164279890Y-88428406D01*
X164391216Y-88882307D01*
X164470486Y-89377992D01*
X164523974Y-89951003D01*
X164557958Y-90636881D01*
X164571227Y-91101333D01*
X164580707Y-91978205D01*
X164560348Y-92723582D01*
X164503595Y-93373690D01*
X164403898Y-93964759D01*
X164254704Y-94533017D01*
X164049460Y-95114691D01*
X163781614Y-95746010D01*
X163698122Y-95928792D01*
X163535948Y-96293561D01*
X163399015Y-96627312D01*
X163305613Y-96884077D01*
X163277058Y-96987125D01*
X163261010Y-97128099D01*
X163300324Y-97228583D01*
X163426613Y-97322424D01*
X163671489Y-97443470D01*
X163727363Y-97469270D01*
X164322322Y-97826789D01*
X164832602Y-98315398D01*
X165262071Y-98940850D01*
X165614592Y-99708902D01*
X165894034Y-100625306D01*
X165919914Y-100733016D01*
X165979566Y-101028658D01*
X166022248Y-101350730D01*
X166050187Y-101732678D01*
X166065608Y-102207947D01*
X166070740Y-102809983D01*
X166070653Y-102997000D01*
X166059374Y-103830176D01*
X166021586Y-104522050D01*
X165946229Y-105099947D01*
X165822248Y-105591191D01*
X165638583Y-106023107D01*
X165384177Y-106423021D01*
X165047972Y-106818257D01*
X164618911Y-107236139D01*
X164208219Y-107599219D01*
X163741282Y-107988705D01*
X163333466Y-108294596D01*
X162926908Y-108555723D01*
X162463742Y-108810915D01*
X162211627Y-108939058D01*
X161292452Y-109368969D01*
X160486606Y-109683012D01*
X159785687Y-109883025D01*
X159181293Y-109970848D01*
X158665023Y-109948321D01*
X158228476Y-109817283D01*
X158219651Y-109813170D01*
X157951534Y-109649189D01*
X157647986Y-109407483D01*
X157398967Y-109165523D01*
X157284890Y-109037072D01*
X157179360Y-108906177D01*
X157073360Y-108756180D01*
X156957873Y-108570419D01*
X156823879Y-108332233D01*
X156662363Y-108024963D01*
X156464306Y-107631947D01*
X156220691Y-107136525D01*
X155922499Y-106522037D01*
X155560714Y-105771822D01*
X155549564Y-105748666D01*
X155304847Y-105278427D01*
X155057591Y-104900349D01*
X154758369Y-104543882D01*
X154563658Y-104341454D01*
X153965027Y-103738575D01*
X154433890Y-103220832D01*
X154874251Y-102683962D01*
X155243839Y-102132846D01*
X155513494Y-101612899D01*
X155585759Y-101426974D01*
X155619897Y-101315842D01*
X155643038Y-101197491D01*
X155652994Y-101055705D01*
X155647579Y-100874266D01*
X155624604Y-100636957D01*
X155581883Y-100327561D01*
X155517226Y-99929862D01*
X155428448Y-99427641D01*
X155313360Y-98804682D01*
X155169775Y-98044767D01*
X155032345Y-97324333D01*
X154998632Y-97147722D01*
X154998632Y-98467333D01*
X155122025Y-99165833D01*
X155175172Y-99493284D01*
X155208933Y-99755219D01*
X155218051Y-99908415D01*
X155214712Y-99927833D01*
X155124299Y-99948239D01*
X154892116Y-99965922D01*
X154545716Y-99979749D01*
X154258007Y-99985619D01*
X154258007Y-100922666D01*
X154684908Y-100925301D01*
X155043946Y-100932538D01*
X155304887Y-100943377D01*
X155437497Y-100956817D01*
X155448000Y-100962041D01*
X155423031Y-101058190D01*
X155359281Y-101260203D01*
X155311132Y-101404551D01*
X155145146Y-101774696D01*
X154884704Y-102213176D01*
X154559705Y-102673392D01*
X154264402Y-103036135D01*
X154008667Y-103329270D01*
X154008667Y-103030335D01*
X153951356Y-102609024D01*
X153951356Y-104116020D01*
X154039982Y-104165831D01*
X154267591Y-104363552D01*
X154539385Y-104674980D01*
X154826577Y-105061019D01*
X155100380Y-105482572D01*
X155332008Y-105900543D01*
X155361249Y-105960333D01*
X155538003Y-106330935D01*
X155754159Y-106786994D01*
X155977539Y-107260506D01*
X156113639Y-107550287D01*
X156521613Y-108350903D01*
X156920326Y-108989587D01*
X157314493Y-109473159D01*
X157643029Y-109762668D01*
X158051209Y-110018666D01*
X158448193Y-110167383D01*
X158893424Y-110224569D01*
X159345120Y-110213602D01*
X159997146Y-110168912D01*
X159648740Y-110483574D01*
X159271406Y-110816513D01*
X158803445Y-111217393D01*
X158279270Y-111657822D01*
X157733293Y-112109409D01*
X157199926Y-112543760D01*
X156713584Y-112932483D01*
X156308677Y-113247186D01*
X156198849Y-113329915D01*
X155806967Y-113613054D01*
X155483702Y-113818146D01*
X155168336Y-113976446D01*
X154800152Y-114119207D01*
X154420849Y-114245124D01*
X153841788Y-114421933D01*
X153387162Y-114538341D01*
X153024892Y-114598580D01*
X152722898Y-114606878D01*
X152449100Y-114567465D01*
X152294167Y-114525523D01*
X152028788Y-114457670D01*
X151911633Y-114457688D01*
X151940581Y-114515538D01*
X152113509Y-114621184D01*
X152336500Y-114725781D01*
X152917467Y-114899544D01*
X153576531Y-114964794D01*
X154259290Y-114918457D01*
X154589938Y-114853125D01*
X154898184Y-114758529D01*
X155226525Y-114617005D01*
X155586592Y-114419871D01*
X155990019Y-114158443D01*
X156448437Y-113824038D01*
X156973480Y-113407972D01*
X157576779Y-112901563D01*
X158269968Y-112296127D01*
X159064678Y-111582979D01*
X159493070Y-111193049D01*
X160036738Y-110707070D01*
X160526069Y-110290988D01*
X160942995Y-109959439D01*
X161269446Y-109727059D01*
X161398070Y-109649935D01*
X161618318Y-109534210D01*
X161750545Y-109474826D01*
X161787636Y-109479984D01*
X161722475Y-109557885D01*
X161547947Y-109716732D01*
X161256936Y-109964726D01*
X160842327Y-110310069D01*
X160782000Y-110360040D01*
X160427041Y-110662038D01*
X159989479Y-111046793D01*
X159508352Y-111479258D01*
X159022696Y-111924385D01*
X158623000Y-112298336D01*
X158075759Y-112813406D01*
X157629004Y-113226026D01*
X157262873Y-113552868D01*
X156957502Y-113810603D01*
X156693028Y-114015902D01*
X156449588Y-114185436D01*
X156207319Y-114335876D01*
X156167667Y-114359096D01*
X155334047Y-114771362D01*
X154499114Y-115030977D01*
X153621108Y-115149723D01*
X153329221Y-115159831D01*
X153066832Y-115161003D01*
X152858668Y-115148859D01*
X152667961Y-115111629D01*
X152457947Y-115037542D01*
X152191859Y-114914829D01*
X151832931Y-114731719D01*
X151581035Y-114600167D01*
X151075234Y-114326191D01*
X150680792Y-114086876D01*
X150352919Y-113851373D01*
X150046826Y-113588833D01*
X149874999Y-113425132D01*
X149355348Y-112863022D01*
X148898192Y-112263779D01*
X148530297Y-111666725D01*
X148278429Y-111111182D01*
X148256839Y-111047847D01*
X148178130Y-110749606D01*
X148090823Y-110325516D01*
X148001332Y-109818392D01*
X147916074Y-109271052D01*
X147841464Y-108726312D01*
X147783918Y-108226989D01*
X147749852Y-107815899D01*
X147743334Y-107620868D01*
X147743334Y-107205756D01*
X148272500Y-107370863D01*
X148691350Y-107470675D01*
X149083602Y-107487533D01*
X149490232Y-107414865D01*
X149952218Y-107246097D01*
X150406703Y-107028513D01*
X151278732Y-106540924D01*
X152053257Y-106026217D01*
X152713058Y-105498212D01*
X153240916Y-104970730D01*
X153619614Y-104457593D01*
X153628612Y-104442358D01*
X153766929Y-104218342D01*
X153862011Y-104117965D01*
X153951356Y-104116020D01*
X153951356Y-102609024D01*
X153938957Y-102517875D01*
X153742369Y-101970459D01*
X153437720Y-101439433D01*
X153412730Y-101404056D01*
X153068014Y-100922666D01*
X154258007Y-100922666D01*
X154258007Y-99985619D01*
X154112657Y-99988585D01*
X153672293Y-99991333D01*
X152160580Y-99991333D01*
X151742852Y-99462166D01*
X151521040Y-99175698D01*
X151322527Y-98909762D01*
X151186304Y-98716728D01*
X151175491Y-98700166D01*
X151025858Y-98467333D01*
X154998632Y-98467333D01*
X154998632Y-97147722D01*
X154821457Y-96219561D01*
X154641044Y-95263877D01*
X154489841Y-94440037D01*
X154366584Y-93730795D01*
X154270009Y-93118909D01*
X154198852Y-92587132D01*
X154151848Y-92118222D01*
X154127733Y-91694933D01*
X154125244Y-91300021D01*
X154143115Y-90916242D01*
X154180083Y-90526351D01*
X154234883Y-90113104D01*
X154306252Y-89659257D01*
X154392925Y-89147565D01*
X154420953Y-88984666D01*
X154540221Y-88304396D01*
X154682322Y-87514144D01*
X154836950Y-86669990D01*
X154993796Y-85828010D01*
X155142552Y-85044281D01*
X155199098Y-84751333D01*
X155316782Y-84129831D01*
X155423158Y-83538576D01*
X155513673Y-83005261D01*
X155583776Y-82557579D01*
X155628913Y-82223224D01*
X155644432Y-82042000D01*
X155592121Y-81605608D01*
X155413223Y-81129863D01*
X155101044Y-80601808D01*
X154648894Y-80008488D01*
X154508563Y-79843072D01*
X154051000Y-79313567D01*
X154051000Y-79671773D01*
X154443821Y-80158386D01*
X154782965Y-80612477D01*
X155070372Y-81063352D01*
X155287785Y-81477797D01*
X155416946Y-81822599D01*
X155444284Y-81978500D01*
X155366057Y-82001301D01*
X155148656Y-82020472D01*
X154822228Y-82034395D01*
X154416921Y-82041451D01*
X154261263Y-82042000D01*
X153773110Y-82042000D01*
X153773110Y-82974212D01*
X154206152Y-82975031D01*
X154599857Y-82979593D01*
X154920441Y-82987996D01*
X155134117Y-83000341D01*
X155206385Y-83013940D01*
X155211105Y-83110050D01*
X155188887Y-83331829D01*
X155144284Y-83638563D01*
X155121192Y-83775940D01*
X154995391Y-84497333D01*
X153020362Y-84497333D01*
X152462382Y-84495316D01*
X151965499Y-84489658D01*
X151553183Y-84480944D01*
X151248903Y-84469759D01*
X151076126Y-84456690D01*
X151045334Y-84448018D01*
X151096629Y-84348401D01*
X151231616Y-84156796D01*
X151421948Y-83908183D01*
X151639278Y-83637541D01*
X151855258Y-83379851D01*
X152041540Y-83170092D01*
X152169777Y-83043244D01*
X152200337Y-83022775D01*
X152323283Y-83006372D01*
X152575818Y-82993215D01*
X152924158Y-82983403D01*
X153334517Y-82977036D01*
X153773110Y-82974212D01*
X153773110Y-82042000D01*
X153074525Y-82042000D01*
X153379480Y-81598674D01*
X153668971Y-81138312D01*
X153856339Y-80731978D01*
X153965958Y-80321128D01*
X153996798Y-80116053D01*
X154051000Y-79671773D01*
X154051000Y-79313567D01*
X153941121Y-79186411D01*
X154277283Y-78928047D01*
X154698160Y-78525704D01*
X155113030Y-77976967D01*
X155505583Y-77304464D01*
X155633435Y-77046666D01*
X155988295Y-76303466D01*
X156282368Y-75696190D01*
X156525441Y-75206835D01*
X156727297Y-74817398D01*
X156897722Y-74509876D01*
X157046503Y-74266267D01*
X157183423Y-74068568D01*
X157318268Y-73898776D01*
X157387957Y-73818735D01*
X157794089Y-73430381D01*
X158221612Y-73163348D01*
X158688818Y-73016093D01*
X159213998Y-72987076D01*
X159213998Y-72753754D01*
X158828192Y-72744779D01*
X158395926Y-72809792D01*
X158006136Y-72966354D01*
X157678167Y-73172872D01*
X157256211Y-73556684D01*
X156834464Y-74105498D01*
X156415984Y-74815007D01*
X156189975Y-75268666D01*
X155843542Y-75998690D01*
X155556330Y-76592725D01*
X155318321Y-77069312D01*
X155119497Y-77446992D01*
X154949840Y-77744306D01*
X154799332Y-77979796D01*
X154657954Y-78172003D01*
X154553996Y-78296505D01*
X154278057Y-78600721D01*
X154080517Y-78778847D01*
X153934410Y-78837357D01*
X153812769Y-78782722D01*
X153688630Y-78621412D01*
X153626700Y-78519045D01*
X153297544Y-78068528D01*
X152829763Y-77589144D01*
X152247222Y-77099689D01*
X151573782Y-76618961D01*
X150833308Y-76165756D01*
X150239144Y-75850673D01*
X149868003Y-75674520D01*
X149588649Y-75567157D01*
X149346047Y-75513011D01*
X149085165Y-75496507D01*
X148988062Y-75496641D01*
X148633253Y-75522711D01*
X148284146Y-75583553D01*
X148103167Y-75635760D01*
X147743334Y-75769155D01*
X147743334Y-75352309D01*
X147759988Y-74990396D01*
X147805630Y-74521374D01*
X147873773Y-73986277D01*
X147957935Y-73426138D01*
X148051631Y-72881993D01*
X148148377Y-72394873D01*
X148241688Y-72005814D01*
X148303232Y-71809111D01*
X148641071Y-71102572D01*
X149124090Y-70384360D01*
X149732859Y-69682523D01*
X149875866Y-69538855D01*
X150163831Y-69269534D01*
X150445153Y-69041219D01*
X150759895Y-68826667D01*
X151148122Y-68598633D01*
X151649898Y-68329871D01*
X151666204Y-68321374D01*
X152837408Y-67711371D01*
X152837408Y-67336615D01*
X152176133Y-67398526D01*
X151471009Y-67531133D01*
X150971742Y-67672913D01*
X150971742Y-68088998D01*
X151034441Y-68093875D01*
X150973897Y-68160973D01*
X150918334Y-68204338D01*
X150772773Y-68318327D01*
X150542482Y-68503830D01*
X150272964Y-68724138D01*
X150225414Y-68763322D01*
X149700550Y-69244287D01*
X149238001Y-69777726D01*
X148820954Y-70389706D01*
X148432595Y-71106295D01*
X148056112Y-71953561D01*
X147880572Y-72398859D01*
X147667684Y-72903435D01*
X147462321Y-73271781D01*
X147257142Y-73525302D01*
X146800028Y-73878352D01*
X146197671Y-74175589D01*
X145466667Y-74411024D01*
X144623609Y-74578669D01*
X144187334Y-74632963D01*
X143637000Y-74689293D01*
X144017317Y-74492146D01*
X144394890Y-74238218D01*
X144635477Y-73924310D01*
X144756920Y-73519295D01*
X144780602Y-73160645D01*
X144790122Y-72748411D01*
X144813876Y-72296565D01*
X144833617Y-72046889D01*
X144886030Y-71492112D01*
X146007254Y-70759490D01*
X146905862Y-70179267D01*
X147687802Y-69690293D01*
X148371764Y-69282064D01*
X148976432Y-68944078D01*
X149520495Y-68665834D01*
X150022640Y-68436828D01*
X150433433Y-68271923D01*
X150775004Y-68147846D01*
X150971742Y-68088998D01*
X150971742Y-67672913D01*
X150743487Y-67737733D01*
X149978011Y-68025086D01*
X149159024Y-68399951D01*
X148270971Y-68869089D01*
X147298294Y-69439260D01*
X146225437Y-70117223D01*
X145753667Y-70427471D01*
X144737667Y-71102243D01*
X144568334Y-70902131D01*
X144294977Y-70679244D01*
X143931599Y-70560331D01*
X143522060Y-70545879D01*
X143522060Y-70708384D01*
X143757699Y-70709484D01*
X143971108Y-70751626D01*
X144092034Y-70790313D01*
X144279268Y-70877054D01*
X144415612Y-71004064D01*
X144508800Y-71196643D01*
X144566566Y-71480089D01*
X144596645Y-71879703D01*
X144606771Y-72420784D01*
X144606960Y-72474666D01*
X144605213Y-72953337D01*
X144594397Y-73296343D01*
X144570651Y-73537273D01*
X144530115Y-73709716D01*
X144468927Y-73847261D01*
X144444338Y-73889418D01*
X144164378Y-74187786D01*
X143732270Y-74416082D01*
X143150606Y-74573011D01*
X143038962Y-74592191D01*
X142711368Y-74636800D01*
X142479407Y-74639297D01*
X142273289Y-74593754D01*
X142056760Y-74508756D01*
X141710401Y-74390443D01*
X141248535Y-74285981D01*
X140660180Y-74193894D01*
X139934353Y-74112708D01*
X139060073Y-74040946D01*
X138148979Y-73983853D01*
X137117667Y-73926523D01*
X137117667Y-74099701D01*
X137752667Y-74137268D01*
X138778994Y-74203773D01*
X139649240Y-74273288D01*
X140376651Y-74347604D01*
X140974477Y-74428513D01*
X141455963Y-74517807D01*
X141834358Y-74617275D01*
X142121371Y-74727980D01*
X142342254Y-74804606D01*
X142598601Y-74824674D01*
X142936242Y-74796091D01*
X143297323Y-74762412D01*
X143659608Y-74746553D01*
X143855727Y-74748599D01*
X144093409Y-74749040D01*
X144450614Y-74736149D01*
X144878254Y-74712212D01*
X145310947Y-74680843D01*
X146007316Y-74604680D01*
X146552806Y-74499574D01*
X146964067Y-74361234D01*
X147257751Y-74185366D01*
X147269026Y-74176032D01*
X147369244Y-74101627D01*
X147405628Y-74127643D01*
X147393325Y-74282093D01*
X147379127Y-74379666D01*
X147343679Y-74623886D01*
X147294580Y-74970950D01*
X147240997Y-75355912D01*
X147227207Y-75456052D01*
X147164083Y-75849128D01*
X147095484Y-76112983D01*
X147008487Y-76287565D01*
X146928593Y-76379110D01*
X146731308Y-76564450D01*
X146411821Y-76344065D01*
X145858009Y-76023930D01*
X145179626Y-75734003D01*
X144476075Y-75508345D01*
X144212385Y-75442243D01*
X143949934Y-75393039D01*
X143656014Y-75357965D01*
X143297917Y-75334252D01*
X142842933Y-75319133D01*
X142258356Y-75309839D01*
X142113000Y-75308339D01*
X141523892Y-75301200D01*
X141075431Y-75290854D01*
X140738932Y-75274541D01*
X140485712Y-75249502D01*
X140287083Y-75212978D01*
X140114363Y-75162210D01*
X139954000Y-75100683D01*
X139701018Y-75002472D01*
X139332153Y-74866621D01*
X138892089Y-74709266D01*
X138425511Y-74546540D01*
X138303000Y-74504533D01*
X137117667Y-74099701D01*
X137117667Y-73926523D01*
X136288974Y-73880455D01*
X136138028Y-73537394D01*
X135991796Y-73188316D01*
X135924676Y-72956741D01*
X135940636Y-72808424D01*
X136043646Y-72709119D01*
X136237675Y-72624582D01*
X136244092Y-72622228D01*
X136579066Y-72502111D01*
X136786844Y-72440955D01*
X136898809Y-72438336D01*
X136946343Y-72493828D01*
X136960829Y-72607009D01*
X136961153Y-72612536D01*
X136970394Y-72738465D01*
X136992710Y-72838740D01*
X137044239Y-72913958D01*
X137141121Y-72964719D01*
X137299493Y-72991618D01*
X137535495Y-72995255D01*
X137865264Y-72976226D01*
X138304941Y-72935129D01*
X138870662Y-72872563D01*
X139578567Y-72789124D01*
X140086650Y-72728287D01*
X140772934Y-72645531D01*
X141411550Y-72567545D01*
X141981513Y-72496966D01*
X142461840Y-72436432D01*
X142831548Y-72388581D01*
X143069651Y-72356050D01*
X143148877Y-72343371D01*
X143318324Y-72230706D01*
X143403498Y-72017864D01*
X143387843Y-71759873D01*
X143353228Y-71664089D01*
X143259632Y-71528707D01*
X143104944Y-71467649D01*
X142931445Y-71456192D01*
X142931445Y-71629296D01*
X143125692Y-71685896D01*
X143240113Y-71822342D01*
X143250063Y-71984706D01*
X143150167Y-72107899D01*
X143040387Y-72135408D01*
X142786695Y-72178458D01*
X142413112Y-72234096D01*
X141943658Y-72299367D01*
X141402352Y-72371317D01*
X140813214Y-72446991D01*
X140200266Y-72523436D01*
X139587525Y-72597696D01*
X138999014Y-72666817D01*
X138458751Y-72727846D01*
X137990756Y-72777827D01*
X137619051Y-72813806D01*
X137367653Y-72832830D01*
X137261253Y-72832211D01*
X137186004Y-72726024D01*
X137176587Y-72569684D01*
X137244900Y-72389775D01*
X137414000Y-72322819D01*
X137549278Y-72317420D01*
X137534055Y-72359131D01*
X137498667Y-72385023D01*
X137485810Y-72437189D01*
X137620854Y-72466723D01*
X137884105Y-72475177D01*
X138255868Y-72464105D01*
X138716448Y-72435063D01*
X139246149Y-72389603D01*
X139825276Y-72329281D01*
X140434135Y-72255649D01*
X141053030Y-72170263D01*
X141662266Y-72074677D01*
X141859000Y-72040956D01*
X142253376Y-71969435D01*
X142583193Y-71905179D01*
X142814713Y-71855073D01*
X142914197Y-71826004D01*
X142914882Y-71825444D01*
X142890385Y-71757087D01*
X142830215Y-71709359D01*
X142776147Y-71652398D01*
X142871415Y-71630657D01*
X142931445Y-71629296D01*
X142931445Y-71456192D01*
X142897982Y-71453982D01*
X142630952Y-71424957D01*
X142450196Y-71323444D01*
X142349536Y-71212228D01*
X142162738Y-70975158D01*
X142796442Y-70835912D01*
X143217278Y-70749976D01*
X143522060Y-70708384D01*
X143522060Y-70545879D01*
X143464133Y-70543834D01*
X142878515Y-70628198D01*
X142621000Y-70686641D01*
X142028334Y-70832132D01*
X141716185Y-70629690D01*
X141447080Y-70483585D01*
X141175388Y-70377718D01*
X141123519Y-70364151D01*
X140888023Y-70345010D01*
X140537352Y-70356381D01*
X140120014Y-70392314D01*
X139684514Y-70446855D01*
X139279362Y-70514056D01*
X138953063Y-70587964D01*
X138771912Y-70652655D01*
X138574361Y-70799142D01*
X138334506Y-71037363D01*
X138095795Y-71316642D01*
X137901679Y-71586307D01*
X137797684Y-71788876D01*
X137705964Y-71895052D01*
X137485747Y-72009941D01*
X137119810Y-72142021D01*
X137009016Y-72177026D01*
X136517182Y-72333621D01*
X136166692Y-72459082D01*
X135935408Y-72566396D01*
X135917587Y-72579959D01*
X135917587Y-73647276D01*
X135986776Y-73682427D01*
X136023922Y-73725337D01*
X136068453Y-73808984D01*
X136028365Y-73861419D01*
X135873747Y-73898591D01*
X135642702Y-73928617D01*
X135340503Y-73979551D01*
X135034327Y-74056242D01*
X134768761Y-74144263D01*
X134588392Y-74229186D01*
X134535334Y-74286924D01*
X134606100Y-74287694D01*
X134784877Y-74239926D01*
X134886819Y-74205810D01*
X135212254Y-74106401D01*
X135530629Y-74047981D01*
X135863759Y-74034370D01*
X136233457Y-74069385D01*
X136661539Y-74156846D01*
X137169818Y-74300571D01*
X137780109Y-74504379D01*
X138514226Y-74772089D01*
X138853334Y-74900165D01*
X140079397Y-75392755D01*
X141174205Y-75886896D01*
X142132130Y-76379078D01*
X142947547Y-76865791D01*
X143614831Y-77343527D01*
X144128356Y-77808774D01*
X144482495Y-78258023D01*
X144603258Y-78487543D01*
X144692406Y-78708093D01*
X144735398Y-78883040D01*
X144734865Y-79071073D01*
X144693436Y-79330881D01*
X144650567Y-79543099D01*
X144489145Y-80186246D01*
X144249538Y-80948373D01*
X143942279Y-81804228D01*
X143577901Y-82728559D01*
X143166936Y-83696113D01*
X142719917Y-84681639D01*
X142247377Y-85659884D01*
X141759847Y-86605596D01*
X141522748Y-87042112D01*
X141338473Y-87384014D01*
X141237736Y-87589504D01*
X141214203Y-87665687D01*
X141261540Y-87619666D01*
X141373411Y-87458545D01*
X141543483Y-87189427D01*
X141765421Y-86819418D01*
X141849129Y-86676097D01*
X142332831Y-85806612D01*
X142812301Y-84876923D01*
X143274393Y-83917045D01*
X143705964Y-82956994D01*
X144093867Y-82026786D01*
X144424957Y-81156438D01*
X144686091Y-80375964D01*
X144824599Y-79881782D01*
X144938971Y-79356085D01*
X144980368Y-78943400D01*
X144944043Y-78601759D01*
X144825253Y-78289197D01*
X144619254Y-77963747D01*
X144605657Y-77945127D01*
X144257695Y-77553733D01*
X143776787Y-77133843D01*
X143192008Y-76706182D01*
X142532435Y-76291476D01*
X141827143Y-75910450D01*
X141591685Y-75796743D01*
X141097000Y-75565000D01*
X141816667Y-75538721D01*
X142678719Y-75546799D01*
X143530593Y-75628859D01*
X144342259Y-75777751D01*
X145083690Y-75986319D01*
X145724856Y-76247412D01*
X146235730Y-76553877D01*
X146304808Y-76607811D01*
X146515667Y-76779404D01*
X146299766Y-77018868D01*
X146080630Y-77269863D01*
X145979832Y-77402426D01*
X145993927Y-77415778D01*
X146119469Y-77309143D01*
X146353014Y-77081743D01*
X146394188Y-77040171D01*
X146958892Y-76529015D01*
X147532603Y-76123808D01*
X148094271Y-75834976D01*
X148622850Y-75672948D01*
X149097290Y-75648148D01*
X149180403Y-75659957D01*
X149543988Y-75768118D01*
X150000867Y-75970128D01*
X150518984Y-76245988D01*
X151066285Y-76575695D01*
X151610717Y-76939250D01*
X152120226Y-77316652D01*
X152562757Y-77687899D01*
X152803133Y-77920426D01*
X153276587Y-78489179D01*
X153586545Y-79043343D01*
X153736606Y-79595757D01*
X153730371Y-80159262D01*
X153585344Y-80710204D01*
X153442377Y-81003659D01*
X153226805Y-81346774D01*
X152983983Y-81667719D01*
X152971510Y-81682398D01*
X152724904Y-81970921D01*
X152414620Y-82334289D01*
X152086799Y-82718454D01*
X151877849Y-82963468D01*
X151193267Y-83824999D01*
X150530218Y-84770594D01*
X150403634Y-84973293D01*
X150403634Y-85428666D01*
X152587150Y-85428666D01*
X153294287Y-85431825D01*
X153874884Y-85441053D01*
X154319150Y-85455978D01*
X154617292Y-85476226D01*
X154759518Y-85501426D01*
X154770667Y-85511761D01*
X154757165Y-85631708D01*
X154721669Y-85868432D01*
X154671698Y-86171967D01*
X154668766Y-86189095D01*
X154566866Y-86783333D01*
X152171100Y-86783333D01*
X151407470Y-86781114D01*
X150803048Y-86774190D01*
X150347762Y-86762158D01*
X150031543Y-86744616D01*
X149844319Y-86721162D01*
X149776019Y-86691393D01*
X149775334Y-86687627D01*
X149813383Y-86571665D01*
X149914116Y-86351386D01*
X150057408Y-86070178D01*
X150089484Y-86010294D01*
X150403634Y-85428666D01*
X150403634Y-84973293D01*
X149910269Y-85763322D01*
X149364016Y-86749953D01*
X149364016Y-87714666D01*
X154357709Y-87714666D01*
X154303543Y-88075873D01*
X154252742Y-88387859D01*
X154197714Y-88688921D01*
X154189080Y-88732040D01*
X154128783Y-89027000D01*
X151561564Y-89049422D01*
X148994346Y-89071844D01*
X149051546Y-88837755D01*
X149108413Y-88619507D01*
X149189555Y-88324330D01*
X149236381Y-88159166D01*
X149364016Y-87714666D01*
X149364016Y-86749953D01*
X149354992Y-86766252D01*
X148885954Y-87742454D01*
X148865167Y-87794966D01*
X148865167Y-90000666D01*
X153985550Y-90000666D01*
X153902636Y-90445166D01*
X153873411Y-90710078D01*
X153857254Y-91090348D01*
X153855466Y-91532410D01*
X153866666Y-91926833D01*
X153913611Y-92964000D01*
X148994346Y-92964000D01*
X148994346Y-93892822D01*
X151565006Y-93915244D01*
X154135667Y-93937666D01*
X154232272Y-94445666D01*
X154285762Y-94742738D01*
X154324620Y-94987946D01*
X154338105Y-95101833D01*
X154331022Y-95144406D01*
X154292011Y-95177974D01*
X154203286Y-95203599D01*
X154047066Y-95222341D01*
X153805567Y-95235263D01*
X153461006Y-95243426D01*
X152995599Y-95247891D01*
X152391563Y-95249720D01*
X151855675Y-95250000D01*
X150863838Y-95250000D01*
X150863838Y-96195431D01*
X151435141Y-96195828D01*
X152160230Y-96201133D01*
X152165377Y-96201181D01*
X154555420Y-96223666D01*
X154653542Y-96689333D01*
X154710631Y-96986101D01*
X154750492Y-97241477D01*
X154761166Y-97346929D01*
X154770667Y-97538858D01*
X152592709Y-97516262D01*
X150414752Y-97493666D01*
X150095043Y-96943710D01*
X149940076Y-96663575D01*
X149826485Y-96432378D01*
X149776102Y-96295017D01*
X149775334Y-96286225D01*
X149808611Y-96253870D01*
X149918707Y-96229160D01*
X150121015Y-96211549D01*
X150430927Y-96200489D01*
X150863838Y-96195431D01*
X150863838Y-95250000D01*
X149364016Y-95250000D01*
X149236381Y-94805500D01*
X149151824Y-94504536D01*
X149078639Y-94233126D01*
X149051546Y-94126911D01*
X148994346Y-93892822D01*
X148994346Y-92964000D01*
X148866156Y-92964000D01*
X148813677Y-92646500D01*
X148787742Y-92391189D01*
X148770694Y-92025111D01*
X148762562Y-91596859D01*
X148763374Y-91155024D01*
X148773161Y-90748200D01*
X148791952Y-90424978D01*
X148812250Y-90265249D01*
X148865167Y-90000666D01*
X148865167Y-87794966D01*
X148524726Y-88654997D01*
X148484834Y-88773000D01*
X148269543Y-89471508D01*
X148123637Y-90072646D01*
X148038996Y-90629599D01*
X148007502Y-91195550D01*
X148020567Y-91814118D01*
X148122067Y-92726316D01*
X148342505Y-93676323D01*
X148686644Y-94677181D01*
X149159251Y-95741931D01*
X149765091Y-96883615D01*
X150053317Y-97377330D01*
X150544328Y-98176072D01*
X150997347Y-98860802D01*
X151442188Y-99472675D01*
X151908661Y-100052844D01*
X152386961Y-100598846D01*
X152869682Y-101154664D01*
X153232501Y-101631308D01*
X153488857Y-102053979D01*
X153652189Y-102447877D01*
X153735938Y-102838202D01*
X153754667Y-103163455D01*
X153671992Y-103701094D01*
X153428355Y-104254095D01*
X153030340Y-104813272D01*
X152484529Y-105369437D01*
X151797504Y-105913404D01*
X151770445Y-105932487D01*
X151229022Y-106295350D01*
X150688614Y-106625834D01*
X150180306Y-106906991D01*
X149735180Y-107121877D01*
X149384321Y-107253546D01*
X149313794Y-107271741D01*
X148776830Y-107312293D01*
X148217208Y-107196340D01*
X147630525Y-106921852D01*
X147012379Y-106486796D01*
X146735957Y-106235563D01*
X146735957Y-106396994D01*
X146922145Y-106581685D01*
X147022094Y-106720497D01*
X147105490Y-106937196D01*
X147182327Y-107264155D01*
X147246829Y-107633355D01*
X147306316Y-108019253D01*
X147355085Y-108360931D01*
X147386706Y-108611939D01*
X147394996Y-108703955D01*
X147390736Y-108844627D01*
X147330200Y-108836442D01*
X147252297Y-108769684D01*
X147077558Y-108655516D01*
X146825270Y-108537133D01*
X146738274Y-108504193D01*
X146500145Y-108445937D01*
X146133431Y-108386881D01*
X145678815Y-108330947D01*
X145176979Y-108282054D01*
X144668606Y-108244125D01*
X144194378Y-108221081D01*
X143794979Y-108216842D01*
X143764000Y-108217519D01*
X143637000Y-108215517D01*
X143637000Y-108275373D01*
X144187334Y-108331703D01*
X145067743Y-108463081D01*
X145848021Y-108663682D01*
X146510362Y-108927108D01*
X147036961Y-109246960D01*
X147250278Y-109432499D01*
X147402052Y-109613360D01*
X147555661Y-109862892D01*
X147725013Y-110207997D01*
X147924019Y-110675580D01*
X148029640Y-110939942D01*
X148412797Y-111829039D01*
X148813021Y-112578581D01*
X149250968Y-113218309D01*
X149747294Y-113777962D01*
X150322654Y-114287281D01*
X150392713Y-114342333D01*
X150641541Y-114539898D01*
X150825883Y-114694305D01*
X150915443Y-114779880D01*
X150919166Y-114788499D01*
X150838673Y-114768132D01*
X150638050Y-114694520D01*
X150352833Y-114581065D01*
X150184921Y-114511622D01*
X149445085Y-114171074D01*
X148605570Y-113726422D01*
X147659416Y-113173731D01*
X146599664Y-112509062D01*
X146293085Y-112309849D01*
X145865998Y-112030278D01*
X145490609Y-111784217D01*
X145188713Y-111585978D01*
X144982102Y-111449873D01*
X144892571Y-111390215D01*
X144890659Y-111388813D01*
X144879347Y-111304008D01*
X144859850Y-111081786D01*
X144834695Y-110753725D01*
X144806407Y-110351404D01*
X144799801Y-110252852D01*
X144757521Y-109719517D01*
X144703029Y-109324686D01*
X144622703Y-109037536D01*
X144502923Y-108827243D01*
X144330067Y-108662985D01*
X144090514Y-108513938D01*
X144013044Y-108472520D01*
X143637000Y-108275373D01*
X143637000Y-108215517D01*
X143389734Y-108211618D01*
X142992253Y-108182956D01*
X142851053Y-108165984D01*
X142551688Y-108144774D01*
X142551688Y-108331711D01*
X142838430Y-108352119D01*
X143026385Y-108376791D01*
X143616293Y-108509613D01*
X144070161Y-108719346D01*
X144379804Y-109001664D01*
X144462369Y-109135787D01*
X144531991Y-109369561D01*
X144581848Y-109723945D01*
X144611547Y-110154468D01*
X144620696Y-110616659D01*
X144608901Y-111066046D01*
X144575771Y-111458159D01*
X144520912Y-111748527D01*
X144486239Y-111839691D01*
X144286772Y-112059984D01*
X143979536Y-112212189D01*
X143626772Y-112268000D01*
X143449688Y-112250174D01*
X143165820Y-112203183D01*
X142833191Y-112136757D01*
X142796442Y-112128753D01*
X142162738Y-111989507D01*
X142349536Y-111752438D01*
X142518696Y-111588853D01*
X142727830Y-111520545D01*
X142893188Y-111510684D01*
X143159441Y-111480591D01*
X143307798Y-111387826D01*
X143337688Y-111342232D01*
X143421038Y-111060691D01*
X143356296Y-110828073D01*
X143234834Y-110714757D01*
X143098291Y-110672621D01*
X142807397Y-110615256D01*
X142376243Y-110544790D01*
X141818919Y-110463354D01*
X141149514Y-110373077D01*
X140382120Y-110276089D01*
X140128291Y-110245205D01*
X139319920Y-110147980D01*
X138663669Y-110071318D01*
X138143510Y-110015760D01*
X137743419Y-109981848D01*
X137447367Y-109970122D01*
X137312333Y-109977262D01*
X137312333Y-110124763D01*
X137414000Y-110125684D01*
X137700650Y-110152100D01*
X138101552Y-110194414D01*
X138592276Y-110249575D01*
X139148389Y-110314529D01*
X139745460Y-110386225D01*
X140359058Y-110461611D01*
X140964750Y-110537634D01*
X141538106Y-110611242D01*
X142054693Y-110679383D01*
X142490080Y-110739006D01*
X142819836Y-110787057D01*
X143019528Y-110820485D01*
X143065500Y-110831705D01*
X143221833Y-110929158D01*
X143245186Y-111071807D01*
X143204608Y-111202741D01*
X143089606Y-111304970D01*
X142940241Y-111336666D01*
X142797428Y-111319528D01*
X142798793Y-111253141D01*
X142822550Y-111221856D01*
X142835608Y-111169592D01*
X142767380Y-111120739D01*
X142596465Y-111068880D01*
X142301462Y-111007595D01*
X141860969Y-110930469D01*
X141838084Y-110926640D01*
X141176392Y-110822233D01*
X140515551Y-110729203D01*
X139874308Y-110649082D01*
X139271410Y-110583406D01*
X138725602Y-110533710D01*
X138255633Y-110501527D01*
X137880250Y-110488392D01*
X137618198Y-110495840D01*
X137488225Y-110525405D01*
X137498667Y-110571446D01*
X137563674Y-110637409D01*
X137486517Y-110649030D01*
X137414000Y-110641847D01*
X137260488Y-110591274D01*
X137205899Y-110453540D01*
X137202334Y-110363000D01*
X137222647Y-110184411D01*
X137312333Y-110124763D01*
X137312333Y-109977262D01*
X137239331Y-109981123D01*
X137103282Y-110015393D01*
X137023195Y-110073472D01*
X136983044Y-110155902D01*
X136966802Y-110263223D01*
X136961153Y-110352129D01*
X136947167Y-110467905D01*
X136901023Y-110525519D01*
X136791181Y-110524659D01*
X136586102Y-110465012D01*
X136254249Y-110346264D01*
X136250996Y-110345075D01*
X136056948Y-110260437D01*
X135953259Y-110159792D01*
X135935962Y-110009079D01*
X136001091Y-109774241D01*
X136143681Y-109423546D01*
X136292269Y-109076760D01*
X137593968Y-109018872D01*
X138736733Y-108956752D01*
X139733693Y-108878778D01*
X140580238Y-108785553D01*
X141271758Y-108677680D01*
X141803643Y-108555762D01*
X142170654Y-108420714D01*
X142347518Y-108353631D01*
X142551688Y-108331711D01*
X142551688Y-108144774D01*
X142504278Y-108141415D01*
X142236708Y-108189356D01*
X142120848Y-108236934D01*
X141773124Y-108364322D01*
X141291120Y-108478648D01*
X140667971Y-108580851D01*
X139896807Y-108671872D01*
X138970762Y-108752651D01*
X137882968Y-108824128D01*
X137795000Y-108829122D01*
X137117667Y-108867188D01*
X138514667Y-108377614D01*
X138990498Y-108209839D01*
X139427384Y-108053903D01*
X139793116Y-107921449D01*
X140055484Y-107824117D01*
X140165667Y-107780910D01*
X140365613Y-107735004D01*
X140724805Y-107699510D01*
X141246280Y-107674232D01*
X141933075Y-107658979D01*
X142113000Y-107656886D01*
X142729963Y-107648261D01*
X143210322Y-107634428D01*
X143586789Y-107612609D01*
X143892077Y-107580029D01*
X144158897Y-107533911D01*
X144419962Y-107471478D01*
X144476075Y-107456321D01*
X145235922Y-107209625D01*
X145910774Y-106914227D01*
X146414145Y-106618990D01*
X146735957Y-106396994D01*
X146735957Y-106235563D01*
X146392241Y-105923168D01*
X146123445Y-105659314D01*
X145968070Y-105517785D01*
X145927242Y-105498299D01*
X146002087Y-105600577D01*
X146193731Y-105824337D01*
X146301560Y-105945797D01*
X146515667Y-106185262D01*
X146304808Y-106356854D01*
X145815689Y-106671882D01*
X145191826Y-106942161D01*
X144463619Y-107160366D01*
X143661469Y-107319176D01*
X142815776Y-107411266D01*
X141956943Y-107429314D01*
X141864367Y-107426514D01*
X141107734Y-107399666D01*
X141822034Y-107045663D01*
X142748878Y-106546006D01*
X143520225Y-106043537D01*
X144133003Y-105540925D01*
X144584139Y-105040835D01*
X144870561Y-104545935D01*
X144941734Y-104337555D01*
X144981524Y-104039155D01*
X144956286Y-103660577D01*
X144862589Y-103183928D01*
X144697002Y-102591319D01*
X144481812Y-101938666D01*
X144162466Y-101083893D01*
X143769346Y-100137242D01*
X143324683Y-99146326D01*
X142850709Y-98158754D01*
X142369655Y-97222136D01*
X141903754Y-96384083D01*
X141828128Y-96255635D01*
X141614107Y-95902620D01*
X141439816Y-95628190D01*
X141314024Y-95443432D01*
X141245496Y-95359437D01*
X141242999Y-95387295D01*
X141315301Y-95538095D01*
X141434727Y-95758000D01*
X141903385Y-96630868D01*
X142372363Y-97566462D01*
X142829942Y-98537135D01*
X143264401Y-99515240D01*
X143664020Y-100473130D01*
X144017079Y-101383158D01*
X144311858Y-102217677D01*
X144536636Y-102949041D01*
X144620346Y-103272583D01*
X144701599Y-103641488D01*
X144737603Y-103901254D01*
X144731467Y-104105020D01*
X144686300Y-104305930D01*
X144681711Y-104321414D01*
X144516167Y-104662891D01*
X144222406Y-105048471D01*
X143825782Y-105450922D01*
X143351652Y-105843010D01*
X143094906Y-106025673D01*
X142539936Y-106366812D01*
X141846495Y-106738660D01*
X141040149Y-107129918D01*
X140146468Y-107529288D01*
X139191019Y-107925471D01*
X138199371Y-108307168D01*
X137197091Y-108663082D01*
X136906000Y-108760551D01*
X136321487Y-108885657D01*
X135693250Y-108905602D01*
X135090943Y-108821435D01*
X134789334Y-108728598D01*
X134548923Y-108643367D01*
X134452140Y-108628340D01*
X134491529Y-108675203D01*
X134723735Y-108799056D01*
X135054589Y-108916373D01*
X135413978Y-109006695D01*
X135731790Y-109049567D01*
X135778367Y-109050666D01*
X135981893Y-109079831D01*
X136062939Y-109152607D01*
X135999023Y-109246913D01*
X135986469Y-109255039D01*
X135882687Y-109246719D01*
X135652203Y-109191397D01*
X135328141Y-109098023D01*
X134943620Y-108975547D01*
X134906969Y-108963333D01*
X133900334Y-108626593D01*
X133900334Y-74253406D01*
X134908343Y-73916207D01*
X135328284Y-73777661D01*
X135617219Y-73689952D01*
X135804027Y-73648137D01*
X135917587Y-73647276D01*
X135917587Y-72579959D01*
X135801190Y-72668549D01*
X135741898Y-72778527D01*
X135735393Y-72909317D01*
X135736719Y-72923323D01*
X135742733Y-73033915D01*
X135716654Y-73118274D01*
X135632277Y-73193399D01*
X135463396Y-73276292D01*
X135183804Y-73383951D01*
X134831667Y-73510434D01*
X134394571Y-73659763D01*
X134089464Y-73747138D01*
X133892947Y-73777902D01*
X133781623Y-73757398D01*
X133773334Y-73752071D01*
X133284439Y-73474387D01*
X132802591Y-73332457D01*
X132672667Y-73319229D01*
X132208615Y-73302571D01*
X131873578Y-73315913D01*
X131628808Y-73366245D01*
X131435557Y-73460553D01*
X131297887Y-73567181D01*
X131158437Y-73679107D01*
X131017604Y-73754280D01*
X130834434Y-73803238D01*
X130810000Y-73806290D01*
X130810000Y-74236371D01*
X130810000Y-108627333D01*
X130534834Y-108626459D01*
X130098603Y-108609962D01*
X129546200Y-108566586D01*
X128927615Y-108502059D01*
X128292838Y-108422112D01*
X127691860Y-108332473D01*
X127203069Y-108244623D01*
X125734374Y-107869194D01*
X124357925Y-107353136D01*
X123075937Y-106699234D01*
X121890621Y-105910274D01*
X120804193Y-104989041D01*
X119818864Y-103938321D01*
X118936849Y-102760900D01*
X118160362Y-101459562D01*
X117491614Y-100037094D01*
X116932820Y-98496280D01*
X116486194Y-96839907D01*
X116153948Y-95070760D01*
X116036894Y-94192185D01*
X115981649Y-93575430D01*
X115942129Y-92837636D01*
X115918705Y-92026403D01*
X115911751Y-91189328D01*
X115921638Y-90374010D01*
X115948740Y-89628046D01*
X115993429Y-88999035D01*
X115996036Y-88972470D01*
X116231420Y-87248718D01*
X116584132Y-85599681D01*
X117049563Y-84034478D01*
X117623103Y-82562229D01*
X118300142Y-81192054D01*
X119076073Y-79933073D01*
X119946284Y-78794405D01*
X120906167Y-77785169D01*
X121951113Y-76914486D01*
X122169615Y-76757980D01*
X123296089Y-76052619D01*
X124481628Y-75471054D01*
X125742395Y-75008131D01*
X127094554Y-74658696D01*
X128554269Y-74417597D01*
X129899834Y-74293480D01*
X130810000Y-74236371D01*
X130810000Y-73806290D01*
X130567971Y-73836523D01*
X130177264Y-73864673D01*
X130130774Y-73867550D01*
X128779343Y-73980793D01*
X127559839Y-74149786D01*
X126441996Y-74381629D01*
X125395549Y-74683418D01*
X124390231Y-75062251D01*
X123695653Y-75376651D01*
X122436282Y-76077473D01*
X121273710Y-76915816D01*
X120209537Y-77889167D01*
X119245359Y-78995010D01*
X118382775Y-80230830D01*
X117623383Y-81594111D01*
X116968780Y-83082340D01*
X116420565Y-84693001D01*
X115980335Y-86423579D01*
X115695074Y-87968666D01*
X115634434Y-88467645D01*
X115583816Y-89097031D01*
X115544130Y-89818146D01*
X115516285Y-90592309D01*
X115501190Y-91380840D01*
X115499753Y-92145059D01*
X115512885Y-92846287D01*
G04 #@! TD*
M02*
