M48
;DRILL file {KiCad 5.0.2+dfsg1-1} date dom 26 abr 2020 19:31:44 CEST
;FORMAT={-:-/ absolute / inch / decimal}
FMAT,2
INCH,TZ
T1C0.0236
T2C0.0374
T3C0.1260
%
G90
G05
T1
X5.425Y-3.025
X5.425Y-3.925
X5.525Y-3.025
X5.525Y-3.925
X5.625Y-3.025
X5.625Y-3.925
X5.725Y-3.025
X5.725Y-3.925
X5.825Y-3.025
X5.825Y-3.925
X5.925Y-3.025
X5.925Y-3.925
X6.025Y-3.025
X6.025Y-3.925
X6.125Y-3.025
X6.125Y-3.925
X6.225Y-3.025
X6.225Y-3.925
X6.325Y-3.025
X6.325Y-3.925
X6.425Y-3.025
X6.425Y-3.925
X6.525Y-3.025
X6.525Y-3.925
T2
X4.35Y-4.15
X4.4484Y-4.15
X4.5469Y-4.15
X4.6453Y-4.15
T3
X4.35Y-2.8
X4.35Y-4.4
X6.775Y-2.8
X6.775Y-4.4
T0
M30
