G04 #@! TF.GenerationSoftware,KiCad,Pcbnew,5.0.2+dfsg1-1*
G04 #@! TF.CreationDate,2020-04-26T19:31:52+02:00*
G04 #@! TF.ProjectId,iClone,69436c6f-6e65-42e6-9b69-6361645f7063,rev?*
G04 #@! TF.SameCoordinates,Original*
G04 #@! TF.FileFunction,Soldermask,Top*
G04 #@! TF.FilePolarity,Negative*
%FSLAX46Y46*%
G04 Gerber Fmt 4.6, Leading zero omitted, Abs format (unit mm)*
G04 Created by KiCad (PCBNEW 5.0.2+dfsg1-1) date dom 26 abr 2020 19:31:52 CEST*
%MOMM*%
%LPD*%
G01*
G04 APERTURE LIST*
%ADD10C,0.100000*%
G04 APERTURE END LIST*
D10*
G36*
X172931190Y-108970483D02*
X173459138Y-109189166D01*
X173934283Y-109506648D01*
X174338352Y-109910717D01*
X174655834Y-110385862D01*
X174874517Y-110913810D01*
X174986000Y-111474275D01*
X174986000Y-112045725D01*
X174874517Y-112606190D01*
X174655834Y-113134138D01*
X174338352Y-113609283D01*
X173934283Y-114013352D01*
X173459138Y-114330834D01*
X172931190Y-114549517D01*
X172370725Y-114661000D01*
X171799275Y-114661000D01*
X171238810Y-114549517D01*
X170710862Y-114330834D01*
X170235717Y-114013352D01*
X169831648Y-113609283D01*
X169514166Y-113134138D01*
X169295483Y-112606190D01*
X169184000Y-112045725D01*
X169184000Y-111474275D01*
X169295483Y-110913810D01*
X169514166Y-110385862D01*
X169831648Y-109910717D01*
X170235717Y-109506648D01*
X170710862Y-109189166D01*
X171238810Y-108970483D01*
X171799275Y-108859000D01*
X172370725Y-108859000D01*
X172931190Y-108970483D01*
X172931190Y-108970483D01*
G37*
G36*
X111336190Y-108970483D02*
X111864138Y-109189166D01*
X112339283Y-109506648D01*
X112743352Y-109910717D01*
X113060834Y-110385862D01*
X113279517Y-110913810D01*
X113391000Y-111474275D01*
X113391000Y-112045725D01*
X113279517Y-112606190D01*
X113060834Y-113134138D01*
X112743352Y-113609283D01*
X112339283Y-114013352D01*
X111864138Y-114330834D01*
X111336190Y-114549517D01*
X110775725Y-114661000D01*
X110204275Y-114661000D01*
X109643810Y-114549517D01*
X109115862Y-114330834D01*
X108640717Y-114013352D01*
X108236648Y-113609283D01*
X107919166Y-113134138D01*
X107700483Y-112606190D01*
X107589000Y-112045725D01*
X107589000Y-111474275D01*
X107700483Y-110913810D01*
X107919166Y-110385862D01*
X108236648Y-109910717D01*
X108640717Y-109506648D01*
X109115862Y-109189166D01*
X109643810Y-108970483D01*
X110204275Y-108859000D01*
X110775725Y-108859000D01*
X111336190Y-108970483D01*
X111336190Y-108970483D01*
G37*
G36*
X130521000Y-112401000D02*
X129019000Y-112401000D01*
X129019000Y-110699000D01*
X130521000Y-110699000D01*
X130521000Y-112401000D01*
X130521000Y-112401000D01*
G37*
G36*
X127521000Y-112401000D02*
X126019000Y-112401000D01*
X126019000Y-110699000D01*
X127521000Y-110699000D01*
X127521000Y-112401000D01*
X127521000Y-112401000D01*
G37*
G36*
X163541000Y-112401000D02*
X162039000Y-112401000D01*
X162039000Y-110699000D01*
X163541000Y-110699000D01*
X163541000Y-112401000D01*
X163541000Y-112401000D01*
G37*
G36*
X160541000Y-112401000D02*
X159039000Y-112401000D01*
X159039000Y-110699000D01*
X160541000Y-110699000D01*
X160541000Y-112401000D01*
X160541000Y-112401000D01*
G37*
G36*
X134730353Y-108248255D02*
X134766894Y-108259340D01*
X134800569Y-108277339D01*
X134830090Y-108301567D01*
X134854318Y-108331088D01*
X134872317Y-108364763D01*
X134883402Y-108401304D01*
X134887749Y-108445446D01*
X134887749Y-109894370D01*
X134883402Y-109938512D01*
X134872317Y-109975053D01*
X134854318Y-110008728D01*
X134830090Y-110038249D01*
X134800569Y-110062477D01*
X134766894Y-110080476D01*
X134730353Y-110091561D01*
X134686211Y-110095908D01*
X133737287Y-110095908D01*
X133693145Y-110091561D01*
X133656604Y-110080476D01*
X133622929Y-110062477D01*
X133593408Y-110038249D01*
X133569180Y-110008728D01*
X133551181Y-109975053D01*
X133540096Y-109938512D01*
X133535749Y-109894370D01*
X133535749Y-108445446D01*
X133540096Y-108401304D01*
X133551181Y-108364763D01*
X133569180Y-108331088D01*
X133593408Y-108301567D01*
X133622929Y-108277339D01*
X133656604Y-108259340D01*
X133693145Y-108248255D01*
X133737287Y-108243908D01*
X134686211Y-108243908D01*
X134730353Y-108248255D01*
X134730353Y-108248255D01*
G37*
G36*
X155945353Y-108248255D02*
X155981894Y-108259340D01*
X156015569Y-108277339D01*
X156045090Y-108301567D01*
X156069318Y-108331088D01*
X156087317Y-108364763D01*
X156098402Y-108401304D01*
X156102749Y-108445446D01*
X156102749Y-109894370D01*
X156098402Y-109938512D01*
X156087317Y-109975053D01*
X156069318Y-110008728D01*
X156045090Y-110038249D01*
X156015569Y-110062477D01*
X155981894Y-110080476D01*
X155945353Y-110091561D01*
X155901211Y-110095908D01*
X154952287Y-110095908D01*
X154908145Y-110091561D01*
X154871604Y-110080476D01*
X154837929Y-110062477D01*
X154808408Y-110038249D01*
X154784180Y-110008728D01*
X154766181Y-109975053D01*
X154755096Y-109938512D01*
X154750749Y-109894370D01*
X154750749Y-108445446D01*
X154755096Y-108401304D01*
X154766181Y-108364763D01*
X154784180Y-108331088D01*
X154808408Y-108301567D01*
X154837929Y-108277339D01*
X154871604Y-108259340D01*
X154908145Y-108248255D01*
X154952287Y-108243908D01*
X155901211Y-108243908D01*
X155945353Y-108248255D01*
X155945353Y-108248255D01*
G37*
G36*
X153145353Y-108248255D02*
X153181894Y-108259340D01*
X153215569Y-108277339D01*
X153245090Y-108301567D01*
X153269318Y-108331088D01*
X153287317Y-108364763D01*
X153298402Y-108401304D01*
X153302749Y-108445446D01*
X153302749Y-109894370D01*
X153298402Y-109938512D01*
X153287317Y-109975053D01*
X153269318Y-110008728D01*
X153245090Y-110038249D01*
X153215569Y-110062477D01*
X153181894Y-110080476D01*
X153145353Y-110091561D01*
X153101211Y-110095908D01*
X152152287Y-110095908D01*
X152108145Y-110091561D01*
X152071604Y-110080476D01*
X152037929Y-110062477D01*
X152008408Y-110038249D01*
X151984180Y-110008728D01*
X151966181Y-109975053D01*
X151955096Y-109938512D01*
X151950749Y-109894370D01*
X151950749Y-108445446D01*
X151955096Y-108401304D01*
X151966181Y-108364763D01*
X151984180Y-108331088D01*
X152008408Y-108301567D01*
X152037929Y-108277339D01*
X152071604Y-108259340D01*
X152108145Y-108248255D01*
X152152287Y-108243908D01*
X153101211Y-108243908D01*
X153145353Y-108248255D01*
X153145353Y-108248255D01*
G37*
G36*
X137530353Y-108248255D02*
X137566894Y-108259340D01*
X137600569Y-108277339D01*
X137630090Y-108301567D01*
X137654318Y-108331088D01*
X137672317Y-108364763D01*
X137683402Y-108401304D01*
X137687749Y-108445446D01*
X137687749Y-109894370D01*
X137683402Y-109938512D01*
X137672317Y-109975053D01*
X137654318Y-110008728D01*
X137630090Y-110038249D01*
X137600569Y-110062477D01*
X137566894Y-110080476D01*
X137530353Y-110091561D01*
X137486211Y-110095908D01*
X136537287Y-110095908D01*
X136493145Y-110091561D01*
X136456604Y-110080476D01*
X136422929Y-110062477D01*
X136393408Y-110038249D01*
X136369180Y-110008728D01*
X136351181Y-109975053D01*
X136340096Y-109938512D01*
X136335749Y-109894370D01*
X136335749Y-108445446D01*
X136340096Y-108401304D01*
X136351181Y-108364763D01*
X136369180Y-108331088D01*
X136393408Y-108301567D01*
X136422929Y-108277339D01*
X136456604Y-108259340D01*
X136493145Y-108248255D01*
X136537287Y-108243908D01*
X137486211Y-108243908D01*
X137530353Y-108248255D01*
X137530353Y-108248255D01*
G37*
G36*
X115666626Y-104397037D02*
X115779852Y-104431384D01*
X115836466Y-104448557D01*
X115992989Y-104532221D01*
X116130186Y-104644814D01*
X116213448Y-104746271D01*
X116242778Y-104782009D01*
X116242779Y-104782011D01*
X116326443Y-104938533D01*
X116343616Y-104995147D01*
X116377963Y-105108373D01*
X116377963Y-105108375D01*
X116391000Y-105240740D01*
X116391000Y-105579259D01*
X116387236Y-105617477D01*
X116377963Y-105711626D01*
X116326443Y-105881466D01*
X116242778Y-106037991D01*
X116242777Y-106037992D01*
X116130186Y-106175186D01*
X116035251Y-106253096D01*
X115992991Y-106287778D01*
X115992989Y-106287779D01*
X115836467Y-106371443D01*
X115795734Y-106383799D01*
X115666627Y-106422963D01*
X115490000Y-106440359D01*
X115313374Y-106422963D01*
X115184267Y-106383799D01*
X115143534Y-106371443D01*
X114987012Y-106287779D01*
X114987010Y-106287778D01*
X114849816Y-106175186D01*
X114849812Y-106175183D01*
X114737222Y-106037992D01*
X114653557Y-105881467D01*
X114636384Y-105824853D01*
X114602037Y-105711627D01*
X114592764Y-105617477D01*
X114589000Y-105579260D01*
X114589000Y-105240741D01*
X114602037Y-105108376D01*
X114602037Y-105108374D01*
X114653557Y-104938535D01*
X114653557Y-104938534D01*
X114737221Y-104782011D01*
X114849814Y-104644814D01*
X114951271Y-104561552D01*
X114987009Y-104532222D01*
X115004913Y-104522652D01*
X115143533Y-104448557D01*
X115200147Y-104431384D01*
X115313373Y-104397037D01*
X115490000Y-104379641D01*
X115666626Y-104397037D01*
X115666626Y-104397037D01*
G37*
G36*
X118166626Y-104397037D02*
X118279852Y-104431384D01*
X118336466Y-104448557D01*
X118492989Y-104532221D01*
X118630186Y-104644814D01*
X118713448Y-104746271D01*
X118742778Y-104782009D01*
X118742779Y-104782011D01*
X118826443Y-104938533D01*
X118843616Y-104995147D01*
X118877963Y-105108373D01*
X118877963Y-105108375D01*
X118891000Y-105240740D01*
X118891000Y-105579259D01*
X118887236Y-105617477D01*
X118877963Y-105711626D01*
X118826443Y-105881466D01*
X118742778Y-106037991D01*
X118742777Y-106037992D01*
X118630186Y-106175186D01*
X118535251Y-106253096D01*
X118492991Y-106287778D01*
X118492989Y-106287779D01*
X118336467Y-106371443D01*
X118295734Y-106383799D01*
X118166627Y-106422963D01*
X117990000Y-106440359D01*
X117813374Y-106422963D01*
X117684267Y-106383799D01*
X117643534Y-106371443D01*
X117487012Y-106287779D01*
X117487010Y-106287778D01*
X117349816Y-106175186D01*
X117349812Y-106175183D01*
X117237222Y-106037992D01*
X117153557Y-105881467D01*
X117136384Y-105824853D01*
X117102037Y-105711627D01*
X117092764Y-105617477D01*
X117089000Y-105579260D01*
X117089000Y-105240741D01*
X117102037Y-105108376D01*
X117102037Y-105108374D01*
X117153557Y-104938535D01*
X117153557Y-104938534D01*
X117237221Y-104782011D01*
X117349814Y-104644814D01*
X117451271Y-104561552D01*
X117487009Y-104532222D01*
X117504913Y-104522652D01*
X117643533Y-104448557D01*
X117700147Y-104431384D01*
X117813373Y-104397037D01*
X117990000Y-104379641D01*
X118166626Y-104397037D01*
X118166626Y-104397037D01*
G37*
G36*
X113166626Y-104397037D02*
X113279852Y-104431384D01*
X113336466Y-104448557D01*
X113492989Y-104532221D01*
X113630186Y-104644814D01*
X113713448Y-104746271D01*
X113742778Y-104782009D01*
X113742779Y-104782011D01*
X113826443Y-104938533D01*
X113843616Y-104995147D01*
X113877963Y-105108373D01*
X113877963Y-105108375D01*
X113891000Y-105240740D01*
X113891000Y-105579259D01*
X113887236Y-105617477D01*
X113877963Y-105711626D01*
X113826443Y-105881466D01*
X113742778Y-106037991D01*
X113742777Y-106037992D01*
X113630186Y-106175186D01*
X113535251Y-106253096D01*
X113492991Y-106287778D01*
X113492989Y-106287779D01*
X113336467Y-106371443D01*
X113295734Y-106383799D01*
X113166627Y-106422963D01*
X112990000Y-106440359D01*
X112813374Y-106422963D01*
X112684267Y-106383799D01*
X112643534Y-106371443D01*
X112487012Y-106287779D01*
X112487010Y-106287778D01*
X112349816Y-106175186D01*
X112349812Y-106175183D01*
X112237222Y-106037992D01*
X112153557Y-105881467D01*
X112136384Y-105824853D01*
X112102037Y-105711627D01*
X112092764Y-105617477D01*
X112089000Y-105579260D01*
X112089000Y-105240741D01*
X112102037Y-105108376D01*
X112102037Y-105108374D01*
X112153557Y-104938535D01*
X112153557Y-104938534D01*
X112237221Y-104782011D01*
X112349814Y-104644814D01*
X112451271Y-104561552D01*
X112487009Y-104532222D01*
X112504913Y-104522652D01*
X112643533Y-104448557D01*
X112700147Y-104431384D01*
X112813373Y-104397037D01*
X112990000Y-104379641D01*
X113166626Y-104397037D01*
X113166626Y-104397037D01*
G37*
G36*
X111248600Y-104387989D02*
X111281649Y-104398014D01*
X111312106Y-104414294D01*
X111338799Y-104436201D01*
X111360706Y-104462894D01*
X111376986Y-104493351D01*
X111387011Y-104526400D01*
X111391000Y-104566904D01*
X111391000Y-106253096D01*
X111387011Y-106293600D01*
X111376986Y-106326649D01*
X111360706Y-106357106D01*
X111338799Y-106383799D01*
X111312106Y-106405706D01*
X111281649Y-106421986D01*
X111248600Y-106432011D01*
X111208096Y-106436000D01*
X109771904Y-106436000D01*
X109731400Y-106432011D01*
X109698351Y-106421986D01*
X109667894Y-106405706D01*
X109641201Y-106383799D01*
X109619294Y-106357106D01*
X109603014Y-106326649D01*
X109592989Y-106293600D01*
X109589000Y-106253096D01*
X109589000Y-104566904D01*
X109592989Y-104526400D01*
X109603014Y-104493351D01*
X109619294Y-104462894D01*
X109641201Y-104436201D01*
X109667894Y-104414294D01*
X109698351Y-104398014D01*
X109731400Y-104387989D01*
X109771904Y-104384000D01*
X111208096Y-104384000D01*
X111248600Y-104387989D01*
X111248600Y-104387989D01*
G37*
G36*
X137530353Y-103803255D02*
X137566894Y-103814340D01*
X137600569Y-103832339D01*
X137630090Y-103856567D01*
X137654318Y-103886088D01*
X137672317Y-103919763D01*
X137683402Y-103956304D01*
X137687749Y-104000446D01*
X137687749Y-105449370D01*
X137683402Y-105493512D01*
X137672317Y-105530053D01*
X137654318Y-105563728D01*
X137630090Y-105593249D01*
X137600569Y-105617477D01*
X137566894Y-105635476D01*
X137530353Y-105646561D01*
X137486211Y-105650908D01*
X136537287Y-105650908D01*
X136493145Y-105646561D01*
X136456604Y-105635476D01*
X136422929Y-105617477D01*
X136393408Y-105593249D01*
X136369180Y-105563728D01*
X136351181Y-105530053D01*
X136340096Y-105493512D01*
X136335749Y-105449370D01*
X136335749Y-104000446D01*
X136340096Y-103956304D01*
X136351181Y-103919763D01*
X136369180Y-103886088D01*
X136393408Y-103856567D01*
X136422929Y-103832339D01*
X136456604Y-103814340D01*
X136493145Y-103803255D01*
X136537287Y-103798908D01*
X137486211Y-103798908D01*
X137530353Y-103803255D01*
X137530353Y-103803255D01*
G37*
G36*
X134730353Y-103803255D02*
X134766894Y-103814340D01*
X134800569Y-103832339D01*
X134830090Y-103856567D01*
X134854318Y-103886088D01*
X134872317Y-103919763D01*
X134883402Y-103956304D01*
X134887749Y-104000446D01*
X134887749Y-105449370D01*
X134883402Y-105493512D01*
X134872317Y-105530053D01*
X134854318Y-105563728D01*
X134830090Y-105593249D01*
X134800569Y-105617477D01*
X134766894Y-105635476D01*
X134730353Y-105646561D01*
X134686211Y-105650908D01*
X133737287Y-105650908D01*
X133693145Y-105646561D01*
X133656604Y-105635476D01*
X133622929Y-105617477D01*
X133593408Y-105593249D01*
X133569180Y-105563728D01*
X133551181Y-105530053D01*
X133540096Y-105493512D01*
X133535749Y-105449370D01*
X133535749Y-104000446D01*
X133540096Y-103956304D01*
X133551181Y-103919763D01*
X133569180Y-103886088D01*
X133593408Y-103856567D01*
X133622929Y-103832339D01*
X133656604Y-103814340D01*
X133693145Y-103803255D01*
X133737287Y-103798908D01*
X134686211Y-103798908D01*
X134730353Y-103803255D01*
X134730353Y-103803255D01*
G37*
G36*
X153145353Y-103803255D02*
X153181894Y-103814340D01*
X153215569Y-103832339D01*
X153245090Y-103856567D01*
X153269318Y-103886088D01*
X153287317Y-103919763D01*
X153298402Y-103956304D01*
X153302749Y-104000446D01*
X153302749Y-105449370D01*
X153298402Y-105493512D01*
X153287317Y-105530053D01*
X153269318Y-105563728D01*
X153245090Y-105593249D01*
X153215569Y-105617477D01*
X153181894Y-105635476D01*
X153145353Y-105646561D01*
X153101211Y-105650908D01*
X152152287Y-105650908D01*
X152108145Y-105646561D01*
X152071604Y-105635476D01*
X152037929Y-105617477D01*
X152008408Y-105593249D01*
X151984180Y-105563728D01*
X151966181Y-105530053D01*
X151955096Y-105493512D01*
X151950749Y-105449370D01*
X151950749Y-104000446D01*
X151955096Y-103956304D01*
X151966181Y-103919763D01*
X151984180Y-103886088D01*
X152008408Y-103856567D01*
X152037929Y-103832339D01*
X152071604Y-103814340D01*
X152108145Y-103803255D01*
X152152287Y-103798908D01*
X153101211Y-103798908D01*
X153145353Y-103803255D01*
X153145353Y-103803255D01*
G37*
G36*
X155945353Y-103803255D02*
X155981894Y-103814340D01*
X156015569Y-103832339D01*
X156045090Y-103856567D01*
X156069318Y-103886088D01*
X156087317Y-103919763D01*
X156098402Y-103956304D01*
X156102749Y-104000446D01*
X156102749Y-105449370D01*
X156098402Y-105493512D01*
X156087317Y-105530053D01*
X156069318Y-105563728D01*
X156045090Y-105593249D01*
X156015569Y-105617477D01*
X155981894Y-105635476D01*
X155945353Y-105646561D01*
X155901211Y-105650908D01*
X154952287Y-105650908D01*
X154908145Y-105646561D01*
X154871604Y-105635476D01*
X154837929Y-105617477D01*
X154808408Y-105593249D01*
X154784180Y-105563728D01*
X154766181Y-105530053D01*
X154755096Y-105493512D01*
X154750749Y-105449370D01*
X154750749Y-104000446D01*
X154755096Y-103956304D01*
X154766181Y-103919763D01*
X154784180Y-103886088D01*
X154808408Y-103856567D01*
X154837929Y-103832339D01*
X154871604Y-103814340D01*
X154908145Y-103803255D01*
X154952287Y-103798908D01*
X155901211Y-103798908D01*
X155945353Y-103803255D01*
X155945353Y-103803255D01*
G37*
G36*
X127521000Y-105201000D02*
X126019000Y-105201000D01*
X126019000Y-103499000D01*
X127521000Y-103499000D01*
X127521000Y-105201000D01*
X127521000Y-105201000D01*
G37*
G36*
X163541000Y-105201000D02*
X162039000Y-105201000D01*
X162039000Y-103499000D01*
X163541000Y-103499000D01*
X163541000Y-105201000D01*
X163541000Y-105201000D01*
G37*
G36*
X130521000Y-105201000D02*
X129019000Y-105201000D01*
X129019000Y-103499000D01*
X130521000Y-103499000D01*
X130521000Y-105201000D01*
X130521000Y-105201000D01*
G37*
G36*
X160541000Y-105201000D02*
X159039000Y-105201000D01*
X159039000Y-103499000D01*
X160541000Y-103499000D01*
X160541000Y-105201000D01*
X160541000Y-105201000D01*
G37*
G36*
X166340000Y-100300000D02*
X165130000Y-100300000D01*
X165130000Y-99090000D01*
X166340000Y-99090000D01*
X166340000Y-100300000D01*
X166340000Y-100300000D01*
G37*
G36*
X163800000Y-100300000D02*
X162590000Y-100300000D01*
X162590000Y-99090000D01*
X163800000Y-99090000D01*
X163800000Y-100300000D01*
X163800000Y-100300000D01*
G37*
G36*
X138400000Y-100300000D02*
X137190000Y-100300000D01*
X137190000Y-99090000D01*
X138400000Y-99090000D01*
X138400000Y-100300000D01*
X138400000Y-100300000D01*
G37*
G36*
X140940000Y-100300000D02*
X139730000Y-100300000D01*
X139730000Y-99090000D01*
X140940000Y-99090000D01*
X140940000Y-100300000D01*
X140940000Y-100300000D01*
G37*
G36*
X151100000Y-100300000D02*
X149890000Y-100300000D01*
X149890000Y-99090000D01*
X151100000Y-99090000D01*
X151100000Y-100300000D01*
X151100000Y-100300000D01*
G37*
G36*
X143480000Y-100300000D02*
X142270000Y-100300000D01*
X142270000Y-99090000D01*
X143480000Y-99090000D01*
X143480000Y-100300000D01*
X143480000Y-100300000D01*
G37*
G36*
X148560000Y-100300000D02*
X147350000Y-100300000D01*
X147350000Y-99090000D01*
X148560000Y-99090000D01*
X148560000Y-100300000D01*
X148560000Y-100300000D01*
G37*
G36*
X156180000Y-100300000D02*
X154970000Y-100300000D01*
X154970000Y-99090000D01*
X156180000Y-99090000D01*
X156180000Y-100300000D01*
X156180000Y-100300000D01*
G37*
G36*
X158720000Y-100300000D02*
X157510000Y-100300000D01*
X157510000Y-99090000D01*
X158720000Y-99090000D01*
X158720000Y-100300000D01*
X158720000Y-100300000D01*
G37*
G36*
X153640000Y-100300000D02*
X152430000Y-100300000D01*
X152430000Y-99090000D01*
X153640000Y-99090000D01*
X153640000Y-100300000D01*
X153640000Y-100300000D01*
G37*
G36*
X161260000Y-100300000D02*
X160050000Y-100300000D01*
X160050000Y-99090000D01*
X161260000Y-99090000D01*
X161260000Y-100300000D01*
X161260000Y-100300000D01*
G37*
G36*
X146020000Y-100300000D02*
X144810000Y-100300000D01*
X144810000Y-99090000D01*
X146020000Y-99090000D01*
X146020000Y-100300000D01*
X146020000Y-100300000D01*
G37*
G36*
X146020000Y-77440000D02*
X144810000Y-77440000D01*
X144810000Y-76230000D01*
X146020000Y-76230000D01*
X146020000Y-77440000D01*
X146020000Y-77440000D01*
G37*
G36*
X161260000Y-77440000D02*
X160050000Y-77440000D01*
X160050000Y-76230000D01*
X161260000Y-76230000D01*
X161260000Y-77440000D01*
X161260000Y-77440000D01*
G37*
G36*
X156180000Y-77440000D02*
X154970000Y-77440000D01*
X154970000Y-76230000D01*
X156180000Y-76230000D01*
X156180000Y-77440000D01*
X156180000Y-77440000D01*
G37*
G36*
X153640000Y-77440000D02*
X152430000Y-77440000D01*
X152430000Y-76230000D01*
X153640000Y-76230000D01*
X153640000Y-77440000D01*
X153640000Y-77440000D01*
G37*
G36*
X151100000Y-77440000D02*
X149890000Y-77440000D01*
X149890000Y-76230000D01*
X151100000Y-76230000D01*
X151100000Y-77440000D01*
X151100000Y-77440000D01*
G37*
G36*
X148560000Y-77440000D02*
X147350000Y-77440000D01*
X147350000Y-76230000D01*
X148560000Y-76230000D01*
X148560000Y-77440000D01*
X148560000Y-77440000D01*
G37*
G36*
X143480000Y-77440000D02*
X142270000Y-77440000D01*
X142270000Y-76230000D01*
X143480000Y-76230000D01*
X143480000Y-77440000D01*
X143480000Y-77440000D01*
G37*
G36*
X140940000Y-77440000D02*
X139730000Y-77440000D01*
X139730000Y-76230000D01*
X140940000Y-76230000D01*
X140940000Y-77440000D01*
X140940000Y-77440000D01*
G37*
G36*
X138400000Y-77440000D02*
X137190000Y-77440000D01*
X137190000Y-76230000D01*
X138400000Y-76230000D01*
X138400000Y-77440000D01*
X138400000Y-77440000D01*
G37*
G36*
X166340000Y-77440000D02*
X165130000Y-77440000D01*
X165130000Y-76230000D01*
X166340000Y-76230000D01*
X166340000Y-77440000D01*
X166340000Y-77440000D01*
G37*
G36*
X158720000Y-77440000D02*
X157510000Y-77440000D01*
X157510000Y-76230000D01*
X158720000Y-76230000D01*
X158720000Y-77440000D01*
X158720000Y-77440000D01*
G37*
G36*
X163800000Y-77440000D02*
X162590000Y-77440000D01*
X162590000Y-76230000D01*
X163800000Y-76230000D01*
X163800000Y-77440000D01*
X163800000Y-77440000D01*
G37*
G36*
X172931190Y-68330483D02*
X173459138Y-68549166D01*
X173934283Y-68866648D01*
X174338352Y-69270717D01*
X174655834Y-69745862D01*
X174874517Y-70273810D01*
X174986000Y-70834275D01*
X174986000Y-71405725D01*
X174874517Y-71966190D01*
X174655834Y-72494138D01*
X174338352Y-72969283D01*
X173934283Y-73373352D01*
X173459138Y-73690834D01*
X172931190Y-73909517D01*
X172370725Y-74021000D01*
X171799275Y-74021000D01*
X171238810Y-73909517D01*
X170710862Y-73690834D01*
X170235717Y-73373352D01*
X169831648Y-72969283D01*
X169514166Y-72494138D01*
X169295483Y-71966190D01*
X169184000Y-71405725D01*
X169184000Y-70834275D01*
X169295483Y-70273810D01*
X169514166Y-69745862D01*
X169831648Y-69270717D01*
X170235717Y-68866648D01*
X170710862Y-68549166D01*
X171238810Y-68330483D01*
X171799275Y-68219000D01*
X172370725Y-68219000D01*
X172931190Y-68330483D01*
X172931190Y-68330483D01*
G37*
G36*
X111336190Y-68330483D02*
X111864138Y-68549166D01*
X112339283Y-68866648D01*
X112743352Y-69270717D01*
X113060834Y-69745862D01*
X113279517Y-70273810D01*
X113391000Y-70834275D01*
X113391000Y-71405725D01*
X113279517Y-71966190D01*
X113060834Y-72494138D01*
X112743352Y-72969283D01*
X112339283Y-73373352D01*
X111864138Y-73690834D01*
X111336190Y-73909517D01*
X110775725Y-74021000D01*
X110204275Y-74021000D01*
X109643810Y-73909517D01*
X109115862Y-73690834D01*
X108640717Y-73373352D01*
X108236648Y-72969283D01*
X107919166Y-72494138D01*
X107700483Y-71966190D01*
X107589000Y-71405725D01*
X107589000Y-70834275D01*
X107700483Y-70273810D01*
X107919166Y-69745862D01*
X108236648Y-69270717D01*
X108640717Y-68866648D01*
X109115862Y-68549166D01*
X109643810Y-68330483D01*
X110204275Y-68219000D01*
X110775725Y-68219000D01*
X111336190Y-68330483D01*
X111336190Y-68330483D01*
G37*
G36*
X141358604Y-69563347D02*
X141395145Y-69574432D01*
X141428820Y-69592431D01*
X141458341Y-69616659D01*
X141482569Y-69646180D01*
X141500568Y-69679855D01*
X141511653Y-69716396D01*
X141516000Y-69760538D01*
X141516000Y-71209462D01*
X141511653Y-71253604D01*
X141500568Y-71290145D01*
X141482569Y-71323820D01*
X141458341Y-71353341D01*
X141428820Y-71377569D01*
X141395145Y-71395568D01*
X141358604Y-71406653D01*
X141314462Y-71411000D01*
X140365538Y-71411000D01*
X140321396Y-71406653D01*
X140284855Y-71395568D01*
X140251180Y-71377569D01*
X140221659Y-71353341D01*
X140197431Y-71323820D01*
X140179432Y-71290145D01*
X140168347Y-71253604D01*
X140164000Y-71209462D01*
X140164000Y-69760538D01*
X140168347Y-69716396D01*
X140179432Y-69679855D01*
X140197431Y-69646180D01*
X140221659Y-69616659D01*
X140251180Y-69592431D01*
X140284855Y-69574432D01*
X140321396Y-69563347D01*
X140365538Y-69559000D01*
X141314462Y-69559000D01*
X141358604Y-69563347D01*
X141358604Y-69563347D01*
G37*
G36*
X144158604Y-69563347D02*
X144195145Y-69574432D01*
X144228820Y-69592431D01*
X144258341Y-69616659D01*
X144282569Y-69646180D01*
X144300568Y-69679855D01*
X144311653Y-69716396D01*
X144316000Y-69760538D01*
X144316000Y-71209462D01*
X144311653Y-71253604D01*
X144300568Y-71290145D01*
X144282569Y-71323820D01*
X144258341Y-71353341D01*
X144228820Y-71377569D01*
X144195145Y-71395568D01*
X144158604Y-71406653D01*
X144114462Y-71411000D01*
X143165538Y-71411000D01*
X143121396Y-71406653D01*
X143084855Y-71395568D01*
X143051180Y-71377569D01*
X143021659Y-71353341D01*
X142997431Y-71323820D01*
X142979432Y-71290145D01*
X142968347Y-71253604D01*
X142964000Y-71209462D01*
X142964000Y-69760538D01*
X142968347Y-69716396D01*
X142979432Y-69679855D01*
X142997431Y-69646180D01*
X143021659Y-69616659D01*
X143051180Y-69592431D01*
X143084855Y-69574432D01*
X143121396Y-69563347D01*
X143165538Y-69559000D01*
X144114462Y-69559000D01*
X144158604Y-69563347D01*
X144158604Y-69563347D01*
G37*
G36*
X151778604Y-69563347D02*
X151815145Y-69574432D01*
X151848820Y-69592431D01*
X151878341Y-69616659D01*
X151902569Y-69646180D01*
X151920568Y-69679855D01*
X151931653Y-69716396D01*
X151936000Y-69760538D01*
X151936000Y-71209462D01*
X151931653Y-71253604D01*
X151920568Y-71290145D01*
X151902569Y-71323820D01*
X151878341Y-71353341D01*
X151848820Y-71377569D01*
X151815145Y-71395568D01*
X151778604Y-71406653D01*
X151734462Y-71411000D01*
X150785538Y-71411000D01*
X150741396Y-71406653D01*
X150704855Y-71395568D01*
X150671180Y-71377569D01*
X150641659Y-71353341D01*
X150617431Y-71323820D01*
X150599432Y-71290145D01*
X150588347Y-71253604D01*
X150584000Y-71209462D01*
X150584000Y-69760538D01*
X150588347Y-69716396D01*
X150599432Y-69679855D01*
X150617431Y-69646180D01*
X150641659Y-69616659D01*
X150671180Y-69592431D01*
X150704855Y-69574432D01*
X150741396Y-69563347D01*
X150785538Y-69559000D01*
X151734462Y-69559000D01*
X151778604Y-69563347D01*
X151778604Y-69563347D01*
G37*
G36*
X148978604Y-69563347D02*
X149015145Y-69574432D01*
X149048820Y-69592431D01*
X149078341Y-69616659D01*
X149102569Y-69646180D01*
X149120568Y-69679855D01*
X149131653Y-69716396D01*
X149136000Y-69760538D01*
X149136000Y-71209462D01*
X149131653Y-71253604D01*
X149120568Y-71290145D01*
X149102569Y-71323820D01*
X149078341Y-71353341D01*
X149048820Y-71377569D01*
X149015145Y-71395568D01*
X148978604Y-71406653D01*
X148934462Y-71411000D01*
X147985538Y-71411000D01*
X147941396Y-71406653D01*
X147904855Y-71395568D01*
X147871180Y-71377569D01*
X147841659Y-71353341D01*
X147817431Y-71323820D01*
X147799432Y-71290145D01*
X147788347Y-71253604D01*
X147784000Y-71209462D01*
X147784000Y-69760538D01*
X147788347Y-69716396D01*
X147799432Y-69679855D01*
X147817431Y-69646180D01*
X147841659Y-69616659D01*
X147871180Y-69592431D01*
X147904855Y-69574432D01*
X147941396Y-69563347D01*
X147985538Y-69559000D01*
X148934462Y-69559000D01*
X148978604Y-69563347D01*
X148978604Y-69563347D01*
G37*
M02*
