G04 #@! TF.GenerationSoftware,KiCad,Pcbnew,5.0.2+dfsg1-1*
G04 #@! TF.CreationDate,2020-04-26T19:31:52+02:00*
G04 #@! TF.ProjectId,iClone,69436c6f-6e65-42e6-9b69-6361645f7063,rev?*
G04 #@! TF.SameCoordinates,Original*
G04 #@! TF.FileFunction,Soldermask,Bot*
G04 #@! TF.FilePolarity,Negative*
%FSLAX46Y46*%
G04 Gerber Fmt 4.6, Leading zero omitted, Abs format (unit mm)*
G04 Created by KiCad (PCBNEW 5.0.2+dfsg1-1) date dom 26 abr 2020 19:31:52 CEST*
%MOMM*%
%LPD*%
G01*
G04 APERTURE LIST*
%ADD10C,0.100000*%
G04 APERTURE END LIST*
D10*
G36*
X172931190Y-108970483D02*
X173459138Y-109189166D01*
X173934283Y-109506648D01*
X174338352Y-109910717D01*
X174655834Y-110385862D01*
X174874517Y-110913810D01*
X174986000Y-111474275D01*
X174986000Y-112045725D01*
X174874517Y-112606190D01*
X174655834Y-113134138D01*
X174338352Y-113609283D01*
X173934283Y-114013352D01*
X173459138Y-114330834D01*
X172931190Y-114549517D01*
X172370725Y-114661000D01*
X171799275Y-114661000D01*
X171238810Y-114549517D01*
X170710862Y-114330834D01*
X170235717Y-114013352D01*
X169831648Y-113609283D01*
X169514166Y-113134138D01*
X169295483Y-112606190D01*
X169184000Y-112045725D01*
X169184000Y-111474275D01*
X169295483Y-110913810D01*
X169514166Y-110385862D01*
X169831648Y-109910717D01*
X170235717Y-109506648D01*
X170710862Y-109189166D01*
X171238810Y-108970483D01*
X171799275Y-108859000D01*
X172370725Y-108859000D01*
X172931190Y-108970483D01*
X172931190Y-108970483D01*
G37*
G36*
X111336190Y-108970483D02*
X111864138Y-109189166D01*
X112339283Y-109506648D01*
X112743352Y-109910717D01*
X113060834Y-110385862D01*
X113279517Y-110913810D01*
X113391000Y-111474275D01*
X113391000Y-112045725D01*
X113279517Y-112606190D01*
X113060834Y-113134138D01*
X112743352Y-113609283D01*
X112339283Y-114013352D01*
X111864138Y-114330834D01*
X111336190Y-114549517D01*
X110775725Y-114661000D01*
X110204275Y-114661000D01*
X109643810Y-114549517D01*
X109115862Y-114330834D01*
X108640717Y-114013352D01*
X108236648Y-113609283D01*
X107919166Y-113134138D01*
X107700483Y-112606190D01*
X107589000Y-112045725D01*
X107589000Y-111474275D01*
X107700483Y-110913810D01*
X107919166Y-110385862D01*
X108236648Y-109910717D01*
X108640717Y-109506648D01*
X109115862Y-109189166D01*
X109643810Y-108970483D01*
X110204275Y-108859000D01*
X110775725Y-108859000D01*
X111336190Y-108970483D01*
X111336190Y-108970483D01*
G37*
G36*
X118166626Y-104397037D02*
X118279852Y-104431384D01*
X118336466Y-104448557D01*
X118492989Y-104532221D01*
X118630186Y-104644814D01*
X118713448Y-104746271D01*
X118742778Y-104782009D01*
X118742779Y-104782011D01*
X118826443Y-104938533D01*
X118843616Y-104995147D01*
X118877963Y-105108373D01*
X118891000Y-105240742D01*
X118891000Y-105579257D01*
X118877963Y-105711626D01*
X118826443Y-105881466D01*
X118742778Y-106037991D01*
X118742777Y-106037992D01*
X118630186Y-106175186D01*
X118535251Y-106253096D01*
X118492991Y-106287778D01*
X118492989Y-106287779D01*
X118336467Y-106371443D01*
X118295734Y-106383799D01*
X118166627Y-106422963D01*
X117990000Y-106440359D01*
X117813374Y-106422963D01*
X117684267Y-106383799D01*
X117643534Y-106371443D01*
X117487012Y-106287779D01*
X117487010Y-106287778D01*
X117349816Y-106175186D01*
X117349812Y-106175183D01*
X117237222Y-106037992D01*
X117153557Y-105881467D01*
X117136384Y-105824853D01*
X117102037Y-105711627D01*
X117089000Y-105579258D01*
X117089000Y-105240743D01*
X117102037Y-105108374D01*
X117153557Y-104938535D01*
X117153557Y-104938534D01*
X117237221Y-104782011D01*
X117349814Y-104644814D01*
X117451271Y-104561552D01*
X117487009Y-104532222D01*
X117504913Y-104522652D01*
X117643533Y-104448557D01*
X117700147Y-104431384D01*
X117813373Y-104397037D01*
X117990000Y-104379641D01*
X118166626Y-104397037D01*
X118166626Y-104397037D01*
G37*
G36*
X113166626Y-104397037D02*
X113279852Y-104431384D01*
X113336466Y-104448557D01*
X113492989Y-104532221D01*
X113630186Y-104644814D01*
X113713448Y-104746271D01*
X113742778Y-104782009D01*
X113742779Y-104782011D01*
X113826443Y-104938533D01*
X113843616Y-104995147D01*
X113877963Y-105108373D01*
X113891000Y-105240742D01*
X113891000Y-105579257D01*
X113877963Y-105711626D01*
X113826443Y-105881466D01*
X113742778Y-106037991D01*
X113742777Y-106037992D01*
X113630186Y-106175186D01*
X113535251Y-106253096D01*
X113492991Y-106287778D01*
X113492989Y-106287779D01*
X113336467Y-106371443D01*
X113295734Y-106383799D01*
X113166627Y-106422963D01*
X112990000Y-106440359D01*
X112813374Y-106422963D01*
X112684267Y-106383799D01*
X112643534Y-106371443D01*
X112487012Y-106287779D01*
X112487010Y-106287778D01*
X112349816Y-106175186D01*
X112349812Y-106175183D01*
X112237222Y-106037992D01*
X112153557Y-105881467D01*
X112136384Y-105824853D01*
X112102037Y-105711627D01*
X112089000Y-105579258D01*
X112089000Y-105240743D01*
X112102037Y-105108374D01*
X112153557Y-104938535D01*
X112153557Y-104938534D01*
X112237221Y-104782011D01*
X112349814Y-104644814D01*
X112451271Y-104561552D01*
X112487009Y-104532222D01*
X112504913Y-104522652D01*
X112643533Y-104448557D01*
X112700147Y-104431384D01*
X112813373Y-104397037D01*
X112990000Y-104379641D01*
X113166626Y-104397037D01*
X113166626Y-104397037D01*
G37*
G36*
X115666626Y-104397037D02*
X115779852Y-104431384D01*
X115836466Y-104448557D01*
X115992989Y-104532221D01*
X116130186Y-104644814D01*
X116213448Y-104746271D01*
X116242778Y-104782009D01*
X116242779Y-104782011D01*
X116326443Y-104938533D01*
X116343616Y-104995147D01*
X116377963Y-105108373D01*
X116391000Y-105240742D01*
X116391000Y-105579257D01*
X116377963Y-105711626D01*
X116326443Y-105881466D01*
X116242778Y-106037991D01*
X116242777Y-106037992D01*
X116130186Y-106175186D01*
X116035251Y-106253096D01*
X115992991Y-106287778D01*
X115992989Y-106287779D01*
X115836467Y-106371443D01*
X115795734Y-106383799D01*
X115666627Y-106422963D01*
X115490000Y-106440359D01*
X115313374Y-106422963D01*
X115184267Y-106383799D01*
X115143534Y-106371443D01*
X114987012Y-106287779D01*
X114987010Y-106287778D01*
X114849816Y-106175186D01*
X114849812Y-106175183D01*
X114737222Y-106037992D01*
X114653557Y-105881467D01*
X114636384Y-105824853D01*
X114602037Y-105711627D01*
X114589000Y-105579258D01*
X114589000Y-105240743D01*
X114602037Y-105108374D01*
X114653557Y-104938535D01*
X114653557Y-104938534D01*
X114737221Y-104782011D01*
X114849814Y-104644814D01*
X114951271Y-104561552D01*
X114987009Y-104532222D01*
X115004913Y-104522652D01*
X115143533Y-104448557D01*
X115200147Y-104431384D01*
X115313373Y-104397037D01*
X115490000Y-104379641D01*
X115666626Y-104397037D01*
X115666626Y-104397037D01*
G37*
G36*
X111248600Y-104387989D02*
X111281649Y-104398014D01*
X111312106Y-104414294D01*
X111338799Y-104436201D01*
X111360706Y-104462894D01*
X111376986Y-104493351D01*
X111387011Y-104526400D01*
X111391000Y-104566904D01*
X111391000Y-106253096D01*
X111387011Y-106293600D01*
X111376986Y-106326649D01*
X111360706Y-106357106D01*
X111338799Y-106383799D01*
X111312106Y-106405706D01*
X111281649Y-106421986D01*
X111248600Y-106432011D01*
X111208096Y-106436000D01*
X109771904Y-106436000D01*
X109731400Y-106432011D01*
X109698351Y-106421986D01*
X109667894Y-106405706D01*
X109641201Y-106383799D01*
X109619294Y-106357106D01*
X109603014Y-106326649D01*
X109592989Y-106293600D01*
X109589000Y-106253096D01*
X109589000Y-104566904D01*
X109592989Y-104526400D01*
X109603014Y-104493351D01*
X109619294Y-104462894D01*
X109641201Y-104436201D01*
X109667894Y-104414294D01*
X109698351Y-104398014D01*
X109731400Y-104387989D01*
X109771904Y-104384000D01*
X111208096Y-104384000D01*
X111248600Y-104387989D01*
X111248600Y-104387989D01*
G37*
G36*
X140940000Y-100300000D02*
X139730000Y-100300000D01*
X139730000Y-99090000D01*
X140940000Y-99090000D01*
X140940000Y-100300000D01*
X140940000Y-100300000D01*
G37*
G36*
X138400000Y-100300000D02*
X137190000Y-100300000D01*
X137190000Y-99090000D01*
X138400000Y-99090000D01*
X138400000Y-100300000D01*
X138400000Y-100300000D01*
G37*
G36*
X143480000Y-100300000D02*
X142270000Y-100300000D01*
X142270000Y-99090000D01*
X143480000Y-99090000D01*
X143480000Y-100300000D01*
X143480000Y-100300000D01*
G37*
G36*
X146020000Y-100300000D02*
X144810000Y-100300000D01*
X144810000Y-99090000D01*
X146020000Y-99090000D01*
X146020000Y-100300000D01*
X146020000Y-100300000D01*
G37*
G36*
X148560000Y-100300000D02*
X147350000Y-100300000D01*
X147350000Y-99090000D01*
X148560000Y-99090000D01*
X148560000Y-100300000D01*
X148560000Y-100300000D01*
G37*
G36*
X151100000Y-100300000D02*
X149890000Y-100300000D01*
X149890000Y-99090000D01*
X151100000Y-99090000D01*
X151100000Y-100300000D01*
X151100000Y-100300000D01*
G37*
G36*
X158720000Y-100300000D02*
X157510000Y-100300000D01*
X157510000Y-99090000D01*
X158720000Y-99090000D01*
X158720000Y-100300000D01*
X158720000Y-100300000D01*
G37*
G36*
X166340000Y-100300000D02*
X165130000Y-100300000D01*
X165130000Y-99090000D01*
X166340000Y-99090000D01*
X166340000Y-100300000D01*
X166340000Y-100300000D01*
G37*
G36*
X163800000Y-100300000D02*
X162590000Y-100300000D01*
X162590000Y-99090000D01*
X163800000Y-99090000D01*
X163800000Y-100300000D01*
X163800000Y-100300000D01*
G37*
G36*
X156180000Y-100300000D02*
X154970000Y-100300000D01*
X154970000Y-99090000D01*
X156180000Y-99090000D01*
X156180000Y-100300000D01*
X156180000Y-100300000D01*
G37*
G36*
X161260000Y-100300000D02*
X160050000Y-100300000D01*
X160050000Y-99090000D01*
X161260000Y-99090000D01*
X161260000Y-100300000D01*
X161260000Y-100300000D01*
G37*
G36*
X153640000Y-100300000D02*
X152430000Y-100300000D01*
X152430000Y-99090000D01*
X153640000Y-99090000D01*
X153640000Y-100300000D01*
X153640000Y-100300000D01*
G37*
G36*
X148560000Y-77440000D02*
X147350000Y-77440000D01*
X147350000Y-76230000D01*
X148560000Y-76230000D01*
X148560000Y-77440000D01*
X148560000Y-77440000D01*
G37*
G36*
X166340000Y-77440000D02*
X165130000Y-77440000D01*
X165130000Y-76230000D01*
X166340000Y-76230000D01*
X166340000Y-77440000D01*
X166340000Y-77440000D01*
G37*
G36*
X163800000Y-77440000D02*
X162590000Y-77440000D01*
X162590000Y-76230000D01*
X163800000Y-76230000D01*
X163800000Y-77440000D01*
X163800000Y-77440000D01*
G37*
G36*
X161260000Y-77440000D02*
X160050000Y-77440000D01*
X160050000Y-76230000D01*
X161260000Y-76230000D01*
X161260000Y-77440000D01*
X161260000Y-77440000D01*
G37*
G36*
X158720000Y-77440000D02*
X157510000Y-77440000D01*
X157510000Y-76230000D01*
X158720000Y-76230000D01*
X158720000Y-77440000D01*
X158720000Y-77440000D01*
G37*
G36*
X156180000Y-77440000D02*
X154970000Y-77440000D01*
X154970000Y-76230000D01*
X156180000Y-76230000D01*
X156180000Y-77440000D01*
X156180000Y-77440000D01*
G37*
G36*
X153640000Y-77440000D02*
X152430000Y-77440000D01*
X152430000Y-76230000D01*
X153640000Y-76230000D01*
X153640000Y-77440000D01*
X153640000Y-77440000D01*
G37*
G36*
X151100000Y-77440000D02*
X149890000Y-77440000D01*
X149890000Y-76230000D01*
X151100000Y-76230000D01*
X151100000Y-77440000D01*
X151100000Y-77440000D01*
G37*
G36*
X146020000Y-77440000D02*
X144810000Y-77440000D01*
X144810000Y-76230000D01*
X146020000Y-76230000D01*
X146020000Y-77440000D01*
X146020000Y-77440000D01*
G37*
G36*
X143480000Y-77440000D02*
X142270000Y-77440000D01*
X142270000Y-76230000D01*
X143480000Y-76230000D01*
X143480000Y-77440000D01*
X143480000Y-77440000D01*
G37*
G36*
X138400000Y-77440000D02*
X137190000Y-77440000D01*
X137190000Y-76230000D01*
X138400000Y-76230000D01*
X138400000Y-77440000D01*
X138400000Y-77440000D01*
G37*
G36*
X140940000Y-77440000D02*
X139730000Y-77440000D01*
X139730000Y-76230000D01*
X140940000Y-76230000D01*
X140940000Y-77440000D01*
X140940000Y-77440000D01*
G37*
G36*
X111336190Y-68330483D02*
X111864138Y-68549166D01*
X112339283Y-68866648D01*
X112743352Y-69270717D01*
X113060834Y-69745862D01*
X113279517Y-70273810D01*
X113391000Y-70834275D01*
X113391000Y-71405725D01*
X113279517Y-71966190D01*
X113060834Y-72494138D01*
X112743352Y-72969283D01*
X112339283Y-73373352D01*
X111864138Y-73690834D01*
X111336190Y-73909517D01*
X110775725Y-74021000D01*
X110204275Y-74021000D01*
X109643810Y-73909517D01*
X109115862Y-73690834D01*
X108640717Y-73373352D01*
X108236648Y-72969283D01*
X107919166Y-72494138D01*
X107700483Y-71966190D01*
X107589000Y-71405725D01*
X107589000Y-70834275D01*
X107700483Y-70273810D01*
X107919166Y-69745862D01*
X108236648Y-69270717D01*
X108640717Y-68866648D01*
X109115862Y-68549166D01*
X109643810Y-68330483D01*
X110204275Y-68219000D01*
X110775725Y-68219000D01*
X111336190Y-68330483D01*
X111336190Y-68330483D01*
G37*
G36*
X172931190Y-68330483D02*
X173459138Y-68549166D01*
X173934283Y-68866648D01*
X174338352Y-69270717D01*
X174655834Y-69745862D01*
X174874517Y-70273810D01*
X174986000Y-70834275D01*
X174986000Y-71405725D01*
X174874517Y-71966190D01*
X174655834Y-72494138D01*
X174338352Y-72969283D01*
X173934283Y-73373352D01*
X173459138Y-73690834D01*
X172931190Y-73909517D01*
X172370725Y-74021000D01*
X171799275Y-74021000D01*
X171238810Y-73909517D01*
X170710862Y-73690834D01*
X170235717Y-73373352D01*
X169831648Y-72969283D01*
X169514166Y-72494138D01*
X169295483Y-71966190D01*
X169184000Y-71405725D01*
X169184000Y-70834275D01*
X169295483Y-70273810D01*
X169514166Y-69745862D01*
X169831648Y-69270717D01*
X170235717Y-68866648D01*
X170710862Y-68549166D01*
X171238810Y-68330483D01*
X171799275Y-68219000D01*
X172370725Y-68219000D01*
X172931190Y-68330483D01*
X172931190Y-68330483D01*
G37*
M02*
